<svg width="76" height="76" viewBox="0 0 76 76" fill="none" xmlns="http://www.w3.org/2000/svg">
<path d="M66.7948 17.5472L61.2427 19.8806C59.6787 17.9594 57.7385 15.9636 55.7075 14.4584L57.9352 8.8757C58.2888 7.99134 58.2754 7.00525 57.8978 6.13057C57.5202 5.2559 56.8088 4.56291 55.9174 4.20141L48.183 1.1163C47.293 0.764467 46.298 0.774335 45.4154 1.14375C44.5328 1.51316 43.8342 2.21209 43.4723 3.08786L41.1161 8.64442C38.5282 8.3751 35.9168 8.4133 33.3381 8.75819L30.9724 3.28184C30.1933 1.47629 28.4554 1.00438 26.623 1.77286L18.9585 4.99227C17.128 5.76261 15.6907 7.5663 16.4718 9.37372L18.8356 14.8501C16.8891 16.4061 15.1477 18.1963 13.6522 20.1791L8.15676 17.9184C7.72052 17.7432 7.25343 17.6549 6.78242 17.6586C6.31141 17.6623 5.84581 17.7579 5.41246 17.94C4.97911 18.1221 4.5866 18.387 4.25755 18.7194C3.92851 19.0518 3.66945 19.4452 3.49531 19.8769L0.403406 27.4834C0.0500195 28.3624 0.0636489 29.3437 0.441356 30.2129C0.819063 31.082 1.53014 31.7685 2.41926 32.1222L8.07735 34.465C7.77478 36.9532 7.88824 39.7119 8.21161 42.1554L2.65943 44.4888C0.828882 45.2573 -0.540255 47.2867 0.240754 49.0978L3.50473 56.6558C4.28385 58.4632 7.00512 59.56 8.83567 58.7896L14.3878 56.4562C15.9627 58.3686 17.7739 60.0792 19.7792 61.5483L17.4816 66.9668C17.3037 67.3963 17.2139 67.8563 17.2174 68.3203C17.2208 68.7842 17.3175 69.2429 17.5018 69.6697C17.6861 70.0966 17.9544 70.4832 18.2911 70.8072C18.6278 71.1311 19.0262 71.386 19.4634 71.5572L27.179 74.6013C28.0688 74.9493 29.062 74.9366 29.9424 74.5659C30.8229 74.1953 31.5192 73.4968 31.8801 72.6222L33.9433 67.172C36.4285 67.4798 38.9429 67.4798 41.4281 67.172L43.7919 72.6484C44.5729 74.4558 47.2772 75.588 49.1096 74.8176L56.7722 71.5982C58.6046 70.8298 59.0717 68.3639 58.2851 66.5621L55.9193 61.0857C57.8671 59.5432 59.8641 57.6387 61.3921 55.6355L67.0425 57.8383C67.9374 58.1853 68.9348 58.1712 69.8192 57.7992C70.7037 57.4272 71.4045 56.7271 71.7702 55.85L74.9113 48.2081C75.2679 47.33 75.2576 46.3484 74.8827 45.4778C74.5078 44.6072 73.7987 43.9183 72.9105 43.5618L67.4056 41.5454C67.7233 39.1011 67.729 36.6272 67.4226 34.1814L72.9748 31.8499C74.8073 31.0796 75.0644 28.7312 74.2853 26.9257L71.0213 19.3658C70.2365 17.5603 68.6273 16.7787 66.7948 17.5472ZM44.3309 53.2592C41.2392 54.5583 37.8263 54.9239 34.5239 54.3098C31.2215 53.6957 28.1778 52.1295 25.7778 49.8092C23.3779 47.489 21.7294 44.5188 21.0409 41.2744C20.3523 38.03 20.6547 34.6571 21.9097 31.5822C23.1646 28.5073 25.3159 25.8685 28.0914 23.9995C30.8668 22.1306 34.1419 21.1154 37.5023 21.0824C40.8627 21.0493 44.1576 21.9999 46.9703 23.8139C49.7829 25.628 51.9871 28.2239 53.304 31.2735C54.1785 33.2983 54.6402 35.4731 54.6626 37.6738C54.6849 39.8745 54.2676 42.058 53.4343 44.0996C52.6011 46.1412 51.3683 48.0009 49.8063 49.5725C48.2443 51.1441 46.3838 52.3968 44.3309 53.2592Z" fill="#1766BE"/>
</svg>
