<svg width="55" height="55" viewBox="0 0 55 55" fill="none" xmlns="http://www.w3.org/2000/svg">
<path d="M28.3728 53.0352L29.148 48.8711C30.9404 48.7274 32.7093 48.3645 34.4165 47.7903L36.8053 51.2995C37.1834 51.8555 37.7611 52.2376 38.4137 52.3634C39.0663 52.4891 39.7413 52.3483 40.2927 51.9715L45.0462 48.6856C45.5923 48.3061 45.9684 47.7218 46.0924 47.0606C46.2165 46.3994 46.0783 45.7151 45.7081 45.1574L43.3824 41.582C44.5321 40.1808 45.5115 38.6435 46.2992 37.0033L50.389 37.7907C51.7368 38.0519 52.6774 37.2229 52.9321 35.8525L54.0011 30.1098C54.2557 28.7375 53.7594 27.1854 52.4116 26.9261L48.3218 26.1368C48.1609 24.3858 47.7862 22.662 47.2064 21.0054L50.6307 18.6924C50.8996 18.5073 51.1299 18.2698 51.3084 17.9936C51.4868 17.7174 51.6097 17.408 51.6702 17.0833C51.7307 16.7585 51.7275 16.4247 51.6607 16.1012C51.594 15.7777 51.4651 15.4709 51.2814 15.1983L48.0448 10.3869C47.6697 9.83293 47.0946 9.45257 46.445 9.32881C45.7955 9.20505 45.1242 9.34793 44.5778 9.72628L41.0457 12.0979C39.6614 10.9299 38.1448 9.9348 36.5283 9.13383L37.3035 4.96969C37.5582 3.59742 36.9019 1.99423 35.5541 1.73492L29.9139 0.64656C28.5662 0.385355 26.8875 1.53806 26.6309 2.91791L25.8576 7.08205C24.1446 7.24637 22.4584 7.62788 20.8383 8.21772L18.574 4.73121C18.3925 4.45771 18.1596 4.22351 17.8888 4.04211C17.618 3.8607 17.3146 3.73569 16.9961 3.67428C16.6776 3.61287 16.3503 3.61628 16.033 3.6843C15.7158 3.75233 15.415 3.88362 15.1478 4.07062L10.4223 7.36597C9.87851 7.74819 9.5053 8.33388 9.3841 8.99522C9.2629 9.65656 9.40355 10.3399 9.77532 10.896L12.1493 14.2557C11.0184 15.5834 10.0548 17.0497 9.28085 18.6205L5.19103 17.8312C3.84325 17.5719 2.1497 18.7019 1.89316 20.0723L0.824231 25.8169C0.569547 27.1873 1.82063 28.4365 3.16841 28.6977L7.25822 29.4851C7.40068 31.3053 7.75833 33.1013 8.32343 34.8342L4.89171 37.2437C4.34554 37.6276 3.96996 38.2153 3.84643 38.8793C3.7229 39.5432 3.86135 40.23 4.23176 40.7908L7.46273 45.6306C7.83575 46.1857 8.40936 46.568 9.05827 46.6939C9.70719 46.8198 10.3787 46.6791 10.926 46.3026L14.2072 43.8912C15.5072 45.043 16.9436 46.0248 18.4829 46.8136L17.7096 50.9778C17.453 52.3501 18.7172 53.4289 20.0649 53.6901L25.7051 54.7785C27.0455 55.0359 28.1181 54.4075 28.3728 53.0352ZM16.2521 25.8018C16.6828 23.4842 17.7789 21.3488 19.4017 19.6655C21.0245 17.9823 23.1012 16.8269 25.369 16.3454C27.6368 15.864 29.9939 16.0781 32.1422 16.9607C34.2904 17.8433 36.1334 19.3548 37.4379 21.304C38.7424 23.2532 39.4499 25.5524 39.4709 27.911C39.4918 30.2696 38.8253 32.5816 37.5557 34.5545C36.286 36.5273 34.4702 38.0725 32.338 38.9946C30.2058 39.9167 27.8529 40.1742 25.5769 39.7346C22.526 39.1453 19.8299 37.3466 18.0813 34.7339C16.3327 32.1211 15.6748 28.9083 16.2521 25.8018Z" fill="#102465"/>
</svg>