<svg width="47" height="48" viewBox="0 0 47 48" fill="none" xmlns="http://www.w3.org/2000/svg">
<path d="M41.6206 10.9447L38.176 12.4396C37.1719 11.1453 36.0192 9.97828 34.7427 8.9634L36.1254 5.38417C36.3442 4.81708 36.3353 4.18505 36.1008 3.62455C35.8662 3.06405 35.4248 2.62007 34.8718 2.38845L30.0745 0.412908C29.5227 0.185536 28.9049 0.190789 28.3568 0.427503C27.8088 0.664217 27.3755 1.11303 27.152 1.67528L25.6907 5.23924C24.0858 5.0664 22.4663 5.09138 20.8672 5.31361L19.4003 1.80304C18.9157 0.643649 17.8381 0.34236 16.7023 0.836243L11.9481 2.8995C10.8124 3.39147 9.92179 4.54895 10.4064 5.70643L11.8732 9.21702C10.6642 10.2147 9.5825 11.3627 8.65322 12.6342L5.23861 11.183C4.96809 11.0708 4.67843 11.0143 4.38637 11.0167C4.09432 11.0191 3.80564 11.0803 3.53692 11.197C3.26821 11.3136 3.02479 11.4833 2.82072 11.6962C2.61665 11.9092 2.45596 12.1612 2.3479 12.4377L0.431974 17.3175C0.211364 17.8809 0.219274 18.5105 0.453991 19.068C0.688708 19.6254 1.13101 20.0651 1.68367 20.2903L5.19371 21.7929C5.02721 23.4328 5.05484 25.0872 5.27602 26.7203L1.83524 28.223C0.699529 28.7168 -0.148042 30.0192 0.338423 31.1786L2.36283 36.0221C2.84743 37.1796 4.53512 37.8833 5.67083 37.3913L9.11536 35.8944C10.0906 37.1211 11.214 38.2173 12.4589 39.1571L11.0331 42.6314C10.9228 42.9067 10.8671 43.2015 10.8693 43.4989C10.8714 43.7963 10.9314 44.0903 11.0457 44.3639C11.16 44.6375 11.3264 44.8853 11.5352 45.0929C11.7441 45.3006 11.9912 45.464 12.2624 45.5737L17.0503 47.5245C17.6034 47.7492 18.2214 47.7409 18.7684 47.5013C19.3154 47.2617 19.7466 46.8105 19.9673 46.2469L21.2452 42.7554C22.7871 42.9518 24.3471 42.9518 25.8891 42.7554L27.3559 46.2659C27.8386 47.4234 29.517 48.148 30.6527 47.656L35.4088 45.5756C36.5445 45.0818 36.8345 43.5009 36.3443 42.3435L34.8774 38.8329C36.1423 37.8123 37.2818 36.64 38.2714 35.3414L41.7758 36.7525C42.3314 36.9759 42.9511 36.9674 43.5006 36.7286C44.05 36.4898 44.4851 36.0401 44.7115 35.4768L46.6499 30.5894C46.8729 30.0268 46.8674 29.3969 46.6348 28.8383C46.4022 28.2798 45.9614 27.8382 45.4094 27.6108L41.9948 26.318C42.1925 24.7521 42.1956 23.167 42.0041 21.6003L45.4487 20.1034C46.5863 19.6115 46.7452 18.105 46.2625 16.9475L44.2363 12.104C43.7554 10.9542 42.7563 10.4527 41.6206 10.9447ZM27.6852 33.8273C25.7674 34.6598 23.6505 34.8941 21.6021 34.5004C19.5537 34.1067 17.6659 33.1028 16.1773 31.6157C14.6887 30.1285 13.6662 28.2249 13.2392 26.1455C12.8121 24.0661 12.9997 21.9043 13.7781 19.9336C14.5566 17.9628 15.891 16.2716 17.6125 15.0737C19.3341 13.8758 21.3655 13.2252 23.4499 13.204C25.5343 13.1827 27.578 13.792 29.3227 14.9545C31.0674 16.1171 32.4346 17.7809 33.2515 19.7354C33.7951 21.0336 34.0822 22.4282 34.0967 23.8396C34.1111 25.251 33.8524 26.6514 33.3355 27.9609C32.8185 29.2703 32.0534 30.4631 31.0839 31.471C30.1144 32.4789 28.9595 33.2822 27.6852 33.8349V33.8273Z" fill="#5EC1EB"/>
</svg>
