<svg width="27" height="27" viewBox="0 0 27 27" fill="none" xmlns="http://www.w3.org/2000/svg">
<g clip-path="url(#clip0_197_3545)">
<path d="M19.7206 16.432C19.7206 17.566 20.0433 18.0183 20.887 18.0183C22.7676 18.0183 23.965 15.622 23.965 11.6368C23.965 5.54564 19.5262 2.62964 13.9845 2.62964C8.28341 2.62964 3.09806 6.45284 3.09806 13.678C3.09806 20.5792 7.63406 24.3376 14.6001 24.3376C16.9653 24.3376 18.5529 24.0784 20.9815 23.2684L21.5026 25.4379C19.105 26.2168 16.5427 26.4423 14.5677 26.4423C5.43086 26.4423 0.537109 21.4203 0.537109 13.6767C0.537109 5.86829 6.20846 0.554688 14.0169 0.554688C22.1493 0.554688 26.4571 5.41469 26.4571 11.3763C26.4571 16.4307 24.8709 20.2863 19.8813 20.2863C17.6119 20.2863 16.1229 19.3791 15.9285 17.3689C15.3453 19.6045 13.7901 20.2863 11.6827 20.2863C8.86391 20.2863 6.49871 18.1141 6.49871 13.7415C6.49871 9.33509 8.57366 6.61349 12.2997 6.61349C14.2761 6.61349 15.5073 7.39109 16.0554 8.62229L16.9963 6.90509H19.7179V16.432H19.7206ZM15.7368 12.1552C15.7368 10.3746 14.407 9.62804 13.3054 9.62804C12.1066 9.62804 10.7796 10.5987 10.7796 13.4512C10.7796 15.7192 11.784 16.9828 13.3054 16.9828C14.3746 16.9828 15.7368 16.3024 15.7368 14.4232V12.1552Z" fill="white"/>
</g>
<defs>
<clipPath id="clip0_197_3545">
<rect width="27" height="27" fill="white"/>
</clipPath>
</defs>
</svg>
