<svg width="52" height="52" viewBox="0 0 52 52" fill="none" xmlns="http://www.w3.org/2000/svg">
<circle cx="25.6027" cy="25.6027" r="25.6027" fill="url(#paint0_linear_197_3548)"/>
<path d="M25.3149 21.6054C23.2735 21.6054 21.6075 23.2714 21.6075 25.3128C21.6075 27.3542 23.2735 29.0202 25.3149 29.0202C27.3563 29.0202 29.0223 27.3542 29.0223 25.3128C29.0223 23.2714 27.3563 21.6054 25.3149 21.6054ZM36.4343 25.3128C36.4343 23.7775 36.4482 22.2562 36.362 20.7237C36.2758 18.9437 35.8697 17.364 34.5681 16.0624C33.2637 14.758 31.6867 14.3547 29.9067 14.2685C28.3715 14.1822 26.8501 14.1961 25.3177 14.1961C23.7824 14.1961 22.2611 14.1822 20.7286 14.2685C18.9486 14.3547 17.3689 14.7607 16.0672 16.0624C14.7628 17.3668 14.3596 18.9437 14.2733 20.7237C14.1871 22.259 14.201 23.7803 14.201 25.3128C14.201 26.8453 14.1871 28.3694 14.2733 29.9019C14.3596 31.6819 14.7656 33.2616 16.0672 34.5632C17.3716 35.8676 18.9486 36.2709 20.7286 36.3571C22.2639 36.4434 23.7852 36.4295 25.3177 36.4295C26.8529 36.4295 28.3743 36.4434 29.9067 36.3571C31.6867 36.2709 33.2665 35.8649 34.5681 34.5632C35.8725 33.2588 36.2758 31.6819 36.362 29.9019C36.451 28.3694 36.4343 26.848 36.4343 25.3128ZM25.3149 31.0171C22.1582 31.0171 19.6106 28.4695 19.6106 25.3128C19.6106 22.1561 22.1582 19.6085 25.3149 19.6085C28.4716 19.6085 31.0192 22.1561 31.0192 25.3128C31.0192 28.4695 28.4716 31.0171 25.3149 31.0171ZM31.2529 20.707C30.5158 20.707 29.9206 20.1119 29.9206 19.3748C29.9206 18.6378 30.5158 18.0426 31.2529 18.0426C31.9899 18.0426 32.5851 18.6378 32.5851 19.3748C32.5853 19.5498 32.551 19.7232 32.4841 19.8849C32.4173 20.0466 32.3191 20.1936 32.1954 20.3173C32.0716 20.4411 31.9247 20.5392 31.7629 20.6061C31.6012 20.673 31.4279 20.7073 31.2529 20.707Z" fill="white"/>
<defs>
<linearGradient id="paint0_linear_197_3548" x1="18.4716" y1="-6.63824e-07" x2="40.4097" y2="29.1188" gradientUnits="userSpaceOnUse">
<stop stop-color="#0079F2"/>
<stop offset="1" stop-color="#00C2FF"/>
</linearGradient>
</defs>
</svg>
