<svg width="23" height="24" viewBox="0 0 23 24" fill="none" xmlns="http://www.w3.org/2000/svg">
<g clip-path="url(#clip0_233_3672)">
<path d="M21.2345 0.882812H2.24752C1.33799 0.882812 0.602539 1.60086 0.602539 2.48863V21.5539C0.602539 22.4417 1.33799 23.1641 2.24752 23.1641H21.2345C22.144 23.1641 22.8838 22.4417 22.8838 21.5582V2.48863C22.8838 1.60086 22.144 0.882812 21.2345 0.882812ZM7.21293 19.8697H3.90556V9.23393H7.21293V19.8697ZM5.55925 7.78478C4.49741 7.78478 3.6401 6.92747 3.6401 5.86998C3.6401 4.81249 4.49741 3.95519 5.55925 3.95519C6.61674 3.95519 7.47404 4.81249 7.47404 5.86998C7.47404 6.92312 6.61674 7.78478 5.55925 7.78478ZM19.5895 19.8697H16.2864V14.6998C16.2864 13.4682 16.2647 11.8798 14.5675 11.8798C12.8485 11.8798 12.5874 13.2245 12.5874 14.6128V19.8697H9.28875V9.23393H12.4569V10.6874H12.5004C12.9399 9.85189 14.0192 8.96847 15.625 8.96847C18.9715 8.96847 19.5895 11.1705 19.5895 14.034V19.8697Z" fill="#98A2B3"/>
</g>
<defs>
<clipPath id="clip0_233_3672">
<rect width="22.2812" height="22.2812" fill="white" transform="translate(0.603516 0.882812)"/>
</clipPath>
</defs>
</svg>
