<svg width="52" height="52" viewBox="0 0 52 52" fill="none" xmlns="http://www.w3.org/2000/svg">
<circle cx="26.0002" cy="25.6027" r="25.6027" fill="url(#paint0_linear_197_3552)"/>
<path d="M20.3902 17.0073C20.3899 17.6368 20.1396 18.2403 19.6943 18.6852C19.2489 19.1301 18.6451 19.3798 18.0157 19.3795C17.3863 19.3792 16.7827 19.1288 16.3378 18.6835C15.893 18.2382 15.6432 17.6344 15.6436 17.005C15.6439 16.3755 15.8942 15.772 16.3395 15.3271C16.7848 14.8822 17.3886 14.6325 18.0181 14.6328C18.6475 14.6331 19.2511 14.8835 19.6959 15.3288C20.1408 15.7741 20.3905 16.3779 20.3902 17.0073ZM20.4614 21.1369H15.7148V35.994H20.4614V21.1369ZM27.9612 21.1369H23.2382V35.994H27.9137V28.1976C27.9137 23.8544 33.5741 23.4509 33.5741 28.1976V35.994H38.2614V26.5837C38.2614 19.262 29.8836 19.5349 27.9137 23.1305L27.9612 21.1369Z" fill="#F9F9F9"/>
<defs>
<linearGradient id="paint0_linear_197_3552" x1="18.8691" y1="-6.63824e-07" x2="40.8072" y2="29.1188" gradientUnits="userSpaceOnUse">
<stop stop-color="#0079F2"/>
<stop offset="1" stop-color="#00C2FF"/>
</linearGradient>
</defs>
</svg>
