<svg width="145" height="145" viewBox="0 0 145 145" fill="none" xmlns="http://www.w3.org/2000/svg">
<g clip-path="url(#clip0_216_6328)">
<path d="M13.7215 5.43359H131.282C138.317 5.43359 144.04 11.1628 144.04 18.2046V30.5224H0.963104V18.2046C0.963104 11.1628 6.68646 5.43359 13.7215 5.43359ZM124.915 22.6428H131.172C133.487 22.6428 135.364 20.766 135.364 18.4511C135.364 16.1361 133.487 14.2594 131.172 14.2594H124.915C122.6 14.2594 120.724 16.1361 120.724 18.4511C120.724 20.766 122.6 22.6428 124.915 22.6428ZM106.217 22.6428H112.474C114.789 22.6428 116.666 20.766 116.666 18.4511C116.666 16.1361 114.789 14.2594 112.474 14.2594H106.217C103.902 14.2594 102.025 16.1361 102.025 18.4511C102.025 20.766 103.902 22.6428 106.217 22.6428ZM87.5193 22.6428H93.7762C96.0911 22.6428 97.9679 20.766 97.9679 18.4511C97.9679 16.1361 96.0911 14.2594 93.7762 14.2594H87.5193C85.2044 14.2594 83.3276 16.1361 83.3276 18.4511C83.3276 20.766 85.2044 22.6428 87.5193 22.6428Z" fill="white"/>
<path d="M144.04 103.136C144.04 110.178 138.317 115.907 131.282 115.907H13.7215C6.68646 115.907 0.963104 110.178 0.963104 103.136V38.9023H144.04V103.136ZM54.8078 65.2109C56.3867 63.518 56.2942 60.8655 54.6013 59.2866C52.9087 57.7075 50.2562 57.8002 48.677 59.4931L34.378 74.825C32.8763 76.4352 32.8763 78.9326 34.378 80.5428L48.677 95.8746C49.5025 96.7596 50.6214 97.2076 51.7434 97.2076C52.7673 97.2076 53.7934 96.8348 54.6013 96.0814C56.2945 94.5025 56.387 91.85 54.8078 90.1571L43.1753 77.684L54.8078 65.2109ZM81.6507 91.7114L71.611 61.0477C70.8906 58.8476 68.5231 57.6485 66.323 58.3684C64.1229 59.0888 62.9232 61.4562 63.6437 63.6563L73.6834 94.3201C74.2618 96.087 75.9027 97.2084 77.666 97.2084C78.0983 97.2084 78.5379 97.1411 78.9711 96.9991C81.1714 96.279 82.3708 93.9115 81.6507 91.7114ZM110.625 74.825L96.3261 59.4931C94.7472 57.8008 92.0944 57.7075 90.4018 59.2866C88.7087 60.8655 88.6162 63.518 90.1953 65.2109L101.828 77.6837L90.1953 90.1569C88.6165 91.8498 88.7089 94.5023 90.4018 96.0811C91.2094 96.8345 92.2361 97.2073 93.2597 97.2073C94.3817 97.2073 95.5006 96.7596 96.3261 95.8743L110.625 80.5425C112.127 78.9326 112.127 76.4352 110.625 74.825Z" fill="white"/>
<path d="M41.3795 131.188H47.2513L49.6349 124.297H95.3732L97.7569 131.188H103.629C105.944 131.188 107.82 133.065 107.82 135.38C107.82 137.695 105.944 139.571 103.629 139.571H41.3792C39.0643 139.571 37.1875 137.695 37.1875 135.38C37.1878 133.065 39.0643 131.188 41.3795 131.188Z" fill="white"/>
</g>
<defs>
<clipPath id="clip0_216_6328">
<rect width="143.077" height="143.077" fill="white" transform="matrix(-1 0 0 1 144.04 0.960938)"/>
</clipPath>
</defs>
</svg>
