<svg width="132" height="107" viewBox="0 0 132 107" fill="none" xmlns="http://www.w3.org/2000/svg">
<path d="M88.4808 102.885H82.3077V94.6538H49.3846V102.885H43.2115C42.0757 102.885 41.1538 103.806 41.1538 104.942C41.1538 106.078 42.0757 107 43.2115 107H88.4808C89.6166 107 90.5385 106.078 90.5385 104.942C90.5385 103.806 89.6166 102.885 88.4808 102.885ZM131.692 12.3462V78.1923C131.692 85.0115 126.165 90.5385 119.346 90.5385H12.3462C5.52696 90.5385 0 85.0115 0 78.1923V12.3462C0 5.52696 5.52696 0 12.3462 0H119.346C126.165 0 131.692 5.52696 131.692 12.3462Z" fill="white"/>
<path fill-rule="evenodd" clip-rule="evenodd" d="M51.5391 26.2617C51.5391 23.5003 53.7776 21.2617 56.5391 21.2617H76.0004C78.7619 21.2617 81.0004 23.5003 81.0004 26.2617V65.7356C81.0004 68.497 78.7619 70.7356 76.0004 70.7356H56.5391C53.7776 70.7356 51.5391 68.497 51.5391 65.7356V26.2617ZM58.1265 68.731C58.1265 68.4658 58.3415 68.2507 58.6068 68.2507H73.9339C74.1992 68.2507 74.4143 68.4658 74.4143 68.731C74.4143 68.9963 74.1992 69.2113 73.9339 69.2113H58.6068C58.3415 69.2113 58.1265 68.9963 58.1265 68.731ZM63.3954 43.3082L57.2267 46.1723V47.2775L63.3967 50.1445V48.7825L58.7304 46.739V46.7133L63.3954 44.6703V43.3082ZM64.3472 50.6577L67.0974 41.3398H68.3951L65.6449 50.6577H64.3472ZM69.142 50.1433L75.3107 47.3158V46.1357L69.142 43.3082V44.6686L73.91 46.7133V46.7377L69.142 48.7812V50.1433ZM60.3389 24.2003C60.3389 23.6006 60.8252 23.1143 61.425 23.1143H61.4704C62.0702 23.1143 62.5564 23.6006 62.5564 24.2003C62.5564 24.8001 62.0702 25.2864 61.4704 25.2864H61.425C60.8252 25.2864 60.3389 24.8001 60.3389 24.2003ZM64.2005 23.1143C63.6007 23.1143 63.1145 23.6006 63.1145 24.2003C63.1145 24.8001 63.6007 25.2864 64.2005 25.2864H70.9725C71.5723 25.2864 72.0585 24.8001 72.0585 24.2003C72.0585 23.6006 71.5723 23.1143 70.9725 23.1143H64.2005Z" fill="#0693EB"/>
</svg>
