<svg width="133" height="108" viewBox="0 0 133 108" fill="none" xmlns="http://www.w3.org/2000/svg">
<path fill-rule="evenodd" clip-rule="evenodd" d="M82.8345 103.543H89.0471C90.1902 103.543 91.1179 104.471 91.1179 105.614C91.1179 106.757 90.1902 107.685 89.0471 107.685H43.4881C42.345 107.685 41.4172 106.757 41.4172 105.614C41.4172 104.471 42.345 103.543 43.4881 103.543H49.7007V95.2596H82.8345V103.543ZM132.535 78.6927V12.4252C132.535 5.56234 126.973 0 120.11 0H12.4252C5.56234 0 0 5.56234 0 12.4252V78.6927C0 85.5556 5.56234 91.1179 12.4252 91.1179H120.11C126.973 91.1179 132.535 85.5556 132.535 78.6927ZM41.0389 25.5613C40.6284 26.501 39.6907 27.1576 38.5997 27.1576C37.1303 27.1576 35.9391 25.9664 35.9391 24.497C35.9391 23.0276 37.1303 21.8364 38.5997 21.8364C39.6908 21.8364 40.6284 22.4931 41.039 23.4328H63.61V22.9007C63.61 22.3129 64.0865 21.8365 64.6742 21.8365H67.8669C68.4547 21.8365 68.9311 22.313 68.9311 22.9007V23.4328H91.502C91.9125 22.4931 92.8502 21.8364 93.9412 21.8364C95.4107 21.8364 96.6019 23.0276 96.6019 24.497C96.6019 25.9664 95.4107 27.1576 93.9412 27.1576C92.8502 27.1576 91.9126 26.501 91.502 25.5613H77.1225C86.8162 29.5318 93.8725 38.6559 94.8742 49.5071H95.5377C96.1253 49.5071 96.6019 49.9837 96.6018 50.5713V53.7641C96.6018 54.3517 96.1253 54.8283 95.5376 54.8283H92.3448C91.7571 54.8283 91.2806 54.3519 91.2806 53.7641V50.5713C91.2806 49.9837 91.757 49.5071 92.3448 49.5071H92.7365C91.7564 39.687 85.4186 31.4211 76.6954 27.6898H76.6772C74.2565 26.6561 71.6543 25.9679 68.9311 25.6943V26.0934C68.9311 26.6812 68.4546 27.1576 67.8669 27.1576H64.6742C64.0864 27.1576 63.61 26.6811 63.61 26.0934V25.6943C60.8867 25.9679 58.2845 26.6561 55.8637 27.6897H55.8458C47.1225 31.421 40.7845 39.687 39.8044 49.5074H40.1961C40.7844 49.5074 41.2604 49.9839 41.2604 50.5716V53.7643C41.2604 54.352 40.7844 54.8285 40.1961 54.8285H37.0033C36.415 54.8285 35.9391 54.352 35.9391 53.7643V50.5716C35.9391 49.9838 36.415 49.5074 37.0033 49.5074H37.6668C38.6684 38.656 45.7247 29.5318 55.4185 25.5613H41.0389ZM39.1318 51.6358V52.7H38.0676V51.6358H39.1318ZM94.4733 51.6357V52.6999H93.4091V51.6357H94.4733ZM68.399 29.8184H68.656C69.1334 29.8184 69.5523 30.136 69.6811 30.5957L76.6707 55.5592C76.824 56.107 76.7552 56.6883 76.4728 57.1823C75.6143 58.6849 73.6117 62.3132 71.4645 67.0675H71.4646C71.4426 67.1162 71.4205 67.1651 71.3985 67.2141C71.3789 67.2574 71.3594 67.3008 71.3399 67.3443C71.0704 67.9448 70.799 68.5627 70.5276 69.196H65.2062H65.2061L65.1889 69.1961H71.5918C72.1795 69.1961 72.656 69.6727 72.656 70.2603V73.4531C72.6561 74.0407 72.1795 74.5173 71.5918 74.5173H60.9491C60.3613 74.5173 59.8849 74.0407 59.8849 73.4531V70.2603C59.8849 69.6725 60.3614 69.1961 60.9491 69.1961L62.0135 69.196C59.5323 63.4062 57.0509 58.9022 56.0682 57.1823C55.786 56.6882 55.7169 56.107 55.8704 55.5592L62.8602 30.5957C62.989 30.136 63.4077 29.8184 63.8851 29.8184H64.1421C64.7297 29.8184 65.2063 30.2948 65.2063 30.8826V52.1601C65.2063 52.5564 64.9873 52.9237 64.6314 53.0981C63.3983 53.7026 62.5456 54.9584 62.5456 56.4247C62.5456 58.7715 64.7159 60.6114 67.1589 60.0469C68.549 59.7257 69.6552 58.5631 69.9245 57.162C70.0126 56.7035 70.0164 56.2574 69.9488 55.8359L69.9501 55.8566C69.7827 54.7749 69.1472 53.8523 68.2573 53.292C68.1483 53.2234 68.0356 53.1603 67.9195 53.1029C67.5605 52.9258 67.3348 52.5604 67.3348 52.1601V30.8826C67.3348 30.2949 67.8112 29.8184 68.399 29.8184Z" fill="white"/>
</svg>
