<svg width="132" height="107" viewBox="0 0 132 107" fill="none" xmlns="http://www.w3.org/2000/svg">
<path d="M88.4808 102.885H82.3077V94.6538H49.3846V102.885H43.2115C42.0757 102.885 41.1538 103.806 41.1538 104.942C41.1538 106.078 42.0757 107 43.2115 107H88.4808C89.6166 107 90.5385 106.078 90.5385 104.942C90.5385 103.806 89.6166 102.885 88.4808 102.885ZM131.692 12.3462V78.1923C131.692 85.0115 126.165 90.5385 119.346 90.5385H12.3462C5.52696 90.5385 0 85.0115 0 78.1923V12.3462C0 5.52696 5.52696 0 12.3462 0H119.346C126.165 0 131.692 5.52696 131.692 12.3462Z" fill="white"/>
<path fill-rule="evenodd" clip-rule="evenodd" d="M86.3818 29.8763L82.5554 45.9861C82.3734 46.7521 82.0624 47.4579 81.6486 48.0828C81.2271 48.7193 80.699 49.2719 80.0918 49.7188C79.0072 50.5171 77.6704 50.9784 76.2385 50.9784H53.0142L53.9279 54.7864C53.928 54.7865 53.928 54.7866 53.928 54.7867C53.928 54.7867 53.928 54.7867 53.928 54.7867C54.1376 55.6594 54.6837 56.3749 55.4097 56.8097C55.8994 57.1029 56.4709 57.2684 57.0762 57.2684H80.0918V60.5149H57.0762C56.7963 60.5149 56.52 60.4972 56.2484 60.4628C55.0408 60.3096 53.9279 59.8253 53.0142 59.0919C52.7133 58.8504 52.4341 58.582 52.1801 58.2895C51.514 57.5223 51.022 56.5896 50.7711 55.5443L50.771 55.5439L43.6486 25.8652C43.2977 24.4038 42.0034 23.3832 40.5003 23.3832H34.4375V20.1367H40.4999C40.5 20.1367 40.5002 20.1367 40.5003 20.1367C42.8747 20.1369 44.9896 21.4091 46.1214 23.3832C46.4242 23.9114 46.6567 24.4898 46.8049 25.1075C46.8049 25.1076 46.8049 25.1077 46.805 25.1078L47.9491 29.8763H86.3818ZM79.8951 66.3351C79.6564 65.3262 79.0902 64.4439 78.3148 63.8067C77.726 63.3228 77.0166 62.9802 76.2385 62.8308C75.9519 62.7759 75.6561 62.7471 75.3535 62.7471C73.0411 62.7475 71.1214 64.4291 70.7511 66.6362C70.7087 66.8892 70.6866 67.149 70.6866 67.414C70.6866 69.9914 72.7757 72.081 75.3535 72.081C75.3541 72.081 75.3547 72.081 75.3552 72.081C76.4788 72.0806 77.5096 71.6832 78.3149 71.0213C79.3563 70.1655 80.0205 68.8674 80.0205 67.414C80.0205 67.0426 79.9771 66.6814 79.8951 66.3351ZM58.3109 72.081C60.8875 72.0801 62.9762 69.9913 62.9762 67.414C62.9762 67.149 62.9541 66.8892 62.9116 66.6362C62.5414 64.429 60.622 62.7471 58.3092 62.7471C57.8824 62.7472 57.469 62.8045 57.0762 62.9118C56.4343 63.0873 55.8476 63.3963 55.3478 63.8071C54.4963 64.5069 53.897 65.5022 53.7068 66.6362C53.6643 66.8892 53.6422 67.149 53.6422 67.414C53.6422 68.8673 54.3064 70.1654 55.3479 71.0214C55.8477 71.4322 56.4344 71.7411 57.0762 71.9164C57.469 72.0237 57.8824 72.081 58.3092 72.081C58.3098 72.081 58.3103 72.081 58.3109 72.081Z" fill="#0693EB"/>
</svg>
