<svg xmlns="http://www.w3.org/2000/svg" width="570" height="471" viewBox="0 0 570 471" fill="none">
<mask id="path-1-outside-1_227_3382" maskUnits="userSpaceOnUse" x="291.98" y="3.5625" width="223" height="312" fill="black">
<rect fill="white" x="291.98" y="3.5625" width="223" height="312"/>
<path d="M506.302 313.688H299.679C297.902 313.685 296.198 312.988 294.942 311.751C293.686 310.514 292.98 308.838 292.98 307.09V11.1497C292.983 9.40357 293.69 7.72982 294.946 6.49513C296.201 5.26043 297.904 4.56547 299.679 4.5625H506.302C508.077 4.56547 509.78 5.26043 511.035 6.49513C512.291 7.72982 512.997 9.40357 513 11.1497V307.09C513 308.838 512.295 310.514 511.039 311.751C509.783 312.988 508.079 313.685 506.302 313.688ZM299.679 4.84352C297.979 4.84649 296.35 5.51185 295.148 6.69384C293.946 7.87583 293.269 9.4781 293.266 11.1497V307.09C293.266 308.763 293.942 310.368 295.144 311.553C296.346 312.737 297.977 313.404 299.679 313.407H506.302C508.004 313.404 509.635 312.737 510.837 311.553C512.039 310.368 512.715 308.763 512.715 307.09V11.1497C512.715 9.47719 512.039 7.87319 510.836 6.69055C509.634 5.50792 508.003 4.84352 506.302 4.84352H299.679Z"/>
</mask>
<path d="M506.302 313.688H299.679C297.902 313.685 296.198 312.988 294.942 311.751C293.686 310.514 292.98 308.838 292.98 307.09V11.1497C292.983 9.40357 293.69 7.72982 294.946 6.49513C296.201 5.26043 297.904 4.56547 299.679 4.5625H506.302C508.077 4.56547 509.78 5.26043 511.035 6.49513C512.291 7.72982 512.997 9.40357 513 11.1497V307.09C513 308.838 512.295 310.514 511.039 311.751C509.783 312.988 508.079 313.685 506.302 313.688ZM299.679 4.84352C297.979 4.84649 296.35 5.51185 295.148 6.69384C293.946 7.87583 293.269 9.4781 293.266 11.1497V307.09C293.266 308.763 293.942 310.368 295.144 311.553C296.346 312.737 297.977 313.404 299.679 313.407H506.302C508.004 313.404 509.635 312.737 510.837 311.553C512.039 310.368 512.715 308.763 512.715 307.09V11.1497C512.715 9.47719 512.039 7.87319 510.836 6.69055C509.634 5.50792 508.003 4.84352 506.302 4.84352H299.679Z" fill="#0693EB"/>
<path d="M506.302 313.688V314.688H506.303L506.302 313.688ZM299.679 313.688L299.678 314.688H299.679V313.688ZM292.98 307.09H293.98H292.98ZM292.98 11.1497L291.98 11.148V11.1497H292.98ZM299.679 4.5625V3.5625L299.678 3.5625L299.679 4.5625ZM506.302 4.5625L506.303 3.5625H506.302V4.5625ZM513 11.1497H514L514 11.148L513 11.1497ZM513 307.09H512H513ZM299.679 4.84352V3.84352L299.678 3.84352L299.679 4.84352ZM293.266 11.1497L292.266 11.1479V11.1497H293.266ZM293.266 307.09H294.266H293.266ZM299.679 313.407L299.678 314.407H299.679V313.407ZM506.302 313.407V314.407L506.303 314.407L506.302 313.407ZM512.715 307.09H511.715H512.715ZM506.302 312.688H299.679V314.688H506.302V312.688ZM299.681 312.688C298.163 312.685 296.711 312.09 295.644 311.039L294.24 312.464C295.684 313.886 297.64 314.685 299.678 314.688L299.681 312.688ZM295.644 311.039C294.577 309.988 293.98 308.567 293.98 307.09H291.98C291.98 309.108 292.795 311.04 294.24 312.464L295.644 311.039ZM293.98 307.09V11.1497H291.98V307.09H293.98ZM293.98 11.1514C293.983 9.67538 294.58 8.25706 295.647 7.20815L294.245 5.7821C292.8 7.20258 291.984 9.13176 291.98 11.148L293.98 11.1514ZM295.647 7.20815C296.714 6.15868 298.165 5.56504 299.681 5.5625L299.678 3.5625C297.643 3.56591 295.689 4.36219 294.245 5.7821L295.647 7.20815ZM299.679 5.5625H506.302V3.5625H299.679V5.5625ZM506.3 5.5625C507.816 5.56504 509.267 6.15868 510.334 7.20815L511.736 5.7821C510.292 4.36219 508.338 3.56591 506.303 3.5625L506.3 5.5625ZM510.334 7.20815C511.401 8.25706 511.998 9.67538 512 11.1514L514 11.148C513.997 9.13176 513.181 7.20258 511.736 5.7821L510.334 7.20815ZM512 11.1497V307.09H514V11.1497H512ZM512 307.09C512 308.567 511.404 309.988 510.337 311.039L511.741 312.464C513.186 311.04 514 309.108 514 307.09H512ZM510.337 311.039C509.27 312.09 507.818 312.685 506.3 312.688L506.303 314.688C508.341 314.685 510.297 313.886 511.741 312.464L510.337 311.039ZM299.678 3.84352C297.718 3.84695 295.837 4.61362 294.447 5.98082L295.849 7.40686C296.863 6.41007 298.24 5.84604 299.681 5.84352L299.678 3.84352ZM294.447 5.98082C293.056 7.34856 292.27 9.20623 292.266 11.1479L294.266 11.1515C294.269 9.74996 294.836 8.4031 295.849 7.40686L294.447 5.98082ZM292.266 11.1497V307.09H294.266V11.1497H292.266ZM292.266 307.09C292.266 309.033 293.051 310.894 294.442 312.265L295.846 310.84C294.832 309.842 294.266 308.493 294.266 307.09H292.266ZM294.442 312.265C295.833 313.635 297.716 314.404 299.678 314.407L299.681 312.407C298.239 312.404 296.86 311.839 295.846 310.84L294.442 312.265ZM299.679 314.407H506.302V312.407H299.679V314.407ZM506.303 314.407C508.265 314.404 510.148 313.635 511.539 312.265L510.135 310.84C509.121 311.839 507.742 312.404 506.3 312.407L506.303 314.407ZM511.539 312.265C512.93 310.894 513.715 309.033 513.715 307.09H511.715C511.715 308.493 511.149 309.842 510.135 310.84L511.539 312.265ZM513.715 307.09V11.1497H511.715V307.09H513.715ZM513.715 11.1497C513.715 9.2065 512.93 7.34636 511.538 5.97753L510.135 7.40358C511.149 8.40002 511.715 9.74787 511.715 11.1497H513.715ZM511.538 5.97753C510.146 4.60927 508.262 3.84352 506.302 3.84352V5.84352C507.743 5.84352 509.121 6.40657 510.135 7.40358L511.538 5.97753ZM506.302 3.84352H299.679V5.84352H506.302V3.84352Z" fill="#0693EB" mask="url(#path-1-outside-1_227_3382)"/>
<path d="M55.3604 11.1488V11.1497H274.956C274.956 10.2551 274.778 9.36936 274.432 8.54317C274.086 7.71801 273.579 6.96853 272.941 6.33727C272.94 6.3365 272.94 6.33573 272.939 6.33495C272.3 5.70323 271.541 5.20241 270.707 4.86083C269.873 4.51926 268.979 4.34352 268.076 4.34352H62.5358C60.7121 4.34352 58.9618 5.05873 57.6694 6.33396C57.6686 6.33479 57.6677 6.33562 57.6669 6.33645C56.3759 7.61164 55.6479 9.34209 55.6447 11.1488V11.1493V11.1497V307.09C55.6447 307.986 55.8232 308.873 56.17 309.7C56.5164 310.527 57.0237 311.278 57.6627 311.91C57.6635 311.911 57.6643 311.911 57.6651 311.912C58.3052 312.545 59.0649 313.047 59.9006 313.389C60.7362 313.731 61.6317 313.907 62.5358 313.907H268.076H268.077C268.99 313.905 269.884 313.725 270.711 313.384C271.536 313.045 272.295 312.546 272.94 311.908C272.941 311.907 272.941 311.906 272.942 311.906C273.587 311.267 274.09 310.514 274.433 309.696C274.775 308.877 274.956 307.993 274.956 307.09H275.24V307.089V11.1497C275.24 9.26816 274.484 7.46489 273.14 6.13624C271.796 4.80779 269.974 4.0625 268.076 4.0625H62.5358C60.6367 4.0625 58.8141 4.80732 57.4684 6.13526C56.1224 7.4634 55.3636 9.26642 55.3604 11.1488ZM56.6447 307.09V11.1501C56.6475 9.6111 57.268 8.13488 58.3718 7.04579C59.4758 5.95639 60.9733 5.34352 62.5358 5.34352H268.076C268.849 5.34352 269.614 5.49402 270.328 5.78627C271.042 6.07852 271.69 6.50672 272.236 7.04615C272.782 7.58557 273.214 8.22564 273.509 8.92967C273.804 9.63368 273.956 10.388 273.956 11.1497V307.09C273.956 308.629 273.338 310.106 272.236 311.197C271.134 312.289 269.638 312.904 268.075 312.907H62.5358C61.7614 312.907 60.9946 312.756 60.2795 312.463C59.5643 312.171 58.9149 311.742 58.3681 311.201C57.8213 310.661 57.3879 310.019 57.0923 309.314C56.7967 308.608 56.6447 307.853 56.6447 307.09Z" fill="#0693EB" stroke="#0693EB"/>
<path d="M570 383.348H0V383.633H570V383.348Z" fill="#E0E0E0"/>
<path d="M182.48 29.043H116.052V154.359H182.48V29.043Z" fill="#E4E4E4"/>
<path d="M179.22 29.043H101.187V154.359H179.22V29.043Z" fill="#F4F4F4"/>
<path d="M167.317 40.1758H113.042V143.225H167.317V40.1758Z" fill="white"/>
<path d="M245.008 57.6836H207.867V127.744H245.008V57.6836Z" fill="#E4E4E4"/>
<path d="M243.184 57.6836H199.557V127.744H243.184V57.6836Z" fill="#F4F4F4"/>
<path d="M236.538 63.9141H206.191V121.53H236.538V63.9141Z" fill="white"/>
<path d="M529.758 311.065C528.071 306.194 514.699 312.81 509.238 320.886C505.472 326.515 503.125 332.973 502.398 339.708C502.523 330.924 502.66 321.457 502.797 312.548C503.937 310.324 506.411 305.202 508.201 301.141C514.22 287.59 528.527 282.502 533.463 273.981C539.938 262.769 539.893 245.943 534.386 239.875C529.598 234.605 513.741 270.274 511.951 274.255C507.069 284.917 503.987 296.315 502.831 307.985C502.968 299.613 503.093 291.89 503.196 285.959C503.538 266.567 503.948 260.373 504.142 258.457C504.803 257.533 505.59 256.438 506.046 255.856C509.876 250.917 518.392 245.031 522.644 237.845C528.857 227.35 527.866 214.791 523.488 210.115C518.928 205.221 510.88 216.776 506.605 228.229C502.33 239.681 504.154 250.632 502.957 260.168C502.706 262.038 502.444 269.122 502.204 278.943C500.905 268.369 498.317 261.286 493.529 254.692C487.601 246.571 482.516 236.681 477.706 237.97C472.895 239.259 475.426 252.32 479.302 261.502C482.722 269.681 499.628 277.837 502.102 284.419C501.805 297.73 501.543 314.613 501.361 330.32C500.027 322.198 500.939 321.525 495.49 309.092C492.252 301.711 478.971 292.597 477.386 297.685C475.802 302.772 478.23 312.354 483.223 319.073C487.27 324.491 496.242 324.48 498.317 327.845C498.807 328.632 500.414 331.643 501.326 333.365C501.098 352.552 501.007 369.491 501.121 375.251L501.965 375.32C501.965 373.826 502.033 364.061 502.204 351.149C504.393 344.305 519.065 340.278 523.591 333.126C528.39 325.654 531.799 316.905 529.758 311.065Z" fill="#76CAFF"/>
<path d="M515.975 383.933H487.806C487.059 383.932 486.335 383.672 485.758 383.198C485.18 382.724 484.784 382.065 484.637 381.332L482.642 371.477H521.139L519.133 381.332C518.99 382.065 518.597 382.725 518.021 383.2C517.445 383.674 516.721 383.933 515.975 383.933Z" fill="#EFEFEF"/>
<path d="M521.949 375.298H481.832C481.357 375.299 480.898 375.122 480.548 374.801C480.197 374.479 479.98 374.038 479.94 373.564L479.096 366.275C479.068 366.028 479.089 365.777 479.158 365.538C479.227 365.298 479.343 365.075 479.499 364.881C479.654 364.687 479.847 364.526 480.066 364.407C480.284 364.287 480.525 364.213 480.772 364.188H522.736C522.984 364.187 523.229 364.237 523.458 364.332C523.687 364.427 523.895 364.567 524.07 364.743C524.244 364.919 524.383 365.128 524.477 365.357C524.57 365.587 524.618 365.833 524.617 366.081C524.622 366.149 524.622 366.218 524.617 366.286L523.773 373.575C523.731 374.036 523.523 374.465 523.187 374.782C522.851 375.1 522.411 375.283 521.949 375.298Z" fill="#EFEFEF"/>
<path d="M317.821 32.3476L315.62 28.6632C315.26 28.0674 314.746 27.5795 314.132 27.2504C313.518 26.9213 312.828 26.7632 312.132 26.7925L281.227 27.7849C280.715 27.8011 280.211 27.9182 279.744 28.1293C279.277 28.3405 278.856 28.6417 278.506 29.0157C278.155 29.3896 277.882 29.829 277.701 30.3088C277.521 30.7885 277.437 31.2992 277.453 31.8115L279.3 90.9104C279.342 91.9855 279.806 93.0008 280.591 93.7356C281.377 94.4703 282.42 94.8652 283.495 94.8343L353.731 92.553C354.804 92.5143 355.819 92.0525 356.553 91.2683C357.288 90.4841 357.683 89.4411 357.652 88.3667L356.022 36.7849C356.007 36.2725 355.892 35.7681 355.682 35.3004C355.472 34.8327 355.173 34.411 354.8 34.0593C354.427 33.7076 353.989 33.4328 353.51 33.2507C353.031 33.0686 352.521 32.9826 352.009 32.9978L320.842 34.013C320.236 34.0282 319.637 33.8819 319.106 33.5893C318.575 33.2967 318.132 32.8682 317.821 32.3476Z" fill="#DEDEDE"/>
<path d="M352.02 33.0017L321.115 34.0055C320.418 34.0268 319.739 34.2349 319.149 34.6081C318.56 34.9812 318.081 35.5059 317.763 36.1272L315.78 39.9485C315.503 40.4846 315.089 40.938 314.581 41.2625C314.072 41.587 313.487 41.7712 312.884 41.7964L281.739 42.766C280.706 42.7988 279.728 43.2396 279.019 43.992C278.31 44.7444 277.927 45.7472 277.955 46.7812L279.3 90.9143C279.341 91.9894 279.805 93.0047 280.591 93.7395C281.376 94.4742 282.42 94.8691 283.495 94.8382L353.73 92.5568C354.804 92.5181 355.819 92.0564 356.553 91.2721C357.288 90.4879 357.683 89.4449 357.652 88.3705L356.022 36.7888C356.008 36.2769 355.894 35.7727 355.686 35.3051C355.477 34.8375 355.179 34.4157 354.807 34.0639C354.435 33.712 353.998 33.4371 353.519 33.2548C353.041 33.0725 352.532 32.9865 352.02 33.0017Z" fill="#EFEFEF"/>
<path d="M156.397 245.508L99.6246 265.413C99.1559 265.577 98.6411 265.55 98.1925 265.336C97.744 265.122 97.3982 264.74 97.2306 264.272L70.68 188.314C70.515 187.843 70.5421 187.326 70.7556 186.876C70.969 186.425 71.3515 186.077 71.82 185.907L106.795 173.645L138.715 189.181L157.616 243.135C157.693 243.371 157.721 243.62 157.701 243.867C157.681 244.114 157.613 244.355 157.499 244.575C157.386 244.795 157.23 244.991 157.041 245.151C156.852 245.311 156.633 245.433 156.397 245.508Z" fill="#EFEFEF"/>
<path d="M138.647 189.169L106.75 173.645L104.892 174.295L115.049 203.291L140.471 194.371L138.647 189.169Z" fill="#E4E4E4"/>
<path d="M138.579 188.964L115.015 197.234L106.75 173.645L138.579 188.964Z" fill="#F0F0F0"/>
<path d="M131.749 199.048L89.7607 213.777L99.0917 240.409L141.08 225.679L131.749 199.048Z" fill="#E4E4E4"/>
<path d="M107.628 227.133L101.688 239.498L119.974 233.076L107.628 227.133Z" fill="#F9F9F9"/>
<path d="M115.858 234.514L141.052 225.685L140.197 223.255L124.83 215.875L115.858 234.514Z" fill="#F9F9F9"/>
<path d="M114.331 215.785C114.645 216.673 114.689 217.635 114.456 218.548C114.223 219.462 113.725 220.285 113.023 220.914C112.322 221.544 111.45 221.95 110.517 222.083C109.585 222.215 108.634 222.067 107.785 221.658C106.937 221.249 106.229 220.596 105.752 219.784C105.274 218.971 105.049 218.035 105.104 217.095C105.159 216.154 105.492 215.25 106.061 214.499C106.63 213.748 107.409 213.183 108.3 212.876C109.485 212.464 110.785 212.539 111.916 213.084C113.046 213.629 113.914 214.6 114.331 215.785Z" fill="#F9F9F9"/>
<path d="M429.108 46.8359L493.677 70.7561L464.562 152.018L399.992 128.098L429.108 46.8359Z" fill="#F0F0F0"/>
<path d="M471.048 83.7476L434.568 70.413C433.724 70.1039 433.035 69.4745 432.651 68.6612C432.267 67.8478 432.218 66.9159 432.516 66.067C432.832 65.2258 433.465 64.5425 434.28 64.1648C435.095 63.787 436.025 63.7451 436.871 64.048L473.351 77.3826C474.196 77.6939 474.884 78.326 475.266 79.1418C475.648 79.9576 475.693 80.8912 475.391 81.74C475.073 82.5764 474.441 83.255 473.629 83.6303C472.817 84.0055 471.89 84.0477 471.048 83.7476Z" fill="white"/>
<path d="M466.26 97.1842L429.78 83.8268C428.937 83.5154 428.251 82.8851 427.87 82.072C427.488 81.2589 427.441 80.3282 427.739 79.4808C428.054 78.6368 428.69 77.9515 429.507 77.5735C430.325 77.1955 431.258 77.1553 432.105 77.4618L468.585 90.7964C469.43 91.1077 470.118 91.7398 470.5 92.5556C470.882 93.3713 470.927 94.3049 470.626 95.1538C470.312 95.9998 469.678 96.6878 468.86 97.068C468.043 97.4483 467.108 97.49 466.26 97.1842Z" fill="white"/>
<path d="M461.517 110.292L425.037 96.9456C424.195 96.6343 423.509 96.004 423.127 95.1909C422.746 94.3778 422.699 93.4471 422.997 92.5996C423.314 91.7578 423.951 91.0751 424.768 90.6993C425.585 90.3236 426.518 90.285 427.363 90.592L463.843 103.915C464.691 104.226 465.381 104.86 465.763 105.679C466.145 106.497 466.189 107.434 465.884 108.284C465.566 109.126 464.929 109.809 464.112 110.184C463.295 110.56 462.363 110.599 461.517 110.292Z" fill="white"/>
<path d="M427.386 127.062L417.343 123.389C416.498 123.078 415.81 122.446 415.428 121.63C415.046 120.814 415 119.881 415.302 119.032C415.618 118.191 416.251 117.507 417.066 117.13C417.881 116.752 418.811 116.71 419.657 117.013L429.7 120.697C430.542 121.009 431.228 121.639 431.61 122.452C431.992 123.265 432.039 124.196 431.741 125.043C431.425 125.884 430.792 126.568 429.977 126.945C429.162 127.323 428.231 127.365 427.386 127.062Z" fill="white"/>
<path d="M456.57 124.049L420.09 110.703C419.243 110.394 418.552 109.763 418.168 108.947C417.784 108.131 417.737 107.196 418.038 106.346C418.356 105.504 418.992 104.821 419.809 104.445C420.627 104.07 421.559 104.031 422.404 104.338L458.884 117.661C459.732 117.973 460.422 118.607 460.804 119.425C461.187 120.243 461.23 121.18 460.925 122.03C460.609 122.871 459.976 123.555 459.161 123.932C458.346 124.31 457.415 124.352 456.57 124.049Z" fill="white"/>
<path d="M513 406.551H475.243V406.836H513V406.551Z" fill="#EBEBEB"/>
<path d="M377.704 409.641H367.798V409.926H377.704V409.641Z" fill="#EBEBEB"/>
<path d="M474.103 395.953H452.227V396.238H474.103V395.953Z" fill="#EBEBEB"/>
<path d="M109.155 397.871H59.918V398.156H109.155V397.871Z" fill="#EBEBEB"/>
<path d="M126.529 397.871H119.312V398.156H126.529V397.871Z" fill="#EBEBEB"/>
<path d="M256.785 402.684H149.99V402.969H256.785V402.684Z" fill="#EBEBEB"/>
<path d="M151.905 92.9533V258.09C151.905 260.404 152.824 262.624 154.46 264.26C156.095 265.897 158.313 266.816 160.626 266.816H418.779C419.656 266.816 420.497 266.468 421.117 265.848C421.737 265.227 422.085 264.386 422.085 263.508V91.8126C422.085 90.6388 421.619 89.513 420.79 88.683C419.96 87.853 418.835 87.3867 417.662 87.3867H157.446C156.716 87.3852 155.993 87.5283 155.318 87.8078C154.644 88.0873 154.032 88.4976 153.517 89.0151C153.002 89.5326 152.594 90.1471 152.317 90.823C152.041 91.4989 151.901 92.2229 151.905 92.9533Z" fill="#0693EB"/>
<path opacity="0.7" d="M151.905 92.9533V258.09C151.905 260.404 152.824 262.624 154.46 264.26C156.095 265.897 158.313 266.816 160.626 266.816H418.779C419.656 266.816 420.497 266.468 421.117 265.848C421.737 265.227 422.085 264.386 422.085 263.508V91.8126C422.085 90.6388 421.619 89.513 420.79 88.683C419.96 87.853 418.835 87.3867 417.662 87.3867H157.446C156.716 87.3852 155.993 87.5283 155.318 87.8078C154.644 88.0873 154.032 88.4976 153.517 89.0151C153.002 89.5326 152.594 90.1471 152.317 90.823C152.041 91.4989 151.901 92.2229 151.905 92.9533Z" fill="white"/>
<path d="M157.446 87.4336H417.662C418.835 87.4336 419.96 87.8999 420.79 88.7299C421.619 89.5599 422.085 90.6856 422.085 91.8594V101.829H151.905V92.9773C151.905 91.507 152.489 90.097 153.528 89.0573C154.567 88.0177 155.976 87.4336 157.446 87.4336Z" fill="#0693EB"/>
<path opacity="0.3" d="M418.494 94.6313C418.494 95.2359 418.315 95.8269 417.979 96.3297C417.644 96.8324 417.166 97.2242 416.608 97.4556C416.05 97.687 415.436 97.7475 414.843 97.6295C414.25 97.5116 413.706 97.2204 413.279 96.7929C412.851 96.3654 412.56 95.8207 412.442 95.2277C412.325 94.6346 412.385 94.02 412.616 93.4614C412.848 92.9028 413.239 92.4253 413.742 92.0894C414.244 91.7535 414.835 91.5742 415.439 91.5742C415.84 91.5742 416.237 91.6533 416.608 91.8069C416.979 91.9606 417.316 92.1857 417.599 92.4696C417.883 92.7535 418.108 93.0905 418.262 93.4614C418.415 93.8323 418.494 94.2298 418.494 94.6313Z" fill="white"/>
<path opacity="0.3" d="M409.808 94.6313C409.81 95.2386 409.632 95.833 409.297 96.3391C408.961 96.8452 408.483 97.2403 407.923 97.4743C407.363 97.7083 406.746 97.7707 406.15 97.6536C405.555 97.5364 405.007 97.2451 404.577 96.8164C404.147 96.3878 403.854 95.841 403.735 95.2455C403.615 94.65 403.675 94.0324 403.907 93.4711C404.139 92.9097 404.532 92.4298 405.037 92.0922C405.541 91.7545 406.134 91.5742 406.741 91.5742C407.144 91.5727 407.542 91.6507 407.914 91.8037C408.286 91.9566 408.624 92.1816 408.909 92.4656C409.194 92.7496 409.42 93.0871 409.574 93.4588C409.729 93.8304 409.808 94.2289 409.808 94.6313Z" fill="white"/>
<path opacity="0.3" d="M401.109 94.6313C401.109 95.2359 400.93 95.8269 400.595 96.3297C400.259 96.8324 399.782 97.2242 399.223 97.4556C398.665 97.687 398.051 97.7475 397.458 97.6295C396.866 97.5116 396.321 97.2204 395.894 96.7929C395.467 96.3654 395.176 95.8207 395.058 95.2277C394.94 94.6346 395 94.02 395.232 93.4614C395.463 92.9028 395.854 92.4253 396.357 92.0894C396.859 91.7535 397.45 91.5742 398.054 91.5742C398.865 91.5742 399.642 91.8963 400.215 92.4696C400.788 93.0429 401.109 93.8205 401.109 94.6313Z" fill="white"/>
<path opacity="0.1" d="M418.255 101.828H422.085V263.497C422.085 264.375 421.737 265.216 421.117 265.836C420.497 266.457 419.656 266.805 418.779 266.805H418.255V101.828Z" fill="black"/>
<path d="M422.085 103.621H418.255V141.537H422.085V103.621Z" fill="white"/>
<path opacity="0.8" d="M393.677 241.176H345.558V266.818H393.677V241.176Z" fill="white"/>
<path d="M386.723 247.117H352.5C351.782 247.117 351.2 247.699 351.2 248.418C351.2 249.136 351.782 249.718 352.5 249.718H386.723C387.44 249.718 388.022 249.136 388.022 248.418C388.022 247.699 387.44 247.117 386.723 247.117Z" fill="#0693EB"/>
<path d="M386.723 252.695H352.5C351.782 252.695 351.2 253.278 351.2 253.996C351.2 254.714 351.782 255.296 352.5 255.296H386.723C387.44 255.296 388.022 254.714 388.022 253.996C388.022 253.278 387.44 252.695 386.723 252.695Z" fill="#0693EB"/>
<path d="M386.723 258.285H352.5C351.782 258.285 351.2 258.867 351.2 259.586C351.2 260.304 351.782 260.886 352.5 260.886H386.723C387.44 260.886 388.022 260.304 388.022 259.586C388.022 258.867 387.44 258.285 386.723 258.285Z" fill="#0693EB"/>
<path opacity="0.4" d="M386.723 247.117H352.5C351.782 247.117 351.2 247.699 351.2 248.418C351.2 249.136 351.782 249.718 352.5 249.718H386.723C387.44 249.718 388.022 249.136 388.022 248.418C388.022 247.699 387.44 247.117 386.723 247.117Z" fill="white"/>
<path opacity="0.4" d="M386.723 252.695H352.5C351.782 252.695 351.2 253.278 351.2 253.996C351.2 254.714 351.782 255.296 352.5 255.296H386.723C387.44 255.296 388.022 254.714 388.022 253.996C388.022 253.278 387.44 252.695 386.723 252.695Z" fill="white"/>
<path opacity="0.4" d="M386.723 258.285H352.5C351.782 258.285 351.2 258.867 351.2 259.586C351.2 260.304 351.782 260.886 352.5 260.886H386.723C387.44 260.886 388.022 260.304 388.022 259.586C388.022 258.867 387.44 258.285 386.723 258.285Z" fill="white"/>
<path opacity="0.8" d="M229.505 241.082H181.386V266.725H229.505V241.082Z" fill="white"/>
<path d="M222.551 247.027H188.328C187.61 247.027 187.028 247.61 187.028 248.328C187.028 249.046 187.61 249.628 188.328 249.628H222.551C223.268 249.628 223.85 249.046 223.85 248.328C223.85 247.61 223.268 247.027 222.551 247.027Z" fill="#0693EB"/>
<path d="M222.551 252.605H188.328C187.61 252.605 187.028 253.188 187.028 253.906C187.028 254.624 187.61 255.206 188.328 255.206H222.551C223.268 255.206 223.85 254.624 223.85 253.906C223.85 253.188 223.268 252.605 222.551 252.605Z" fill="#0693EB"/>
<path d="M222.551 258.191H188.328C187.61 258.191 187.028 258.774 187.028 259.492C187.028 260.21 187.61 260.792 188.328 260.792H222.551C223.268 260.792 223.85 260.21 223.85 259.492C223.85 258.774 223.268 258.191 222.551 258.191Z" fill="#0693EB"/>
<path opacity="0.4" d="M222.551 247.027H188.328C187.61 247.027 187.028 247.61 187.028 248.328C187.028 249.046 187.61 249.628 188.328 249.628H222.551C223.268 249.628 223.85 249.046 223.85 248.328C223.85 247.61 223.268 247.027 222.551 247.027Z" fill="white"/>
<path opacity="0.4" d="M222.551 252.605H188.328C187.61 252.605 187.028 253.188 187.028 253.906C187.028 254.624 187.61 255.206 188.328 255.206H222.551C223.268 255.206 223.85 254.624 223.85 253.906C223.85 253.188 223.268 252.605 222.551 252.605Z" fill="white"/>
<path opacity="0.4" d="M222.551 258.191H188.328C187.61 258.191 187.028 258.774 187.028 259.492C187.028 260.21 187.61 260.792 188.328 260.792H222.551C223.268 260.792 223.85 260.21 223.85 259.492C223.85 258.774 223.268 258.191 222.551 258.191Z" fill="white"/>
<path opacity="0.8" d="M311.369 241.176H263.683V266.773H311.369V241.176Z" fill="white"/>
<path d="M308.553 243.73H266.498V266.772H308.553V243.73Z" fill="#0693EB"/>
<path opacity="0.4" d="M308.553 243.73H266.498V266.772H308.553V243.73Z" fill="white"/>
<path d="M269.645 266.818L276.656 262.027L282.584 266.784L269.645 266.818Z" fill="white"/>
<path d="M286.392 266.784L298.339 258.754L307.413 266.784H286.392Z" fill="white"/>
<path d="M280.736 253.903C280.739 254.553 280.548 255.189 280.189 255.731C279.829 256.273 279.317 256.696 278.717 256.946C278.118 257.196 277.457 257.263 276.82 257.138C276.182 257.012 275.596 256.7 275.136 256.241C274.675 255.782 274.361 255.197 274.234 254.559C274.106 253.922 274.171 253.261 274.419 252.66C274.667 252.059 275.088 251.545 275.628 251.183C276.168 250.822 276.803 250.629 277.453 250.629C277.884 250.627 278.31 250.711 278.709 250.875C279.107 251.039 279.469 251.28 279.774 251.584C280.079 251.888 280.321 252.249 280.486 252.647C280.651 253.045 280.736 253.472 280.736 253.903Z" fill="white"/>
<path d="M308.256 120.102H264.149V135.227H308.256V120.102Z" fill="white"/>
<path d="M260.456 120.81V152.806C260.456 153.233 260.625 153.642 260.927 153.944C261.228 154.245 261.637 154.415 262.063 154.415H309.134C309.56 154.415 309.969 154.245 310.271 153.944C310.572 153.642 310.741 153.233 310.741 152.806V123.959C310.741 123.532 310.572 123.123 310.271 122.821C309.969 122.52 309.56 122.35 309.134 122.35H280.509C280.224 122.351 279.945 122.277 279.698 122.135C279.452 121.993 279.248 121.787 279.106 121.54L278.206 119.955C278.091 119.754 277.925 119.586 277.725 119.47C277.525 119.354 277.297 119.293 277.066 119.293H262.018C261.816 119.29 261.615 119.327 261.427 119.402C261.239 119.476 261.068 119.587 260.923 119.728C260.778 119.869 260.662 120.037 260.582 120.223C260.502 120.408 260.459 120.608 260.456 120.81Z" fill="#0693EB"/>
<path d="M308.256 181.402H264.149V196.528H308.256V181.402Z" fill="white"/>
<path d="M260.456 182.111V214.107C260.456 214.534 260.625 214.943 260.927 215.244C261.228 215.546 261.637 215.715 262.063 215.715H309.134C309.56 215.715 309.969 215.546 310.271 215.244C310.572 214.943 310.741 214.534 310.741 214.107V185.259C310.741 184.833 310.572 184.424 310.271 184.122C309.969 183.82 309.56 183.651 309.134 183.651H280.509C280.224 183.652 279.945 183.578 279.698 183.435C279.452 183.293 279.248 183.088 279.106 182.841L278.206 181.255C278.091 181.054 277.925 180.887 277.725 180.771C277.525 180.655 277.297 180.594 277.066 180.594H262.018C261.611 180.591 261.218 180.748 260.926 181.032C260.634 181.316 260.465 181.703 260.456 182.111Z" fill="#0693EB"/>
<path d="M227.293 120.102H183.187V135.227H227.293V120.102Z" fill="white"/>
<path d="M179.493 120.81V152.807C179.493 153.233 179.663 153.642 179.964 153.944C180.265 154.246 180.674 154.415 181.101 154.415H228.171C228.597 154.415 229.006 154.246 229.308 153.944C229.609 153.642 229.779 153.233 229.779 152.807V123.959C229.779 123.532 229.609 123.123 229.308 122.821C229.006 122.52 228.597 122.35 228.171 122.35H199.5C199.216 122.352 198.936 122.277 198.69 122.135C198.443 121.993 198.239 121.788 198.098 121.541L197.197 119.955C197.083 119.754 196.917 119.587 196.716 119.47C196.516 119.354 196.289 119.293 196.057 119.293H181.055C180.852 119.289 180.651 119.325 180.463 119.399C180.274 119.473 180.102 119.584 179.957 119.725C179.811 119.866 179.696 120.035 179.616 120.221C179.536 120.407 179.495 120.608 179.493 120.81Z" fill="#0693EB"/>
<path d="M227.293 181.402H183.187V196.528H227.293V181.402Z" fill="white"/>
<path d="M179.493 182.111V214.107C179.493 214.534 179.663 214.943 179.964 215.245C180.265 215.546 180.674 215.716 181.101 215.716H228.171C228.597 215.716 229.006 215.546 229.308 215.245C229.609 214.943 229.779 214.534 229.779 214.107V185.259C229.779 184.833 229.609 184.424 229.308 184.122C229.006 183.82 228.597 183.651 228.171 183.651H199.5C199.216 183.652 198.936 183.578 198.69 183.436C198.443 183.293 198.239 183.088 198.098 182.841L197.197 181.256C197.083 181.054 196.917 180.887 196.716 180.771C196.516 180.655 196.289 180.594 196.057 180.594H181.055C180.853 180.591 180.652 180.628 180.464 180.702C180.276 180.777 180.105 180.888 179.96 181.029C179.815 181.17 179.699 181.338 179.619 181.523C179.539 181.709 179.496 181.909 179.493 182.111Z" fill="#0693EB"/>
<path d="M389.219 120.102H345.112V135.227H389.219V120.102Z" fill="white"/>
<path d="M341.419 120.81V152.807C341.419 153.018 341.461 153.227 341.541 153.422C341.622 153.617 341.74 153.795 341.89 153.944C342.039 154.093 342.216 154.212 342.411 154.293C342.606 154.373 342.815 154.415 343.026 154.415H390.097C390.308 154.415 390.517 154.373 390.712 154.293C390.907 154.212 391.084 154.093 391.234 153.944C391.383 153.795 391.501 153.617 391.582 153.422C391.663 153.227 391.704 153.018 391.704 152.807V123.959C391.704 123.748 391.663 123.538 391.582 123.343C391.501 123.148 391.383 122.971 391.234 122.821C391.084 122.672 390.907 122.554 390.712 122.473C390.517 122.392 390.308 122.35 390.097 122.35H361.472C361.187 122.35 360.908 122.276 360.662 122.133C360.416 121.991 360.211 121.787 360.069 121.541L359.18 119.955C359.064 119.755 358.897 119.589 358.698 119.473C358.498 119.357 358.271 119.295 358.04 119.293H342.992C342.789 119.289 342.587 119.325 342.398 119.398C342.209 119.472 342.036 119.583 341.89 119.724C341.744 119.865 341.627 120.034 341.546 120.22C341.465 120.407 341.422 120.607 341.419 120.81Z" fill="#0693EB"/>
<path d="M343.026 216.489C342.47 216.491 341.935 216.279 341.533 215.896C341.422 215.791 341.358 215.647 341.354 215.496C341.349 215.344 341.406 215.196 341.51 215.086C341.614 214.975 341.758 214.911 341.91 214.907C342.062 214.902 342.209 214.959 342.319 215.063C342.51 215.245 342.763 215.348 343.026 215.348H347.358C347.509 215.348 347.654 215.408 347.761 215.515C347.868 215.622 347.928 215.767 347.928 215.919C347.928 216.07 347.868 216.215 347.761 216.322C347.654 216.429 347.509 216.489 347.358 216.489H343.026ZM390.097 216.489H386.186C386.035 216.489 385.89 216.429 385.783 216.322C385.676 216.215 385.616 216.07 385.616 215.919C385.619 215.768 385.68 215.625 385.787 215.519C385.893 215.412 386.036 215.351 386.186 215.348H390.097C390.274 215.35 390.45 215.305 390.605 215.219C390.761 215.133 390.892 215.009 390.986 214.858C391.023 214.793 391.073 214.737 391.133 214.692C391.193 214.648 391.261 214.616 391.334 214.599C391.407 214.582 391.482 214.58 391.555 214.593C391.629 214.606 391.699 214.634 391.761 214.675C391.825 214.713 391.881 214.763 391.926 214.822C391.971 214.882 392.003 214.95 392.021 215.022C392.039 215.095 392.043 215.17 392.031 215.243C392.02 215.317 391.994 215.387 391.955 215.451C391.761 215.769 391.487 216.032 391.162 216.214C390.836 216.396 390.469 216.491 390.097 216.489ZM380.646 216.489H375.06C374.909 216.489 374.764 216.429 374.657 216.322C374.55 216.215 374.49 216.07 374.49 215.919C374.49 215.767 374.55 215.622 374.657 215.515C374.764 215.408 374.909 215.348 375.06 215.348H380.612C380.762 215.351 380.905 215.412 381.012 215.519C381.118 215.625 381.179 215.768 381.182 215.919C381.182 216.064 381.127 216.204 381.027 216.31C380.928 216.416 380.791 216.48 380.646 216.489ZM369.554 216.489H364.002C363.851 216.489 363.706 216.429 363.599 216.322C363.492 216.215 363.432 216.07 363.432 215.919C363.432 215.767 363.492 215.622 363.599 215.515C363.706 215.408 363.851 215.348 364.002 215.348H369.554C369.704 215.351 369.847 215.412 369.954 215.519C370.06 215.625 370.121 215.768 370.124 215.919C370.124 216.07 370.064 216.215 369.957 216.322C369.85 216.429 369.705 216.489 369.554 216.489ZM358.45 216.489H352.91C352.759 216.489 352.614 216.429 352.507 216.322C352.4 216.215 352.34 216.07 352.34 215.919C352.34 215.767 352.4 215.622 352.507 215.515C352.614 215.408 352.759 215.348 352.91 215.348H358.45C358.601 215.348 358.746 215.408 358.853 215.515C358.96 215.622 359.02 215.767 359.02 215.919C359.02 216.07 358.96 216.215 358.853 216.322C358.746 216.429 358.601 216.489 358.45 216.489ZM341.419 210.637C341.267 210.637 341.122 210.577 341.016 210.47C340.909 210.363 340.849 210.218 340.849 210.067V204.523C340.849 204.372 340.909 204.227 341.016 204.12C341.122 204.013 341.267 203.953 341.419 203.953C341.57 203.953 341.715 204.013 341.822 204.12C341.929 204.227 341.989 204.372 341.989 204.523V210.067C341.989 210.218 341.929 210.363 341.822 210.47C341.715 210.577 341.57 210.637 341.419 210.637ZM391.704 210.215C391.553 210.215 391.408 210.155 391.301 210.048C391.194 209.941 391.134 209.796 391.134 209.645V204.101C391.134 203.95 391.194 203.805 391.301 203.698C391.408 203.591 391.553 203.531 391.704 203.531C391.855 203.531 392 203.591 392.107 203.698C392.214 203.805 392.274 203.95 392.274 204.101V209.645C392.274 209.796 392.214 209.941 392.107 210.048C392 210.155 391.855 210.215 391.704 210.215ZM341.419 199.538C341.267 199.538 341.122 199.478 341.016 199.371C340.909 199.264 340.849 199.119 340.849 198.968V193.413C340.852 193.263 340.913 193.119 341.019 193.013C341.125 192.907 341.268 192.845 341.419 192.843C341.57 192.843 341.715 192.903 341.822 193.01C341.929 193.117 341.989 193.262 341.989 193.413V198.968C341.989 199.119 341.929 199.264 341.822 199.371C341.715 199.478 341.57 199.538 341.419 199.538ZM391.704 199.116C391.553 199.116 391.408 199.056 391.301 198.949C391.194 198.842 391.134 198.697 391.134 198.546V193.002C391.134 192.851 391.194 192.706 391.301 192.599C391.408 192.492 391.553 192.432 391.704 192.432C391.855 192.432 392 192.492 392.107 192.599C392.214 192.706 392.274 192.851 392.274 193.002V198.546C392.274 198.697 392.214 198.842 392.107 198.949C392 199.056 391.855 199.116 391.704 199.116ZM341.419 188.44C341.268 188.437 341.125 188.376 341.019 188.269C340.913 188.163 340.852 188.02 340.849 187.869V182.314C340.849 182.162 340.908 182.015 341.015 181.907C341.121 181.798 341.266 181.735 341.419 181.732C341.493 181.731 341.567 181.744 341.636 181.772C341.705 181.799 341.768 181.84 341.821 181.892C341.874 181.944 341.916 182.006 341.945 182.075C341.974 182.143 341.989 182.217 341.989 182.291V187.869C341.989 188.02 341.929 188.166 341.822 188.272C341.715 188.379 341.57 188.44 341.419 188.44ZM391.704 188.017C391.553 188.017 391.408 187.957 391.301 187.85C391.194 187.743 391.134 187.598 391.134 187.447V185.462C391.134 185.187 391.025 184.923 390.83 184.728C390.636 184.534 390.372 184.424 390.097 184.424H389.059C388.908 184.424 388.763 184.364 388.656 184.257C388.549 184.15 388.489 184.005 388.489 183.854C388.489 183.703 388.549 183.558 388.656 183.451C388.763 183.344 388.908 183.284 389.059 183.284H390.097C390.673 183.287 391.225 183.517 391.633 183.925C392.041 184.333 392.271 184.885 392.274 185.462V187.447C392.274 187.598 392.214 187.743 392.107 187.85C392 187.957 391.855 188.017 391.704 188.017ZM361.38 184.424C360.172 184.367 359.556 183.204 359.1 182.348C358.986 182.132 358.883 181.938 358.781 181.767C358.713 181.645 358.614 181.543 358.494 181.473C358.373 181.403 358.236 181.366 358.097 181.367H357.31C357.159 181.367 357.014 181.307 356.907 181.2C356.8 181.093 356.74 180.948 356.74 180.797C356.74 180.646 356.8 180.501 356.907 180.394C357.014 180.287 357.159 180.227 357.31 180.227H358.097C358.431 180.225 358.76 180.312 359.05 180.478C359.34 180.644 359.582 180.884 359.75 181.173C359.852 181.344 359.978 181.573 360.115 181.824C360.468 182.497 360.867 183.261 361.426 183.284C361.578 183.292 361.72 183.361 361.823 183.474C361.925 183.587 361.979 183.736 361.973 183.888C361.964 184.037 361.897 184.177 361.786 184.278C361.675 184.378 361.529 184.431 361.38 184.424ZM383.564 184.424H378.013C377.861 184.424 377.716 184.364 377.61 184.257C377.503 184.15 377.443 184.005 377.443 183.854C377.446 183.704 377.507 183.56 377.613 183.454C377.719 183.348 377.862 183.287 378.013 183.284H383.564C383.716 183.284 383.861 183.344 383.968 183.451C384.074 183.558 384.134 183.703 384.134 183.854C384.135 183.934 384.118 184.013 384.086 184.086C384.054 184.159 384.007 184.225 383.948 184.279C383.889 184.333 383.819 184.373 383.743 184.398C383.667 184.423 383.587 184.432 383.507 184.424H383.564ZM372.472 184.424H366.92C366.769 184.424 366.624 184.364 366.517 184.257C366.41 184.15 366.35 184.005 366.35 183.854C366.353 183.704 366.414 183.56 366.521 183.454C366.627 183.348 366.77 183.287 366.92 183.284H372.472C372.623 183.287 372.766 183.348 372.872 183.454C372.978 183.56 373.039 183.704 373.042 183.854C373.043 183.934 373.026 184.013 372.994 184.086C372.962 184.159 372.915 184.225 372.856 184.279C372.797 184.333 372.727 184.373 372.651 184.398C372.575 184.423 372.495 184.432 372.415 184.424H372.472ZM351.736 181.367H346.195C346.044 181.367 345.899 181.307 345.792 181.2C345.685 181.093 345.625 180.948 345.625 180.797C345.625 180.646 345.685 180.501 345.792 180.394C345.899 180.287 346.044 180.227 346.195 180.227H351.736C351.887 180.227 352.032 180.287 352.139 180.394C352.246 180.501 352.306 180.646 352.306 180.797C352.306 180.877 352.29 180.956 352.258 181.029C352.225 181.102 352.178 181.168 352.119 181.222C352.06 181.276 351.99 181.316 351.914 181.341C351.838 181.366 351.758 181.375 351.679 181.367H351.736Z" fill="#0693EB"/>
<path d="M365.029 191.211C363.265 191.41 361.6 192.127 360.244 193.272C358.888 194.417 357.902 195.939 357.411 197.646C356.919 199.352 356.944 201.165 357.483 202.857C358.021 204.549 359.049 206.043 360.437 207.15C361.824 208.257 363.508 208.928 365.276 209.078C367.044 209.227 368.817 208.848 370.37 207.99C371.924 207.131 373.187 205.831 374.002 204.253C374.817 202.676 375.145 200.892 374.947 199.128C374.678 196.763 373.482 194.602 371.623 193.118C369.764 191.634 367.393 190.948 365.029 191.211ZM371.071 205.208C370.07 206.211 368.795 206.895 367.405 207.173C366.016 207.451 364.576 207.31 363.267 206.769C361.957 206.227 360.838 205.309 360.051 204.13C359.263 202.952 358.843 201.566 358.843 200.149C358.843 198.731 359.263 197.345 360.051 196.167C360.838 194.988 361.957 194.07 363.267 193.529C364.576 192.987 366.016 192.846 367.405 193.124C368.795 193.402 370.07 194.086 371.071 195.09C372.41 196.433 373.161 198.252 373.161 200.149C373.161 202.045 372.41 203.865 371.071 205.208Z" fill="#0693EB"/>
<path d="M370.352 199.014L367.172 199.003L367.183 195.82L364.914 195.809L364.903 198.991L361.722 198.98L361.711 201.261L364.892 201.272L364.869 204.455L367.149 204.466L367.16 201.284L370.341 201.295L370.352 199.014Z" fill="#0693EB"/>
<path d="M223.668 81.5469H199.728C199.577 81.5469 199.432 81.4868 199.325 81.3799C199.218 81.2729 199.158 81.1279 199.158 80.9766C199.158 80.8253 199.218 80.6803 199.325 80.5733C199.432 80.4663 199.577 80.4062 199.728 80.4062H223.668C223.819 80.4062 223.964 80.4663 224.071 80.5733C224.178 80.6803 224.238 80.8253 224.238 80.9766C224.235 81.1269 224.174 81.2703 224.068 81.3767C223.962 81.483 223.818 81.544 223.668 81.5469Z" fill="#0693EB"/>
<path d="M235.273 81.5469H230.28C230.129 81.5469 229.984 81.4868 229.877 81.3799C229.77 81.2729 229.71 81.1279 229.71 80.9766C229.71 80.8253 229.77 80.6803 229.877 80.5733C229.984 80.4663 230.129 80.4062 230.28 80.4062H235.273C235.424 80.4062 235.569 80.4663 235.676 80.5733C235.783 80.6803 235.843 80.8253 235.843 80.9766C235.843 81.1279 235.783 81.2729 235.676 81.3799C235.569 81.4868 235.424 81.5469 235.273 81.5469Z" fill="#0693EB"/>
<path d="M65.8461 259.211H181.579C183.753 259.211 185.838 260.075 187.375 261.613C188.912 263.151 189.776 265.237 189.776 267.412V434.705C189.776 438.115 188.422 441.385 186.012 443.795C183.603 446.206 180.335 447.561 176.928 447.561H66.1197C63.967 447.561 61.9025 446.705 60.3803 445.182C58.8581 443.659 58.0029 441.593 58.0029 439.439V267.116C58.0029 265.029 58.8274 263.027 60.2967 261.546C61.7659 260.065 63.7608 259.226 65.8461 259.211Z" fill="#263238"/>
<g opacity="0.6">
<path d="M65.8461 259.211H181.579C183.753 259.211 185.838 260.075 187.375 261.613C188.912 263.151 189.776 265.237 189.776 267.412V434.705C189.776 438.115 188.422 441.385 186.012 443.795C183.603 446.206 180.335 447.561 176.928 447.561H66.1197C63.967 447.561 61.9025 446.705 60.3803 445.182C58.8581 443.659 58.0029 441.593 58.0029 439.439V267.116C58.0029 265.029 58.8274 263.027 60.2967 261.546C61.7659 260.065 63.7608 259.226 65.8461 259.211Z" fill="white"/>
</g>
<path opacity="0.3" d="M67.0889 365.352V292.85L86.3549 270.07H160.386L179.983 292.439L184.087 386.306V399.983L165.209 428.614H134.588L89.7749 429.595L67.0889 406.496V365.352Z" fill="black"/>
<path d="M150.754 399.332L136.721 420.332C136.449 420.741 136.295 421.217 136.273 421.707C136.252 422.198 136.364 422.685 136.598 423.117C136.833 423.549 137.18 423.908 137.604 424.157C138.027 424.406 138.51 424.535 139.001 424.529H162.587C163.109 424.528 163.622 424.399 164.081 424.152C164.541 423.906 164.932 423.549 165.221 423.115L179.22 402.081C179.491 401.671 179.646 401.196 179.668 400.705C179.689 400.214 179.577 399.727 179.342 399.295C179.108 398.864 178.761 398.504 178.337 398.255C177.914 398.006 177.431 397.878 176.94 397.883H153.388C152.863 397.884 152.346 398.018 151.886 398.271C151.426 398.524 151.037 398.889 150.754 399.332Z" fill="#EBEBEB"/>
<g opacity="0.3">
<path d="M143.446 420.821C143.446 421.209 143.331 421.589 143.116 421.911C142.9 422.234 142.594 422.485 142.236 422.634C141.877 422.782 141.483 422.821 141.103 422.746C140.722 422.67 140.373 422.483 140.099 422.209C139.824 421.934 139.638 421.585 139.562 421.204C139.486 420.824 139.525 420.429 139.674 420.071C139.822 419.712 140.073 419.406 140.396 419.19C140.718 418.974 141.097 418.859 141.485 418.859C141.743 418.859 141.998 418.91 142.236 419.009C142.473 419.107 142.69 419.252 142.872 419.434C143.054 419.616 143.198 419.833 143.297 420.071C143.395 420.309 143.446 420.564 143.446 420.821Z" fill="black"/>
</g>
<g opacity="0.3">
<path d="M174.626 403.897C175.709 403.897 176.587 403.018 176.587 401.935C176.587 400.851 175.709 399.973 174.626 399.973C173.543 399.973 172.665 400.851 172.665 401.935C172.665 403.018 173.543 403.897 174.626 403.897Z" fill="black"/>
</g>
<g opacity="0.3">
<path d="M65.9149 259.211H77.4175V278.694H57.9463V267.173C57.9523 265.061 58.7942 263.038 60.2876 261.546C61.781 260.053 63.8044 259.214 65.9149 259.211Z" fill="black"/>
</g>
<path d="M70.9769 268.953C70.9746 269.604 70.7795 270.24 70.4161 270.781C70.0527 271.321 69.5374 271.742 68.9352 271.99C68.333 272.238 67.6709 272.301 67.0326 272.173C66.3942 272.044 65.8083 271.73 65.3486 271.268C64.889 270.807 64.5764 270.219 64.4502 269.58C64.324 268.941 64.3899 268.279 64.6396 267.677C64.8893 267.075 65.3115 266.561 65.8531 266.199C66.3946 265.838 67.0312 265.645 67.6823 265.645C68.1159 265.645 68.5452 265.73 68.9457 265.897C69.3462 266.063 69.7099 266.307 70.016 266.614C70.322 266.921 70.5645 267.286 70.7294 267.687C70.8943 268.089 70.9784 268.519 70.9769 268.953Z" fill="#263238"/>
<g opacity="0.3">
<path d="M170.305 259.211H181.705C183.842 259.211 185.892 260.061 187.404 261.573C188.915 263.085 189.764 265.137 189.764 267.276V278.682H170.305V259.211Z" fill="black"/>
</g>
<path d="M183.13 269.476C183.13 270.128 182.937 270.766 182.575 271.308C182.213 271.85 181.698 272.272 181.096 272.522C180.494 272.771 179.832 272.837 179.193 272.71C178.554 272.582 177.967 272.268 177.506 271.807C177.045 271.346 176.731 270.759 176.604 270.119C176.477 269.48 176.542 268.817 176.792 268.215C177.041 267.612 177.463 267.098 178.005 266.735C178.547 266.373 179.184 266.18 179.836 266.18C180.709 266.18 181.547 266.527 182.165 267.145C182.783 267.763 183.13 268.602 183.13 269.476Z" fill="#263238"/>
<g opacity="0.3">
<path d="M57.7412 428.602H77.2124V448.084H70.874C67.391 448.084 64.0506 446.7 61.5877 444.236C59.1248 441.771 57.7412 438.429 57.7412 434.944V428.602Z" fill="black"/>
</g>
<path d="M70.7718 438.343C70.7718 438.995 70.5786 439.633 70.2166 440.175C69.8546 440.717 69.34 441.14 68.738 441.389C68.136 441.639 67.4736 441.704 66.8345 441.577C66.1954 441.45 65.6083 441.136 65.1476 440.674C64.6868 440.213 64.373 439.626 64.2459 438.987C64.1188 438.347 64.184 437.684 64.4334 437.082C64.6828 436.48 65.105 435.965 65.6468 435.602C66.1886 435.24 66.8256 435.047 67.4772 435.047C68.351 435.047 69.189 435.394 69.8069 436.012C70.4247 436.631 70.7718 437.469 70.7718 438.343Z" fill="#263238"/>
<g opacity="0.3">
<path d="M170.1 448.084V428.602H189.571C189.571 431.16 189.067 433.694 188.089 436.057C187.11 438.421 185.676 440.569 183.868 442.378C182.06 444.187 179.913 445.622 177.551 446.601C175.189 447.581 172.657 448.084 170.1 448.084Z" fill="black"/>
</g>
<path d="M183.13 438.343C183.13 438.995 182.937 439.633 182.575 440.175C182.213 440.717 181.698 441.14 181.096 441.389C180.494 441.639 179.832 441.704 179.193 441.577C178.554 441.45 177.967 441.136 177.506 440.674C177.045 440.213 176.731 439.626 176.604 438.987C176.477 438.347 176.542 437.684 176.792 437.082C177.041 436.48 177.463 435.965 178.005 435.602C178.547 435.24 179.184 435.047 179.836 435.047C180.709 435.047 181.547 435.394 182.165 436.012C182.783 436.631 183.13 437.469 183.13 438.343Z" fill="#263238"/>
<path d="M125.252 271.953C114.148 271.953 103.293 275.248 94.06 281.421C84.827 287.594 77.6307 296.368 73.3812 306.633C69.1317 316.898 68.0199 328.194 70.1863 339.092C72.3526 349.989 77.6999 359.999 85.5519 367.856C93.404 375.713 103.408 381.063 114.299 383.231C125.19 385.399 136.479 384.286 146.738 380.034C156.997 375.782 165.766 368.582 171.935 359.343C178.105 350.104 181.397 339.243 181.397 328.132C181.397 313.232 175.482 298.943 164.953 288.407C154.424 277.872 140.143 271.953 125.252 271.953ZM125.252 335.204C123.855 335.204 122.488 334.789 121.326 334.012C120.163 333.235 119.257 332.131 118.722 330.838C118.188 329.546 118.048 328.124 118.32 326.752C118.593 325.38 119.266 324.12 120.255 323.131C121.243 322.142 122.502 321.468 123.874 321.195C125.245 320.923 126.666 321.063 127.957 321.598C129.249 322.133 130.353 323.04 131.129 324.203C131.906 325.366 132.32 326.733 132.32 328.132C132.32 330.008 131.576 331.806 130.25 333.133C128.925 334.459 127.127 335.204 125.252 335.204Z" fill="#0693EB"/>
<g opacity="0.3">
<path d="M125.252 271.953C114.148 271.953 103.293 275.248 94.06 281.421C84.827 287.594 77.6307 296.368 73.3812 306.633C69.1317 316.898 68.0199 328.194 70.1863 339.092C72.3526 349.989 77.6999 359.999 85.5519 367.856C93.404 375.713 103.408 381.063 114.299 383.231C125.19 385.399 136.479 384.286 146.738 380.034C156.997 375.782 165.766 368.582 171.935 359.343C178.105 350.104 181.397 339.243 181.397 328.132C181.397 313.232 175.482 298.943 164.953 288.407C154.424 277.872 140.143 271.953 125.252 271.953ZM125.252 335.204C123.855 335.204 122.488 334.789 121.326 334.012C120.163 333.235 119.257 332.131 118.722 330.838C118.188 329.546 118.048 328.124 118.32 326.752C118.593 325.38 119.266 324.12 120.255 323.131C121.243 322.142 122.502 321.468 123.874 321.195C125.245 320.923 126.666 321.063 127.957 321.598C129.249 322.133 130.353 323.04 131.129 324.203C131.906 325.366 132.32 326.733 132.32 328.132C132.32 330.008 131.576 331.806 130.25 333.133C128.925 334.459 127.127 335.204 125.252 335.204Z" fill="white"/>
</g>
<g opacity="0.3">
<path d="M125.252 310.098C121.687 310.098 118.203 311.155 115.239 313.137C112.275 315.119 109.965 317.935 108.6 321.231C107.236 324.526 106.879 328.152 107.575 331.65C108.27 335.148 109.987 338.362 112.507 340.884C115.028 343.406 118.24 345.124 121.736 345.82C125.232 346.515 128.856 346.158 132.149 344.793C135.443 343.428 138.257 341.117 140.238 338.151C142.218 335.185 143.275 331.699 143.275 328.132C143.275 323.349 141.376 318.762 137.996 315.38C134.616 311.998 130.032 310.098 125.252 310.098ZM125.252 335.193C123.854 335.193 122.487 334.778 121.325 334.001C120.163 333.224 119.257 332.119 118.722 330.827C118.187 329.535 118.047 328.113 118.32 326.741C118.592 325.369 119.266 324.109 120.254 323.12C121.243 322.131 122.502 321.457 123.873 321.184C125.244 320.911 126.665 321.051 127.957 321.587C129.248 322.122 130.352 323.028 131.129 324.191C131.905 325.354 132.32 326.722 132.32 328.12C132.321 329.05 132.14 329.971 131.785 330.83C131.431 331.69 130.91 332.471 130.254 333.129C129.597 333.787 128.818 334.309 127.959 334.665C127.101 335.021 126.181 335.204 125.252 335.204V335.193Z" fill="black"/>
</g>
<path d="M128.204 315.881C128.207 316.378 128.061 316.865 127.787 317.279C127.512 317.694 127.12 318.017 126.661 318.209C126.203 318.4 125.698 318.451 125.21 318.354C124.722 318.258 124.274 318.018 123.923 317.667C123.572 317.315 123.333 316.867 123.236 316.379C123.14 315.891 123.19 315.386 123.382 314.927C123.573 314.468 123.896 314.076 124.31 313.801C124.724 313.526 125.211 313.381 125.708 313.383C126.369 313.386 127.002 313.65 127.47 314.118C127.937 314.586 128.201 315.219 128.204 315.881Z" fill="#E0E0E0"/>
<path d="M115.904 324.517C115.648 324.94 115.272 325.278 114.825 325.488C114.377 325.697 113.877 325.769 113.388 325.694C112.899 325.619 112.444 325.4 112.079 325.066C111.715 324.731 111.458 324.296 111.341 323.815C111.224 323.335 111.253 322.83 111.423 322.365C111.593 321.901 111.897 321.497 112.297 321.206C112.696 320.914 113.173 320.748 113.667 320.729C114.161 320.709 114.65 320.836 115.072 321.095C115.634 321.439 116.037 321.993 116.193 322.634C116.349 323.275 116.245 323.952 115.904 324.517Z" fill="#E0E0E0"/>
<path d="M119.871 338.876C119.616 339.303 119.239 339.645 118.789 339.857C118.339 340.07 117.836 340.143 117.344 340.069C116.852 339.994 116.393 339.775 116.026 339.439C115.659 339.103 115.4 338.665 115.282 338.181C115.164 337.697 115.193 337.189 115.365 336.722C115.537 336.254 115.843 335.849 116.246 335.556C116.649 335.264 117.13 335.098 117.627 335.08C118.124 335.062 118.616 335.192 119.039 335.454C119.599 335.801 120 336.354 120.156 336.994C120.312 337.635 120.209 338.31 119.871 338.876Z" fill="#E0E0E0"/>
<path d="M139.08 324.517C138.825 324.944 138.448 325.286 137.998 325.498C137.548 325.71 137.045 325.784 136.553 325.71C136.061 325.635 135.602 325.416 135.235 325.079C134.868 324.743 134.609 324.305 134.491 323.822C134.373 323.338 134.402 322.83 134.574 322.362C134.746 321.895 135.052 321.489 135.455 321.197C135.858 320.905 136.339 320.739 136.836 320.72C137.333 320.702 137.825 320.832 138.248 321.095C138.808 321.441 139.209 321.995 139.365 322.635C139.521 323.275 139.418 323.951 139.08 324.517Z" fill="#E0E0E0"/>
<path d="M135.979 338.134C135.723 338.557 135.348 338.895 134.9 339.105C134.452 339.314 133.952 339.386 133.463 339.311C132.974 339.236 132.519 339.017 132.155 338.683C131.79 338.348 131.533 337.913 131.416 337.432C131.3 336.952 131.328 336.447 131.498 335.983C131.668 335.518 131.972 335.114 132.372 334.823C132.771 334.532 133.248 334.366 133.742 334.346C134.236 334.326 134.725 334.453 135.147 334.712C135.709 335.057 136.112 335.61 136.268 336.251C136.424 336.892 136.32 337.569 135.979 338.134Z" fill="#E0E0E0"/>
<g opacity="0.3">
<path d="M180.542 337.574L116.109 383.829C117.683 384.08 119.153 384.262 120.51 384.354L179.254 343.586C179.797 341.608 180.227 339.601 180.542 337.574Z" fill="white"/>
</g>
<path d="M112.308 394.879C115.604 391.977 115.925 386.951 113.024 383.653C110.124 380.355 105.101 380.034 101.805 382.937C98.5088 385.839 98.1882 390.865 101.089 394.163C103.989 397.461 109.012 397.782 112.308 394.879Z" fill="#0693EB"/>
<path d="M102.053 383.487L136.059 356.533C136.097 356.504 136.144 356.49 136.192 356.492C136.24 356.495 136.286 356.514 136.321 356.547C136.356 356.579 136.379 356.623 136.385 356.67C136.391 356.718 136.381 356.766 136.355 356.807L113.225 394.7L102.053 383.487Z" fill="#0693EB"/>
<g opacity="0.3">
<path d="M114.308 389.056C114.437 390.494 114.137 391.938 113.446 393.206C112.756 394.474 111.705 395.508 110.428 396.18C109.15 396.851 107.702 397.129 106.267 396.978C104.832 396.827 103.473 396.255 102.363 395.333C101.253 394.41 100.44 393.18 100.027 391.796C99.615 390.412 99.6213 388.938 100.045 387.557C100.47 386.177 101.293 384.954 102.411 384.041C103.529 383.128 104.892 382.567 106.328 382.428C107.288 382.336 108.256 382.434 109.178 382.717C110.099 383.001 110.955 383.464 111.697 384.08C112.439 384.696 113.051 385.453 113.5 386.307C113.948 387.161 114.223 388.095 114.308 389.056Z" fill="black"/>
</g>
<path d="M110.409 389.408C110.472 390.083 110.333 390.762 110.01 391.358C109.687 391.954 109.195 392.441 108.595 392.756C107.995 393.072 107.315 393.201 106.641 393.129C105.967 393.057 105.33 392.787 104.81 392.352C104.29 391.917 103.911 391.337 103.721 390.686C103.531 390.035 103.539 389.342 103.743 388.696C103.947 388.049 104.339 387.478 104.868 387.054C105.397 386.631 106.04 386.374 106.716 386.317C107.614 386.241 108.506 386.523 109.198 387.102C109.89 387.681 110.325 388.51 110.409 389.408Z" fill="#263238"/>
<path d="M70.0527 375.596V403.531C70.0523 404.072 70.1588 404.607 70.3662 405.107C70.5736 405.606 70.8778 406.059 71.2611 406.44L88.3611 423.55C89.1178 424.299 90.1356 424.724 91.1997 424.737H128.295C129.381 424.737 130.422 424.305 131.189 423.537C131.957 422.769 132.388 421.728 132.388 420.642V403.691C132.388 402.604 131.957 401.561 131.19 400.791C130.423 400.022 129.382 399.588 128.295 399.585H103.067C102.493 399.585 101.925 399.465 101.4 399.231C100.876 398.997 100.407 398.655 100.023 398.227L77.2233 372.858C76.8316 372.42 76.3495 372.071 75.8102 371.837C75.271 371.603 74.6875 371.488 74.0997 371.501C73.0222 371.513 71.9929 371.95 71.2353 372.716C70.4776 373.483 70.0527 374.518 70.0527 375.596Z" fill="#EBEBEB"/>
<g opacity="0.3">
<path d="M69.9509 318.389L148.326 276.902C151.775 278.466 155.056 280.377 158.118 282.606L69.3011 332.83C68.9005 328.008 69.1188 323.155 69.9509 318.389Z" fill="white"/>
</g>
<g opacity="0.3">
<path d="M71.501 311.866L141.634 274.383C140.118 273.927 138.681 273.539 137.359 273.242L73.5758 306.128C72.7787 308.001 72.086 309.916 71.501 311.866Z" fill="white"/>
</g>
<path d="M276.244 266.488L278.832 273.561H293.926L296.525 266.545L276.244 266.488Z" fill="#263238"/>
<path d="M289.935 269.008H282.947V286.301H289.935V269.008Z" fill="#263238"/>
<path d="M398.042 396.528H390.712V395.387H398.042C398.816 395.387 399.558 395.079 400.106 394.532C400.653 393.984 400.96 393.241 400.96 392.467V318.14C400.957 315.754 400.009 313.467 398.323 311.779C396.636 310.092 394.35 309.143 391.966 309.14H294.313C292.062 309.137 289.903 308.241 288.311 306.648C286.719 305.055 285.823 302.895 285.82 300.642V285.117H286.96V300.642C286.96 302.593 287.735 304.465 289.114 305.844C290.493 307.224 292.363 307.999 294.313 307.999H391.966C394.653 308.002 397.229 309.072 399.129 310.973C401.029 312.874 402.097 315.451 402.1 318.14V392.467C402.1 393.544 401.673 394.577 400.912 395.338C400.151 396.1 399.118 396.528 398.042 396.528Z" fill="#263238"/>
<path d="M340.062 332.066H171.877C164.769 332.066 159.007 337.832 159.007 344.945V451.097C159.007 458.209 164.769 463.975 171.877 463.975H340.062C347.17 463.975 352.932 458.209 352.932 451.097V344.945C352.932 337.832 347.17 332.066 340.062 332.066Z" fill="#0693EB"/>
<g opacity="0.3">
<path d="M340.062 332.066H171.877C164.769 332.066 159.007 337.832 159.007 344.945V451.097C159.007 458.209 164.769 463.975 171.877 463.975H340.062C347.17 463.975 352.932 458.209 352.932 451.097V344.945C352.932 337.832 347.17 332.066 340.062 332.066Z" fill="black"/>
</g>
<path d="M348.942 332.066H180.758C173.65 332.066 167.888 337.832 167.888 344.945V451.097C167.888 458.209 173.65 463.975 180.758 463.975H348.942C356.051 463.975 361.813 458.209 361.813 451.097V344.945C361.813 337.832 356.051 332.066 348.942 332.066Z" fill="#0693EB"/>
<path d="M388.956 388.004V403.973C388.956 405.416 388.383 406.8 387.363 407.821C386.344 408.841 384.96 409.414 383.518 409.414H361.505V382.562H383.518C384.96 382.563 386.344 383.136 387.363 384.156C388.383 385.177 388.956 386.56 388.956 388.004Z" fill="#263238"/>
<path d="M392.49 399.24V392.727H388.956V399.24H392.49Z" fill="#263238"/>
<path d="M186.208 352.141H178.649V362.772H186.208V352.141Z" fill="white"/>
<path d="M250.491 328.633H226.551C226.4 328.633 226.255 328.573 226.148 328.466C226.042 328.359 225.981 328.214 225.981 328.063C225.981 327.911 226.042 327.766 226.148 327.659C226.255 327.552 226.4 327.492 226.551 327.492H250.491C250.643 327.492 250.788 327.552 250.895 327.659C251.001 327.766 251.061 327.911 251.061 328.063C251.059 328.213 250.998 328.356 250.891 328.463C250.785 328.569 250.642 328.63 250.491 328.633Z" fill="#0693EB"/>
<path d="M260.422 328.633H255.428C255.278 328.63 255.135 328.569 255.029 328.463C254.922 328.356 254.861 328.213 254.858 328.063C254.858 327.911 254.918 327.766 255.025 327.659C255.132 327.552 255.277 327.492 255.428 327.492H260.422C260.573 327.492 260.718 327.552 260.825 327.659C260.932 327.766 260.992 327.911 260.992 328.063C260.992 328.214 260.932 328.359 260.825 328.466C260.718 328.573 260.573 328.633 260.422 328.633Z" fill="#0693EB"/>
<path d="M505.807 461.383L496.47 462.295L489.562 438.626L503.766 437.086L505.807 461.383Z" fill="#EEC1BB"/>
<path d="M495.113 458.168H498.441C498.815 458.17 499.182 458.261 499.513 458.434C499.844 458.606 500.13 458.855 500.345 459.16C502.272 461.784 503.765 460.792 505.806 458.328C507.14 458.168 507.493 459.696 507.596 460.107L510.092 469.176C510.144 469.356 510.16 469.545 510.139 469.732C510.118 469.919 510.061 470.099 509.969 470.264C509.878 470.428 509.756 470.573 509.608 470.689C509.461 470.806 509.293 470.892 509.112 470.944C508.978 470.979 508.84 470.998 508.701 471.001H482.276C478.081 471.001 477.203 466.757 478.936 466.369C486.722 464.647 492.228 462.354 494.634 460.084C495.09 459.696 494.622 459.4 495.113 458.168Z" fill="#263238"/>
<path d="M490.2 461.26C491.252 461.235 492.299 461.101 493.323 460.86C493.369 460.843 493.407 460.808 493.428 460.763C493.449 460.719 493.452 460.668 493.437 460.621C493.416 460.57 493.375 460.529 493.323 460.507C492.856 460.279 488.684 458.328 487.623 459.07C487.528 459.134 487.452 459.223 487.403 459.328C487.355 459.432 487.337 459.548 487.35 459.663C487.353 459.875 487.407 460.084 487.506 460.273C487.605 460.461 487.747 460.623 487.92 460.746C488.604 461.161 489.404 461.341 490.2 461.26ZM492.662 460.61C491.442 460.838 489.151 461.134 488.205 460.427C488.083 460.334 487.982 460.216 487.911 460.08C487.84 459.943 487.8 459.793 487.794 459.64C487.783 459.593 487.786 459.543 487.804 459.498C487.823 459.452 487.855 459.414 487.897 459.389C488.421 458.978 490.884 459.845 492.605 460.61H492.662Z" fill="#0693EB"/>
<path d="M493.22 460.869H493.346C493.374 460.844 493.395 460.812 493.405 460.775C493.415 460.739 493.414 460.7 493.403 460.664C493.403 460.493 492.422 456.386 490.142 456.649C489.572 456.729 489.413 457.002 489.39 457.231C489.242 458.314 491.875 460.379 493.118 460.892L493.22 460.869ZM490.37 456.98C491.818 456.98 492.65 459.375 492.935 460.333C491.579 459.615 489.675 457.904 489.789 457.242C489.789 457.185 489.789 457.025 490.211 456.991L490.37 456.98Z" fill="#0693EB"/>
<path d="M495.626 462.854C495.578 462.853 495.531 462.84 495.489 462.816C495.447 462.792 495.412 462.758 495.387 462.717C495.095 462.261 494.709 461.874 494.255 461.581C493.8 461.287 493.288 461.095 492.753 461.017C492.716 461.013 492.68 461.002 492.648 460.983C492.615 460.964 492.587 460.939 492.564 460.909C492.542 460.88 492.526 460.845 492.517 460.809C492.509 460.773 492.507 460.735 492.514 460.698C492.528 460.625 492.568 460.561 492.627 460.516C492.686 460.472 492.76 460.451 492.833 460.458C493.449 460.545 494.039 460.764 494.563 461.101C495.086 461.438 495.531 461.884 495.865 462.409C495.886 462.441 495.9 462.477 495.907 462.514C495.914 462.552 495.913 462.591 495.904 462.628C495.896 462.665 495.88 462.7 495.858 462.731C495.835 462.762 495.807 462.788 495.774 462.808C495.729 462.835 495.678 462.851 495.626 462.854Z" fill="#0693EB"/>
<path d="M493.552 464.418C493.504 464.416 493.457 464.402 493.416 464.378C493.374 464.354 493.339 464.321 493.312 464.281C493.024 463.825 492.64 463.437 492.188 463.144C491.735 462.85 491.224 462.659 490.69 462.582C490.649 462.583 490.608 462.576 490.57 462.56C490.532 462.544 490.498 462.52 490.47 462.49C490.442 462.459 490.421 462.423 490.408 462.384C490.396 462.345 490.392 462.303 490.397 462.262C490.402 462.221 490.415 462.182 490.437 462.147C490.459 462.112 490.488 462.082 490.522 462.059C490.557 462.036 490.596 462.021 490.637 462.015C490.677 462.009 490.719 462.011 490.759 462.023C491.376 462.111 491.967 462.331 492.492 462.667C493.017 463.004 493.464 463.449 493.802 463.974C493.839 464.04 493.85 464.117 493.833 464.19C493.816 464.264 493.773 464.329 493.711 464.373C493.662 464.4 493.608 464.415 493.552 464.418Z" fill="#0693EB"/>
<path d="M490.975 465.731C490.927 465.728 490.881 465.715 490.839 465.691C490.798 465.667 490.762 465.634 490.736 465.594C490.444 465.139 490.058 464.751 489.604 464.458C489.149 464.165 488.637 463.973 488.102 463.895C488.062 463.895 488.021 463.886 487.984 463.869C487.947 463.852 487.914 463.827 487.887 463.796C487.86 463.765 487.841 463.729 487.829 463.69C487.817 463.651 487.814 463.609 487.82 463.569C487.826 463.529 487.84 463.49 487.862 463.455C487.884 463.421 487.914 463.392 487.948 463.37C487.982 463.348 488.021 463.333 488.061 463.327C488.102 463.321 488.143 463.324 488.182 463.336C488.798 463.424 489.388 463.644 489.911 463.98C490.434 464.317 490.879 464.762 491.215 465.286C491.235 465.318 491.25 465.354 491.256 465.392C491.263 465.429 491.262 465.468 491.253 465.505C491.245 465.542 491.229 465.578 491.207 465.608C491.184 465.639 491.156 465.666 491.123 465.685C491.078 465.713 491.028 465.728 490.975 465.731Z" fill="#0693EB"/>
<path opacity="0.3" d="M493.209 451.14L494.053 454.037L505.054 452.349L504.848 449.965L493.209 451.14Z" fill="black"/>
<path d="M451.429 461.383L442.092 462.295L435.184 438.626L449.399 437.086L451.429 461.383Z" fill="#EEC1BB"/>
<path d="M440.735 458.168H444.075C444.447 458.171 444.812 458.263 445.142 458.435C445.471 458.608 445.754 458.856 445.968 459.16C447.894 461.784 449.388 460.792 451.428 458.328C452.762 458.168 453.116 459.696 453.23 460.107L455.726 469.176C455.828 469.54 455.783 469.93 455.599 470.261C455.416 470.592 455.109 470.838 454.746 470.944C454.608 470.98 454.466 470.999 454.324 471.001H427.91C423.704 471.001 422.837 466.757 424.559 466.369C432.345 464.647 437.862 462.354 440.268 460.084C440.712 459.696 440.256 459.4 440.735 458.168Z" fill="#263238"/>
<path d="M435.765 461.26C436.817 461.235 437.864 461.101 438.889 460.86C438.912 460.853 438.934 460.84 438.953 460.824C438.971 460.808 438.986 460.788 438.997 460.765C439.008 460.743 439.014 460.718 439.015 460.694C439.016 460.669 439.012 460.644 439.003 460.621C438.993 460.595 438.978 460.571 438.958 460.551C438.938 460.532 438.915 460.517 438.889 460.507C438.421 460.279 434.249 458.328 433.189 459.07C433.091 459.132 433.013 459.221 432.965 459.326C432.916 459.431 432.899 459.548 432.915 459.663C432.916 459.875 432.968 460.083 433.065 460.272C433.162 460.46 433.302 460.623 433.474 460.746C434.161 461.162 434.966 461.343 435.765 461.26ZM438.239 460.61C437.008 460.838 434.716 461.134 433.77 460.427C433.652 460.33 433.556 460.21 433.485 460.075C433.415 459.94 433.372 459.792 433.36 459.64C433.349 459.591 433.354 459.541 433.374 459.495C433.395 459.45 433.43 459.413 433.474 459.389C434.044 458.978 436.506 459.845 438.239 460.61Z" fill="#0693EB"/>
<path d="M438.9 460.869H439.037C439.065 460.844 439.086 460.812 439.096 460.775C439.106 460.739 439.105 460.7 439.094 460.664C439.094 460.493 438.113 456.386 435.822 456.649C435.252 456.729 435.092 457.002 435.07 457.231C434.933 458.314 437.555 460.379 438.809 460.892L438.9 460.869ZM436.05 456.98C437.498 456.98 438.33 459.375 438.626 460.333C437.258 459.615 435.355 457.904 435.48 457.242C435.48 457.185 435.48 457.025 435.902 456.991L436.05 456.98Z" fill="#0693EB"/>
<path d="M441.26 462.854C441.21 462.855 441.16 462.843 441.116 462.819C441.072 462.795 441.035 462.76 441.009 462.717C440.721 462.261 440.337 461.873 439.884 461.579C439.432 461.286 438.921 461.094 438.387 461.017C438.349 461.013 438.313 461.002 438.28 460.983C438.247 460.965 438.218 460.94 438.195 460.91C438.171 460.881 438.154 460.846 438.144 460.81C438.134 460.774 438.131 460.736 438.136 460.698C438.152 460.625 438.195 460.56 438.256 460.516C438.317 460.471 438.392 460.451 438.467 460.459C439.082 460.547 439.672 460.767 440.195 461.103C440.719 461.44 441.163 461.885 441.499 462.409C441.538 462.475 441.55 462.553 441.533 462.627C441.516 462.701 441.471 462.766 441.408 462.808C441.362 462.834 441.312 462.849 441.26 462.854Z" fill="#0693EB"/>
<path d="M439.185 464.417C439.137 464.416 439.09 464.402 439.048 464.379C439.006 464.355 438.971 464.321 438.945 464.281C438.654 463.825 438.268 463.438 437.813 463.144C437.359 462.851 436.847 462.659 436.312 462.581C436.275 462.577 436.239 462.565 436.206 462.547C436.174 462.528 436.146 462.503 436.123 462.473C436.101 462.443 436.085 462.409 436.076 462.373C436.067 462.336 436.066 462.298 436.072 462.262C436.084 462.188 436.124 462.121 436.183 462.077C436.243 462.032 436.318 462.012 436.392 462.022C437.007 462.11 437.597 462.33 438.12 462.667C438.644 463.003 439.088 463.449 439.424 463.973C439.463 464.038 439.475 464.116 439.458 464.19C439.441 464.265 439.396 464.33 439.333 464.372C439.287 464.397 439.237 464.413 439.185 464.417Z" fill="#0693EB"/>
<path d="M436.62 465.732C436.57 465.731 436.521 465.718 436.478 465.694C436.434 465.67 436.397 465.636 436.369 465.595C436.081 465.139 435.697 464.75 435.245 464.457C434.792 464.163 434.281 463.972 433.747 463.895C433.673 463.884 433.605 463.844 433.558 463.785C433.512 463.726 433.49 463.651 433.496 463.576C433.502 463.538 433.515 463.502 433.535 463.469C433.554 463.437 433.58 463.409 433.611 463.386C433.642 463.364 433.677 463.348 433.714 463.339C433.751 463.331 433.789 463.33 433.827 463.336C434.442 463.426 435.031 463.646 435.554 463.983C436.077 464.319 436.522 464.764 436.859 465.287C436.898 465.352 436.911 465.43 436.894 465.505C436.877 465.579 436.832 465.644 436.768 465.686C436.722 465.711 436.672 465.727 436.62 465.732Z" fill="#0693EB"/>
<path opacity="0.3" d="M438.831 451.14L439.686 454.037L450.676 452.349L450.47 449.965L438.831 451.14Z" fill="black"/>
<path d="M431.467 283.062C431.467 283.062 423.726 317.283 420.067 347.066C418.927 356.192 418.733 368.294 420.716 377.237L435.639 451.462L454.415 449.58C451.462 417.572 447.358 378.082 446.173 361.279C450.299 341.625 459.077 317.774 467.73 294.07L431.467 283.062Z" fill="#0693EB"/>
<path d="M493.163 367.254C492.742 365.406 492.023 361.642 491.237 356.691H491.305C490.701 350.132 489.572 319.71 487.498 300.307C485.902 287.942 482.744 279.581 479.518 275.486C479.358 275.269 479.21 275.086 479.073 274.915C478.549 274.254 478.218 273.889 478.218 273.889C477.614 274.037 477.078 274.185 476.417 274.311L475.756 274.459C461.782 277.211 447.369 276.798 433.576 273.25C431.512 278.36 429.973 289.22 428.457 300.535C430.805 303.113 441.111 306.455 452.933 308.668L456.353 323.919C458.12 333.387 460.4 342.661 462.338 351.01L464.356 360.136C464.481 360.729 464.595 361.277 464.709 361.915C465.735 367.174 490.142 451.904 490.142 451.904L506.045 450.969C506.045 450.969 498.92 392.326 493.163 367.254Z" fill="#0693EB"/>
<path opacity="0.2" d="M432.06 278.269C437.761 283.82 445.388 286.948 453.343 286.995C466.784 287.121 481.843 279.284 481.843 279.284L480.156 276.387L441.396 280.607L433.416 276.387L432.06 278.269Z" fill="black"/>
<path opacity="0.2" d="M456.546 325.313C456.546 325.621 449.262 298.918 449.262 298.918C449.262 298.918 443.083 322.758 452.488 337.701L456.546 325.313Z" fill="black"/>
<path d="M433.599 223.254C431.615 234.182 427.648 248.554 427.648 248.554C425.094 249.09 406.706 248.554 406.706 248.554L407.515 256.049C407.515 256.049 414.355 257.429 421.195 258.969C433.2 261.672 435.411 260.885 438.409 253.938C441.408 246.992 445.74 225.17 445.74 225.17L433.599 223.254Z" fill="#EEC1BB"/>
<path d="M440.428 210.821C435.28 216.555 431.589 223.445 429.666 230.908L448.123 235.323C448.123 235.323 453.23 221.84 451.155 216.901C449 211.768 445.66 206.817 440.428 210.821Z" fill="#263238"/>
<g opacity="0.3">
<path d="M439.275 219.57C438.375 221.105 437.677 222.75 437.201 224.464C436.59 227.018 436.209 229.621 436.061 232.243L439.617 233.259C439.435 228.525 439.412 224.338 439.275 219.57Z" fill="black"/>
</g>
<path d="M485.64 233.727L491.477 213.8C487.783 208.279 469.497 204.047 469.497 204.047L457.482 204.743C457.482 204.743 452.853 205.781 448.898 207.024C443.608 208.758 440.747 210.138 439.481 213.081C439.481 213.081 437.27 219.583 438.603 232.997C438.968 236.682 438.603 255.811 437.52 262.188L431.296 277.119C453.298 294.229 481.456 277.119 481.456 277.119C480.51 274.062 479.809 270.934 479.358 267.766C479.678 263.99 479.233 258.172 480.829 251.568C481.137 250.302 485.127 234.959 485.64 233.727Z" fill="#263238"/>
<path opacity="0.3" d="M483.804 239.19C483.804 239.19 475.368 228.559 476.804 224.133L485.491 232.266L483.804 239.19Z" fill="black"/>
<path d="M488.9 211.825C493.517 213.376 498.123 227.988 498.123 227.988L484.5 236.965C484.5 236.965 476.52 225.148 477.979 219.034C479.256 213.866 483.029 209.84 488.9 211.825Z" fill="#263238"/>
<path d="M485.423 236.385C485.423 236.385 493.768 254.385 493.631 255.081C493.107 257.647 466.271 255.913 466.271 255.913L465.621 263.111C473.629 265.527 481.91 266.919 490.268 267.252C503.173 267.514 509.044 260.75 505.92 252.685C502.591 244.084 496.515 229.027 496.515 229.027L485.423 236.385Z" fill="#EEC1BB"/>
<path opacity="0.3" d="M493.62 255.079C495.454 254.812 497.323 255.178 498.921 256.117C498.921 256.117 498.659 254.976 496.47 254.12C495.386 253.804 494.257 253.677 493.13 253.744L493.62 255.079Z" fill="black"/>
<path d="M495.352 178.859C494.281 177.9 492.639 178.163 491.237 177.855C490.227 177.541 489.297 177.013 488.51 176.306C487.723 175.599 487.097 174.731 486.677 173.76C485.708 171.889 485.172 169.813 484.237 167.919C483.177 165.575 481.335 163.671 479.028 162.535C476.748 161.509 472.188 161.737 470.842 164.577L469.987 170.406C472.78 175.037 472.142 178.904 471.675 184.3C471.321 188.246 473.476 190.243 475.482 192.284C477.147 194.007 481 194.691 483.394 194.497C484.712 194.477 485.974 193.96 486.928 193.049C487.374 192.573 487.623 191.945 487.623 191.292C487.623 190.639 487.374 190.011 486.928 189.535C489.021 189.514 491.049 188.803 492.698 187.512C494.346 186.221 495.524 184.423 496.048 182.395C496.241 181.795 496.278 181.155 496.157 180.537C496.035 179.918 495.758 179.341 495.352 178.859Z" fill="#263238"/>
<path d="M472.404 164.475C473.317 164.7 474.164 165.139 474.873 165.756C475.583 166.372 476.136 167.15 476.485 168.023C477.044 169.153 477.247 170.426 477.067 171.673C476.97 172.293 476.73 172.882 476.366 173.393C476.001 173.903 475.523 174.322 474.969 174.616C474.411 174.889 473.781 174.981 473.168 174.878C472.555 174.776 471.989 174.485 471.549 174.046C471.203 173.594 470.964 173.071 470.85 172.513C470.735 171.956 470.748 171.38 470.888 170.829C471.201 169.738 471.582 168.667 472.028 167.624C472.46 166.566 472.528 165.394 472.222 164.293" fill="#0693EB"/>
<path d="M472.347 204.81C472.347 204.81 468.608 207.684 463.797 211.825C462.8 212.712 461.702 213.477 460.525 214.106C457.379 215.783 454.506 216.741 453.685 215.247C453.512 214.905 453.374 214.546 453.275 214.175C452.614 211.631 452.887 208.049 454.951 206.418C457.231 204.57 458.371 202.996 457.96 200.487C457.691 199.006 457.248 197.562 456.638 196.186L458.462 194.053L468.004 184.426C467.81 190.779 467.32 201.319 472.347 204.81Z" fill="#EEC1BB"/>
<path opacity="0.2" d="M458.086 200.966C460.708 199.403 463.592 196.7 463.25 193.608C463.133 192.476 462.88 191.361 462.498 190.289L457.14 197.35C457.58 198.519 457.897 199.731 458.086 200.966Z" fill="black"/>
<path d="M470.74 174.013C469.851 183.811 469.68 187.975 464.618 193.119C457.003 200.853 445.295 198.252 443.289 188.557C441.465 179.808 443.289 165.23 452.865 161.112C454.9 160.157 457.153 159.763 459.392 159.973C461.63 160.182 463.771 160.986 465.594 162.302C467.417 163.618 468.856 165.397 469.761 167.456C470.665 169.516 471.003 171.779 470.74 174.013Z" fill="#EEC1BB"/>
<path d="M458.53 177.104C458.53 178.016 457.914 178.769 457.276 178.792C456.638 178.815 456.136 178.062 456.204 177.149C456.273 176.237 456.82 175.472 457.459 175.461C458.097 175.45 458.587 176.225 458.53 177.104Z" fill="#263238"/>
<path d="M448.373 176.953C448.373 177.843 447.757 178.584 447.119 178.596C446.48 178.607 445.979 177.9 446.047 177.01C446.116 176.121 446.663 175.391 447.301 175.368C447.94 175.345 448.43 176.064 448.373 176.953Z" fill="#263238"/>
<path d="M460.092 173.589C460.03 173.597 459.968 173.59 459.908 173.571C459.849 173.551 459.795 173.518 459.75 173.475C459.328 173.067 458.811 172.771 458.246 172.613C457.68 172.456 457.085 172.443 456.513 172.574C456.454 172.593 456.392 172.599 456.331 172.592C456.27 172.586 456.212 172.566 456.159 172.535C456.106 172.503 456.06 172.461 456.025 172.411C455.99 172.361 455.966 172.304 455.954 172.243C455.928 172.117 455.95 171.985 456.015 171.873C456.08 171.762 456.184 171.678 456.307 171.639C457.03 171.467 457.785 171.481 458.501 171.681C459.217 171.88 459.87 172.258 460.4 172.779C460.445 172.824 460.482 172.877 460.506 172.936C460.531 172.995 460.544 173.058 460.544 173.122C460.544 173.185 460.531 173.248 460.506 173.307C460.482 173.366 460.445 173.419 460.4 173.464C460.311 173.533 460.204 173.576 460.092 173.589Z" fill="#263238"/>
<path d="M445.238 173.099C445.128 173.143 445.006 173.143 444.896 173.099C444.843 173.064 444.798 173.02 444.763 172.967C444.729 172.915 444.704 172.856 444.693 172.795C444.681 172.733 444.682 172.669 444.695 172.608C444.709 172.547 444.734 172.488 444.771 172.437C445.161 171.765 445.701 171.192 446.35 170.765C446.999 170.337 447.738 170.066 448.51 169.973C448.571 169.97 448.632 169.98 448.69 170.001C448.747 170.023 448.799 170.056 448.843 170.099C448.887 170.142 448.922 170.193 448.945 170.25C448.968 170.307 448.979 170.368 448.977 170.43C448.972 170.558 448.921 170.681 448.833 170.776C448.745 170.87 448.627 170.929 448.498 170.943C447.889 171.025 447.306 171.247 446.796 171.591C446.286 171.935 445.862 172.393 445.557 172.928C445.472 173.017 445.36 173.077 445.238 173.099Z" fill="#263238"/>
<path d="M466.568 180.161C466.568 180.161 463.547 175.598 464.789 166.678C464.901 165.964 464.733 165.233 464.322 164.639C463.91 164.044 463.286 163.631 462.578 163.484C458.348 162.663 452.694 157.325 445.797 167.922C445.797 167.922 449.308 154.45 468.346 160.336C480.59 164.134 473.75 179.431 471.983 180.925C470.216 182.42 466.568 180.161 466.568 180.161Z" fill="#263238"/>
<path d="M473.716 181.996C472.681 183.815 470.967 185.148 468.95 185.703C466.351 186.353 465.017 182.19 465.895 179.578C466.305 178.4 467.122 177.408 468.198 176.78C469.275 176.153 470.54 175.931 471.766 176.156C474.24 176.703 475.038 179.703 473.716 181.996Z" fill="#EEC1BB"/>
<path d="M450.847 186.547C451.52 187.703 452.107 188.908 452.602 190.151C452.83 190.151 453.07 190.06 453.298 189.992C456.421 189.262 457.618 187.893 458.017 186.57C458.27 185.559 458.169 184.492 457.732 183.547C456.307 184.927 453.457 185.828 451.907 186.25C451.257 186.49 450.847 186.547 450.847 186.547Z" fill="#263238"/>
<path d="M451.907 186.274L452.454 187.323C455.396 186.627 457.368 185.749 458.075 184.643C458.011 184.271 457.896 183.91 457.733 183.57C456.308 184.951 453.458 185.852 451.907 186.274Z" fill="white"/>
<path d="M453.298 189.992C456.421 189.262 457.618 187.894 458.017 186.57C456.836 186.875 455.717 187.385 454.711 188.076C454.049 188.549 453.554 189.22 453.298 189.992Z" fill="#DC5753"/>
<path d="M451.007 176.691C450.128 178.787 449.035 180.786 447.746 182.657C447.68 182.751 447.636 182.86 447.618 182.974C447.6 183.088 447.608 183.204 447.642 183.315C447.676 183.425 447.735 183.526 447.815 183.61C447.894 183.693 447.992 183.758 448.1 183.798C448.961 184.038 449.872 184.038 450.733 183.798L451.007 176.691Z" fill="#D4827D"/>
<path d="M457.653 175.438L455.373 174.902C455.373 174.902 456.638 176.591 457.653 175.438Z" fill="#263238"/>
<path d="M447.541 175.392L445.261 174.867C445.261 174.867 446.515 176.544 447.541 175.392Z" fill="#263238"/>
<path d="M444.075 172.072C444.075 172.072 438.113 164.806 448.385 158.852C448.385 158.852 457.334 153.924 465.918 159.707C474.502 165.49 474.639 169.391 466.488 178.323C466.488 178.323 467.377 177.182 464.356 174.49C461.335 171.798 458.018 169.471 459.636 166.905C458.935 167.178 458.318 167.631 457.846 168.217C457.374 168.804 457.064 169.503 456.946 170.247L452.546 169.106C452.732 167.877 453.196 166.707 453.902 165.684C452.59 166.472 451.536 167.625 450.87 169.004L447.062 169.722C447.062 169.722 447.621 166.22 448.692 164.966C446.714 167.018 445.147 169.43 444.075 172.072Z" fill="#263238"/>
<path d="M465.439 236.383H411.608V254.85H465.439V236.383Z" fill="white"/>
<path d="M407.105 237.25V276.307C407.105 276.827 407.312 277.326 407.68 277.694C408.048 278.062 408.546 278.269 409.066 278.269H466.522C467.042 278.269 467.541 278.062 467.909 277.694C468.277 277.326 468.483 276.827 468.483 276.307V241.094C468.483 240.574 468.277 240.075 467.909 239.707C467.541 239.339 467.042 239.132 466.522 239.132H431.581C431.233 239.13 430.892 239.036 430.592 238.859C430.292 238.683 430.043 238.431 429.871 238.128L428.731 236.201C428.588 235.953 428.382 235.747 428.134 235.605C427.885 235.462 427.604 235.389 427.318 235.391H408.964C408.473 235.397 408.003 235.594 407.656 235.942C407.309 236.289 407.111 236.759 407.105 237.25Z" fill="#0693EB"/>
<path d="M468.471 254.599C468.471 254.599 459.83 256.652 459.009 258.363C458.188 260.074 460.878 259.972 460.878 259.972C460.878 259.972 457.926 260.257 457.88 261.523C457.812 263.052 460.639 262.938 460.639 262.938C460.639 262.938 458.234 263.268 458.268 264.409C458.302 265.55 461.494 265.687 461.494 265.687C461.494 265.687 459.841 266.246 460.354 267.021C460.867 267.797 467.593 268.162 469.611 266.907C471.629 265.652 471.754 256.949 471.389 255.044C471.024 253.139 470.819 252.112 468.539 249.227V254.633L468.471 254.599Z" fill="#EEC1BB"/>
<path opacity="0.2" d="M460.891 260.11L466.021 259.369C466.055 259.36 466.085 259.339 466.104 259.309C466.123 259.28 466.13 259.244 466.123 259.209C466.123 259.129 466.055 259.072 465.986 259.083L460.856 259.825C460.838 259.828 460.821 259.834 460.805 259.844C460.79 259.853 460.776 259.866 460.766 259.881C460.755 259.896 460.748 259.912 460.744 259.93C460.74 259.948 460.739 259.967 460.742 259.985C460.744 260.003 460.749 260.02 460.757 260.036C460.765 260.052 460.777 260.067 460.79 260.078C460.804 260.09 460.82 260.099 460.837 260.104C460.855 260.11 460.873 260.112 460.891 260.11Z" fill="black"/>
<path opacity="0.2" d="M460.788 263.077L465.781 262.758C465.849 262.758 465.895 262.689 465.895 262.61C465.895 262.573 465.881 262.538 465.855 262.513C465.829 262.487 465.794 262.473 465.758 262.473L460.776 262.792C460.758 262.795 460.741 262.801 460.725 262.811C460.71 262.82 460.696 262.833 460.686 262.848C460.675 262.863 460.667 262.88 460.663 262.897C460.659 262.915 460.659 262.934 460.662 262.952C460.661 262.969 460.663 262.986 460.668 263.002C460.674 263.018 460.683 263.032 460.695 263.044C460.707 263.056 460.722 263.066 460.738 263.071C460.754 263.077 460.771 263.079 460.788 263.077Z" fill="black"/>
<path opacity="0.2" d="M461.699 265.824L465.416 265.699C465.455 265.699 465.493 265.683 465.52 265.655C465.548 265.628 465.564 265.59 465.564 265.551C465.564 265.511 465.548 265.474 465.52 265.446C465.493 265.418 465.455 265.402 465.416 265.402L461.699 265.539C461.682 265.541 461.664 265.546 461.649 265.554C461.633 265.562 461.62 265.574 461.609 265.588C461.598 265.602 461.591 265.618 461.586 265.635C461.582 265.652 461.582 265.67 461.585 265.688C461.584 265.704 461.585 265.721 461.59 265.736C461.595 265.752 461.603 265.767 461.614 265.78C461.624 265.792 461.637 265.803 461.652 265.811C461.667 265.818 461.683 265.823 461.699 265.824Z" fill="black"/>
<path d="M407.857 253.13C407.857 253.13 416.054 255.229 416.806 256.838C417.559 258.446 415.028 258.332 415.028 258.332C415.028 258.332 417.81 258.64 417.844 259.838C417.844 261.275 415.222 261.138 415.222 261.138C415.222 261.138 417.502 261.48 417.433 262.552C417.365 263.625 414.378 263.693 414.378 263.693C414.378 263.693 415.929 264.229 415.518 264.959C415.108 265.689 408.678 265.929 406.797 264.743C404.916 263.556 404.893 255.332 405.258 253.541C405.623 251.75 404.882 250.769 407.128 248.043L407.892 253.108L407.857 253.13Z" fill="#EEC1BB"/>
<path opacity="0.2" d="M415.017 258.469L410.195 257.705C410.178 257.702 410.162 257.696 410.148 257.687C410.134 257.678 410.122 257.666 410.112 257.653C410.103 257.639 410.096 257.623 410.092 257.607C410.089 257.59 410.089 257.573 410.092 257.557C410.092 257.477 410.161 257.42 410.229 257.431L415.051 258.195C415.086 258.204 415.116 258.225 415.135 258.255C415.154 258.284 415.161 258.32 415.154 258.355C415.152 258.372 415.148 258.388 415.14 258.402C415.132 258.417 415.122 258.43 415.109 258.441C415.096 258.451 415.082 258.459 415.066 258.464C415.05 258.469 415.034 258.471 415.017 258.469Z" fill="black"/>
<path opacity="0.2" d="M415.074 261.261L410.377 260.896C410.361 260.894 410.345 260.89 410.33 260.882C410.315 260.874 410.302 260.864 410.292 260.851C410.281 260.838 410.273 260.824 410.268 260.808C410.263 260.792 410.262 260.775 410.263 260.759C410.263 260.741 410.267 260.724 410.274 260.708C410.281 260.692 410.291 260.678 410.304 260.666C410.317 260.654 410.332 260.645 410.349 260.639C410.365 260.634 410.383 260.632 410.4 260.633L415.097 260.998C415.125 261.007 415.15 261.024 415.167 261.048C415.185 261.071 415.195 261.1 415.195 261.13C415.195 261.159 415.185 261.188 415.167 261.211C415.15 261.235 415.125 261.252 415.097 261.261H415.074Z" fill="black"/>
<path opacity="0.2" d="M414.219 263.84L410.719 263.669C410.703 263.668 410.687 263.663 410.672 263.655C410.657 263.648 410.644 263.637 410.634 263.625C410.623 263.612 410.615 263.597 410.61 263.581C410.605 263.566 410.604 263.549 410.605 263.532C410.603 263.515 410.605 263.498 410.611 263.482C410.617 263.466 410.626 263.452 410.638 263.44C410.65 263.428 410.664 263.418 410.681 263.413C410.697 263.407 410.714 263.405 410.731 263.407L414.23 263.567C414.265 263.572 414.295 263.591 414.317 263.618C414.338 263.646 414.348 263.68 414.344 263.715C414.34 263.747 414.325 263.776 414.302 263.798C414.28 263.821 414.251 263.836 414.219 263.84Z" fill="black"/>
</svg>