<svg width="23" height="24" viewBox="0 0 23 24" fill="none" xmlns="http://www.w3.org/2000/svg">
<path fill-rule="evenodd" clip-rule="evenodd" d="M11.8506 0.882812C5.70029 0.882812 0.709961 5.87314 0.709961 12.0234C0.709961 18.1738 5.70029 23.1641 11.8506 23.1641C17.9888 23.1641 22.9912 18.1738 22.9912 12.0234C22.9912 5.87314 17.9888 0.882812 11.8506 0.882812ZM19.2092 6.01813C20.5383 7.63727 21.3359 9.70347 21.36 11.9388C21.0458 11.8785 17.9042 11.238 14.7384 11.6368C14.666 11.4797 14.6055 11.3105 14.533 11.1414C14.3397 10.6822 14.1222 10.211 13.9047 9.76391C17.4088 8.33812 19.0038 6.28396 19.2092 6.01813ZM11.8506 2.52612C14.2672 2.52612 16.4784 3.43235 18.158 4.91857C17.9888 5.16023 16.5509 7.08145 13.1676 8.35016C11.6089 5.48647 9.88106 3.14235 9.61522 2.77986C10.3281 2.6107 11.0773 2.52612 11.8506 2.52612ZM7.80278 3.42026C8.05651 3.75859 9.74814 6.1148 11.331 8.91806C6.88443 10.1022 2.95742 10.0781 2.53451 10.0781C3.15075 7.12978 5.14446 4.67691 7.80278 3.42026ZM2.3291 12.0356C2.3291 11.9388 2.3291 11.8422 2.3291 11.7455C2.73992 11.7576 7.35567 11.818 12.1043 10.3922C12.3823 10.9239 12.636 11.4676 12.8777 12.0113C12.7568 12.0476 12.6239 12.0839 12.5031 12.1201C7.59733 13.703 4.98738 18.0287 4.76988 18.3912C3.25949 16.7117 2.3291 14.4763 2.3291 12.0356ZM11.8506 21.5449C9.65143 21.5449 7.6215 20.7958 6.01444 19.5391C6.18361 19.1887 8.11687 15.4671 13.4818 13.5943C13.5059 13.5822 13.5181 13.5822 13.5422 13.5701C14.8834 17.0379 15.4272 19.9499 15.5722 20.7837C14.4243 21.2791 13.1676 21.5449 11.8506 21.5449ZM17.1551 19.9137C17.0584 19.3337 16.5509 16.5546 15.3063 13.1351C18.2909 12.6638 20.9008 13.4372 21.2271 13.5459C20.8163 16.1921 19.2938 18.4758 17.1551 19.9137Z" fill="#98A2B3"/>
</svg>
