<svg width="23" height="24" viewBox="0 0 23 24" fill="none" xmlns="http://www.w3.org/2000/svg">
<g clip-path="url(#clip0_233_3670)">
<path d="M7.5075 21.0768C15.9135 21.0768 20.5124 14.1109 20.5124 8.0719C20.5124 7.87607 20.5081 7.67589 20.4994 7.48005C21.394 6.83306 22.1661 6.03167 22.7793 5.11354C21.9461 5.48425 21.0615 5.72635 20.1556 5.83159C21.1094 5.25986 21.8236 4.36171 22.1657 3.30362C21.2684 3.8354 20.2871 4.21051 19.2639 4.4129C18.5745 3.68036 17.663 3.19533 16.6702 3.0328C15.6775 2.87027 14.6589 3.0393 13.7719 3.51375C12.8848 3.98819 12.1788 4.74164 11.7629 5.65759C11.3471 6.57354 11.2445 7.60098 11.4711 8.58106C9.65424 8.48989 7.8768 8.01791 6.25402 7.19572C4.63124 6.37354 3.19936 5.21951 2.05121 3.80843C1.46765 4.81455 1.28908 6.00511 1.55179 7.13816C1.8145 8.2712 2.49878 9.26171 3.46554 9.90836C2.73975 9.88532 2.02986 9.68991 1.39452 9.33827V9.39485C1.39387 10.4507 1.75889 11.4742 2.42752 12.2913C3.09615 13.1085 4.02714 13.6689 5.06222 13.8772C4.38989 14.0612 3.68425 14.088 2.9999 13.9555C3.29198 14.8636 3.86026 15.6578 4.62544 16.2273C5.39061 16.7968 6.31449 17.1132 7.26815 17.1324C5.64912 18.4041 3.64915 19.0939 1.59035 19.0907C1.22524 19.0901 0.860488 19.0677 0.498047 19.0237C2.58957 20.3655 5.02256 21.0781 7.5075 21.0768Z" fill="#98A2B3"/>
</g>
<defs>
<clipPath id="clip0_233_3670">
<rect width="22.2812" height="22.2812" fill="white" transform="translate(0.49707 0.882812)"/>
</clipPath>
</defs>
</svg>
