<svg width="266" height="53" viewBox="0 0 266 53" fill="none" xmlns="http://www.w3.org/2000/svg">
<path d="M61.3873 26.0611C61.3873 23.6928 61.9161 21.5774 62.9738 19.7149C64.0545 17.8294 65.5146 16.3693 67.3541 15.3346C69.2166 14.2769 71.2976 13.748 73.5969 13.748C76.2872 13.748 78.644 14.4378 80.6675 15.8174C82.6909 17.1971 84.105 19.1055 84.9098 21.5429H79.3568C78.805 20.3932 78.0232 19.5309 77.0115 18.9561C76.0228 18.3812 74.8731 18.0938 73.5624 18.0938C72.1598 18.0938 70.9067 18.4272 69.803 19.094C68.7223 19.7379 67.8715 20.6576 67.2507 21.8533C66.6528 23.049 66.3539 24.4516 66.3539 26.0611C66.3539 27.6477 66.6528 29.0503 67.2507 30.269C67.8715 31.4646 68.7223 32.3959 69.803 33.0627C70.9067 33.7065 72.1598 34.0284 73.5624 34.0284C74.8731 34.0284 76.0228 33.741 77.0115 33.1662C78.0232 32.5683 78.805 31.6946 79.3568 30.5449H84.9098C84.105 33.0052 82.6909 34.9252 80.6675 36.3048C78.667 37.6614 76.3102 38.3398 73.5969 38.3398C71.2976 38.3398 69.2166 37.8224 67.3541 36.7877C65.5146 35.73 64.0545 34.2699 62.9738 32.4074C61.9161 30.5449 61.3873 28.4295 61.3873 26.0611ZM99.3468 38.3742C97.0934 38.3742 95.024 37.8454 93.1385 36.7877C91.253 35.73 89.7584 34.2699 88.6547 32.4074C87.551 30.5219 86.9992 28.395 86.9992 26.0266C86.9992 23.6813 87.551 21.5774 88.6547 19.7149C89.7584 17.8294 91.253 16.3578 93.1385 15.3001C95.024 14.2424 97.0934 13.7135 99.3468 13.7135C101.623 13.7135 103.693 14.2424 105.555 15.3001C107.441 16.3578 108.924 17.8294 110.004 19.7149C111.108 21.5774 111.66 23.6813 111.66 26.0266C111.66 28.395 111.108 30.5219 110.004 32.4074C108.924 34.2699 107.441 35.73 105.555 36.7877C103.67 37.8454 101.6 38.3742 99.3468 38.3742ZM99.3468 34.0629C100.795 34.0629 102.072 33.741 103.175 33.0972C104.279 32.4304 105.141 31.4876 105.762 30.269C106.383 29.0503 106.693 27.6362 106.693 26.0266C106.693 24.4171 106.383 23.0145 105.762 21.8188C105.141 20.6001 104.279 19.6689 103.175 19.0251C102.072 18.3812 100.795 18.0593 99.3468 18.0593C97.8982 18.0593 96.6106 18.3812 95.4839 19.0251C94.3802 19.6689 93.5179 20.6001 92.8971 21.8188C92.2762 23.0145 91.9658 24.4171 91.9658 26.0266C91.9658 27.6362 92.2762 29.0503 92.8971 30.269C93.5179 31.4876 94.3802 32.4304 95.4839 33.0972C96.6106 33.741 97.8982 34.0629 99.3468 34.0629ZM122.806 14.0584C125.335 14.0584 127.554 14.5528 129.462 15.5415C131.394 16.5302 132.877 17.9444 133.912 19.7838C134.969 21.6003 135.498 23.7158 135.498 26.1301C135.498 28.5444 134.969 30.6599 133.912 32.4764C132.877 34.2699 131.394 35.661 129.462 36.6497C127.554 37.6384 125.335 38.1328 122.806 38.1328H114.39V14.0584H122.806ZM122.633 34.0284C125.163 34.0284 127.117 33.3386 128.497 31.959C129.876 30.5794 130.566 28.6364 130.566 26.1301C130.566 23.6238 129.876 21.6693 128.497 20.2667C127.117 18.8411 125.163 18.1283 122.633 18.1283H119.219V34.0284H122.633ZM143.079 17.9558V23.9917H151.184V27.8201H143.079V34.2009H152.219V38.1328H138.251V14.0239H152.219V17.9558H143.079Z" fill="#00F0FF"/>
<path d="M164.057 38.3742C162.379 38.3742 160.861 38.0868 159.504 37.512C158.171 36.9371 157.113 36.1094 156.331 35.0287C155.55 33.948 155.147 32.6718 155.124 31.2002H160.298C160.367 32.1889 160.712 32.9707 161.332 33.5456C161.976 34.1204 162.85 34.4078 163.954 34.4078C165.08 34.4078 165.966 34.1434 166.61 33.6146C167.253 33.0627 167.575 32.3499 167.575 31.4761C167.575 30.7633 167.357 30.177 166.92 29.7171C166.483 29.2572 165.931 28.9008 165.264 28.6479C164.621 28.372 163.724 28.0731 162.574 27.7512C161.011 27.2913 159.734 26.8429 158.746 26.406C157.78 25.9462 156.941 25.2678 156.228 24.3711C155.538 23.4513 155.193 22.2327 155.193 20.7151C155.193 19.2895 155.55 18.0478 156.262 16.9901C156.975 15.9324 157.975 15.1276 159.263 14.5758C160.551 14.0009 162.022 13.7135 163.678 13.7135C166.161 13.7135 168.173 14.3228 169.714 15.5415C171.277 16.7372 172.14 18.4157 172.3 20.5771H166.989C166.943 19.7494 166.587 19.071 165.92 18.5422C165.276 17.9903 164.414 17.7144 163.333 17.7144C162.39 17.7144 161.631 17.9558 161.057 18.4387C160.505 18.9216 160.229 19.6229 160.229 20.5426C160.229 21.1865 160.436 21.7268 160.85 22.1637C161.287 22.5776 161.815 22.9225 162.436 23.1984C163.08 23.4513 163.977 23.7503 165.126 24.0952C166.69 24.555 167.966 25.0149 168.955 25.4748C169.944 25.9347 170.794 26.6245 171.507 27.5442C172.22 28.464 172.576 29.6711 172.576 31.1657C172.576 32.4534 172.243 33.649 171.576 34.7527C170.909 35.8564 169.932 36.7417 168.644 37.4085C167.357 38.0523 165.828 38.3742 164.057 38.3742ZM195.043 14.0584L186.903 29.7516V38.1328H182.074V29.7516L173.9 14.0584H179.349L184.523 25.0609L189.662 14.0584H195.043ZM217.556 38.1328H212.727L201.794 21.6118V38.1328H196.965V14.0239H201.794L212.727 30.5794V14.0239H217.556V38.1328ZM220.293 26.0611C220.293 23.6928 220.822 21.5774 221.88 19.7149C222.96 17.8294 224.42 16.3693 226.26 15.3346C228.122 14.2769 230.203 13.748 232.503 13.748C235.193 13.748 237.55 14.4378 239.573 15.8174C241.597 17.1971 243.011 19.1055 243.816 21.5429H238.263C237.711 20.3932 236.929 19.5309 235.917 18.9561C234.928 18.3812 233.779 18.0938 232.468 18.0938C231.066 18.0938 229.812 18.4272 228.709 19.094C227.628 19.7379 226.777 20.6576 226.156 21.8533C225.559 23.049 225.26 24.4516 225.26 26.0611C225.26 27.6477 225.559 29.0503 226.156 30.269C226.777 31.4646 227.628 32.3959 228.709 33.0627C229.812 33.7065 231.066 34.0284 232.468 34.0284C233.779 34.0284 234.928 33.741 235.917 33.1662C236.929 32.5683 237.711 31.6946 238.263 30.5449H243.816C243.011 33.0052 241.597 34.9252 239.573 36.3048C237.573 37.6614 235.216 38.3398 232.503 38.3398C230.203 38.3398 228.122 37.8224 226.26 36.7877C224.42 35.73 222.96 34.2699 221.88 32.4074C220.822 30.5449 220.293 28.4295 220.293 26.0611ZM255.39 38.3742C253.711 38.3742 252.194 38.0868 250.837 37.512C249.503 36.9371 248.446 36.1094 247.664 35.0287C246.882 33.948 246.48 32.6718 246.457 31.2002H251.63C251.699 32.1889 252.044 32.9707 252.665 33.5456C253.309 34.1204 254.183 34.4078 255.286 34.4078C256.413 34.4078 257.298 34.1434 257.942 33.6146C258.586 33.0627 258.908 32.3499 258.908 31.4761C258.908 30.7633 258.689 30.177 258.253 29.7171C257.816 29.2572 257.264 28.9008 256.597 28.6479C255.953 28.372 255.056 28.0731 253.907 27.7512C252.343 27.2913 251.067 26.8429 250.078 26.406C249.113 25.9462 248.273 25.2678 247.56 24.3711C246.871 23.4513 246.526 22.2327 246.526 20.7151C246.526 19.2895 246.882 18.0478 247.595 16.9901C248.308 15.9324 249.308 15.1276 250.596 14.5758C251.883 14.0009 253.355 13.7135 255.01 13.7135C257.494 13.7135 259.506 14.3228 261.046 15.5415C262.61 16.7372 263.472 18.4157 263.633 20.5771H258.321C258.275 19.7494 257.919 19.071 257.252 18.5422C256.608 17.9903 255.746 17.7144 254.665 17.7144C253.723 17.7144 252.964 17.9558 252.389 18.4387C251.837 18.9216 251.561 19.6229 251.561 20.5426C251.561 21.1865 251.768 21.7268 252.182 22.1637C252.619 22.5776 253.148 22.9225 253.769 23.1984C254.413 23.4513 255.309 23.7503 256.459 24.0952C258.023 24.555 259.299 25.0149 260.287 25.4748C261.276 25.9347 262.127 26.6245 262.84 27.5442C263.553 28.464 263.909 29.6711 263.909 31.1657C263.909 32.4534 263.576 33.649 262.909 34.7527C262.242 35.8564 261.265 36.7417 259.977 37.4085C258.689 38.0523 257.16 38.3742 255.39 38.3742Z" fill="white"/>
<path d="M45.1099 26.965C45.1074 27.0365 45.1099 27.1079 45.1074 27.1794C45.1025 27.2755 45.0927 27.3691 45.0828 27.4652C45.0754 27.5317 45.073 27.5982 45.0631 27.6647C45.0434 27.8248 45.0138 27.985 44.9793 28.1402C44.0062 35.0507 39.8747 41.4192 33.2525 44.952C33.0677 45.0506 32.8804 45.1466 32.6932 45.2403C32.6365 45.2674 32.5823 45.2945 32.5257 45.3216C32.3926 45.3856 32.2621 45.4497 32.129 45.5113C32.0625 45.5433 31.996 45.5728 31.9295 45.6024C31.8063 45.6591 31.6831 45.7133 31.5599 45.7675C31.4885 45.797 31.4195 45.8266 31.3505 45.8562C31.2273 45.9079 31.1042 45.9572 30.981 46.0064C30.912 46.0335 30.843 46.0631 30.774 46.0877C30.6459 46.1395 30.5203 46.1863 30.3922 46.2331C30.3281 46.2577 30.2616 46.2799 30.1975 46.3045C30.0571 46.3538 29.9192 46.4031 29.7787 46.4499C29.7245 46.4671 29.6728 46.4844 29.6211 46.5016C29.4363 46.5632 29.2515 46.6199 29.0667 46.6766C29.0594 46.679 29.0495 46.6815 29.0421 46.6839C28.8425 46.7431 28.6405 46.7997 28.4385 46.8539C28.4163 46.8613 28.3942 46.8663 28.3695 46.8712C28.1995 46.918 28.0271 46.9599 27.8546 47.0018C27.8004 47.0141 27.7462 47.0264 27.6945 47.0387C27.5516 47.0707 27.4087 47.1052 27.2634 47.1348C27.2018 47.1471 27.1402 47.1594 27.0786 47.1717C26.9431 47.1988 26.8076 47.2259 26.6696 47.2506C26.6056 47.2629 26.5415 47.2752 26.4775 47.2851C26.3395 47.3097 26.204 47.3319 26.0685 47.3516C26.0069 47.3614 25.9429 47.3713 25.8813 47.3811C25.7384 47.4033 25.593 47.4206 25.4501 47.4403C25.3959 47.4452 25.3417 47.4526 25.29 47.46C25.1175 47.4797 24.9451 47.4994 24.7726 47.5142C24.748 47.5167 24.7234 47.5216 24.6987 47.5216C24.2947 47.561 23.8931 47.5856 23.4891 47.6004C23.4521 47.6029 23.4152 47.6029 23.3758 47.6053C23.2156 47.6103 23.0555 47.6152 22.8953 47.6152C22.8436 47.6177 22.7894 47.6177 22.7352 47.6177C22.5899 47.6177 22.4445 47.6177 22.3016 47.6152C22.2425 47.6152 22.1834 47.6127 22.1267 47.6127C21.9838 47.6078 21.8434 47.6029 21.7005 47.5979C21.6438 47.5955 21.5872 47.593 21.528 47.5906C21.3827 47.5832 21.2349 47.5758 21.087 47.5635C21.0378 47.561 20.9885 47.5585 20.9392 47.5536C20.7717 47.5413 20.6042 47.5265 20.4391 47.5117C20.4095 47.5093 20.3824 47.5068 20.3529 47.5043C19.9513 47.4625 19.5497 47.4107 19.1506 47.3491C19.1408 47.3467 19.1334 47.3467 19.126 47.3442C18.9388 47.3146 18.754 47.2851 18.5692 47.2506C18.5323 47.2432 18.4928 47.2358 18.4559 47.2284C18.3007 47.1988 18.143 47.1693 17.9903 47.1373C17.941 47.1274 17.8942 47.1175 17.8474 47.1052C17.702 47.0757 17.5542 47.0412 17.4064 47.0067C17.3596 46.9944 17.3103 46.9845 17.2635 46.9722C17.1132 46.9352 16.9654 46.8983 16.8176 46.8589C16.7757 46.8465 16.7313 46.8367 16.6895 46.8244C16.5269 46.78 16.3667 46.7357 16.209 46.6889C16.1795 46.679 16.1499 46.6716 16.1228 46.6618C15.5463 46.4893 14.9748 46.2947 14.4155 46.0754C14.3884 46.0656 14.3613 46.0557 14.3367 46.0459C14.179 45.9843 14.0238 45.9202 13.8686 45.8562C13.8538 45.8512 13.839 45.8438 13.8243 45.8389C13.807 45.8315 13.7922 45.8241 13.775 45.8167C12.7378 45.3782 11.7351 44.8609 10.7718 44.2696C10.762 44.2647 10.7546 44.2597 10.7472 44.2548C10.3333 44.001 9.92433 43.7301 9.52522 43.4492C9.49565 43.427 9.46609 43.4048 9.43406 43.3827C9.24929 43.2521 9.06944 43.1166 8.88714 42.9811C8.87728 42.9713 8.86743 42.9639 8.85757 42.9565C8.66787 42.8111 8.48064 42.6633 8.2934 42.5106C8.26384 42.4859 8.23181 42.4588 8.19978 42.4317C8.04704 42.3061 7.89676 42.178 7.74648 42.0474C7.70706 42.0154 7.6701 41.9809 7.63315 41.9488C7.45577 41.7912 7.28085 41.6335 7.10839 41.4709C7.09854 41.4635 7.09115 41.4537 7.08129 41.4463C6.92116 41.2935 6.76595 41.1408 6.60828 40.9856C6.5664 40.9412 6.52205 40.8969 6.48017 40.855C6.34221 40.7146 6.20671 40.5741 6.07367 40.4288C6.04657 40.3992 6.01701 40.3697 5.98744 40.3376C5.83223 40.1676 5.67949 39.9952 5.52674 39.8203C5.48733 39.7735 5.44791 39.7267 5.40603 39.6798C5.2927 39.5468 5.17937 39.4113 5.06851 39.2733C5.02416 39.2167 4.97735 39.16 4.93054 39.1034C4.79012 38.926 4.65215 38.7486 4.51665 38.5663C4.48463 38.5244 4.45506 38.4801 4.42304 38.4382C4.3171 38.2953 4.21363 38.1499 4.11262 38.0046C4.05596 37.9257 4.00176 37.8469 3.94756 37.7681C3.86872 37.6523 3.78988 37.534 3.71351 37.4158C3.65685 37.332 3.60265 37.2482 3.54845 37.1645C3.44005 36.9945 3.33411 36.822 3.22818 36.6471C3.20847 36.6126 3.18629 36.5806 3.16658 36.5461C3.13702 36.4968 3.11238 36.4451 3.08282 36.3958C2.94732 36.1667 2.81921 35.9351 2.6911 35.6986C2.68371 35.6838 2.67386 35.6691 2.66647 35.6543C1.93477 34.2845 1.36074 32.8753 0.934534 31.4439C0.609335 30.3501 0.370363 29.2464 0.215154 28.1377C-0.718562 21.4367 1.41741 14.6124 6.02686 9.64325C6.69697 8.91894 7.42127 8.23159 8.19485 7.59351C9.34044 6.64748 10.6018 5.79999 11.9642 5.07322C11.9839 5.0609 12.0036 5.05104 12.0233 5.04365C12.2081 4.94511 12.3953 4.84903 12.5801 4.75541C19.2147 1.464 26.7337 1.74239 32.9075 4.89583L32.9026 4.90569C33.5727 5.23582 34.1788 5.70637 34.6764 6.30257C34.9105 6.58342 35.1199 6.89384 35.2997 7.22889C35.6767 7.93842 35.8836 8.69722 35.9329 9.44862C36.0708 11.5279 35.0066 13.5949 33.048 14.642C32.2276 15.0805 31.3456 15.285 30.4809 15.285C30.1877 15.285 29.897 15.2628 29.6112 15.216C29.0889 15.1322 28.5814 14.9745 28.1059 14.7479C28.0838 14.7356 28.0591 14.7282 28.0369 14.7134C27.9827 14.6838 27.9187 14.6567 27.8596 14.6272C27.6551 14.5237 27.4481 14.4276 27.2387 14.3365C26.8396 14.164 26.4307 14.0137 26.0143 13.8856C25.9502 13.8684 25.8862 13.8487 25.8221 13.8314C25.6916 13.7945 25.561 13.7575 25.428 13.7255C25.3491 13.7058 25.2703 13.6861 25.1914 13.6664C25.0683 13.6393 24.9426 13.6146 24.817 13.59C24.7431 13.5752 24.6716 13.558 24.5977 13.5456C24.4006 13.5112 24.206 13.4816 24.0089 13.4594C23.9572 13.452 23.9079 13.4471 23.8586 13.4422C23.6812 13.4225 23.5039 13.4052 23.3265 13.3954C23.2969 13.3929 23.2674 13.3904 23.2378 13.388C23.0308 13.3757 22.8264 13.3707 22.6219 13.3707L22.4864 13.3707C22.309 13.3732 22.1316 13.3781 21.9518 13.388C21.9173 13.3904 21.8828 13.3904 21.8458 13.3929C21.6389 13.4077 21.4295 13.4249 21.2201 13.4496C21.1856 13.4545 21.1511 13.4594 21.1166 13.4643C20.9343 13.4865 20.752 13.5161 20.5697 13.5481C20.5327 13.5555 20.4933 13.5604 20.4539 13.5678C20.2445 13.6072 20.0375 13.6516 19.8281 13.7033C19.8035 13.7082 19.7789 13.7156 19.7542 13.723C19.5694 13.7698 19.3847 13.8216 19.1999 13.8782C19.158 13.8906 19.1161 13.9029 19.0718 13.9177C18.8673 13.9817 18.6628 14.0532 18.4583 14.1295C18.4436 14.1369 18.4312 14.1418 18.4165 14.1468C18.2292 14.2207 18.0445 14.2995 17.8597 14.3808C17.8104 14.403 17.7636 14.4252 17.7143 14.4473C17.5172 14.5385 17.3201 14.6346 17.1255 14.738C11.8681 17.5441 9.64101 23.8091 11.7449 29.2242C11.9149 29.6529 12.1096 30.0791 12.3313 30.4954C12.3461 30.5225 12.3609 30.5521 12.3756 30.5792C12.4545 30.7196 12.5333 30.86 12.6146 30.9955C12.6491 31.0547 12.6861 31.1113 12.723 31.168C12.7871 31.2715 12.8511 31.3749 12.9176 31.476C12.962 31.5425 13.0088 31.6065 13.0556 31.673C13.1172 31.7617 13.1788 31.8504 13.2428 31.9366C13.2921 32.0056 13.3438 32.0697 13.3956 32.1387C13.4572 32.2175 13.5212 32.2988 13.5853 32.3776C13.6395 32.4442 13.6961 32.5107 13.7528 32.5772C13.8169 32.6511 13.8809 32.725 13.945 32.7989L14.1224 32.9911C14.1889 33.0625 14.2554 33.1315 14.3244 33.2005C14.386 33.2621 14.4476 33.3237 14.5116 33.3853C14.5806 33.4518 14.6496 33.5158 14.7186 33.5799C14.7851 33.639 14.8491 33.7006 14.9132 33.7573C14.9871 33.8189 15.0585 33.8805 15.1324 33.942C15.199 33.9987 15.2655 34.0529 15.332 34.1071C15.4084 34.1687 15.4847 34.2254 15.5611 34.2845C15.6276 34.3338 15.6966 34.388 15.7631 34.4372C15.8444 34.4964 15.9282 34.553 16.012 34.6097C16.0785 34.654 16.1425 34.7008 16.209 34.7452C16.3273 34.8216 16.448 34.8955 16.5712 34.9694C16.6574 35.0236 16.7461 35.0728 16.8348 35.1246C16.9309 35.1788 17.0245 35.233 17.1231 35.2847C17.1945 35.3241 17.2709 35.3586 17.3448 35.398C17.4285 35.4399 17.5148 35.4843 17.6035 35.5262C17.6798 35.5631 17.7587 35.5976 17.8375 35.6321C17.9213 35.6715 18.0075 35.7085 18.0937 35.7454C18.1726 35.7775 18.2539 35.8095 18.3327 35.8415C18.4189 35.876 18.5052 35.908 18.5914 35.94C18.6751 35.9696 18.7564 35.9992 18.8377 36.0263C18.9264 36.0558 19.0127 36.0854 19.1014 36.1125C19.1827 36.1396 19.2664 36.1642 19.3502 36.1889C19.4389 36.216 19.5276 36.2406 19.6163 36.2628C19.7 36.285 19.7838 36.3071 19.8675 36.3268C19.9587 36.349 20.0498 36.3712 20.141 36.3909C20.2248 36.4081 20.3085 36.4254 20.3923 36.4426C20.4859 36.4599 20.5771 36.4771 20.6707 36.4919C20.7544 36.5067 20.8382 36.5215 20.9195 36.5338C21.0181 36.5486 21.1166 36.5584 21.2127 36.5707C21.294 36.5806 21.3728 36.5929 21.4541 36.6003C21.5625 36.6102 21.6709 36.6175 21.7818 36.6249C21.8508 36.6299 21.9197 36.6373 21.9887 36.6422C22.1661 36.652 22.341 36.657 22.5184 36.6594C22.5825 36.6594 22.6465 36.657 22.7081 36.657C22.8264 36.6545 22.9422 36.6545 23.0579 36.6496C23.1368 36.6471 23.2132 36.6422 23.292 36.6373C23.3955 36.6299 23.4989 36.6249 23.5999 36.6175C23.6837 36.6102 23.765 36.6003 23.8463 36.5904C23.9449 36.5806 24.0434 36.5707 24.1419 36.556C24.2257 36.5461 24.3095 36.5338 24.3932 36.519C24.4893 36.5042 24.5879 36.4894 24.6839 36.4722C24.7677 36.4574 24.8515 36.4402 24.9377 36.4229C25.0338 36.4032 25.1299 36.381 25.2235 36.3589C25.3097 36.3416 25.3935 36.3195 25.4772 36.2997C25.5708 36.2751 25.6669 36.248 25.763 36.2209C25.8468 36.1987 25.9281 36.1741 26.0118 36.1495C26.1079 36.1199 26.204 36.0879 26.2976 36.0558C26.3814 36.0287 26.4627 36.0016 26.544 35.9721C26.6105 35.9474 26.677 35.9203 26.746 35.8957C26.8766 35.844 27.0096 35.7922 27.1402 35.738C27.2634 35.6838 27.3865 35.6321 27.5097 35.5754C27.5442 35.5582 27.5787 35.5434 27.6132 35.5262C27.7733 35.4498 27.9335 35.371 28.0911 35.2847C31.5698 33.4296 33.7156 30.0569 34.1615 26.423C34.334 24.6542 35.3564 23.0035 37.0391 22.1043C37.1499 22.0452 37.2608 21.991 37.3741 21.9417C37.4012 21.9294 37.4308 21.9146 37.4603 21.9023C37.5613 21.8604 37.6648 21.8185 37.7683 21.7816C37.7806 21.7766 37.7905 21.7717 37.8028 21.7692C37.9136 21.7298 38.0245 21.6953 38.1354 21.6633C38.1699 21.6535 38.2044 21.6436 38.2388 21.6362C38.33 21.6116 38.4236 21.5894 38.5148 21.5697C38.5394 21.5648 38.564 21.5598 38.5887 21.5549C38.6971 21.5327 38.8079 21.518 38.9163 21.5032C38.9558 21.4982 38.9927 21.4933 39.0297 21.4909C39.1159 21.481 39.2046 21.4736 39.2908 21.4687L39.3795 21.4613C39.4904 21.4564 39.6012 21.4564 39.7096 21.4564C39.7441 21.4588 39.7761 21.4588 39.8106 21.4613C39.9043 21.4638 39.9979 21.4687 40.089 21.4785C40.1063 21.4785 40.1235 21.4785 40.1408 21.481C40.1482 21.481 40.1531 21.4835 40.1605 21.4835C40.2713 21.4933 40.3797 21.5081 40.4906 21.5253C40.5128 21.5303 40.5349 21.5327 40.5571 21.5377C40.6483 21.5524 40.737 21.5697 40.8257 21.5919C40.8528 21.5968 40.8799 21.6017 40.907 21.6091C41.0154 21.6362 41.1238 21.6633 41.2297 21.6953C41.2371 21.6978 41.2469 21.7003 41.2543 21.7027C41.3504 21.7348 41.4465 21.7668 41.5426 21.8037C41.5746 21.8136 41.6042 21.8259 41.6362 21.8382C41.7175 21.8703 41.7963 21.9047 41.8776 21.9392C41.8998 21.9491 41.922 21.9589 41.9466 21.9688C42.0427 22.0156 42.1388 22.0624 42.2324 22.1142C42.262 22.1289 42.2891 22.1462 42.3186 22.161C42.3901 22.2004 42.459 22.2423 42.528 22.2866C42.5576 22.3038 42.5872 22.3211 42.6143 22.3408C42.7054 22.3975 42.7941 22.4591 42.8803 22.5231C42.8853 22.5256 42.8902 22.528 42.8926 22.5305C42.9197 22.5502 42.9468 22.5724 42.9739 22.5946C43.0183 22.6266 43.0602 22.6611 43.1045 22.6956C43.1365 22.7227 43.1686 22.7498 43.2006 22.7769C43.24 22.8114 43.2794 22.8458 43.3189 22.8803C43.3509 22.9099 43.3854 22.9419 43.4174 22.974C43.4519 23.006 43.4888 23.0405 43.5209 23.075C43.5554 23.1095 43.5898 23.1439 43.6219 23.1809C43.6539 23.2129 43.6859 23.2474 43.7155 23.2819C43.75 23.3189 43.7845 23.3583 43.8165 23.3977C43.8461 23.4297 43.8732 23.4642 43.9003 23.4987C43.9348 23.5406 43.9668 23.58 43.9988 23.6219C44.0259 23.6588 44.0505 23.6933 44.0776 23.7303C44.1072 23.7722 44.1392 23.8141 44.1688 23.8584C44.1959 23.9003 44.2205 23.9422 44.2476 23.9816C44.2747 24.0235 44.2994 24.0629 44.3265 24.1048C44.3757 24.1885 44.425 24.2723 44.4694 24.3585C44.5482 24.5039 44.6172 24.6517 44.6788 24.7995C44.7207 24.8981 44.7551 24.9966 44.7896 25.0951C44.8093 25.1493 44.8315 25.2011 44.8488 25.2553C44.8759 25.339 44.898 25.4253 44.9202 25.5115C44.9399 25.5829 44.9621 25.6544 44.9793 25.7258C44.9917 25.7874 45.0015 25.849 45.0138 25.9131C45.0286 25.9919 45.0483 26.0732 45.0606 26.152C45.0606 26.152 45.0606 26.152 45.0606 26.1545C45.0631 26.1718 45.0631 26.1865 45.0656 26.2038C45.0754 26.2875 45.0803 26.3713 45.0877 26.4526C45.0951 26.5314 45.105 26.6103 45.1074 26.6891C45.1124 26.7803 45.1099 26.8739 45.1099 26.965Z" fill="white"/>
<path d="M54.9491 15.624C54.7372 16.0083 54.4933 16.3754 54.2198 16.7252C53.53 17.6097 52.648 18.366 51.5985 18.9253C49.0487 20.2877 46.1071 20.1743 43.742 18.8932L43.7174 18.9228C42.1382 18.095 40.3274 17.7526 38.5364 17.9743C37.4967 18.1024 36.462 18.4202 35.4839 18.945C32.8749 20.3345 31.2637 22.8572 30.9114 25.5795C30.8868 25.9146 30.8424 26.2496 30.7784 26.5773C30.3152 28.935 28.842 31.071 26.5607 32.288C23.1165 34.1283 18.9579 33.2882 16.4721 30.4945C16.0681 30.0387 15.7084 29.5337 15.4029 28.9769C15.3856 28.9473 15.3708 28.9153 15.3536 28.8857C15.191 28.5778 15.0481 28.2649 14.9274 27.9471C14.8486 27.7426 14.7796 27.5381 14.718 27.3312C13.6192 23.6357 15.2304 19.5609 18.7608 17.6762C19.7684 17.1367 20.8869 16.809 22.0276 16.7228C23.1337 16.639 24.2547 16.7819 25.3042 17.1367C25.8142 17.3091 26.3044 17.5284 26.7725 17.7945C27.4845 18.201 28.2606 18.4867 29.0662 18.642C30.973 19.009 33.0104 18.7528 34.8582 17.7698C37.5238 16.3434 39.1523 13.7418 39.4479 10.9431C39.5514 9.68172 39.9456 8.4573 40.596 7.36837C41.3375 6.11685 42.4215 5.04763 43.7987 4.31347C46.3067 2.97572 49.199 3.05456 51.5419 4.28391C52.1997 4.62635 52.8106 5.05749 53.3625 5.57485C54.008 6.17598 54.5672 6.89536 55.0057 7.71821C55.0501 7.80197 55.0944 7.88574 55.1363 7.97196C56.3657 10.4799 56.2154 13.3304 54.9491 15.624Z" fill="#00F0FF"/>
</svg>
