<svg width="626" height="469" viewBox="0 0 626 469" fill="none" xmlns="http://www.w3.org/2000/svg">
<path d="M575.556 282.783C569.875 405.347 460.814 440.239 324.985 442.906C117.843 446.856 93.7168 381.073 93.7168 258.368C93.7168 135.663 138.89 8.99505 258.623 18.3432C315.506 22.78 380.073 117.082 428.415 148.319C495.175 191.572 579.828 190.713 575.556 282.783Z" fill="#D4E7FF"/>
<path opacity="0.42" d="M90.549 334.112C90.549 334.112 133.683 315.3 153.525 253.929C173.367 192.557 209.332 140.879 277.464 137.404C345.597 133.929 419.296 138.199 443.653 101.627C468.009 65.0557 415.961 64.2222 415.23 128.389C414.499 192.557 526.638 310.235 532.499 401.613C538.361 492.991 462.648 474.847 368.581 438.121C274.514 401.395 176.317 474.09 115.111 446.905C53.9047 419.72 56.5212 361.567 90.549 334.112Z" stroke="#4570B4" stroke-miterlimit="10"/>
<path opacity="0.42" d="M99.6948 262.995C113.359 262.995 124.436 251.921 124.436 238.259C124.436 224.598 113.359 213.523 99.6948 213.523C86.0303 213.523 74.9531 224.598 74.9531 238.259C74.9531 251.921 86.0303 262.995 99.6948 262.995Z" fill="#4570B4"/>
<path opacity="0.42" d="M122.03 260.582C134.362 248.253 134.362 228.263 122.03 215.934C109.698 203.605 89.7039 203.605 77.372 215.934C65.04 228.263 65.04 248.253 77.372 260.582C89.7039 272.911 109.698 272.911 122.03 260.582Z" stroke="#4570B4" stroke-miterlimit="10"/>
<path opacity="0.42" d="M569.619 282.783C585.557 282.783 598.477 269.865 598.477 253.93C598.477 237.996 585.557 225.078 569.619 225.078C553.68 225.078 540.76 237.996 540.76 253.93C540.76 269.865 553.68 282.783 569.619 282.783Z" fill="#4570B4"/>
<path opacity="0.42" d="M368.069 176.105L360.283 188.48H376.867L368.069 176.105Z" stroke="#4570B4" stroke-miterlimit="10"/>
<path opacity="0.42" d="M258.212 60.9648L247.797 77.4811H269.96L258.212 60.9648Z" fill="#4570B4"/>
<path opacity="0.42" d="M336.207 94.3305C352.826 94.3305 366.297 80.8618 366.297 64.2473C366.297 47.6328 352.826 34.1641 336.207 34.1641C319.589 34.1641 306.117 47.6328 306.117 64.2473C306.117 80.8618 319.589 94.3305 336.207 94.3305Z" fill="#4570B4"/>
<path d="M335.618 60.5294L333.925 57.2851C333.666 56.7919 333.507 56.2525 333.458 55.6979C333.408 55.1432 333.468 54.5842 333.635 54.0529C333.802 53.5216 334.072 53.0284 334.43 52.6016C334.788 52.1749 335.226 51.8229 335.72 51.566C336.393 51.2174 336.903 50.6207 337.142 49.9025C337.381 49.1843 337.332 48.4011 337.003 47.719L334.438 42.8719C334.083 42.2063 333.482 41.7061 332.762 41.4784C332.043 41.2507 331.263 41.3136 330.59 41.6536L328.384 42.8077C326.306 43.8899 324.613 45.5872 323.536 47.6677L322.894 48.95C322.342 50.0044 322.053 51.177 322.053 52.3674C322.053 53.5578 322.342 54.7305 322.894 55.7848L327.627 64.838L330.782 70.8777L335.515 79.9309C336.066 80.9863 336.863 81.8938 337.839 82.5767C338.814 83.2596 339.94 83.698 341.12 83.8548L342.506 84.0343C344.833 84.3416 347.199 83.9205 349.278 82.8289L351.471 81.6749C352.15 81.3337 352.667 80.7373 352.907 80.0163C353.148 79.2952 353.092 78.5083 352.754 77.8279L350.188 72.9807C350.017 72.6386 349.779 72.3337 349.49 72.0838C349.2 71.8339 348.863 71.6439 348.5 71.5247C348.136 71.4054 347.752 71.3594 347.371 71.3892C346.989 71.419 346.617 71.5241 346.276 71.6984C345.276 72.2167 344.111 72.3175 343.036 71.9786C341.961 71.6397 341.065 70.8888 340.543 69.8903L338.85 66.6589L335.618 60.5294Z" fill="white"/>
<path opacity="0.42" d="M556.319 403.59C556.321 404.823 555.958 406.03 555.274 407.056C554.591 408.083 553.618 408.884 552.479 409.357C551.341 409.831 550.087 409.956 548.877 409.717C547.667 409.478 546.555 408.886 545.682 408.014C544.809 407.143 544.214 406.033 543.972 404.824C543.731 403.614 543.853 402.361 544.325 401.221C544.796 400.082 545.595 399.108 546.621 398.422C547.646 397.737 548.852 397.371 550.085 397.371C551.736 397.371 553.32 398.026 554.488 399.192C555.657 400.358 556.315 401.94 556.319 403.59Z" stroke="#4570B4" stroke-miterlimit="10"/>
<path opacity="0.42" d="M183.871 74.1594C190.233 74.1594 195.389 69.0038 195.389 62.6441C195.389 56.2845 190.233 51.1289 183.871 51.1289C177.51 51.1289 172.354 56.2845 172.354 62.6441C172.354 69.0038 177.51 74.1594 183.871 74.1594Z" fill="white"/>
<path opacity="0.42" d="M498.28 234.155C504.641 234.155 509.797 229 509.797 222.64C509.797 216.281 504.641 211.125 498.28 211.125C491.918 211.125 486.762 216.281 486.762 222.64C486.762 229 491.918 234.155 498.28 234.155Z" stroke="#4570B4" stroke-miterlimit="10"/>
<path opacity="0.42" d="M135.672 299.745C141.87 299.745 146.895 294.722 146.895 288.525C146.895 282.328 141.87 277.305 135.672 277.305C129.474 277.305 124.449 282.328 124.449 288.525C124.449 294.722 129.474 299.745 135.672 299.745Z" fill="#4570B4"/>
<path opacity="0.42" d="M569.619 273.831C580.613 273.831 589.525 264.92 589.525 253.929C589.525 242.938 580.613 234.027 569.619 234.027C558.625 234.027 549.713 242.938 549.713 253.929C549.713 264.92 558.625 273.831 569.619 273.831Z" stroke="white" stroke-miterlimit="10"/>
<path opacity="0.42" d="M552.713 65.4141H414.755C413.353 65.4124 411.965 65.6872 410.67 66.2227C409.374 66.7583 408.197 67.5441 407.206 68.5352C406.215 69.5262 405.429 70.703 404.893 71.9982C404.357 73.2933 404.082 74.6814 404.084 76.083V159.434C404.084 162.263 405.208 164.977 407.21 166.978C409.211 168.979 411.925 170.103 414.755 170.103H502.73V191.107C502.729 191.895 502.954 192.666 503.378 193.33C503.802 193.994 504.406 194.523 505.121 194.855C505.836 195.186 506.63 195.307 507.411 195.202C508.192 195.097 508.926 194.77 509.528 194.262L538.258 170.103H552.713C555.542 170.099 558.255 168.974 560.255 166.974C562.256 164.974 563.381 162.262 563.385 159.434V76.083C563.385 73.2534 562.26 70.5397 560.259 68.5389C558.258 66.5381 555.544 65.4141 552.713 65.4141Z" fill="#4570B4"/>
<path d="M587.652 75.8037C587.678 87.7676 584.297 99.4917 577.904 109.606C576.929 111.17 575.878 112.696 574.762 114.158C569.075 121.709 561.713 127.84 553.256 132.067C544.8 136.295 535.477 138.504 526.022 138.522C516.191 138.537 506.504 136.152 497.805 131.572C486.456 125.494 477.232 116.1 471.363 104.644C465.494 93.1879 463.259 80.2147 464.957 67.4558C468.972 36.7955 494.791 13.1367 526.022 13.1367C560.063 13.1111 587.652 41.1811 587.652 75.8037Z" fill="#68A8DE"/>
<path d="M574.762 114.144C569.074 121.696 561.713 127.826 553.256 132.053C544.799 136.281 535.477 138.49 526.022 138.508C516.191 138.523 506.504 136.138 497.805 131.558C498.959 128.673 502.499 121.017 508.771 116.734C516.595 111.374 540.375 108.156 556.869 109.566C566.617 110.348 571.991 112.515 574.762 114.144Z" fill="#1D71A6"/>
<path d="M498.279 44.0012L498.921 74.6102C498.921 74.6102 499.895 105.886 525.355 105.386C550.815 104.886 556.138 66.1982 556.138 66.1982L552.136 42.7573C552.136 42.7573 522.431 22.8557 498.279 44.0012Z" fill="white"/>
<path d="M525.521 97.9592C525.521 97.9592 527.419 109.795 524.559 113.668C521.699 117.54 530.228 130.979 530.228 130.979L549.942 112.911C549.17 104.647 548.853 96.3461 548.993 88.0469L525.521 97.9592Z" fill="white"/>
<path d="M498.434 51.0269C503.352 52.4591 508.483 53.0189 513.594 52.6811C521.418 51.9887 524.176 48.8342 524.176 48.8342C526.378 49.6092 528.703 49.9784 531.038 49.9241C533.65 49.9004 536.21 49.193 538.464 47.8724C536.675 51.3366 536.092 55.2987 536.809 59.1312C538.092 65.453 542.171 67.1072 542.171 67.1072C542.171 67.1072 544.736 60.7854 549.315 60.7854C553.894 60.7854 555.497 65.5941 554.33 71.9159C553.163 78.2377 545.878 79.738 545.878 79.738L548.994 88.0603C548.994 88.0603 560.73 75.4808 562.103 61.6061C563.475 47.7314 556.459 43.6536 556.459 43.6536C556.459 43.6536 557.049 33.395 543.287 29.7661C529.524 26.1371 520.456 26.4705 510.157 32.3307C510.157 32.3307 501.499 25.7396 494.214 29.7661C486.929 33.7925 488.994 42.2687 492.559 44.4743C492.559 44.4743 485.556 46.2567 487.07 54.9123C488.583 63.568 498.677 62.8884 498.677 62.8884L498.434 51.0269Z" fill="#00496A"/>
<path d="M525.355 105.335C525.355 105.335 543.851 100.437 545.685 88.0625C545.685 88.0625 550.277 106.015 525.355 112.093C525.355 112.068 526.087 106.759 525.355 105.335Z" fill="#D9D9D9"/>
<path opacity="0.42" d="M620.592 37.7125C623.158 22.0144 612.509 7.20919 596.807 4.64415C581.106 2.07911 566.297 12.7256 563.731 28.4237C561.166 44.1218 571.815 58.927 587.516 61.4921C603.218 64.0571 618.027 53.4106 620.592 37.7125Z" fill="#4570B4"/>
<path d="M588.935 40.8318L588.833 39.5495C588.716 37.9128 588.94 36.2697 589.492 34.7244C590.044 33.1791 590.912 31.7655 592.039 30.5733C594.348 27.8419 595.643 25.8287 595.643 23.5077C595.643 20.9431 593.989 19.1222 590.744 19.0709C588.885 19.0621 587.068 19.6214 585.537 20.6738L584.254 17.4295C586.455 16.0412 589.014 15.3239 591.616 15.365C597.555 15.365 600.235 19.0196 600.235 22.9435C600.235 26.4442 598.273 28.9704 595.797 31.9197C593.527 34.5998 592.706 36.8695 592.86 39.4982V40.7805L588.935 40.8318ZM587.807 48.0513C587.778 47.6309 587.837 47.2092 587.981 46.8129C588.124 46.4167 588.348 46.0545 588.639 45.7494C588.929 45.4443 589.28 45.203 589.669 45.0408C590.058 44.8786 590.476 44.7989 590.898 44.807C591.538 44.7815 592.172 44.9477 592.717 45.2844C593.263 45.6211 593.695 46.1128 593.959 46.6967C594.223 47.2806 594.307 47.9301 594.2 48.5619C594.093 49.1937 593.799 49.779 593.357 50.2431C592.915 50.7071 592.344 51.0286 591.718 51.1664C591.092 51.3042 590.439 51.2521 589.843 51.0167C589.247 50.7812 588.735 50.3733 588.372 49.845C588.009 49.3167 587.812 48.6921 587.807 48.0513Z" fill="white"/>
<path d="M543.196 371.734C543.121 371.993 543.008 372.239 542.862 372.465C540.425 375.996 537.86 379.415 535.167 382.724L220.695 418.539V371.734H543.196Z" fill="#8CC6E5"/>
<path d="M368.581 270.483L352.997 286.999C350.508 284.36 348.166 281.586 345.981 278.69C343.968 276.041 342.101 273.284 340.389 270.431C337.936 266.463 336.013 262.191 334.668 257.724C330.564 243.041 332.283 212.086 332.283 212.086C332.283 212.086 338.927 212.804 341.197 215.33C353.946 229.551 368.581 270.483 368.581 270.483Z" fill="#0693EB"/>
<path d="M309.992 324.443H198.405L188.221 238.643C187.636 233.966 188.914 229.247 191.779 225.505C194.645 221.762 198.867 219.296 203.535 218.639L210.243 217.767L295.511 206.688L309.992 324.443Z" fill="#4570B4"/>
<path d="M282.75 209.524C282.75 209.524 246.439 221.193 244.464 224.194C242.489 227.194 259.547 280.41 259.547 280.41L256.277 324.432H330.207L333.939 282.424C339.196 275.859 342.148 267.749 342.34 259.342C342.84 245.044 332.284 212.088 332.284 212.088L306.491 208.703L282.75 209.524Z" fill="#0693EB"/>
<path d="M293.138 126.875C293.138 126.875 267.832 115.988 249.863 141.378C231.893 166.768 250.504 206.687 250.504 206.687C250.504 206.687 296.357 200.698 309.042 199.467C321.727 198.236 324.305 198.249 324.305 198.249C324.305 198.249 330.847 158.151 316.892 143.417C302.937 128.683 293.138 126.875 293.138 126.875Z" fill="#00496A"/>
<path d="M302.565 225.896L281.197 211.252C282.245 207.614 282.679 203.826 282.479 200.045C282.387 198.802 282.164 197.573 281.812 196.377C281.632 195.787 281.414 195.208 281.158 194.646L302.527 193.582C302.527 193.582 302.668 195.313 303.065 197.544C303.388 199.448 303.895 201.316 304.579 203.122C305.005 204.339 305.667 205.459 306.528 206.418C309.837 209.739 302.565 225.896 302.565 225.896Z" fill="white"/>
<path d="M304.618 203.112C301.873 203.202 290.086 203.381 282.519 200.035C282.427 198.792 282.203 197.563 281.852 196.367C281.852 196.367 296.255 198.124 303.104 197.534C303.427 199.438 303.934 201.306 304.618 203.112Z" fill="#D9D9D9"/>
<path d="M314.584 136.509L318.175 165.925C318.175 165.925 322.844 196.265 298.359 199.266C273.874 202.266 265.588 173.876 265.588 173.876L262.689 142.626C262.689 142.626 288.534 119.531 314.584 136.509Z" fill="white"/>
<path d="M303.424 138.791C303.424 138.791 300.218 146.677 289.675 152.255C283.994 155.26 277.893 157.391 271.577 158.577C271.577 158.577 270.166 166.874 265.446 172.08C265.446 172.08 257.263 156.551 260.598 143.189C263.933 129.827 281.197 123.377 296.331 124.737C311.466 126.096 316.917 131.648 318.918 140.471C320.919 149.293 317.572 161.231 317.572 161.231C317.572 161.231 314.326 141.561 303.424 138.791Z" fill="#00496A"/>
<path d="M262.714 165.576C262.714 165.576 259.803 143.187 277.131 131.3C288.379 123.606 302.539 125.619 302.539 125.619C302.539 125.619 293.561 118.899 276.028 126.658C258.494 134.416 257.545 151.958 259.354 165.576H262.714Z" fill="#68A8DE"/>
<path d="M223.865 324.446H198.405L188.221 238.646C187.636 233.969 188.914 229.25 191.779 225.507C194.645 221.765 198.867 219.299 203.535 218.642L210.243 217.77L223.865 324.446Z" fill="#375C93"/>
<path d="M286.597 193.84C274.913 193.84 266.242 185.71 265.857 185.338L267.422 183.633C267.525 183.723 277.003 192.609 288.842 191.391L289.073 193.725C288.239 193.802 287.393 193.84 286.597 193.84Z" fill="#375C93"/>
<path d="M576.082 372.468H225.929C221.338 372.477 216.795 371.539 212.584 369.712C208.373 367.885 204.585 365.209 201.456 361.85L182.217 341C174.752 332.908 180.691 320.098 191.901 320.098H533.653C545.391 320.068 556.704 324.49 565.308 332.472L585.048 350.899C593.487 358.734 587.754 372.468 576.082 372.468Z" fill="#68A8DE"/>
<path d="M416.423 217.013C415.782 217.346 414.794 217.923 413.717 218.564L413.511 218.231C416.718 216.192 421.464 213.012 421.143 212.229C420.656 211.063 418.257 211.678 416.461 212.64C415.435 213.204 413.563 214.32 411.754 215.41L411.626 215.192C414.807 213.191 420.104 209.69 419.758 208.87C419.283 207.703 416.872 208.306 415.089 209.28C413.96 209.896 411.818 211.165 409.856 212.358L409.715 212.114C412.857 210.075 416.974 207.254 416.667 206.523C416.192 205.356 413.781 205.972 411.998 206.946C409.587 208.229 402.596 212.576 402.596 212.576L397.466 214.435C398.556 212.64 401.66 206.049 400.211 206.049C398.761 206.049 394.785 210.652 393.131 215.397C392.234 217.997 391.766 220.725 391.745 223.475L347.098 280.192C347.098 280.192 348.162 281.847 349.753 284.039C354.383 290.451 365.144 291.862 371.403 286.989C376.316 283.142 380.202 278.012 383.998 272.883C391.168 263.112 401.852 237.183 404.366 230.964L414.461 221.501C417.231 219.705 420.771 217.282 420.502 216.641C420.117 215.615 418.001 216.153 416.423 217.013Z" fill="white"/>
<path d="M298.936 333.907C298.936 333.907 304.156 337.754 306.221 342.973C308.286 348.192 295.088 351.551 273.066 344.076C257.084 338.626 284.135 321.93 298.936 333.907Z" fill="#00496A"/>
<path d="M290.675 195.252H287.725C287.472 195.249 287.222 195.196 286.99 195.096C286.758 194.996 286.548 194.852 286.372 194.671C286.195 194.49 286.056 194.276 285.963 194.041C285.869 193.806 285.823 193.556 285.826 193.303V191.495C285.823 190.987 286.021 190.498 286.376 190.136C286.732 189.773 287.217 189.565 287.725 189.559H290.675C290.927 189.56 291.177 189.612 291.41 189.71C291.643 189.808 291.854 189.951 292.031 190.131C292.209 190.311 292.349 190.524 292.444 190.758C292.539 190.992 292.587 191.242 292.586 191.495V193.303C292.589 193.814 292.39 194.306 292.032 194.671C291.674 195.037 291.186 195.245 290.675 195.252Z" fill="#00496A"/>
<path d="M275.335 172.221C276.964 180.377 272.77 188.148 265.844 189.571C258.918 190.994 252.081 185.532 250.452 177.376C248.823 169.221 253.018 161.45 259.944 160.026C266.87 158.603 273.693 164.066 275.335 172.221Z" fill="#4570B4"/>
<path d="M268.409 173.616C269.371 178.424 266.857 183.015 262.804 183.874C258.751 184.733 254.685 181.489 253.723 176.68C252.761 171.872 255.263 167.281 259.316 166.422C263.369 165.563 267.447 168.846 268.409 173.616Z" fill="#68A8DE"/>
<path d="M250.453 220.988C250.453 220.988 244.206 221.924 241.68 225.951C230.841 243.211 209.717 296.004 209.717 296.004L230.085 304.98C230.085 304.98 256.866 273.961 259.315 259.201C261.765 244.442 250.453 220.988 250.453 220.988Z" fill="#0693EB"/>
<path d="M228.161 300.567L269.961 327.752L264.061 340.845C264.061 340.845 226.429 327.278 214.873 318.519C203.317 309.761 209.742 296.002 209.742 296.002C209.742 296.002 216.104 295.245 228.161 300.567Z" fill="white"/>
<path d="M268.73 327.276C268.73 327.276 282.839 326.609 287.969 326.609C293.1 326.609 301.899 334.944 300.911 337.612C299.923 340.279 289.765 332.111 289.765 332.111L289.201 333.188C289.201 333.188 298.179 338.702 298.705 340.779C299.231 342.856 297.14 342.536 294.19 341.279C291.645 340.083 289.182 338.72 286.815 337.201L286.328 337.778C286.328 337.778 294.844 343.036 294.844 344.947C294.844 346.857 288.7 344.703 284.198 341.702L283.621 342.613C283.621 342.613 289.201 345.447 289.598 347.28C289.996 349.114 287.033 348.37 283.621 346.78C280.21 345.19 277.144 345.036 272.796 344.37C269.441 343.62 266.234 342.32 263.305 340.523L268.73 327.276Z" fill="white"/>
<path d="M527.921 251.018L507.861 351.539H359.334L379.266 251.596C379.463 250.59 380 249.683 380.787 249.027C381.574 248.371 382.563 248.005 383.588 247.992H525.458C525.829 248.001 526.194 248.09 526.527 248.253C526.86 248.416 527.153 248.65 527.387 248.938C527.622 249.225 527.79 249.56 527.883 249.92C527.975 250.279 527.988 250.654 527.921 251.018Z" fill="#4570B4"/>
<path d="M359.333 351.539L318.534 338.267C317.83 338.042 317.216 337.599 316.78 337.002C316.344 336.405 316.109 335.685 316.109 334.946C316.109 334.018 316.478 333.127 317.135 332.471C317.792 331.814 318.682 331.445 319.611 331.445H363.348L359.333 351.539Z" fill="#00496A"/>
<path d="M252.262 225.062C252.262 225.062 261.394 250.901 255.853 268.661C255.853 268.623 274.566 247.875 252.262 225.062Z" fill="#1D71A6"/>
<path d="M345.981 278.691C343.968 276.042 342.101 273.285 340.389 270.433C344.16 255.622 335.387 222.641 335.387 222.641C354.613 247.146 349.252 269.907 345.981 278.691Z" fill="#1D71A6"/>
<path d="M388.206 253.93L507.861 351.54H371.43L388.206 253.93Z" fill="#375C93"/>
<path d="M460.12 316.076C466.212 313.569 469.118 306.6 466.611 300.509C464.104 294.419 457.133 291.513 451.04 294.02C444.948 296.527 442.042 303.496 444.55 309.587C447.057 315.677 454.028 318.583 460.12 316.076Z" fill="#A6D6F7"/>
<path d="M282.377 205.355L302.566 225.873C302.566 225.873 299.064 230.822 293.228 230.681C287.392 230.54 284.122 223.141 282.48 219.281C281.112 216.419 279.43 213.718 277.465 211.228L282.377 205.355Z" fill="#0693EB"/>
<path d="M302.566 225.896C302.566 225.896 307.697 229.064 312.827 226.858C317.958 224.653 316.534 221.306 314.751 217.766C313.296 214.565 312.053 211.271 311.032 207.905L305.247 204.559C305.247 204.559 306.299 218.061 302.566 225.896Z" fill="#0693EB"/>
<path d="M333.694 265.559L282.812 270.483C282.812 270.483 294.228 278.651 311.787 276.189C329.346 273.727 333.694 265.559 333.694 265.559Z" fill="#1D71A6"/>
<path opacity="0.42" d="M219.991 100.191H127.989C125.177 100.191 122.48 101.307 120.489 103.292C118.498 105.278 117.376 107.972 117.369 110.783V135.147C117.369 137.963 118.488 140.664 120.48 142.655C122.471 144.646 125.173 145.765 127.989 145.765H205.485L230.598 160.281V110.783C230.592 107.974 229.471 105.282 227.483 103.297C225.495 101.311 222.801 100.195 219.991 100.191Z" fill="#4570B4"/>
<path d="M124.436 111.219H220.26" stroke="white" stroke-linecap="round" stroke-linejoin="round"/>
<path d="M124.436 122.914H220.26" stroke="white" stroke-linecap="round" stroke-linejoin="round"/>
<path d="M124.436 134.609H220.26" stroke="white" stroke-linecap="round" stroke-linejoin="round"/>
<path d="M108.974 340.126C110.723 325.695 99.3298 327.87 91.536 335.476C83.7423 343.082 76.1159 338.842 84.756 324.616C93.3961 310.39 99.7204 306.019 98.5207 298.869C97.3209 291.719 91.0803 294.833 80.2732 300.794C69.4661 306.754 79.678 291.198 78.8688 276.451C78.0597 261.704 63.4022 269.068 62.128 281.481C60.8538 293.894 66.4434 307.805 59.3379 305.043C52.2323 302.281 48.0099 285.796 41.4996 293.578C34.9893 301.361 59.7471 327.759 58.9194 335.727C58.0916 343.696 40.3185 319.409 35.2032 327.405C30.088 335.402 52.1951 388.774 71.3262 387.305C95.6282 385.399 107.226 354.557 108.974 340.126Z" fill="#1D71A6"/>
<path d="M69.5955 283.219C67.6183 295.739 66.9947 308.437 67.7354 321.091C68.9538 342.272 71.7253 395.552 71.7253 395.552" stroke="#0693EB" stroke-miterlimit="10"/>
<path d="M48.8184 304.208C48.8184 304.208 62.8899 320.87 67.9587 324.515C67.9587 324.515 86.0946 307.053 89.5543 304.18" stroke="#0693EB" stroke-miterlimit="10"/>
<path d="M40.5703 337.531C40.5703 337.531 61.6823 358.759 69.9411 360.173L101.005 339.344" stroke="#0693EB" stroke-miterlimit="10"/>
<path d="M63.0199 379.103C63.0199 379.103 72.1902 358.917 67.2424 348C62.2945 337.084 55.2448 343.509 53.022 352.175C50.7991 360.841 43.6285 361.111 43.6285 347.443C43.6285 333.774 46.2047 328.009 42.3078 323.499C38.4109 318.99 35.3697 323.843 30.3196 332.63C25.2694 341.417 25.8181 326.122 18.9451 316.154C12.0721 306.186 4.99441 317.567 9.38423 326.8C13.774 336.034 23.6325 343.435 17.4663 344.532C11.3001 345.629 1.24633 335.885 0.0372702 344.104C-1.17179 352.324 27.4178 360.311 30.2358 366.253C33.0539 372.195 10.2213 362.738 10.0446 370.53C9.86785 378.322 36.4392 391.991 48.474 389.954C60.5088 387.918 63.0199 379.103 63.0199 379.103Z" fill="#0693EB"/>
<path d="M14.8066 322.227C14.8066 322.227 49.6368 378.175 56.9656 395.553" stroke="#0693EB" stroke-miterlimit="10"/>
<path d="M9.0957 348.784L33.5931 353.154L38.6339 332.094" stroke="#0693EB" stroke-miterlimit="10"/>
<path d="M22.043 373.916L48.2144 378.445L59.003 354.688" stroke="#0693EB" stroke-miterlimit="10"/>
<path d="M47.4609 395.551H91.7218L87.9179 417.885H52.074L47.4609 395.551Z" fill="#375C93"/>
<path d="M92.2705 393.379H47.3214C45.6726 393.379 44.3359 394.715 44.3359 396.364V398.744C44.3359 400.392 45.6726 401.729 47.3214 401.729H92.2705C93.9193 401.729 95.2559 400.392 95.2559 398.744V396.364C95.2559 394.715 93.9193 393.379 92.2705 393.379Z" fill="#4570B4"/>
<path opacity="0.42" d="M570.378 294.009C593.782 294.009 612.755 275.04 612.755 251.641C612.755 228.242 593.782 209.273 570.378 209.273C546.973 209.273 528 228.242 528 251.641C528 275.04 546.973 294.009 570.378 294.009Z" fill="#4570B4"/>
<path d="M597.017 235.996H543.75C543.049 235.996 542.377 236.274 541.881 236.77C541.386 237.265 541.107 237.937 541.107 238.638V267.977C541.107 268.678 541.386 269.35 541.881 269.845C542.377 270.34 543.049 270.619 543.75 270.619H597.017C597.363 270.619 597.706 270.55 598.026 270.417C598.346 270.285 598.636 270.09 598.88 269.844C599.125 269.599 599.318 269.307 599.449 268.987C599.581 268.667 599.648 268.323 599.646 267.977V238.638C599.648 238.291 599.581 237.948 599.449 237.628C599.318 237.307 599.125 237.016 598.88 236.771C598.636 236.525 598.346 236.33 598.026 236.197C597.706 236.065 597.363 235.996 597.017 235.996ZM597.799 240.228L572.788 256.577C572.578 256.713 572.333 256.784 572.083 256.782C571.866 256.783 571.653 256.726 571.467 256.616L542.326 240.266C542.03 240.096 541.814 239.816 541.725 239.486C541.636 239.157 541.681 238.805 541.851 238.509C542.021 238.214 542.302 237.997 542.632 237.908C542.961 237.819 543.313 237.865 543.609 238.035L572.07 254L596.439 238.073C596.581 237.982 596.739 237.919 596.905 237.888C597.071 237.857 597.241 237.86 597.406 237.895C597.571 237.93 597.727 237.997 597.866 238.093C598.005 238.188 598.124 238.31 598.216 238.452C598.308 238.593 598.371 238.751 598.401 238.917C598.432 239.083 598.43 239.253 598.395 239.418C598.359 239.583 598.292 239.739 598.197 239.878C598.101 240.017 597.979 240.136 597.837 240.228H597.799Z" fill="white"/>
<path d="M603.097 247.073C611.774 247.073 618.809 240.04 618.809 231.365C618.809 222.689 611.774 215.656 603.097 215.656C594.419 215.656 587.385 222.689 587.385 231.365C587.385 240.04 594.419 247.073 603.097 247.073Z" fill="#0693EB"/>
</svg>
