<svg width="634" height="361" viewBox="0 0 634 361" fill="none" xmlns="http://www.w3.org/2000/svg">
<g clip-path="url(#clip0_241_9713)">
<path d="M128.503 132.148L127.776 132.479L126.453 133.126C125.593 133.556 124.816 133.987 123.989 134.418C122.418 135.296 120.913 136.191 119.441 137.119C116.498 138.975 113.72 140.963 111.057 143.051C105.716 147.243 100.805 151.867 96.3568 156.854C91.892 161.842 87.8571 167.161 84.2688 172.729C80.6969 178.313 77.5881 184.129 74.8431 190.094C72.065 196.043 69.9153 202.207 67.9475 208.371C67.0711 211.486 66.0954 214.585 65.4174 217.717L64.3095 222.423L63.4 227.145C61.9613 234.9 61.0353 242.688 60.5227 250.46V220.898C61.5645 214.933 63.4827 207.626 66.2938 199.44C70.4941 186.846 76.7117 172.248 83.6073 156.457C89.2627 143.548 94.0913 132.198 98.5561 122.985C103.004 113.788 107.453 106.994 111.074 103.365C107.486 106.961 100.739 111.617 93.4629 119.422C86.22 127.16 78.2165 137.782 72.2469 151.419C65.434 166.995 61.9779 182.29 60.5227 195.364V131.618C61.581 127.939 63.5488 123.565 66.2773 118.908C70.4775 111.684 76.2652 103.68 82.086 94.4837C86.8319 86.9608 90.2383 79.7196 92.9503 73.6217C95.6292 67.5073 97.8119 62.7019 99.5979 60.0175C97.7789 62.7185 93.2314 65.5023 88.0225 69.8271C82.7805 74.1023 76.6455 79.819 71.5854 87.839C65.5001 97.4498 62.011 107.657 60.5062 116.373V91.9816C62.2094 80.7304 65.8308 63.7624 65.8308 44.1432C65.8308 23.1321 59.6297 7.42348 59.6297 0C59.6297 7.42348 53.4286 23.1321 53.4286 44.1432C53.4286 63.7624 57.0335 80.7304 58.7533 91.9816V118.56C57.1658 104.293 53.3956 87.4911 46.0204 70.3905C39.5382 55.643 31.237 43.9941 23.6138 35.4107C15.974 26.761 8.97919 21.2928 4.82859 17.6639C9.04533 21.3591 13.6755 28.882 18.4545 38.8739C23.283 48.8823 28.4589 61.3266 34.6435 75.3782C42.0682 92.6278 48.567 108.552 52.9491 122.305C55.876 131.303 57.7446 139.339 58.7533 145.868V186.896C58.2076 181.809 57.4966 176.755 56.6201 171.767C54.6358 160.549 51.8908 149.58 48.4182 138.892C44.9786 128.188 40.9272 117.715 36.2309 107.458C33.8993 102.321 31.3197 97.2675 28.5912 92.2302C25.7139 87.1762 22.8366 82.2217 19.0167 77.0352C23.4815 83.0668 24.0768 89.3469 23.5476 95.3951C23.1838 98.4274 22.5224 101.36 21.646 104.177C20.753 107.011 19.6947 109.695 18.7025 112.197C17.2142 115.81 17.4457 118.544 18.6694 120.814C19.827 123.117 21.894 124.99 24.0272 126.779C28.1778 130.392 32.5764 133.788 29.5172 138.776C26.5407 143.731 22.9027 148.37 23.1838 153.756C23.283 156.473 24.2918 159.389 26.8549 162.77C29.2526 166.2 33.304 170.061 39.0421 175.098C42.7462 178.213 45.7227 181.71 48.5008 185.173C51.1962 188.636 53.2633 192.149 55.0492 195.248C56.7194 198.363 57.8604 201.097 58.6706 203.036C58.7037 203.118 58.7368 203.185 58.7699 203.268V250.195C58.6045 249.151 53.4452 219.556 35.9002 203.201C19.4301 187.808 4.05138 182.919 0 180.666C4.08446 182.919 27.2848 211.636 34.8584 221.528C46.5496 236.789 58.7699 255.895 58.7699 277.038C58.7699 277.055 58.7699 277.055 58.7699 277.072V341.099H60.5392V260.22C60.8534 258.331 61.333 256.524 61.9779 254.801C63.2346 251.669 64.8387 248.819 66.823 246.234C68.8404 243.649 71.0563 241.346 73.3548 239.275C75.736 237.22 78.1503 235.381 80.4158 233.724C83.7561 231.354 85.1452 228.786 85.5586 226.002C86.0712 223.268 85.4428 220.269 84.9964 217.369C84.7483 215.911 84.4837 214.436 84.3018 213.027C84.153 211.619 84.1365 210.277 84.3018 209.034C84.5829 206.532 85.8232 204.51 88.6343 203.45C94.2732 201.329 100.094 200.152 103.715 195.927C104.658 194.9 105.452 193.64 106.113 192.116C106.841 190.641 107.32 188.818 107.783 186.697C108.66 182.389 109.106 176.755 109.801 168.669C110.71 158.66 114.894 149 119.491 142.388C124.022 135.694 128.702 131.982 129.495 131.701L128.503 132.148Z" fill="url(#paint0_linear_241_9713)"/>
<path d="M532.996 176.87L533.575 177.135L534.616 177.649C535.294 177.98 535.906 178.328 536.551 178.66C537.775 179.339 538.965 180.052 540.123 180.781C542.438 182.239 544.621 183.797 546.721 185.454C550.921 188.751 554.774 192.38 558.28 196.291C561.785 200.201 564.96 204.394 567.772 208.768C570.583 213.159 573.03 217.733 575.18 222.422C577.363 227.095 579.049 231.933 580.604 236.788C581.282 239.241 582.059 241.677 582.588 244.129L583.448 247.824L584.159 251.536C585.283 257.634 586.028 263.748 586.424 269.863V246.631C585.614 241.942 584.093 236.192 581.894 229.763C578.586 219.854 573.708 208.387 568.284 195.992C563.836 185.851 560.049 176.92 556.527 169.679C553.021 162.454 549.532 157.102 546.688 154.252C549.499 157.069 554.807 160.731 560.529 166.878C566.217 172.96 572.501 181.311 577.197 192.032C582.555 204.278 585.267 216.291 586.408 226.565V176.473C585.581 173.573 584.027 170.143 581.877 166.481C578.586 160.797 574.022 154.5 569.458 147.276C565.721 141.36 563.059 135.677 560.926 130.888C558.825 126.082 557.106 122.304 555.7 120.2C557.122 122.321 560.694 124.508 564.795 127.905C568.913 131.269 573.725 135.759 577.71 142.056C582.505 149.612 585.234 157.632 586.408 164.476V145.304C585.069 136.455 582.224 123.133 582.224 107.706C582.224 91.1854 587.102 78.8405 587.102 73.0078C587.102 78.8405 591.981 91.1854 591.981 107.706C591.981 123.133 589.136 136.455 587.797 145.304V166.199C589.054 154.981 592.014 141.774 597.801 128.336C602.895 116.737 609.426 107.59 615.413 100.846C621.415 94.0521 626.905 89.7438 630.179 86.9103C626.872 89.8101 623.234 95.7257 619.464 103.58C615.661 111.451 611.593 121.227 606.748 132.263C600.91 145.818 595.801 158.328 592.361 169.149C590.062 176.224 588.591 182.537 587.797 187.658V219.903C588.227 215.91 588.789 211.933 589.467 208.006C591.022 199.19 593.188 190.574 595.916 182.156C598.628 173.739 601.803 165.503 605.491 157.45C607.326 153.423 609.344 149.446 611.493 145.47C613.742 141.509 616.024 137.599 619.017 133.522C615.512 138.262 615.032 143.199 615.462 147.955C615.743 150.341 616.272 152.645 616.95 154.865C617.661 157.085 618.472 159.206 619.265 161.162C620.44 163.995 620.241 166.149 619.299 167.939C618.389 169.745 616.768 171.22 615.082 172.628C611.824 175.462 608.352 178.13 610.766 182.057C613.114 185.951 615.975 189.596 615.743 193.838C615.661 195.976 614.867 198.263 612.849 200.93C610.964 203.631 607.773 206.664 603.275 210.624C600.365 213.06 598.016 215.81 595.85 218.545C593.733 221.279 592.113 224.029 590.707 226.465C589.384 228.901 588.492 231.055 587.863 232.58C587.83 232.646 587.814 232.696 587.78 232.762V269.647C587.913 268.819 591.964 245.571 605.755 232.712C618.703 220.632 630.791 216.788 633.983 215.015C630.775 216.788 612.535 239.357 606.582 247.128C597.388 259.125 587.797 274.138 587.797 290.758V290.774V341.098H586.408V277.535C586.16 276.06 585.78 274.635 585.267 273.276C584.275 270.824 583.018 268.57 581.464 266.549C579.876 264.527 578.14 262.704 576.321 261.08C574.452 259.457 572.551 258.031 570.781 256.722C568.152 254.867 567.061 252.828 566.73 250.658C566.316 248.504 566.829 246.151 567.16 243.864C567.358 242.721 567.573 241.561 567.705 240.45C567.821 239.34 567.838 238.296 567.705 237.319C567.49 235.347 566.515 233.756 564.299 232.928C559.867 231.271 555.287 230.326 552.442 227.029C551.698 226.217 551.07 225.239 550.557 224.029C549.995 222.869 549.615 221.428 549.234 219.771C548.556 216.39 548.193 211.95 547.647 205.603C546.936 197.732 543.645 190.143 540.04 184.957C536.468 179.687 532.797 176.771 532.186 176.555L532.996 176.87Z" fill="url(#paint1_linear_241_9713)"/>
<path d="M220.132 319.844C222.844 331.327 226.829 344.219 230.979 356.381H299.638C301.192 351.377 302.73 346.008 304.185 340.308C312.619 307.383 303.739 278.915 295.752 266.023C287.765 253.115 280.886 237.771 293.073 218.964C305.26 200.157 306.418 185.509 306.418 185.509C304.648 178.383 299.092 175.947 284.689 169.054C284.689 169.054 283.829 168.773 282.49 168.309C279.431 180.736 272.998 190.612 261.588 192.617C246.722 195.235 233.294 186.155 226.515 170.198C219.966 172.136 212.674 174.191 209.201 176.163C209.201 176.163 227.408 215.749 230.88 238.136C234.32 260.539 211.83 284.715 220.132 319.844Z" fill="#A7E5FF" fill-opacity="0.87"/>
<path d="M261.554 192.634C272.964 190.612 279.413 180.736 282.456 168.325C277.677 166.701 266.449 162.841 263.323 161.283C259.321 159.278 260.446 143.039 260.446 143.039L239.346 149.071C239.346 156.362 239.346 161.946 239.346 164.829C239.346 166.304 233.31 168.193 226.48 170.214C233.26 186.171 246.688 195.252 261.554 192.634Z" fill="url(#paint2_linear_241_9713)"/>
<path d="M260.446 143.289L239.346 149.321C239.346 154.971 239.346 159.578 239.346 162.726C248.259 167.548 258.263 176.512 261.653 192.867C272.997 190.813 279.413 180.953 282.456 168.575C277.677 166.951 266.449 163.091 263.323 161.533C259.338 159.528 260.446 143.289 260.446 143.289Z" fill="#CB9EAE"/>
<path d="M273.46 241.498C264.051 244.381 255.155 247.563 250.458 247.563C241.132 247.563 227.374 234.439 220.858 242.459C214.343 250.479 213.384 255.782 218.477 259.344C223.57 262.907 239.792 258.002 247.564 259.56C251.037 260.256 262.86 260.852 275.428 260.67C276.503 255.666 276.337 246.519 273.46 241.498Z" fill="url(#paint3_linear_241_9713)"/>
<path d="M306.749 185.505C304.566 176.74 286.558 192.846 290.99 207.527C294.793 220.121 293.404 237.022 293.404 237.022L311.032 254.902C317.051 247.561 308.535 192.631 306.749 185.505Z" fill="url(#paint4_linear_241_9713)"/>
<path d="M299.291 237.106C292.478 236.112 282.705 238.663 273.461 241.497C276.338 246.518 276.504 255.664 275.429 260.669C291.006 260.42 307.741 258.962 311.048 254.886C311.048 254.902 319.035 240.006 299.291 237.106Z" fill="url(#paint5_linear_241_9713)"/>
<path d="M234.485 118.744C230.78 125.953 231.194 150.493 241.479 152.763C250.459 154.752 255.469 145.953 255.469 145.953V129.681C255.469 129.681 250.409 127.03 249.714 120.799C249.152 115.812 246.209 115.281 246.209 115.281C246.209 115.281 240.041 118.96 234.485 118.744Z" fill="url(#paint6_linear_241_9713)"/>
<path d="M218.478 238.152C213.831 228.79 210.755 216.975 208.027 210.297C202.901 197.72 202.057 180.173 209.168 176.179C222.265 169.452 227.821 192.567 228.697 199.278C229.59 205.989 231.359 221.665 236.238 227.282L218.478 238.152Z" fill="url(#paint7_linear_241_9713)"/>
<path d="M276.521 157.006C267.641 151.455 277.546 120.784 262.647 108.986C250.394 99.2755 230.848 106.583 230.848 124.926C230.848 132.399 230.848 157.818 230.848 168.887C235.693 167.363 239.347 165.971 239.347 164.827V152.201V151.919C231.178 146.7 231.013 125.523 234.486 118.762C240.042 118.961 246.21 115.316 246.21 115.316C246.21 115.316 249.153 115.846 249.716 120.833C250.41 127.064 255.47 129.715 255.47 129.715V145.987C255.47 161.265 259.141 177.968 267.839 178.896C276.537 179.824 278.009 168.34 284.673 169.069C284.657 169.053 285.401 162.574 276.521 157.006Z" fill="#3F3F3F"/>
<path d="M231.178 215.98C226.333 222.625 218.743 228.425 218.479 238.152C222.596 246.47 227.954 252.849 235.362 252.021C246.276 250.795 250.063 237.92 251.353 226.121C244.06 226.685 234.767 220.902 231.178 215.98Z" fill="url(#paint8_linear_241_9713)"/>
<path d="M247.664 156.043C245.581 156.988 238.206 163.434 238.206 165.058C238.206 166.665 241.513 178.811 241.513 182.506C241.513 186.201 238.123 202.324 233.691 211.852C233.03 213.294 232.153 214.652 231.178 215.978C234.766 220.899 244.059 226.682 251.352 226.119C251.931 220.899 252.013 215.895 252.013 212.2C252.013 212.2 252.758 185.24 253.981 183.318C255.089 181.562 255.089 178.678 255.089 176.226C255.089 171.653 255.089 171.238 255.089 171.238C255.089 171.238 256.776 171.122 256.875 168.206C256.875 168.123 256.875 168.024 256.875 167.941C256.875 164.759 249.748 155.082 247.664 156.043Z" fill="url(#paint9_linear_241_9713)"/>
<path d="M426.322 167.957C426.322 194.221 426.322 246.649 426.322 246.649C426.322 246.649 452.532 247.445 451.722 246.649C450.928 245.854 451.722 210.095 451.722 210.095L426.322 167.957Z" fill="url(#paint10_linear_241_9713)"/>
<path d="M478.113 255.05C480.279 269.781 478.923 286.567 478.113 292.897C477.302 299.243 458.666 355.897 458.666 355.897H504.091L516.609 295.863L500.007 249.996L478.113 255.05Z" fill="url(#paint11_linear_241_9713)"/>
<path d="M478.113 255.05C480.279 269.781 478.923 286.567 478.113 292.897C477.302 299.243 454.945 356.377 454.945 356.377H504.091L516.609 295.863L500.007 249.996L478.113 255.05Z" fill="url(#paint12_linear_241_9713)"/>
<path d="M531.642 239.426C538.339 260.453 568.319 267.247 560.051 301.2C554.081 325.707 541.894 356.379 541.894 356.379H485.191C485.191 356.379 502.968 302.94 502.968 295.864C502.968 288.789 491.806 252.417 491.806 252.417L531.642 239.426Z" fill="url(#paint13_linear_241_9713)"/>
<path d="M435.499 150.16C428.802 153.358 422.7 167.592 428.802 180.964C434.92 194.337 435.78 191.934 438.112 202.423C440.427 212.912 439.517 218.728 458.683 231.802C477.832 244.876 477.253 248.356 478.129 255.05C479.006 261.728 532.931 260.286 532.054 235.298C531.178 210.31 532.567 181.461 516.51 167.857C500.437 154.236 435.499 150.16 435.499 150.16Z" fill="url(#paint14_linear_241_9713)"/>
<path d="M428.803 119.223V194.22C428.803 194.22 455.972 179.605 455.74 165.321C455.492 151.021 443.454 119.223 443.454 119.223H428.803Z" fill="#3C3C3C"/>
<path d="M447.885 164.228C447.885 164.228 451.506 170.094 452.73 172.613C453.954 175.131 448.513 186.283 450.316 195.844C452.118 205.405 463.908 203.781 466.554 195.844C467.348 193.458 469.465 176.49 469.465 176.49V148.453L447.885 164.228Z" fill="url(#paint15_linear_241_9713)"/>
<path d="M452.729 172.613C460.369 164.046 468.273 200.335 455.755 202.174C455.788 202.174 455.821 202.191 455.854 202.191L457.64 202.389C461.295 202.389 465.164 199.987 466.553 195.844C467.347 193.458 469.464 176.49 469.464 176.49V148.453L447.9 164.228C447.884 164.228 451.505 170.094 452.729 172.613Z" fill="#CB9EAE"/>
<path d="M431.978 117.087C428.257 140.153 432.341 161.429 443.454 163.948C454.55 166.466 470.474 154.304 470.474 143.566C470.474 132.829 481.206 104.858 468.986 98.4784C456.765 92.0989 434.342 102.389 431.978 117.087Z" fill="url(#paint16_linear_241_9713)"/>
<path d="M441.303 114.982C441.303 114.982 435.499 119.87 431.249 122.389C426.999 124.924 428.041 110.293 436.276 103.416C444.511 96.5395 455.326 90.6902 459.692 94.634C459.692 94.634 473.417 90.8228 481.734 104.874C490.052 118.926 490.647 131.503 493.26 135.016C495.889 138.529 500.272 140.716 498.221 147.311C498.221 147.311 512.823 144.378 515.005 154.486C517.188 164.577 516.46 167.841 516.46 167.841C516.46 167.841 511.93 164.279 502.62 161.014C502.62 161.014 496.352 165.969 490.366 165.969C484.38 165.969 476.84 190.162 466.323 190.162L466.24 132.53C466.273 132.53 442.527 129.498 441.303 114.982Z" fill="#3C3C3C"/>
<path d="M308.07 237.586C280.487 266.369 256.725 354.158 256.725 354.158H296.329L321.084 295.864L308.07 237.586Z" fill="url(#paint17_linear_241_9713)"/>
<path d="M451.736 242.342C445.965 235.763 415.224 214.156 376.033 216.492C341.472 218.563 313.526 229.268 308.069 237.586C304.084 243.667 312.815 284.745 318.884 301.1C324.952 317.455 327.615 334.953 327.615 349.783C327.615 349.783 425.344 349.22 425.923 349.783C426.485 350.347 438.06 313.66 439.582 295.4C441.103 277.139 437.697 256.973 451.736 242.342Z" fill="url(#paint18_linear_241_9713)"/>
<path d="M398.853 182.406C398.853 182.406 399.333 212.846 398.853 221.926C398.374 231.007 384.318 239.193 379.093 239.408C373.884 239.64 362.325 231.918 360.506 218.96V191.47L398.853 182.406Z" fill="url(#paint19_linear_241_9713)"/>
<path d="M399.035 198.943C398.969 190.128 398.853 182.406 398.853 182.406L360.506 191.487V214.022C363.697 228.107 384.897 224.263 389.957 210.907C392.851 203.268 395.315 200.998 399.035 198.943Z" fill="#CB9EAE"/>
<path d="M350.336 170.591C351.775 192.895 360.853 214.486 375.223 212.199C393.049 209.382 398.456 182.29 397.762 167.526C397.051 152.762 388.667 143.532 375.884 143.516C363.714 143.499 349.129 151.701 350.336 170.591Z" fill="url(#paint20_linear_241_9713)"/>
<path d="M401.946 178.017C400.987 182.458 398.837 185.838 397.117 185.556C395.398 185.275 394.802 181.43 395.745 176.989C396.704 172.549 398.854 169.168 400.573 169.45C402.277 169.732 402.905 173.576 401.946 178.017Z" fill="url(#paint21_linear_241_9713)"/>
<path d="M350.634 174.072C347.922 169.913 347.723 168.272 347.922 161.362C348.12 154.452 353.941 154.204 353.825 151.254C353.709 148.305 357.463 140.351 372.825 139.721C388.187 139.075 387.261 146.134 392.024 146.598C396.786 147.062 404.161 151.95 400.573 169.449C400.573 169.449 396.389 169.846 394.752 178.314C394.637 178.91 393.76 179.092 393.413 178.562C392.933 177.85 392.404 176.789 392.007 175.314C390.866 171.089 386.269 177.435 385.426 169.001C384.831 162.986 370.196 174.022 359.348 164.279C359.348 164.279 357.744 166.433 353.114 166.284C350.419 166.217 350.634 174.072 350.634 174.072Z" fill="#3F3F3F"/>
<path d="M360.489 254.767C360.489 254.767 361.763 256.39 364.111 252.778C366.475 249.166 374.562 238.18 377.356 239.273L377.34 239.257C371.651 238.08 362.11 230.673 360.473 218.991V218.047C355.958 218.677 351.626 219.455 347.508 220.317C346.384 226.763 351.212 247.641 360.489 254.767Z" fill="#0693EB"/>
<path d="M398.837 221.926C398.407 229.83 387.725 237.038 381.523 238.927C384.45 237.783 395.232 251.984 397.084 255.116C398.953 258.248 402.376 254.006 405.782 245.29C408.263 238.96 412.082 228.04 410.478 220.318C406.807 219.291 402.954 218.413 398.953 217.75C398.936 219.39 398.903 220.832 398.837 221.926Z" fill="#0693EB"/>
<path d="M360.506 218.979V212.367C354.784 214.886 349.459 217.023 348.881 220.304C347.74 226.75 352.899 245.458 360.506 252.07C360.506 252.07 361.779 253.693 364.127 250.081C366.492 246.469 374.578 238.184 377.373 239.277L377.356 239.261C371.684 238.051 362.143 230.661 360.506 218.979Z" fill="url(#paint22_linear_241_9713)"/>
<path d="M408.429 217.85C406.842 214.254 401.699 211.337 399.069 210.078C399.053 214.966 399.003 219.324 398.854 221.926C398.425 229.83 387.742 237.038 381.541 238.927C384.468 237.784 395.25 249.283 397.102 252.415C398.97 255.547 401.269 251.901 405.056 243.318C408.925 234.602 411.009 223.715 408.429 217.85Z" fill="url(#paint23_linear_241_9713)"/>
<path d="M470.703 331.538C470.703 306.301 463.361 255.712 451.719 242.34C451.719 242.34 433.497 252.1 427.742 283.053C426.022 292.299 428.949 318.729 429.71 329.881L470.703 331.538Z" fill="url(#paint24_linear_241_9713)"/>
<path d="M399.663 356.378C399.663 356.378 446.759 356.378 454.944 356.378C463.13 356.378 471.943 349.683 470.703 331.539C469.463 313.394 439.83 315.93 429.71 329.882L399.25 334.538L399.663 356.378Z" fill="url(#paint25_linear_241_9713)"/>
<path d="M371.817 355.267L374.43 352.815L382.384 355.632C383.756 356.129 385.212 356.378 386.683 356.378H402.459C402.459 356.378 409.933 354.77 410.165 345.938C410.413 337.106 402.823 334.538 399.516 334.538H382.219C381.359 334.538 380.482 334.455 379.639 334.273L367.336 331.704C365.517 331.323 363.615 331.622 362.011 332.55L355.033 336.56C353.677 337.338 352.437 338.283 351.345 339.393L338.695 352.102C337.124 353.677 338.232 356.378 340.465 356.378H369.006C370.064 356.378 371.057 355.98 371.817 355.267Z" fill="url(#paint26_linear_241_9713)"/>
<path d="M518.427 171.006C506.571 164.146 485.801 183.666 490.283 206.748C494.764 229.831 469.463 258.448 469.463 258.448C469.463 258.448 440.806 269.98 429.297 272.168C432.058 276.095 435.2 281.928 436.639 289.434C455.457 287.876 482.477 284.049 493.391 274.935C509.895 261.165 527.407 210.361 527.423 194.221C527.39 175.447 518.427 171.006 518.427 171.006Z" fill="url(#paint27_linear_241_9713)"/>
<path d="M426.288 272.531C418.102 272.531 389.23 272.531 389.23 272.531C389.23 272.531 362.772 281.512 362.078 283.053C361.383 284.594 360.011 293.724 362.078 295.878C364.145 298.032 377.539 301.81 380.979 301.131C384.418 300.435 411.223 290.46 417.408 290.46C419.508 290.46 426.999 290.261 436.623 289.465C435.201 281.959 432.043 276.126 429.281 272.199C428.074 272.398 427.065 272.531 426.288 272.531Z" fill="url(#paint28_linear_241_9713)"/>
<path d="M188.795 247.86C188.795 247.86 198.088 255.217 207.58 247.86C217.072 240.503 210.54 227.926 210.54 227.926L188.795 239.525V247.86Z" fill="url(#paint29_linear_241_9713)"/>
<path d="M202.188 178.859V233.922H184.312V181.875L202.188 178.859Z" fill="url(#paint30_linear_241_9713)"/>
<path d="M173.052 315.668C171.332 324.848 161.559 337.756 155.342 356.381H190.845C194.252 333.994 197.327 303.953 192.466 277.258H171.994C173.912 286.255 174.673 307.018 173.052 315.668Z" fill="url(#paint31_linear_241_9713)"/>
<path d="M139.004 313.663C139.004 313.663 143.105 333.646 145.916 356.381H155.342C161.559 337.756 171.332 324.848 173.052 315.668C174.673 307.018 173.895 286.272 172.01 277.258H139.864L139.004 313.663Z" fill="url(#paint32_linear_241_9713)"/>
<path d="M172.01 277.256C171.762 276.096 171.514 275.135 171.233 274.406H109.52C110.363 304.166 112.711 333.794 114.117 356.379H155.358C161.576 337.754 171.349 324.846 173.068 315.666C174.672 307.017 173.912 286.254 172.01 277.256Z" fill="url(#paint33_linear_241_9713)"/>
<path d="M151.587 129.879C115.075 120.069 90.4197 136.391 86.3683 159.855C82.6642 181.28 109.519 247.594 109.519 274.421C109.519 274.421 152.794 296.775 192.481 277.272C192.481 277.272 186.528 248.82 192.481 223.634C198.435 198.43 206.355 183.997 199.625 165.919C193.755 150.111 168.653 134.469 151.587 129.879Z" fill="#0693EB"/>
<path d="M165.229 105.635C165.229 105.635 151.455 123 145.634 128.535C139.813 134.069 150.545 145.387 158.681 150.192C164.055 153.374 175.399 156.887 172.042 146.994C172.042 146.994 170.157 141.46 179.302 133.589C179.318 133.605 169.149 103.166 165.229 105.635Z" fill="url(#paint34_linear_241_9713)"/>
<path d="M179.319 133.606C179.319 133.606 174.606 119.505 170.356 111.27L165.875 113.391C160.649 124.145 159.707 144.394 172.059 146.995C172.059 146.995 170.174 141.461 179.319 133.606Z" fill="#CB9EAE"/>
<path d="M170.654 102.522C171.828 95.8944 165.908 95.3973 164.056 100.932C161.939 107.245 164.271 111.62 166.702 110.161C166.702 110.161 161.989 124.428 167.925 133.012C173.845 141.595 181.403 138.298 190.861 128.969C198.997 120.949 204.289 111.156 205.099 107.378C207.249 97.5348 197.029 89.5645 187.455 90.0782C175.747 90.7079 170.654 102.522 170.654 102.522Z" fill="url(#paint35_linear_241_9713)"/>
<path d="M170.653 102.521C170.289 106.415 170.918 109.448 173.216 108.106C175.498 106.78 180.922 98.9422 185.866 104.609C190.811 110.276 194.813 115.562 203.577 114.618C214.904 113.408 217.517 98.0639 207.546 95.3133C207.546 95.3133 211.878 90.0439 204.172 87.5915C197.111 85.3545 196.83 86.7464 191.902 81.1954C189.058 77.9973 172.026 79.7041 167.379 97.2354C167.362 97.2354 171.232 96.44 170.653 102.521Z" fill="#3C3C3C"/>
<path d="M114.679 215.729C115.042 208.107 119.755 188.305 126.386 175.662C133.034 163.019 129.776 146.763 120.747 140.4C111.785 134.071 99.2173 135.197 93.2642 143.996C77.2571 167.675 81.9038 220.915 90.5358 238.878C92.2555 242.44 96.3896 244.76 101.995 246.152C89.8412 240.601 102.028 212.829 114.679 215.729Z" fill="#0693EB"/>
<path d="M161.758 237.419L185.736 208.338C186.777 207.079 188.448 206.549 190.002 206.98L230.698 218.214C231.706 218.496 232.004 219.772 231.227 220.468L200.453 248.306C199.808 248.902 198.899 249.134 198.055 248.919L162.816 240.568C161.411 240.253 160.832 238.546 161.758 237.419Z" fill="url(#paint36_linear_241_9713)"/>
<path d="M190.548 225.902C189.159 221.909 185.174 218.91 182.842 218.247C181.155 217.766 168.604 217.982 161.857 218.131C159.228 218.197 156.682 218.943 154.466 220.335C152.349 221.677 149.687 223.152 148.38 223.152C145.983 223.152 127.181 223.152 127.181 223.152C127.181 223.152 121.311 218.694 114.68 215.712C102.013 212.812 89.8255 240.584 101.98 246.151C122.418 251.222 162.75 243.815 179.7 238.015C183.454 236.723 186.794 234.37 189.043 231.105C190.267 229.365 191.094 227.46 190.548 225.902Z" fill="url(#paint37_linear_241_9713)"/>
<path d="M46.9473 356.36L115.044 355.962L183.123 355.813L319.316 355.531L455.509 355.813L523.605 355.962L591.685 356.36L523.605 356.774L455.509 356.907L319.316 357.188L183.123 356.907L115.044 356.757L46.9473 356.36Z" fill="#3C3C3C"/>
<path d="M334.429 360.998H392.487C395.811 360.998 398.523 358.297 398.523 354.95C398.523 353.425 397.299 352.199 395.778 352.199H334.429C332.907 352.199 331.684 353.425 331.684 354.95V358.231C331.684 359.755 332.907 360.998 334.429 360.998Z" fill="#D6DEFF"/>
<path d="M231.656 360.999H352.95C357.63 360.999 361.02 356.542 359.779 352.018L338.365 273.922C336.976 268.868 332.395 265.355 327.153 265.355H205.876C201.197 265.355 197.807 269.813 199.047 274.337L220.461 352.432C221.834 357.486 226.431 360.999 231.656 360.999Z" fill="#D6DEFF"/>
<path d="M587.4 300.535C585.565 301.032 583.035 303.07 580.24 305.755C577.396 308.423 574.337 311.604 570.467 314.504C568.119 316.327 565.804 317.967 563.555 319.574C561.372 321.215 559.189 322.739 557.304 324.314C553.484 327.379 550.558 330.411 549.549 332.682C550.558 330.428 550.988 326.269 552.889 321.198C553.799 318.663 555.155 315.979 556.941 313.294C558.76 310.66 561.091 308.075 563.952 305.887C568.681 302.341 573.956 301.082 578.14 300.784C582.357 300.419 585.581 301.032 587.4 300.535Z" fill="#3F3F3F"/>
<path d="M548.061 330.958C548.242 328.688 547.135 325.059 546.407 320.27C545.663 315.498 545.249 309.516 546.705 303.037C548.507 295.116 551.98 288.389 555.287 283.186C558.594 277.95 561.703 274.155 562.91 271.438C561.72 274.155 561.075 279.043 560.38 285.009C559.653 290.99 558.941 298.016 557.238 305.44C555.882 311.504 553.683 316.658 551.765 320.966C549.83 325.258 548.226 328.688 548.061 330.958Z" fill="#3F3F3F"/>
<path d="M514.344 291.82C516.163 292.665 519.635 292.682 523.951 293.974C528.234 295.201 533.427 297.653 537.627 302.293C542.703 308.009 545.283 314.754 546.292 320.354C547.383 325.988 547.069 330.446 547.631 332.997C547.086 330.396 544.721 326.618 541.397 322.591C538.09 318.515 533.84 314.29 529.623 309.517C526.118 305.656 523.488 301.762 520.991 298.482C518.527 295.168 516.196 292.665 514.344 291.82Z" fill="#3F3F3F"/>
<path d="M569.789 317.969H533.988C532.087 317.969 530.615 319.626 530.846 321.515L535.212 358.201C535.394 359.792 536.75 361.002 538.354 361.002H565.424C567.028 361.002 568.384 359.792 568.565 358.201L572.931 321.515C573.146 319.626 571.674 317.969 569.789 317.969Z" fill="#0693EB"/>
<path d="M529.077 318.099L530.698 331.687C530.78 332.433 531.425 333.013 532.186 333.013H571.608C572.369 333.013 572.997 332.449 573.097 331.687L574.717 318.099C574.816 317.205 574.122 316.426 573.229 316.426H530.582C529.656 316.426 528.961 317.205 529.077 318.099Z" fill="#3569BF"/>
</g>
<defs>
<linearGradient id="paint0_linear_241_9713" x1="64.749" y1="-13.1626" x2="64.749" y2="326.727" gradientUnits="userSpaceOnUse">
<stop offset="0.2372" stop-color="#8CC6FF"/>
<stop offset="1" stop-color="#0060FF" stop-opacity="0"/>
</linearGradient>
<linearGradient id="paint1_linear_241_9713" x1="583.113" y1="62.6627" x2="583.113" y2="329.8" gradientUnits="userSpaceOnUse">
<stop offset="0.2372" stop-color="#8CC6FF"/>
<stop offset="1" stop-color="#0060FF" stop-opacity="0"/>
</linearGradient>
<linearGradient id="paint2_linear_241_9713" x1="272.401" y1="153.279" x2="242.847" y2="179.822" gradientUnits="userSpaceOnUse">
<stop stop-color="#F6B3B5"/>
<stop offset="1" stop-color="#FAD1D3"/>
</linearGradient>
<linearGradient id="paint3_linear_241_9713" x1="237.459" y1="237.423" x2="249.765" y2="257.16" gradientUnits="userSpaceOnUse">
<stop stop-color="#F6B3B5"/>
<stop offset="1" stop-color="#FAD1D3"/>
</linearGradient>
<linearGradient id="paint4_linear_241_9713" x1="320.482" y1="63.616" x2="284.566" y2="369.181" gradientUnits="userSpaceOnUse">
<stop stop-color="#385FD4"/>
<stop offset="0.1604" stop-color="#3358C9"/>
<stop offset="0.4433" stop-color="#2444AB"/>
<stop offset="0.813" stop-color="#0D257B"/>
<stop offset="0.9908" stop-color="#001462"/>
</linearGradient>
<linearGradient id="paint5_linear_241_9713" x1="274.409" y1="190.201" x2="305.6" y2="290.697" gradientUnits="userSpaceOnUse">
<stop stop-color="#385FD4"/>
<stop offset="0.1604" stop-color="#3358C9"/>
<stop offset="0.4433" stop-color="#2444AB"/>
<stop offset="0.813" stop-color="#0D257B"/>
<stop offset="0.9908" stop-color="#001462"/>
</linearGradient>
<linearGradient id="paint6_linear_241_9713" x1="250.37" y1="110.996" x2="236.157" y2="165.518" gradientUnits="userSpaceOnUse">
<stop stop-color="#F6B3B5"/>
<stop offset="1" stop-color="#FAD1D3"/>
</linearGradient>
<linearGradient id="paint7_linear_241_9713" x1="238.121" y1="54.0116" x2="202.227" y2="359.393" gradientUnits="userSpaceOnUse">
<stop stop-color="#385FD4"/>
<stop offset="0.1604" stop-color="#3358C9"/>
<stop offset="0.4433" stop-color="#2444AB"/>
<stop offset="0.813" stop-color="#0D257B"/>
<stop offset="0.9908" stop-color="#001462"/>
</linearGradient>
<linearGradient id="paint8_linear_241_9713" x1="278.849" y1="226.01" x2="180.361" y2="243.219" gradientUnits="userSpaceOnUse">
<stop stop-color="#385FD4"/>
<stop offset="0.1604" stop-color="#3358C9"/>
<stop offset="0.4433" stop-color="#2444AB"/>
<stop offset="0.813" stop-color="#0D257B"/>
<stop offset="0.9908" stop-color="#001462"/>
</linearGradient>
<linearGradient id="paint9_linear_241_9713" x1="221.577" y1="191.062" x2="259.573" y2="191.062" gradientUnits="userSpaceOnUse">
<stop stop-color="#F6B3B5"/>
<stop offset="1" stop-color="#FAD1D3"/>
</linearGradient>
<linearGradient id="paint10_linear_241_9713" x1="439.041" y1="273.874" x2="439.041" y2="155.989" gradientUnits="userSpaceOnUse">
<stop stop-color="#385FD4"/>
<stop offset="0.2793" stop-color="#2D5FDD"/>
<stop offset="0.7702" stop-color="#0F60F3"/>
<stop offset="0.9908" stop-color="#0060FF"/>
</linearGradient>
<linearGradient id="paint11_linear_241_9713" x1="487.209" y1="380.854" x2="488.472" y2="220.525" gradientUnits="userSpaceOnUse">
<stop stop-color="#001462"/>
<stop offset="0.0687" stop-color="#081E71"/>
<stop offset="0.2519" stop-color="#193595"/>
<stop offset="0.4371" stop-color="#2748B0"/>
<stop offset="0.623" stop-color="#3055C4"/>
<stop offset="0.8101" stop-color="#365CD0"/>
<stop offset="1" stop-color="#385FD4"/>
</linearGradient>
<linearGradient id="paint12_linear_241_9713" x1="564.288" y1="303.191" x2="449.527" y2="303.191" gradientUnits="userSpaceOnUse">
<stop stop-color="#385FD4"/>
<stop offset="0.1736" stop-color="#416AD9"/>
<stop offset="0.4798" stop-color="#5988E5"/>
<stop offset="0.88" stop-color="#80B8F9"/>
<stop offset="0.9908" stop-color="#8CC6FF"/>
</linearGradient>
<linearGradient id="paint13_linear_241_9713" x1="523.347" y1="217.16" x2="523.347" y2="381.614" gradientUnits="userSpaceOnUse">
<stop stop-color="#385FD4"/>
<stop offset="0.1702" stop-color="#507CE0"/>
<stop offset="0.397" stop-color="#6A9CEE"/>
<stop offset="0.616" stop-color="#7DB3F7"/>
<stop offset="0.8215" stop-color="#88C1FD"/>
<stop offset="1" stop-color="#8CC6FF"/>
</linearGradient>
<linearGradient id="paint14_linear_241_9713" x1="478.732" y1="258.357" x2="479.581" y2="150.509" gradientUnits="userSpaceOnUse">
<stop stop-color="#385FD4"/>
<stop offset="0.2793" stop-color="#2D5FDD"/>
<stop offset="0.7702" stop-color="#0F60F3"/>
<stop offset="0.9908" stop-color="#0060FF"/>
</linearGradient>
<linearGradient id="paint15_linear_241_9713" x1="471.328" y1="170.95" x2="444.561" y2="189.779" gradientUnits="userSpaceOnUse">
<stop stop-color="#F6B3B5"/>
<stop offset="0.9914" stop-color="#FAD1D3"/>
</linearGradient>
<linearGradient id="paint16_linear_241_9713" x1="455.439" y1="125.878" x2="435.234" y2="149.987" gradientUnits="userSpaceOnUse">
<stop stop-color="#F6B3B5"/>
<stop offset="0.9914" stop-color="#FAD1D3"/>
</linearGradient>
<linearGradient id="paint17_linear_241_9713" x1="288.907" y1="-31.5617" x2="288.907" y2="573.216" gradientUnits="userSpaceOnUse">
<stop stop-color="#8CC6FF"/>
<stop offset="1" stop-color="#385FD4"/>
</linearGradient>
<linearGradient id="paint18_linear_241_9713" x1="379.401" y1="63.932" x2="379.401" y2="411.798" gradientUnits="userSpaceOnUse">
<stop stop-color="#8CC6FF"/>
<stop offset="0.1736" stop-color="#83BBFA"/>
<stop offset="0.4798" stop-color="#6B9DEE"/>
<stop offset="0.88" stop-color="#446DDA"/>
<stop offset="0.9908" stop-color="#385FD4"/>
</linearGradient>
<linearGradient id="paint19_linear_241_9713" x1="405.009" y1="201.809" x2="355.028" y2="221.498" gradientUnits="userSpaceOnUse">
<stop stop-color="#F6B3B5"/>
<stop offset="0.9914" stop-color="#FAD1D3"/>
</linearGradient>
<linearGradient id="paint20_linear_241_9713" x1="377.245" y1="136.374" x2="370.205" y2="210.139" gradientUnits="userSpaceOnUse">
<stop stop-color="#F6B3B5"/>
<stop offset="0.9914" stop-color="#FAD1D3"/>
</linearGradient>
<linearGradient id="paint21_linear_241_9713" x1="370.101" y1="278.322" x2="401.342" y2="169.202" gradientUnits="userSpaceOnUse">
<stop stop-color="#8CC6FF"/>
<stop offset="1" stop-color="#F6B3B5"/>
</linearGradient>
<linearGradient id="paint22_linear_241_9713" x1="363.052" y1="322.431" x2="363.052" y2="179.565" gradientUnits="userSpaceOnUse">
<stop stop-color="#8CC6FF"/>
<stop offset="1" stop-color="#385FD4"/>
</linearGradient>
<linearGradient id="paint23_linear_241_9713" x1="395.553" y1="322.429" x2="395.553" y2="179.563" gradientUnits="userSpaceOnUse">
<stop stop-color="#8CC6FF"/>
<stop offset="1" stop-color="#385FD4"/>
</linearGradient>
<linearGradient id="paint24_linear_241_9713" x1="448.965" y1="4.43792" x2="448.965" y2="561.616" gradientUnits="userSpaceOnUse">
<stop stop-color="#8CC6FF"/>
<stop offset="1" stop-color="#385FD4"/>
</linearGradient>
<linearGradient id="paint25_linear_241_9713" x1="435.044" y1="4.43923" x2="435.044" y2="561.618" gradientUnits="userSpaceOnUse">
<stop stop-color="#8CC6FF"/>
<stop offset="1" stop-color="#385FD4"/>
</linearGradient>
<linearGradient id="paint26_linear_241_9713" x1="374.07" y1="358.193" x2="374.07" y2="327.428" gradientUnits="userSpaceOnUse">
<stop stop-color="#F6B3B5"/>
<stop offset="0.9914" stop-color="#FAD1D3"/>
</linearGradient>
<linearGradient id="paint27_linear_241_9713" x1="477.674" y1="317.808" x2="479.106" y2="136.031" gradientUnits="userSpaceOnUse">
<stop stop-color="#385FD4"/>
<stop offset="0.2793" stop-color="#2D5FDD"/>
<stop offset="0.7702" stop-color="#0F60F3"/>
<stop offset="0.9908" stop-color="#0060FF"/>
</linearGradient>
<linearGradient id="paint28_linear_241_9713" x1="406.381" y1="312.811" x2="392.307" y2="271.993" gradientUnits="userSpaceOnUse">
<stop stop-color="#F6B3B5"/>
<stop offset="0.9914" stop-color="#FAD1D3"/>
</linearGradient>
<linearGradient id="paint29_linear_241_9713" x1="243.033" y1="231.295" x2="189.627" y2="242.881" gradientUnits="userSpaceOnUse">
<stop stop-color="#8CC6FF"/>
<stop offset="0.00565128" stop-color="#97C4F7"/>
<stop offset="0.0156" stop-color="#B5BFE3"/>
<stop offset="0.0287" stop-color="#E5B6C1"/>
<stop offset="0.033" stop-color="#F6B3B5"/>
<stop offset="0.9908" stop-color="#0060FF"/>
</linearGradient>
<linearGradient id="paint30_linear_241_9713" x1="235.939" y1="198.6" x2="182.534" y2="210.185" gradientUnits="userSpaceOnUse">
<stop stop-color="#8CC6FF"/>
<stop offset="0.00565128" stop-color="#97C4F7"/>
<stop offset="0.0156" stop-color="#B5BFE3"/>
<stop offset="0.0287" stop-color="#E5B6C1"/>
<stop offset="0.033" stop-color="#F6B3B5"/>
<stop offset="0.9908" stop-color="#0060FF"/>
</linearGradient>
<linearGradient id="paint31_linear_241_9713" x1="64.0842" y1="295.691" x2="348.517" y2="350.18" gradientUnits="userSpaceOnUse">
<stop offset="0.1048" stop-color="#001462"/>
<stop offset="0.2974" stop-color="#142E8A"/>
<stop offset="0.49" stop-color="#2343AA"/>
<stop offset="0.6752" stop-color="#2F53C1"/>
<stop offset="0.8491" stop-color="#365CCF"/>
<stop offset="1" stop-color="#385FD4"/>
</linearGradient>
<linearGradient id="paint32_linear_241_9713" x1="63.5524" y1="298.464" x2="347.986" y2="352.954" gradientUnits="userSpaceOnUse">
<stop offset="0.1048" stop-color="#001462"/>
<stop offset="0.2974" stop-color="#142E8A"/>
<stop offset="0.49" stop-color="#2343AA"/>
<stop offset="0.6752" stop-color="#2F53C1"/>
<stop offset="0.8491" stop-color="#365CCF"/>
<stop offset="1" stop-color="#385FD4"/>
</linearGradient>
<linearGradient id="paint33_linear_241_9713" x1="45.1925" y1="214.095" x2="299.173" y2="476.942" gradientUnits="userSpaceOnUse">
<stop offset="0.1048" stop-color="#001462"/>
<stop offset="0.2974" stop-color="#142E8A"/>
<stop offset="0.49" stop-color="#2343AA"/>
<stop offset="0.6752" stop-color="#2F53C1"/>
<stop offset="0.8491" stop-color="#365CCF"/>
<stop offset="1" stop-color="#385FD4"/>
</linearGradient>
<linearGradient id="paint34_linear_241_9713" x1="158.62" y1="108.568" x2="164.396" y2="155.341" gradientUnits="userSpaceOnUse">
<stop stop-color="#F6B3B5"/>
<stop offset="1" stop-color="#FAD1D3"/>
</linearGradient>
<linearGradient id="paint35_linear_241_9713" x1="205.634" y1="82.6307" x2="162.394" y2="131.536" gradientUnits="userSpaceOnUse">
<stop stop-color="#F6B3B5"/>
<stop offset="1" stop-color="#FAD1D3"/>
</linearGradient>
<linearGradient id="paint36_linear_241_9713" x1="149.856" y1="257.289" x2="239.465" y2="197.345" gradientUnits="userSpaceOnUse">
<stop stop-color="#001462"/>
<stop offset="0.118" stop-color="#0F2880"/>
<stop offset="0.2672" stop-color="#1E3C9E"/>
<stop offset="0.4243" stop-color="#294BB6"/>
<stop offset="0.5908" stop-color="#3256C7"/>
<stop offset="0.7728" stop-color="#365DD1"/>
<stop offset="1" stop-color="#385FD4"/>
</linearGradient>
<linearGradient id="paint37_linear_241_9713" x1="143.845" y1="246.663" x2="143.845" y2="217.214" gradientUnits="userSpaceOnUse">
<stop stop-color="#F6B3B5"/>
<stop offset="1" stop-color="#FAD1D3"/>
</linearGradient>
<clipPath id="clip0_241_9713">
<rect width="634" height="361" fill="white"/>
</clipPath>
</defs>
</svg>
