<svg width="131" height="130" viewBox="0 0 131 130" fill="none" xmlns="http://www.w3.org/2000/svg">
<path d="M130.456 64.3749L100.837 115.988L41.3294 116.144L11.4404 64.687L41.0591 13.0738L100.567 12.9177L130.456 64.3749Z" fill="#0693EB" fill-opacity="0.47"/>
<path d="M119.172 59.5351L89.553 111.148L30.0452 111.304L0.156243 59.8472L29.775 8.23394L89.2827 8.07789L119.172 59.5351Z" fill="#0693EB" fill-opacity="0.47"/>
<path d="M119.198 69.5272L89.5788 121.14L30.0711 121.297L0.182122 69.8394L29.8008 18.2261L89.3086 18.0701L119.198 69.5272Z" fill="#0693EB" fill-opacity="0.47"/>
<path d="M122.839 64.3944L93.2204 116.008L33.7127 116.164L3.82372 64.7065L33.4424 13.0933L92.9502 12.9373L122.839 64.3944Z" fill="url(#paint0_linear_216_17573)"/>
<path fill-rule="evenodd" clip-rule="evenodd" d="M87.1362 53.1106L82.7941 71.3914C82.5876 72.2606 82.2347 73.0616 81.7651 73.7707C81.2869 74.493 80.6876 75.12 79.9985 75.6272C78.7678 76.5331 77.2508 77.0565 75.6259 77.0565L49.272 77.0565L50.3089 81.3776C50.3089 81.3778 50.3089 81.3779 50.3089 81.378C50.3089 81.378 50.309 81.378 50.3089 81.378C50.5468 82.3683 51.1665 83.1803 51.9904 83.6736C52.546 84.0063 53.1945 84.1941 53.8814 84.1941L79.9985 84.1941L79.9985 87.8781L53.8814 87.8781C53.5637 87.8781 53.2502 87.8581 52.942 87.819C51.5717 87.6452 50.3089 87.0956 49.272 86.2634C48.9306 85.9894 48.6137 85.6848 48.3255 85.3528C47.5696 84.4822 47.0113 83.4238 46.7266 82.2377L46.7265 82.2372L38.6443 48.5591C38.2461 46.9007 36.7773 45.7426 35.0718 45.7426L28.1919 45.7426L28.1919 42.0586L35.0712 42.0586C35.0714 42.0586 35.0716 42.0586 35.0718 42.0586C37.7661 42.0588 40.166 43.5025 41.4503 45.7426C41.7939 46.342 42.0577 46.9983 42.2259 47.6993C42.2259 47.6994 42.226 47.6995 42.226 47.6996L43.5244 53.1106L87.1362 53.1106ZM79.7754 94.4826C79.5045 93.3378 78.8619 92.3366 77.9821 91.6135C77.314 91.0644 76.509 90.6756 75.6259 90.5062C75.3008 90.4438 74.9651 90.4111 74.6218 90.4111C71.9978 90.4116 69.8193 92.3198 69.3991 94.8244C69.3509 95.1114 69.3259 95.4063 69.3259 95.707C69.3259 98.6317 71.6965 101.003 74.6218 101.003C74.6224 101.003 74.623 101.003 74.6237 101.003C75.8987 101.002 77.0684 100.551 77.9822 99.8004C79.1639 98.8292 79.9176 97.3562 79.9176 95.707C79.9176 95.2855 79.8684 94.8756 79.7754 94.4826ZM55.2825 101.003C58.2063 101.002 60.5764 98.6316 60.5764 95.707C60.5764 95.4063 60.5513 95.1114 60.5032 94.8244C60.0831 92.3197 57.905 90.4111 55.2805 90.4111C54.7962 90.4112 54.3271 90.4763 53.8814 90.5981C53.153 90.7972 52.4872 91.1478 51.92 91.614C50.9539 92.4081 50.2738 93.5375 50.0579 94.8244C50.0097 95.1114 49.9847 95.4063 49.9847 95.707C49.9847 97.3561 50.7383 98.8292 51.9202 99.8005C52.4873 100.267 53.1531 100.617 53.8814 100.816C54.3271 100.938 54.7962 101.003 55.2805 101.003C55.2812 101.003 55.2818 101.003 55.2825 101.003Z" fill="white"/>
<defs>
<linearGradient id="paint0_linear_216_17573" x1="175.539" y1="64.2562" x2="-172.459" y2="65.2917" gradientUnits="userSpaceOnUse">
<stop stop-color="#0B4383"/>
<stop offset="1" stop-color="#A2C3FF" stop-opacity="0"/>
</linearGradient>
</defs>
</svg>
