<svg width="228" height="226" viewBox="0 0 228 226" fill="none" xmlns="http://www.w3.org/2000/svg">
<path d="M227.611 112.593L175.631 202.625L71.6711 202.625L19.6911 112.593L71.6711 22.5608L175.631 22.5608L227.611 112.593Z" fill="#0693EB" fill-opacity="0.47"/>
<path d="M207.92 104.089L155.94 194.121L51.9802 194.121L0.000148044 104.089L51.9802 14.0569L155.94 14.0569L207.92 104.089Z" fill="#0693EB" fill-opacity="0.47"/>
<path d="M207.92 121.542L155.94 211.574L51.9802 211.574L0.000148044 121.542L51.9802 31.51L155.94 31.51L207.92 121.542Z" fill="#0693EB" fill-opacity="0.47"/>
<path d="M214.305 112.593L162.325 202.625L58.365 202.625L6.38491 112.593L58.365 22.5608L162.325 22.5608L214.305 112.593Z" fill="url(#paint0_linear_197_3447)"/>
<path fill-rule="evenodd" clip-rule="evenodd" d="M73.2817 93.1537C73.2817 83.8353 80.8358 76.2812 90.1542 76.2812C99.4726 76.2812 107.027 83.8353 107.027 93.1537C107.027 102.472 99.4726 110.026 90.1542 110.026C80.8358 110.026 73.2817 102.472 73.2817 93.1537Z" fill="white"/>
<path opacity="0.5" fill-rule="evenodd" clip-rule="evenodd" d="M112.357 132.228C112.357 122.91 119.912 115.355 129.23 115.355C138.548 115.355 146.102 122.91 146.102 132.228C146.102 141.546 138.548 149.1 129.23 149.1C119.912 149.1 112.357 141.546 112.357 132.228Z" fill="white"/>
<path d="M73.2817 132.716C73.2817 124.993 73.2817 121.131 75.6811 118.731C78.0805 116.332 81.9423 116.332 89.6658 116.332C97.3893 116.332 101.251 116.332 103.65 118.731C106.05 121.131 106.05 124.993 106.05 132.716C106.05 140.439 106.05 144.301 103.65 146.701C101.251 149.1 97.3893 149.1 89.6658 149.1C81.9423 149.1 78.0805 149.1 75.6811 146.701C73.2817 144.301 73.2817 140.439 73.2817 132.716Z" fill="white"/>
<path opacity="0.5" d="M113.332 92.6653C113.332 84.9418 113.332 81.08 115.731 78.6806C118.13 76.2812 121.992 76.2812 129.716 76.2812C137.439 76.2812 141.301 76.2812 143.7 78.6806C146.1 81.08 146.1 84.9418 146.1 92.6653C146.1 100.389 146.1 104.251 143.7 106.65C141.301 109.049 137.439 109.049 129.716 109.049C121.992 109.049 118.13 109.049 115.731 106.65C113.332 104.251 113.332 100.389 113.332 92.6653Z" fill="white"/>
<defs>
<linearGradient id="paint0_linear_197_3447" x1="306.371" y1="112.593" x2="-301.581" y2="112.808" gradientUnits="userSpaceOnUse">
<stop stop-color="#0B4383"/>
<stop offset="1" stop-color="#A2C3FF" stop-opacity="0"/>
</linearGradient>
</defs>
</svg>
