<svg width="229" height="226" viewBox="0 0 229 226" fill="none" xmlns="http://www.w3.org/2000/svg">
<path d="M228.324 113.085L176.344 203.117L72.384 203.117L20.404 113.085L72.384 23.053L176.344 23.053L228.324 113.085Z" fill="#0693EB" fill-opacity="0.47"/>
<path d="M208.633 104.581L156.653 194.613L52.6931 194.613L0.713039 104.581L52.6931 14.5491L156.653 14.5491L208.633 104.581Z" fill="#0693EB" fill-opacity="0.47"/>
<path d="M208.633 122.034L156.653 212.066L52.6931 212.066L0.713039 122.034L52.6931 32.0022L156.653 32.0022L208.633 122.034Z" fill="#0693EB" fill-opacity="0.47"/>
<path d="M215.018 113.085L163.038 203.117L59.0779 203.117L7.0978 113.085L59.0779 23.053L163.038 23.053L215.018 113.085Z" fill="url(#paint0_linear_197_3420)"/>
<path d="M89.8351 71.122C90.8529 71.6111 91.5002 72.6404 91.5002 73.7696C91.5002 77.0198 92.7226 78.8911 94.2541 81.17L94.3654 81.3356C95.6679 83.2705 97.3752 85.807 97.3752 89.4362C97.3752 93.1395 95.5062 96.4063 92.6601 98.3447C93.4089 98.9725 94.0723 99.7467 94.6423 100.669C96.5057 103.685 97.3752 108.293 97.3752 114.914C97.3752 121.619 96.4744 129.672 95.0072 136.101C94.2776 139.298 93.374 142.247 92.2941 144.463C91.7586 145.562 91.1065 146.636 90.2945 147.475C89.4915 148.305 88.2507 149.185 86.6043 149.185C84.958 149.185 83.7172 148.305 82.9142 147.475C82.1022 146.636 81.4501 145.562 80.9145 144.463C79.8346 142.247 78.931 139.298 78.2015 136.101C76.7342 129.672 75.8335 121.619 75.8335 114.914C75.8335 108.293 76.703 103.685 78.5664 100.669C79.1363 99.7467 79.7998 98.9725 80.5486 98.3447C77.7025 96.4063 75.8335 93.1395 75.8335 89.4362C75.8335 87.9941 75.8348 85.5152 77.3352 82.3144C78.8035 79.1821 81.5936 75.583 86.7276 71.4758C87.6094 70.7703 88.8174 70.6328 89.8351 71.122Z" fill="white"/>
<path d="M107.166 121.425C105.058 121.071 103.044 120.437 101.166 119.561C101.248 117.97 101.291 116.412 101.291 114.915C101.291 113.326 101.244 111.806 101.141 110.358C102.876 111.785 104.924 112.846 107.166 113.423V104.125C107.166 100.88 109.796 98.25 113.041 98.25H126.749C126.749 89.5975 119.735 82.5833 111.083 82.5833C107.223 82.5833 103.69 83.9787 100.96 86.2924C100.28 83.1057 98.7046 80.7684 97.6987 79.2759L97.541 79.0416C101.369 76.3382 106.04 74.75 111.083 74.75C124.061 74.75 134.583 85.2713 134.583 98.25H148.291C151.536 98.25 154.166 100.88 154.166 104.125V139.375C154.166 142.62 151.536 145.25 148.291 145.25H113.041C109.796 145.25 107.166 142.62 107.166 139.375V121.425ZM114.999 121.425V137.417H146.333V106.083H133.245C130.44 114.02 123.492 120 114.999 121.425ZM124.653 106.083H114.999V113.423C119.115 112.364 122.576 109.674 124.653 106.083Z" fill="white"/>
<defs>
<linearGradient id="paint0_linear_197_3420" x1="307.084" y1="113.085" x2="-300.868" y2="113.3" gradientUnits="userSpaceOnUse">
<stop stop-color="#0B4383"/>
<stop offset="1" stop-color="#A2C3FF" stop-opacity="0"/>
</linearGradient>
</defs>
</svg>
