<svg width="229" height="226" viewBox="0 0 229 226" fill="none" xmlns="http://www.w3.org/2000/svg">
<path d="M228.324 112.745L176.344 202.777L72.384 202.777L20.404 112.745L72.384 22.7132L176.344 22.7132L228.324 112.745Z" fill="#0693EB" fill-opacity="0.47"/>
<path d="M208.633 104.241L156.653 194.273L52.6931 194.273L0.713039 104.241L52.6931 14.2093L156.653 14.2093L208.633 104.241Z" fill="#0693EB" fill-opacity="0.47"/>
<path d="M208.633 121.695L156.653 211.727L52.6931 211.727L0.713039 121.694L52.6931 31.6624L156.653 31.6624L208.633 121.695Z" fill="#0693EB" fill-opacity="0.47"/>
<path d="M215.018 112.745L163.038 202.777L59.0779 202.777L7.0978 112.745L59.0779 22.7132L163.038 22.7132L215.018 112.745Z" fill="url(#paint0_linear_197_3429)"/>
<g clip-path="url(#clip0_197_3429)">
<path d="M103.712 145.15C103.712 151.186 108.623 156.1 114.66 156.1C120.696 156.1 125.607 151.186 125.607 145.15V118.473H103.712V145.15Z" fill="white"/>
<path d="M128.673 68H100.645C96.9895 68 94.0151 70.9742 94.0151 74.6322C94.0151 76.9941 95.2597 79.0723 97.1282 80.2473V80.8461V145.151C97.1282 154.818 104.992 162.682 114.659 162.682C124.325 162.682 132.19 154.817 132.19 145.151V80.8461V80.2473C134.058 79.0723 135.303 76.9941 135.303 74.6322C135.303 70.9742 132.328 68 128.673 68ZM129.042 81.2492V95.1046V145.15C129.042 153.094 122.603 159.535 114.659 159.535C106.716 159.535 100.277 153.094 100.277 145.15V95.355V81.2492V80.3927C100.398 80.3988 100.522 80.4019 100.645 80.4019H128.673C128.797 80.4019 128.919 80.3988 129.042 80.3927V81.2492ZM130.317 77.699H129.042H100.277H99.0011C97.9075 77.1122 97.1639 75.9602 97.1639 74.6322C97.1639 72.7069 98.7224 71.1486 100.645 71.1486H128.673C130.596 71.1486 132.155 72.7069 132.155 74.6322C132.155 75.9602 131.41 77.1122 130.317 77.699Z" fill="white"/>
</g>
<defs>
<linearGradient id="paint0_linear_197_3429" x1="307.084" y1="112.745" x2="-300.868" y2="112.96" gradientUnits="userSpaceOnUse">
<stop stop-color="#0B4383"/>
<stop offset="1" stop-color="#A2C3FF" stop-opacity="0"/>
</linearGradient>
<clipPath id="clip0_197_3429">
<rect width="94.6823" height="94.6823" fill="white" transform="translate(67.3179 68)"/>
</clipPath>
</defs>
</svg>
