<svg width="228" height="226" viewBox="0 0 228 226" fill="none" xmlns="http://www.w3.org/2000/svg">
<path d="M227.611 112.464L175.631 202.496L71.6711 202.496L19.6911 112.464L71.6711 22.4319L175.631 22.4319L227.611 112.464Z" fill="#0693EB" fill-opacity="0.47"/>
<path d="M207.92 103.96L155.94 193.992L51.9802 193.992L0.000148044 103.96L51.9802 13.928L155.94 13.928L207.92 103.96Z" fill="#0693EB" fill-opacity="0.47"/>
<path d="M207.92 121.413L155.94 211.445L51.9802 211.445L0.000148044 121.413L51.9802 31.3811L155.94 31.3811L207.92 121.413Z" fill="#0693EB" fill-opacity="0.47"/>
<path d="M214.305 112.464L162.325 202.496L58.365 202.496L6.38491 112.464L58.365 22.4319L162.325 22.4319L214.305 112.464Z" fill="url(#paint0_linear_197_3458)"/>
<path d="M90.8574 70.7175C89.7869 71.788 80.9552 80.6572 80.3932 81.2085C79.7282 81.8669 78.9172 82.3589 78.0261 82.6444C77.1351 82.93 76.1891 83.001 75.2654 82.8518C72.7379 81.7343 70.3386 80.3471 68.109 78.7143C66.913 77.9477 66.0705 76.7374 65.7669 75.3496C65.4632 73.9619 65.7233 72.5103 66.4899 71.3143C67.2565 70.1183 68.4667 69.2758 69.8545 68.9722C71.2423 68.6685 72.6938 68.9286 73.8898 69.6952L75.6026 70.7657L83.2568 63.0901C84.2738 62.1098 85.6354 61.5684 87.0479 61.5826C88.4605 61.5968 89.8108 62.1655 90.8079 63.1662C91.805 64.1668 92.369 65.5191 92.3783 66.9317C92.3875 68.3443 91.8413 69.7039 90.8574 70.7175ZM160.441 70.7175L149.982 81.2085C149.318 81.8683 148.507 82.3613 147.616 82.6469C146.724 82.9326 145.778 83.0028 144.854 82.8518C142.324 81.7358 139.923 80.3485 137.692 78.7143C137.1 78.3347 136.589 77.8422 136.187 77.2649C135.785 76.6876 135.501 76.0368 135.35 75.3496C135.2 74.6625 135.186 73.9525 135.31 73.2601C135.434 72.5677 135.694 71.9065 136.073 71.3143C136.453 70.7221 136.945 70.2105 137.523 69.8086C138.1 69.4068 138.751 69.1225 139.438 68.9722C140.826 68.6685 142.277 68.9286 143.473 69.6952L145.186 70.7657L152.84 63.0901C153.849 62.0847 155.216 61.5202 156.64 61.5202C158.065 61.5202 159.432 62.0847 160.441 63.0901C161.44 64.108 162 65.4774 162 66.9038C162 68.3302 161.44 69.6997 160.441 70.7175ZM122.919 73.7899C123.418 74.2854 123.815 74.8744 124.086 75.5233C124.358 76.1721 124.499 76.868 124.501 77.5713C124.504 78.2746 124.368 78.9715 124.101 79.6222C123.834 80.2729 123.442 80.8647 122.946 81.3638C122.451 81.8628 121.862 82.2594 121.213 82.5308C120.564 82.8023 119.868 82.9433 119.165 82.9458C118.461 82.9482 117.764 82.8122 117.114 82.5453C116.463 82.2785 115.871 81.8861 115.372 81.3905L113.82 79.8276L112.268 81.3798C111.255 82.3743 109.892 82.9314 108.473 82.9314C107.053 82.9314 105.691 82.3743 104.678 81.3798C103.674 80.3699 103.11 79.0036 103.11 77.5795C103.11 76.1554 103.674 74.7891 104.678 73.7792L106.23 72.2269L104.678 70.6747C104.18 70.1753 103.785 69.5827 103.516 68.9307C103.247 68.2787 103.109 67.5801 103.11 66.8748C103.112 65.4504 103.68 64.0852 104.688 63.0794C105.697 62.0736 107.064 61.5097 108.488 61.5117C109.194 61.5127 109.892 61.6526 110.543 61.9234C111.194 62.1943 111.786 62.5907 112.284 63.0901L113.82 64.6424L115.372 63.0901C116.38 62.0836 117.747 61.5187 119.171 61.5198C120.595 61.5208 121.961 62.0876 122.967 63.0955C123.974 64.1034 124.539 65.4698 124.538 66.8942C124.537 68.3186 123.97 69.6843 122.962 70.6908L121.41 72.2269L122.919 73.7899ZM156.64 98.9898V109.695C156.64 111.114 156.077 112.476 155.073 113.48C154.069 114.484 152.707 115.047 151.288 115.047H119.173V126.716C122.744 127.979 125.754 130.463 127.67 133.73C129.587 136.998 130.287 140.837 129.646 144.571C129.006 148.304 127.066 151.691 124.17 154.132C121.274 156.574 117.608 157.913 113.82 157.913C110.032 157.913 106.366 156.574 103.47 154.132C100.574 151.691 98.6341 148.304 97.9935 144.571C97.353 140.837 98.0528 136.998 99.9695 133.73C101.886 130.463 104.896 127.979 108.467 126.716V115.047H76.352C74.9324 115.047 73.5709 114.484 72.5671 113.48C71.5633 112.476 70.9994 111.114 70.9994 109.695V98.9898C70.9994 97.5702 71.5633 96.2087 72.5671 95.2049C73.5709 94.2011 74.9324 93.6372 76.352 93.6372C77.7716 93.6372 79.133 94.2011 80.1368 95.2049C81.1406 96.2087 81.7045 97.5702 81.7045 98.9898V104.342H108.467V98.9898C108.467 97.5702 109.031 96.2087 110.035 95.2049C111.039 94.2011 112.4 93.6372 113.82 93.6372C115.24 93.6372 116.601 94.2011 117.605 95.2049C118.609 96.2087 119.173 97.5702 119.173 98.9898V104.342H145.935V98.9898C145.935 97.5702 146.499 96.2087 147.503 95.2049C148.507 94.2011 149.868 93.6372 151.288 93.6372C152.707 93.6372 154.069 94.2011 155.073 95.2049C156.077 96.2087 156.64 97.5702 156.64 98.9898Z" fill="white"/>
<defs>
<linearGradient id="paint0_linear_197_3458" x1="306.371" y1="112.464" x2="-301.581" y2="112.679" gradientUnits="userSpaceOnUse">
<stop stop-color="#0B4383"/>
<stop offset="1" stop-color="#A2C3FF" stop-opacity="0"/>
</linearGradient>
</defs>
</svg>
