<svg width="228" height="226" viewBox="0 0 228 226" fill="none" xmlns="http://www.w3.org/2000/svg">
<path d="M227.92 112.96L175.94 202.992L71.9802 202.992L20.0001 112.96L71.9802 22.928L175.94 22.928L227.92 112.96Z" fill="#0693EB" fill-opacity="0.47"/>
<path d="M208.338 104.222L156.358 194.254L52.3982 194.254L0.418117 104.222L52.3982 14.1897L156.358 14.1897L208.338 104.222Z" fill="#0693EB" fill-opacity="0.47"/>
<path d="M208.338 121.675L156.358 211.707L52.3982 211.707L0.418117 121.675L52.3982 31.6429L156.358 31.6429L208.338 121.675Z" fill="#0693EB" fill-opacity="0.47"/>
<path d="M214.723 112.726L162.743 202.758L58.783 202.758L6.80288 112.726L58.783 22.6936L162.743 22.6936L214.723 112.726Z" fill="url(#paint0_linear_197_3439)"/>
<path d="M143.167 139.176L139.961 126.312C139.242 123.441 137.477 120.943 135.013 119.305L131.054 116.693L132.242 109.093C133.278 102.332 132.707 95.4227 130.575 88.9239C128.443 82.425 124.811 76.5198 119.971 71.6867L117.081 68.8763C115.598 67.4018 113.592 66.5742 111.5 66.5742C109.409 66.5742 107.402 67.4018 105.919 68.8763L103.109 71.6867C98.269 76.5198 94.6361 82.425 92.5042 88.9239C90.3723 95.4227 89.8014 102.332 90.8377 109.093L92.0252 116.693L88.0669 119.305C85.6304 120.964 83.8847 123.456 83.1585 126.312L79.8335 139.176C79.6853 139.761 79.6724 140.371 79.7959 140.961C79.9193 141.551 80.1759 142.105 80.546 142.58C80.931 143.068 81.4254 143.459 81.9893 143.72C82.5532 143.981 83.1707 144.106 83.7919 144.085H139.209C139.81 144.088 140.404 143.954 140.946 143.693C141.488 143.433 141.963 143.052 142.336 142.58C142.726 142.115 143.004 141.566 143.148 140.975C143.293 140.385 143.299 139.769 143.167 139.176ZM90.8377 128.251C91.0707 127.299 91.649 126.466 92.4606 125.916L93.3314 125.362L94.9939 136.168H88.8585L90.8377 128.251ZM115.459 108.46C115.459 109.509 115.041 110.516 114.299 111.259C113.557 112.001 112.55 112.418 111.5 112.418C110.45 112.418 109.444 112.001 108.701 111.259C107.959 110.516 107.542 109.509 107.542 108.46V96.5847C107.542 95.5348 107.959 94.528 108.701 93.7857C109.444 93.0434 110.45 92.6263 111.5 92.6263C112.55 92.6263 113.557 93.0434 114.299 93.7857C115.041 94.528 115.459 95.5348 115.459 96.5847V108.46ZM128.006 136.168L129.669 125.322L130.5 125.876C131.327 126.42 131.92 127.253 132.163 128.212L134.142 136.128L128.006 136.168Z" fill="white"/>
<defs>
<linearGradient id="paint0_linear_197_3439" x1="306.789" y1="112.726" x2="-301.163" y2="112.94" gradientUnits="userSpaceOnUse">
<stop stop-color="#0B4383"/>
<stop offset="1" stop-color="#A2C3FF" stop-opacity="0"/>
</linearGradient>
</defs>
</svg>
