<svg width="131" height="129" viewBox="0 0 131 129" fill="none" xmlns="http://www.w3.org/2000/svg">
<path d="M130.288 64.3751L100.534 115.91L41.0257 115.91L11.2717 64.3751L41.0257 12.8397L100.534 12.8397L130.288 64.3751Z" fill="#0693EB" fill-opacity="0.47"/>
<path d="M119.016 59.5079L89.2617 111.043L29.7537 111.043L-0.000223854 59.5079L29.7537 7.97255L89.2617 7.97255L119.016 59.5079Z" fill="#0693EB" fill-opacity="0.47"/>
<path d="M119.016 69.5001L89.2617 121.035L29.7537 121.035L-0.000223854 69.5001L29.7537 17.9647L89.2617 17.9647L119.016 69.5001Z" fill="#0693EB" fill-opacity="0.47"/>
<path d="M122.67 64.3751L92.9164 115.91L33.4085 115.91L3.65456 64.3751L33.4085 12.8397L92.9164 12.8397L122.67 64.3751Z" fill="url(#paint0_linear_216_5810)"/>
<g clip-path="url(#clip0_216_5810)">
<path d="M92.5001 36.3086H34.3301V77.9886H92.5001V36.3086Z" fill="white"/>
<path d="M92.5001 77.9883V84.3683H68.4301H58.3101H34.3301V77.9883H92.5001Z" fill="white"/>
<path d="M49.5101 57.7617L47.7901 61.9117L46.9801 61.6117H41.9201L41.0101 61.9117L39.3901 57.7617H49.5101Z" fill="#C2E3F7"/>
<path d="M47.7898 61.9094L44.4498 70.4094L41.0098 61.9094L41.9198 61.6094H46.9798L47.7898 61.9094Z" fill="#C2E3F7"/>
<path d="M82.3901 62.8197V67.8797H77.3301H59.6201V51.4897V46.4297H64.6801V62.8197H82.3901Z" fill="#C2E3F7"/>
<path d="M77.3298 67.8783V72.9383H54.5698V51.4883H59.6198V67.8783H77.3298Z" fill="white"/>
<path d="M87.4402 41.3711V62.8211H82.3902H64.6802V46.4311V41.3711H87.4402Z" fill="#C2E3F7"/>
<path d="M87.4398 64.1308H64.6798C64.3321 64.1231 64.0008 63.9816 63.7549 63.7357C63.509 63.4898 63.3675 63.1585 63.3599 62.8108V41.3708C63.3675 41.0231 63.509 40.6918 63.7549 40.4459C64.0008 40.2 64.3321 40.0584 64.6798 40.0508H87.4398C87.7875 40.0584 88.1188 40.2 88.3647 40.4459C88.6107 40.6918 88.7522 41.0231 88.7599 41.3708V62.7708C88.7282 63.1141 88.5799 63.4363 88.3397 63.6837C88.0996 63.9311 87.782 64.0889 87.4398 64.1308ZM65.8898 61.6008H86.1299V42.6008H65.8898V61.6008Z" fill="#0C91DF"/>
<path d="M77.33 74.2519H54.5599C54.2132 74.2442 53.883 74.1023 53.6387 73.8561C53.3944 73.61 53.2551 73.2787 53.25 72.9319V51.4819C53.2576 51.1369 53.3981 50.8081 53.6421 50.564C53.8861 50.32 54.2149 50.1795 54.5599 50.1719H59.62C59.9668 50.177 60.298 50.3163 60.5442 50.5606C60.7904 50.8049 60.9322 51.1352 60.9399 51.4819C60.9124 51.8135 60.7616 52.1228 60.5172 52.3486C60.2728 52.5745 59.9528 52.7005 59.62 52.7019H55.7799V71.7019H76.01V67.8719C76.0387 67.5429 76.1897 67.2367 76.4331 67.0135C76.6765 66.7904 76.9947 66.6667 77.325 66.6667C77.6552 66.6667 77.9734 66.7904 78.2168 67.0135C78.4602 67.2367 78.6112 67.5429 78.6399 67.8719V72.9319C78.6018 73.2672 78.4519 73.5799 78.2142 73.8194C77.9765 74.0589 77.665 74.2113 77.33 74.2519Z" fill="#0C91DF"/>
<path d="M72.2699 56.5391C72.0987 56.5394 71.9294 56.504 71.7727 56.4351C71.616 56.3662 71.4755 56.2654 71.36 56.1391L68.83 53.6091C68.7084 53.4908 68.6117 53.3493 68.5458 53.193C68.4798 53.0367 68.4458 52.8687 68.4458 52.6991C68.4458 52.5294 68.4798 52.3615 68.5458 52.2052C68.6117 52.0489 68.7084 51.9074 68.83 51.7891L71.36 49.2591C71.4783 49.1376 71.6198 49.0409 71.7761 48.975C71.9324 48.909 72.1002 48.875 72.2699 48.875C72.4395 48.875 72.6075 48.909 72.7638 48.975C72.9201 49.0409 73.0616 49.1376 73.1799 49.2591C73.4205 49.5009 73.5557 49.828 73.5557 50.1691C73.5557 50.5102 73.4205 50.8374 73.1799 51.0791L71.46 52.6991L73.08 54.3191C73.2489 54.4972 73.3648 54.719 73.4147 54.9593C73.4645 55.1997 73.4463 55.4492 73.3622 55.6799C73.278 55.9105 73.1313 56.1131 72.9384 56.2648C72.7454 56.4166 72.5138 56.5116 72.2699 56.5391Z" fill="#0C91DF"/>
<path d="M79.8501 56.5391C79.6792 56.5376 79.5104 56.5014 79.354 56.4326C79.1976 56.3639 79.0567 56.264 78.9401 56.1391C78.6995 55.8974 78.5645 55.5702 78.5645 55.2291C78.5645 54.888 78.6995 54.5609 78.9401 54.3191L80.5601 52.6991L78.9401 51.0791C78.6995 50.8374 78.5645 50.5102 78.5645 50.1691C78.5645 49.828 78.6995 49.5009 78.9401 49.2591C79.0584 49.1376 79.1999 49.0409 79.3562 48.975C79.5125 48.909 79.6804 48.875 79.8501 48.875C80.0197 48.875 80.1877 48.909 80.344 48.975C80.5003 49.0409 80.6418 49.1376 80.7601 49.2591L83.29 51.7891C83.4116 51.9074 83.5082 52.0489 83.5742 52.2052C83.6402 52.3615 83.6742 52.5294 83.6742 52.6991C83.6742 52.8687 83.6402 53.0367 83.5742 53.193C83.5082 53.3493 83.4116 53.4908 83.29 53.6091L80.7601 56.1391C80.5006 56.3557 80.1851 56.4944 79.8501 56.5391Z" fill="#0C91DF"/>
<path d="M52.0298 50.1698H49.5099C49.3276 50.1858 49.1439 50.1636 48.9706 50.1047C48.7973 50.0459 48.6381 49.9516 48.5032 49.828C48.3682 49.7043 48.2605 49.5539 48.1868 49.3864C48.1131 49.2189 48.0751 49.0379 48.0751 48.8549C48.0751 48.6718 48.1131 48.4908 48.1868 48.3233C48.2605 48.1558 48.3682 48.0054 48.5032 47.8817C48.6381 47.7581 48.7973 47.6638 48.9706 47.605C49.1439 47.5461 49.3276 47.5239 49.5099 47.5399H50.7198V46.2198C50.7505 45.8541 50.8898 45.5058 51.1199 45.2198L51.2299 45.1199L51.1199 45.0198C50.9786 44.8969 50.8686 44.742 50.7991 44.5681C50.7295 44.3943 50.7024 44.2063 50.7198 44.0198V42.5998H49.4098C49.2275 42.6158 49.0439 42.5936 48.8706 42.5347C48.6973 42.4759 48.5381 42.3816 48.4032 42.258C48.2683 42.1343 48.1605 41.9839 48.0868 41.8164C48.0131 41.6489 47.9751 41.4679 47.9751 41.2848C47.9751 41.1018 48.0131 40.9208 48.0868 40.7533C48.1605 40.5858 48.2683 40.4354 48.4032 40.3117C48.5381 40.1881 48.6973 40.0938 48.8706 40.035C49.0439 39.9761 49.2275 39.9539 49.4098 39.9698H51.9498C52.2975 39.9775 52.6288 40.119 52.8748 40.3649C53.1207 40.6108 53.2621 40.9422 53.2698 41.2899V43.6098L54.0798 44.3198C54.2211 44.4428 54.3311 44.5977 54.4006 44.7716C54.4702 44.9454 54.4973 45.1334 54.4799 45.3198C54.4493 45.6856 54.3099 46.0339 54.0798 46.3198L53.2698 47.0198V49.0198C53.2323 49.3271 53.0872 49.6112 52.8602 49.8217C52.6332 50.0323 52.339 50.1556 52.0298 50.1698Z" fill="#0C91DF"/>
<path d="M43.1298 50.1687H40.5998C40.2531 50.161 39.9228 50.0192 39.6785 49.773C39.4342 49.5268 39.2948 49.1955 39.2898 48.8488V46.8488L38.4798 46.1387C38.3361 46.0173 38.2238 45.863 38.1524 45.6889C38.081 45.5148 38.0527 45.3261 38.0698 45.1387C38.102 44.7716 38.245 44.4229 38.4798 44.1387L39.2898 43.4288V41.1687C39.2948 40.822 39.4342 40.4907 39.6785 40.2445C39.9228 39.9983 40.2531 39.8565 40.5998 39.8488H43.1298C43.3122 39.8328 43.4957 39.855 43.669 39.9139C43.8423 39.9727 44.0015 40.067 44.1364 40.1906C44.2714 40.3143 44.3791 40.4647 44.4528 40.6322C44.5265 40.7997 44.5645 40.9807 44.5645 41.1638C44.5645 41.3468 44.5265 41.5278 44.4528 41.6953C44.3791 41.8628 44.2714 42.0132 44.1364 42.1369C44.0015 42.2605 43.8423 42.3548 43.669 42.4136C43.4957 42.4725 43.3122 42.4947 43.1298 42.4788H41.8198V44.0988C41.792 44.467 41.6485 44.817 41.4097 45.0988L41.3098 45.1987L41.4097 45.2987C41.5528 45.4207 41.6647 45.5751 41.736 45.7491C41.8074 45.923 41.836 46.1115 41.8198 46.2987V47.6087H43.1298C43.4775 47.6164 43.8089 47.7579 44.0548 48.0038C44.3007 48.2497 44.4421 48.5811 44.4498 48.9288C44.4104 49.2575 44.2566 49.562 44.0152 49.7887C43.7739 50.0154 43.4604 50.15 43.1298 50.1687Z" fill="#0C91DF"/>
<path d="M92.5 85.58H68.4199C68.091 85.5513 67.7848 85.4003 67.5616 85.1569C67.3385 84.9134 67.2147 84.5952 67.2147 84.265C67.2147 83.9348 67.3385 83.6166 67.5616 83.3731C67.7848 83.1297 68.091 82.9787 68.4199 82.95H91.1799V37.52H35.5499V83.05H58.3099C58.6389 83.0787 58.9452 83.2297 59.1683 83.4731C59.3914 83.7166 59.5151 84.0348 59.5151 84.365C59.5151 84.6952 59.3914 85.0134 59.1683 85.2569C58.9452 85.5003 58.6389 85.6513 58.3099 85.68H34.3099C33.9632 85.6723 33.633 85.5304 33.3887 85.2843C33.1444 85.0381 33.0051 84.7068 33 84.36V36.31C33.0052 35.9642 33.1448 35.634 33.3894 35.3894C33.634 35.1448 33.9641 35.0052 34.3099 35H92.48C92.8258 35.0052 93.1559 35.1448 93.4005 35.3894C93.6451 35.634 93.7848 35.9642 93.7899 36.31V84.36C93.7342 84.6748 93.5789 84.9634 93.3466 85.1831C93.1143 85.4028 92.8175 85.542 92.5 85.58Z" fill="#0C91DF"/>
<path d="M68.4197 95.6892C68.0739 95.6841 67.7437 95.5444 67.4991 95.2998C67.2546 95.0553 67.1149 94.725 67.1097 94.3792V85.4692H59.5197V94.3792C59.4909 94.7082 59.34 95.0144 59.0966 95.2375C58.8531 95.4607 58.5349 95.5844 58.2047 95.5844C57.8745 95.5844 57.5563 95.4607 57.3129 95.2375C57.0694 95.0144 56.9184 94.7082 56.8896 94.3792V84.2592C56.8974 83.9125 57.0392 83.5823 57.2854 83.338C57.5316 83.0937 57.8629 82.9543 58.2097 82.9492H68.3197C68.6665 82.9543 68.9977 83.0937 69.2439 83.338C69.4901 83.5823 69.6319 83.9125 69.6396 84.2592V94.3792C69.6552 94.5475 69.635 94.7172 69.5804 94.8771C69.5259 95.037 69.4382 95.1836 69.323 95.3073C69.2078 95.431 69.0678 95.5289 68.9121 95.5948C68.7565 95.6606 68.5886 95.6928 68.4197 95.6892Z" fill="white"/>
<path d="M92.5002 79.3019H34.3302C34.0012 79.2732 33.6949 79.1222 33.4718 78.8788C33.2487 78.6353 33.125 78.3171 33.125 77.9869C33.125 77.6567 33.2487 77.3384 33.4718 77.095C33.6949 76.8516 34.0012 76.7006 34.3302 76.6719H92.5002C92.847 76.6796 93.1772 76.8215 93.4215 77.0676C93.6658 77.3138 93.8051 77.6451 93.8102 77.9919C93.7889 78.3324 93.644 78.6533 93.4028 78.8945C93.1616 79.1358 92.8407 79.2806 92.5002 79.3019Z" fill="#0C91DF"/>
<path d="M72.2706 95.6886H54.5607C54.2317 95.6599 53.9255 95.5089 53.7024 95.2655C53.4793 95.022 53.3555 94.7038 53.3555 94.3736C53.3555 94.0434 53.4793 93.7252 53.7024 93.4817C53.9255 93.2383 54.2317 93.0873 54.5607 93.0586H72.2706C72.6174 93.0663 72.9476 93.2082 73.1919 93.4543C73.4362 93.7005 73.5756 94.0318 73.5807 94.3786C73.5405 94.7121 73.3896 95.0225 73.1521 95.26C72.9146 95.4975 72.6041 95.6485 72.2706 95.6886Z" fill="white"/>
<path d="M44.45 71.7702C44.1899 71.7681 43.9361 71.6904 43.7195 71.5466C43.5029 71.4028 43.3328 71.199 43.23 70.9602L38.23 58.3102C38.1409 58.1251 38.1009 57.9202 38.1137 57.7151C38.1264 57.5101 38.1916 57.3118 38.303 57.1392C38.4144 56.9665 38.5682 56.8254 38.7498 56.7293C38.9313 56.6332 39.1346 56.5853 39.34 56.5902H49.46C49.6654 56.5853 49.8685 56.6332 50.0501 56.7293C50.2316 56.8254 50.3856 56.9665 50.497 57.1392C50.6084 57.3118 50.6735 57.5101 50.6863 57.7151C50.6991 57.9202 50.659 58.1251 50.57 58.3102L45.51 70.9602C45.4465 71.1927 45.3082 71.3979 45.1167 71.5442C44.9252 71.6906 44.691 71.7699 44.45 71.7702ZM41.21 59.1202L44.45 67.1202L47.69 59.1202H41.21Z" fill="#0C91DF"/>
<path d="M46.95 62.7717H41.95C41.7676 62.7876 41.5839 62.7655 41.4106 62.7066C41.2373 62.6478 41.0782 62.5535 40.9432 62.4298C40.8083 62.3062 40.7007 62.1558 40.627 61.9883C40.5533 61.8208 40.5151 61.6397 40.5151 61.4567C40.5151 61.2737 40.5533 61.0927 40.627 60.9252C40.7007 60.7576 40.8083 60.6073 40.9432 60.4836C41.0782 60.3599 41.2373 60.2657 41.4106 60.2068C41.5839 60.148 41.7676 60.1258 41.95 60.1417H46.95C47.2967 60.1494 47.6269 60.2913 47.8712 60.5375C48.1155 60.7836 48.2549 61.1149 48.26 61.4617C48.2367 61.8015 48.0911 62.1213 47.8503 62.3621C47.6095 62.6029 47.2897 62.7484 46.95 62.7717Z" fill="#0C91DF"/>
<rect x="55" y="83.3125" width="15" height="2" fill="#0C91DF"/>
</g>
<defs>
<linearGradient id="paint0_linear_216_5810" x1="175.37" y1="64.3751" x2="-172.629" y2="64.498" gradientUnits="userSpaceOnUse">
<stop stop-color="#0B4383"/>
<stop offset="1" stop-color="#A2C3FF" stop-opacity="0"/>
</linearGradient>
<clipPath id="clip0_216_5810">
<rect width="60.8" height="60.7" fill="white" transform="translate(33 35)"/>
</clipPath>
</defs>
</svg>
