<svg width="131" height="129" viewBox="0 0 131 129" fill="none" xmlns="http://www.w3.org/2000/svg">
<path d="M130.288 64.3751L100.534 115.91L41.0257 115.91L11.2717 64.3751L41.0257 12.8397L100.534 12.8397L130.288 64.3751Z" fill="#0693EB" fill-opacity="0.47"/>
<path d="M119.016 59.5079L89.2617 111.043L29.7537 111.043L-0.000223854 59.5079L29.7537 7.97255L89.2617 7.97255L119.016 59.5079Z" fill="#0693EB" fill-opacity="0.47"/>
<path d="M119.016 69.5001L89.2617 121.035L29.7537 121.035L-0.000223854 69.5001L29.7537 17.9647L89.2617 17.9647L119.016 69.5001Z" fill="#0693EB" fill-opacity="0.47"/>
<path d="M122.67 64.3751L92.9164 115.91L33.4085 115.91L3.65456 64.3751L33.4085 12.8397L92.9164 12.8397L122.67 64.3751Z" fill="url(#paint0_linear_216_5844)"/>
<g clip-path="url(#clip0_216_5844)">
<path d="M80.9395 46.2134C80.7255 46.2139 80.5135 46.1683 80.316 46.0792C80.1185 45.9901 79.9394 45.8593 79.7893 45.6945C74.1061 39.4818 66.132 36.781 58.3322 38.2398L59.5624 39.0172C59.9309 39.2514 60.1981 39.6341 60.3053 40.081C60.4125 40.528 60.3509 41.0026 60.134 41.4005C59.9171 41.7984 59.5628 42.087 59.1488 42.2028C58.7349 42.3185 58.2953 42.252 57.9268 42.0178L53.3769 39.1408C53.194 39.0258 53.0341 38.8729 52.906 38.691C52.778 38.509 52.6845 38.3016 52.6309 38.0806C52.5772 37.8596 52.5645 37.6293 52.5934 37.4029C52.6223 37.1766 52.6923 36.9586 52.7994 36.7615L55.4701 31.8611C55.6901 31.4703 56.0436 31.1885 56.4542 31.0765C56.8649 30.9645 57.2998 31.0313 57.6653 31.2624C58.0308 31.4935 58.2976 31.8704 58.408 32.3119C58.5185 32.7534 58.4638 33.2242 58.2559 33.6226L57.5867 34.8508C66.4875 33.1151 75.6033 36.1666 82.0876 43.2558C82.3096 43.5003 82.4599 43.81 82.5196 44.1463C82.5792 44.4826 82.5457 44.8304 82.4231 45.1462C82.3005 45.462 82.0944 45.7317 81.8305 45.9215C81.5666 46.1114 81.2566 46.2129 80.9395 46.2134Z" fill="white"/>
<path d="M85.1331 78.5325C88.8629 70.7911 88.7829 61.7878 85.0854 54.2484L84.7786 55.7489C84.6868 56.2007 84.4325 56.5946 84.0718 56.8439C83.711 57.0932 83.2733 57.1776 82.8549 57.0784C82.4365 56.9793 82.0718 56.7047 81.8408 56.3152C81.6099 55.9256 81.5318 55.453 81.6236 55.0012L82.7585 49.4521C82.8471 49.0247 83.0819 48.6492 83.4158 48.4006C83.7498 48.1521 84.1584 48.0489 84.5598 48.1117C84.6011 48.118 84.6425 48.1174 84.6838 48.1271L89.8367 49.3474C90.0433 49.3967 90.2389 49.4894 90.4123 49.6203C90.5857 49.7512 90.7335 49.9177 90.8474 50.1103C91.0772 50.4993 91.1546 50.9709 91.0624 51.4214C90.9702 51.872 90.7161 52.2645 90.3558 52.5128C89.9956 52.761 89.5588 52.8445 89.1416 52.7449L87.8505 52.4389C92.1323 61.02 92.2563 71.3014 88.0004 80.1349C87.8002 80.5388 87.4608 80.8415 87.0556 80.9773C86.6504 81.1131 86.212 81.0713 85.8352 80.8608C85.4583 80.6502 85.1734 80.288 85.042 79.8524C84.9106 79.4168 84.9433 78.9428 85.1331 78.5331V78.5325Z" fill="white"/>
<path d="M57.7943 94.1567C65.7822 95.5869 73.7071 92.7219 79.2213 86.6053L77.802 86.7546C77.7486 86.7603 77.6957 86.7631 77.643 86.7631C77.229 86.7634 76.8309 86.5915 76.5311 86.2832C76.2313 85.9749 76.0529 85.5539 76.0329 85.1074C76.013 84.6609 76.1529 84.2232 76.4238 83.8852C76.6947 83.5471 77.0757 83.3346 77.4878 83.2918L82.7392 82.7391C82.9501 82.7163 83.1631 82.7386 83.3659 82.8048C83.5688 82.871 83.7576 82.9797 83.9214 83.1248C84.0853 83.2699 84.2211 83.4484 84.321 83.6502C84.4209 83.8521 84.4829 84.0732 84.5035 84.3009L85.0169 89.9576C85.0373 90.1853 85.016 90.4151 84.9542 90.6338C84.8923 90.8526 84.7912 91.0561 84.6564 91.2326C84.5217 91.4091 84.3561 91.5552 84.169 91.6625C83.982 91.7698 83.7771 91.8363 83.5663 91.8581C83.5133 91.8638 83.4603 91.8666 83.4073 91.8666C83.007 91.8666 82.621 91.7059 82.3243 91.4157C82.0276 91.1254 81.8414 90.7265 81.802 90.2963L81.6733 88.8775C79.113 91.7653 76.037 94.0626 72.6313 95.6305C69.2256 97.1984 65.5608 98.0044 61.8585 97.9999C60.3195 97.9995 58.7832 97.8625 57.2651 97.5903C57.0563 97.5527 56.8565 97.4711 56.677 97.3502C56.4975 97.2292 56.3418 97.0713 56.2188 96.8854C56.0958 96.6994 56.0079 96.4892 55.9602 96.2666C55.9124 96.044 55.9058 95.8134 55.9405 95.588C55.9753 95.3626 56.0509 95.1469 56.1629 94.953C56.2749 94.7592 56.4212 94.591 56.5934 94.4582C56.7656 94.3254 56.9603 94.2305 57.1665 94.179C57.3726 94.1275 57.5861 94.1203 57.7949 94.1578L57.7943 94.1567Z" fill="white"/>
<path d="M33.7103 69.5156C34.1334 69.4467 34.5645 69.5618 34.9091 69.8357C35.2537 70.1097 35.4835 70.52 35.5482 70.9767C36.7556 79.6008 41.7326 86.8341 48.8384 90.5944L48.2678 89.1865C48.0968 88.7627 48.0887 88.2828 48.2453 87.8526C48.402 87.4223 48.7105 87.0768 49.103 86.8922C49.4956 86.7076 49.9399 86.6988 50.3384 86.868C50.7369 87.0371 51.0568 87.3702 51.2278 87.7941L53.3391 93C53.4236 93.2093 53.4691 93.4346 53.4729 93.663C53.4767 93.8913 53.4388 94.1182 53.3614 94.3308C53.2839 94.5433 53.1684 94.7372 53.0215 94.9015C52.8746 95.0658 52.6992 95.1973 52.5052 95.2883L47.6691 97.5623C47.4745 97.6584 47.2642 97.7117 47.0503 97.7191C46.8365 97.7265 46.6234 97.6878 46.4236 97.6054C46.2237 97.523 46.041 97.3985 45.8862 97.2391C45.7313 97.0796 45.6074 96.8885 45.5216 96.6769C45.4359 96.4652 45.39 96.2373 45.3867 96.0063C45.3833 95.7753 45.4226 95.5459 45.5022 95.3314C45.5818 95.117 45.7002 94.9218 45.8503 94.7573C46.0005 94.5927 46.1795 94.4621 46.3769 94.373L47.5886 93.8038C39.4433 89.5744 33.7309 81.3325 32.3534 71.4927C32.2909 71.0363 32.3987 70.5718 32.6531 70.2011C32.9075 69.8304 33.2877 69.5839 33.7103 69.5156Z" fill="white"/>
<path d="M29.5463 59.2013C29.867 58.8958 30.2865 58.7397 30.7134 58.7671C31.1402 58.7946 31.5397 59.0033 31.8245 59.3477L32.7013 60.4123C33.9199 50.762 39.4299 42.3639 47.6949 37.912C47.8845 37.8052 48.0919 37.7403 48.305 37.721C48.5181 37.7016 48.7327 37.7283 48.9362 37.7993C49.1397 37.8704 49.328 37.9845 49.4903 38.1349C49.6525 38.2853 49.7855 38.4691 49.8813 38.6756C49.9771 38.882 50.034 39.107 50.0485 39.3374C50.0631 39.5677 50.035 39.799 49.966 40.0175C49.8969 40.2361 49.7883 40.4376 49.6465 40.6105C49.5046 40.7833 49.3323 40.9239 49.1396 41.0241C41.8977 44.9251 37.0489 52.2597 35.9268 60.7001L36.9938 59.6801C37.1521 59.5281 37.3366 59.4113 37.5367 59.3363C37.7368 59.2613 37.9486 59.2295 38.16 59.2429C38.3715 59.2563 38.5784 59.3146 38.769 59.4143C38.9596 59.514 39.1302 59.6533 39.2709 59.8243C39.4117 59.9952 39.5199 60.1943 39.5893 60.4104C39.6588 60.6265 39.6882 60.8552 39.6758 61.0835C39.6634 61.3118 39.6095 61.5353 39.5171 61.7411C39.4247 61.9469 39.2957 62.1311 39.1374 62.283L35.1909 66.0553C34.8702 66.3609 34.4506 66.5169 34.0237 66.4894C33.5968 66.4618 33.1974 66.2529 32.9127 65.9083L29.4107 61.6572C29.27 61.4864 29.1619 61.2874 29.0925 61.0715C29.0232 60.8556 28.994 60.627 29.0066 60.3988C29.0192 60.1707 29.0733 59.9475 29.1659 59.742C29.2586 59.5365 29.3878 59.3527 29.5463 59.2013Z" fill="white"/>
</g>
<defs>
<linearGradient id="paint0_linear_216_5844" x1="175.37" y1="64.3751" x2="-172.629" y2="64.498" gradientUnits="userSpaceOnUse">
<stop stop-color="#0B4383"/>
<stop offset="1" stop-color="#A2C3FF" stop-opacity="0"/>
</linearGradient>
<clipPath id="clip0_216_5844">
<rect width="62.1273" height="67" fill="white" transform="matrix(-1 0 0 1 91.1274 31)"/>
</clipPath>
</defs>
</svg>
