<svg width="622" height="429" viewBox="0 0 622 429" fill="none" xmlns="http://www.w3.org/2000/svg">
<g opacity="0.14">
<path d="M500.873 236.545C500.846 237.351 500.873 238.158 500.846 238.964C500.791 240.049 500.682 241.106 500.572 242.19C500.49 242.941 500.463 243.692 500.353 244.443C500.134 246.25 499.806 248.058 499.423 249.81C488.618 327.812 442.744 399.697 369.215 439.574C367.163 440.687 365.084 441.771 363.005 442.828C362.376 443.134 361.775 443.44 361.145 443.746C359.668 444.469 358.218 445.192 356.741 445.887C356.003 446.248 355.264 446.582 354.526 446.916C353.158 447.555 351.79 448.167 350.422 448.779C349.629 449.113 348.863 449.446 348.097 449.78C346.729 450.364 345.362 450.92 343.994 451.476C343.228 451.782 342.462 452.116 341.696 452.394C340.274 452.978 338.879 453.506 337.456 454.035C336.745 454.313 336.006 454.563 335.295 454.841C333.736 455.397 332.204 455.953 330.645 456.482C330.043 456.676 329.469 456.871 328.894 457.066C326.843 457.761 324.791 458.401 322.739 459.04C322.657 459.068 322.548 459.096 322.466 459.124C320.25 459.791 318.007 460.431 315.764 461.042C315.518 461.126 315.272 461.181 314.998 461.237C313.111 461.765 311.196 462.238 309.281 462.711C308.679 462.85 308.077 462.989 307.503 463.128C305.916 463.489 304.33 463.879 302.716 464.212C302.032 464.352 301.348 464.491 300.664 464.63C299.16 464.936 297.655 465.241 296.123 465.519C295.412 465.659 294.701 465.798 293.99 465.909C292.458 466.187 290.953 466.437 289.449 466.66C288.765 466.771 288.054 466.882 287.37 466.993C285.783 467.244 284.169 467.438 282.583 467.661C281.981 467.716 281.379 467.8 280.805 467.883C278.89 468.106 276.975 468.328 275.06 468.495C274.787 468.523 274.513 468.578 274.24 468.578C269.753 469.023 265.295 469.301 260.808 469.468C260.398 469.496 259.988 469.496 259.55 469.524C257.772 469.58 255.994 469.635 254.216 469.635C253.642 469.663 253.04 469.663 252.438 469.663C250.824 469.663 249.21 469.663 247.623 469.635C246.967 469.635 246.31 469.607 245.681 469.607C244.095 469.552 242.536 469.496 240.949 469.44C240.32 469.413 239.691 469.385 239.034 469.357C237.42 469.274 235.779 469.19 234.138 469.051C233.591 469.023 233.043 468.996 232.496 468.94C230.636 468.801 228.776 468.634 226.943 468.467C226.615 468.439 226.314 468.412 225.986 468.384C221.527 467.911 217.068 467.327 212.637 466.632C212.527 466.604 212.445 466.604 212.363 466.576C210.284 466.243 208.233 465.909 206.181 465.519C205.771 465.436 205.333 465.353 204.923 465.269C203.2 464.936 201.449 464.602 199.753 464.24C199.206 464.129 198.686 464.018 198.166 463.879C196.552 463.545 194.911 463.156 193.27 462.766C192.75 462.627 192.203 462.516 191.683 462.377C190.015 461.96 188.373 461.543 186.732 461.098C186.267 460.959 185.775 460.848 185.31 460.709C183.504 460.208 181.726 459.708 179.975 459.179C179.647 459.068 179.319 458.985 179.018 458.873C172.617 456.927 166.271 454.73 160.061 452.255C159.76 452.144 159.459 452.032 159.186 451.921C157.435 451.226 155.712 450.503 153.988 449.78C153.824 449.724 153.66 449.641 153.496 449.585C153.305 449.502 153.14 449.418 152.949 449.335C141.433 444.385 130.299 438.545 119.604 431.871C119.494 431.816 119.412 431.76 119.33 431.704C114.735 428.84 110.194 425.781 105.762 422.611C105.434 422.361 105.106 422.111 104.75 421.86C102.698 420.386 100.702 418.857 98.6774 417.328C98.5679 417.216 98.4585 417.133 98.3491 417.049C96.2428 415.409 94.1638 413.74 92.0849 412.016C91.7566 411.738 91.401 411.432 91.0454 411.126C89.3494 409.708 87.6808 408.262 86.0122 406.788C85.5745 406.427 85.1642 406.037 84.7538 405.676C82.7843 403.896 80.8421 402.116 78.9273 400.281C78.8179 400.198 78.7358 400.086 78.6264 400.003C76.8483 398.279 75.125 396.555 73.3743 394.803C72.9093 394.302 72.4169 393.802 71.9519 393.329C70.42 391.744 68.9155 390.159 67.4383 388.518C67.1374 388.184 66.8092 387.851 66.4809 387.489C64.7576 385.57 63.0616 383.624 61.3656 381.649C60.9279 381.121 60.4903 380.593 60.0252 380.064C58.7669 378.563 57.5086 377.033 56.2776 375.476C55.7852 374.836 55.2655 374.197 54.7458 373.557C53.1866 371.555 51.6547 369.553 50.1502 367.495C49.7946 367.022 49.4663 366.522 49.1107 366.049C47.9345 364.436 46.7856 362.795 45.664 361.155C45.0349 360.265 44.4331 359.375 43.8313 358.485C42.9559 357.178 42.0806 355.843 41.2326 354.508C40.6034 353.563 40.0016 352.617 39.3998 351.672C38.1962 349.753 37.0199 347.807 35.8437 345.832C35.6249 345.443 35.3787 345.081 35.1598 344.692C34.8316 344.136 34.558 343.552 34.2298 342.996C32.7253 340.409 31.3028 337.795 29.8804 335.126C29.7983 334.959 29.6889 334.792 29.6068 334.625C21.4825 319.164 15.1089 303.257 10.3765 287.101C6.76569 274.754 4.11228 262.296 2.38894 249.782C-7.97848 174.143 15.738 97.1137 66.9186 41.0241C74.3591 32.8484 82.4013 25.0899 90.9907 17.8875C103.711 7.20907 117.716 -2.35702 132.843 -10.5605C133.062 -10.6995 133.281 -10.8108 133.5 -10.8942C135.551 -12.0065 137.63 -13.0911 139.682 -14.1478C213.348 -51.2998 296.835 -48.1575 365.385 -12.5627L365.331 -12.4515C372.771 -8.72515 379.5 -3.41374 385.026 3.3159C387.625 6.48605 389.95 9.98991 391.947 13.7719C396.132 21.7807 398.43 30.3457 398.977 38.8272C400.509 62.2975 388.692 85.6288 366.945 97.4474C357.835 102.397 348.042 104.705 338.441 104.705C335.186 104.705 331.958 104.455 328.785 103.927C322.986 102.981 317.351 101.202 312.071 98.6431C311.825 98.5041 311.551 98.4207 311.305 98.2538C310.703 97.9201 309.992 97.6142 309.336 97.2805C307.065 96.1126 304.767 95.028 302.442 93.9991C298.011 92.0525 293.47 90.3562 288.847 88.9102C288.136 88.7155 287.425 88.4931 286.713 88.2984C285.264 87.8813 283.814 87.4642 282.337 87.1026C281.461 86.8802 280.586 86.6577 279.711 86.4352C278.343 86.1293 276.948 85.8513 275.553 85.5732C274.732 85.4063 273.939 85.2117 273.118 85.0726C270.93 84.6833 268.769 84.3496 266.58 84.0993C266.006 84.0159 265.459 83.9603 264.912 83.9047C262.942 83.6822 260.973 83.4876 259.003 83.3763C258.675 83.3485 258.347 83.3207 258.018 83.2929C255.72 83.1539 253.45 83.0982 251.18 83.0982L249.675 83.0982C247.706 83.126 245.736 83.1817 243.739 83.2929C243.356 83.3207 242.973 83.3207 242.563 83.3485C240.265 83.5154 237.94 83.71 235.615 83.9881C235.232 84.0437 234.849 84.0993 234.466 84.155C232.442 84.4052 230.417 84.7389 228.393 85.1004C227.983 85.1839 227.545 85.2395 227.107 85.3229C224.782 85.7678 222.485 86.2684 220.159 86.8524C219.886 86.908 219.612 86.9914 219.339 87.0748C217.287 87.6032 215.236 88.1872 213.184 88.8268C212.719 88.9658 212.254 89.1048 211.762 89.2717C209.491 89.9947 207.221 90.8012 204.95 91.6632C204.786 91.7466 204.649 91.8023 204.485 91.8579C202.406 92.6921 200.355 93.582 198.303 94.4997C197.756 94.75 197.236 95.0002 196.689 95.2505C194.501 96.2794 192.312 97.364 190.151 98.5319C131.777 130.206 107.048 200.922 130.409 262.045C132.296 266.884 134.457 271.695 136.919 276.394C137.083 276.7 137.247 277.034 137.412 277.34C138.287 278.925 139.162 280.51 140.065 282.04C140.448 282.707 140.858 283.347 141.269 283.986C141.98 285.154 142.691 286.322 143.43 287.462C143.922 288.213 144.442 288.936 144.961 289.687C145.645 290.688 146.329 291.689 147.04 292.662C147.587 293.441 148.162 294.164 148.736 294.943C149.42 295.833 150.131 296.75 150.843 297.64C151.445 298.391 152.074 299.142 152.703 299.893C153.414 300.727 154.125 301.561 154.836 302.395L156.806 304.564C157.545 305.371 158.283 306.15 159.049 306.928C159.733 307.623 160.417 308.319 161.128 309.014C161.894 309.765 162.66 310.488 163.426 311.211C164.164 311.878 164.876 312.573 165.587 313.213C166.408 313.908 167.201 314.603 168.021 315.298C168.76 315.938 169.499 316.55 170.237 317.162C171.085 317.857 171.933 318.496 172.781 319.164C173.52 319.72 174.286 320.332 175.024 320.888C175.927 321.555 176.857 322.195 177.787 322.835C178.526 323.335 179.237 323.863 179.975 324.364C181.288 325.226 182.629 326.06 183.997 326.895C184.954 327.506 185.939 328.063 186.924 328.646C187.99 329.258 189.03 329.87 190.124 330.454C190.917 330.899 191.765 331.288 192.586 331.733C193.516 332.206 194.473 332.707 195.458 333.179C196.306 333.596 197.182 333.986 198.057 334.375C198.987 334.82 199.944 335.237 200.902 335.654C201.777 336.016 202.68 336.377 203.555 336.739C204.513 337.128 205.47 337.49 206.427 337.851C207.357 338.185 208.26 338.518 209.163 338.824C210.148 339.158 211.105 339.492 212.09 339.798C212.992 340.104 213.923 340.382 214.853 340.66C215.837 340.966 216.822 341.244 217.807 341.494C218.737 341.744 219.667 341.995 220.597 342.217C221.609 342.467 222.621 342.718 223.633 342.94C224.564 343.135 225.494 343.329 226.424 343.524C227.463 343.719 228.475 343.913 229.515 344.08C230.445 344.247 231.375 344.414 232.278 344.553C233.372 344.72 234.466 344.831 235.533 344.97C236.435 345.081 237.311 345.22 238.214 345.304C239.417 345.415 240.621 345.498 241.852 345.582C242.618 345.637 243.384 345.721 244.149 345.776C246.119 345.888 248.061 345.943 250.031 345.971C250.742 345.971 251.453 345.943 252.137 345.943C253.45 345.916 254.736 345.916 256.021 345.86C256.897 345.832 257.745 345.776 258.62 345.721C259.769 345.637 260.918 345.582 262.039 345.498C262.969 345.415 263.872 345.304 264.775 345.193C265.869 345.081 266.963 344.97 268.057 344.803C268.987 344.692 269.918 344.553 270.848 344.386C271.914 344.219 273.009 344.052 274.075 343.858C275.006 343.691 275.936 343.496 276.893 343.302C277.96 343.079 279.027 342.829 280.066 342.579C281.024 342.384 281.954 342.134 282.884 341.911C283.923 341.633 284.99 341.327 286.057 341.021C286.987 340.771 287.89 340.493 288.82 340.215C289.886 339.881 290.953 339.52 291.993 339.158C292.923 338.852 293.826 338.546 294.728 338.213C295.467 337.935 296.205 337.629 296.971 337.351C298.421 336.767 299.898 336.183 301.348 335.571C302.716 334.959 304.084 334.375 305.451 333.735C305.834 333.541 306.217 333.374 306.6 333.179C308.378 332.317 310.156 331.427 311.907 330.454C350.532 309.514 374.358 271.445 379.309 230.427C381.224 210.461 392.576 191.829 411.259 181.679C412.49 181.012 413.721 180.4 414.979 179.844C415.28 179.705 415.609 179.538 415.937 179.399C417.058 178.926 418.207 178.453 419.356 178.036C419.493 177.981 419.602 177.925 419.739 177.897C420.97 177.452 422.201 177.063 423.432 176.701C423.815 176.59 424.198 176.479 424.581 176.395C425.593 176.117 426.632 175.867 427.645 175.645C427.918 175.589 428.192 175.533 428.465 175.478C429.669 175.228 430.9 175.061 432.103 174.894C432.541 174.838 432.951 174.783 433.362 174.755C434.319 174.644 435.304 174.56 436.261 174.504L437.246 174.421C438.477 174.365 439.708 174.365 440.912 174.365C441.295 174.393 441.65 174.393 442.033 174.421C443.073 174.449 444.112 174.504 445.124 174.616C445.316 174.616 445.507 174.616 445.699 174.644C445.781 174.644 445.835 174.671 445.917 174.671C447.148 174.783 448.352 174.949 449.583 175.144C449.829 175.2 450.075 175.228 450.322 175.283C451.334 175.45 452.319 175.645 453.303 175.895C453.604 175.951 453.905 176.006 454.206 176.09C455.41 176.395 456.613 176.701 457.789 177.063C457.871 177.091 457.981 177.118 458.063 177.146C459.13 177.508 460.197 177.869 461.263 178.286C461.619 178.398 461.947 178.537 462.303 178.676C463.206 179.037 464.081 179.427 464.984 179.816C465.23 179.927 465.476 180.038 465.75 180.15C466.816 180.678 467.883 181.206 468.923 181.79C469.251 181.957 469.552 182.152 469.88 182.319C470.673 182.764 471.439 183.236 472.205 183.737C472.534 183.932 472.862 184.126 473.163 184.349C474.175 184.988 475.16 185.683 476.117 186.406C476.172 186.434 476.226 186.462 476.254 186.49C476.555 186.712 476.856 186.963 477.156 187.213C477.649 187.574 478.114 187.964 478.606 188.353C478.962 188.659 479.318 188.965 479.673 189.271C480.111 189.66 480.548 190.049 480.986 190.439C481.342 190.772 481.725 191.134 482.08 191.495C482.463 191.857 482.874 192.246 483.229 192.636C483.612 193.025 483.995 193.414 484.351 193.831C484.706 194.193 485.062 194.582 485.39 194.971C485.773 195.389 486.156 195.834 486.512 196.278C486.84 196.64 487.141 197.029 487.442 197.419C487.825 197.891 488.18 198.336 488.536 198.809C488.837 199.226 489.111 199.615 489.411 200.033C489.74 200.505 490.095 200.978 490.424 201.479C490.724 201.951 490.998 202.424 491.299 202.869C491.6 203.342 491.873 203.787 492.174 204.259C492.721 205.205 493.268 206.15 493.761 207.124C494.636 208.764 495.402 210.433 496.086 212.101C496.551 213.214 496.934 214.326 497.317 215.438C497.536 216.05 497.782 216.634 497.973 217.246C498.274 218.191 498.521 219.165 498.767 220.138C498.986 220.945 499.232 221.751 499.423 222.557C499.56 223.253 499.669 223.948 499.806 224.671C499.97 225.561 500.189 226.478 500.326 227.368C500.326 227.368 500.326 227.368 500.326 227.396C500.353 227.591 500.353 227.758 500.381 227.952C500.49 228.898 500.545 229.843 500.627 230.761C500.709 231.651 500.818 232.541 500.846 233.431C500.9 234.459 500.873 235.516 500.873 236.545Z" fill="white"/>
<path d="M610.117 108.554C607.765 112.892 605.057 117.036 602.02 120.984C594.361 130.968 584.568 139.505 572.915 145.817C544.603 161.195 511.941 159.916 485.681 145.456L485.407 145.789C467.873 136.446 447.767 132.58 427.88 135.083C416.337 136.529 404.848 140.117 393.988 146.04C365.019 161.724 347.129 190.199 343.218 220.928C342.944 224.71 342.452 228.492 341.741 232.19C336.598 258.803 320.24 282.913 294.909 296.65C256.668 317.423 210.493 307.94 182.892 276.406C178.406 271.261 174.412 265.56 171.02 259.276C170.829 258.942 170.664 258.58 170.473 258.247C168.668 254.771 167.081 251.239 165.741 247.652C164.865 245.344 164.099 243.035 163.415 240.7C151.215 198.987 169.105 152.992 208.304 131.718C219.493 125.628 231.912 121.93 244.577 120.957C256.859 120.011 269.305 121.624 280.958 125.628C286.621 127.575 292.064 130.05 297.262 133.053C305.167 137.642 313.784 140.867 322.729 142.619C343.902 146.763 366.524 143.871 387.04 132.775C416.638 116.674 434.719 87.3083 438.002 55.718C439.15 41.4801 443.527 27.6593 450.749 15.368C458.983 1.24131 471.019 -10.8275 486.31 -19.1145C514.157 -34.2144 546.271 -33.3246 572.286 -19.4482C579.589 -15.5828 586.373 -10.7163 592.501 -4.87655C599.668 1.90871 605.877 10.0288 610.746 19.3168C611.239 20.2623 611.731 21.2077 612.196 22.181C625.846 50.49 624.177 82.6643 610.117 108.554Z" fill="#00F0FF"/>
</g>
</svg>
