<svg xmlns="http://www.w3.org/2000/svg" width="131" height="129" viewBox="0 0 131 129" fill="none">
<path d="M130.288 64.3751L100.534 115.91L41.0257 115.91L11.2717 64.3751L41.0257 12.8397L100.534 12.8397L130.288 64.3751Z" fill="#0693EB" fill-opacity="0.47"/>
<path d="M119.016 59.5079L89.2617 111.043L29.7537 111.043L-0.000223854 59.5079L29.7537 7.97255L89.2617 7.97255L119.016 59.5079Z" fill="#0693EB" fill-opacity="0.47"/>
<path d="M119.016 69.5001L89.2617 121.035L29.7537 121.035L-0.000223854 69.5001L29.7537 17.9647L89.2617 17.9647L119.016 69.5001Z" fill="#0693EB" fill-opacity="0.47"/>
<path d="M122.67 64.3751L92.9164 115.91L33.4085 115.91L3.65456 64.3751L33.4085 12.8397L92.9164 12.8397L122.67 64.3751Z" fill="url(#paint0_linear_216_9091)"/>
<g clip-path="url(#clip0_216_9091)">
<path d="M73.134 97.8438H52.8389C52.5845 97.8434 52.3325 97.8933 52.0974 97.9905C51.8623 98.0877 51.6487 98.2303 51.4688 98.4102C51.2889 98.5901 51.1463 98.8037 51.0491 99.0388C50.9519 99.2739 50.902 99.5259 50.9023 99.7803V103.111H75.0705V99.7803C75.0709 99.5259 75.021 99.2739 74.9238 99.0388C74.8266 98.8037 74.684 98.5901 74.5041 98.4102C74.3242 98.2303 74.1106 98.0877 73.8755 97.9905C73.6404 97.8933 73.3884 97.8434 73.134 97.8438Z" fill="#B9DFEB"/>
<path d="M66.5246 92.1602H59.4756V96.1366H66.5246V92.1602Z" fill="#B9DFEB"/>
<path d="M96.4773 46.0703H68.6167L70.2692 49.2204C70.3304 49.3303 70.3646 49.4531 70.3691 49.5788C70.3736 49.7045 70.3482 49.8295 70.295 49.9434L69.3139 52.1124H98.0007V47.5679C97.9875 47.1705 97.822 46.7933 97.5384 46.5146C97.2548 46.2358 96.8749 46.0767 96.4773 46.0703Z" fill="#B9DFEB"/>
<path d="M58.8036 52.6553L60.3012 55.9603H62.1861V48.653C62.1861 48.4271 62.2759 48.2103 62.4357 48.0505C62.5955 47.8907 62.8122 47.801 63.0382 47.801C63.2642 47.801 63.4809 47.8907 63.6407 48.0505C63.8005 48.2103 63.8903 48.4271 63.8903 48.653V55.9603H65.7752L67.247 52.6811C67.247 52.6553 67.247 52.6553 67.2728 52.6294L68.6155 49.6601L66.524 45.6578L66.4982 45.632L63.0382 38.9961L59.5782 45.632L59.5524 45.6837L57.4609 49.6859L58.8036 52.6553Z" fill="#B9DFEB"/>
<path d="M55.7573 49.9708C55.7039 49.8569 55.6784 49.7319 55.6829 49.6062C55.6874 49.4804 55.7217 49.3576 55.7831 49.2478L57.4356 46.0977H29.4976C29.3009 46.0977 29.1062 46.1364 28.9245 46.2117C28.7428 46.2869 28.5777 46.3972 28.4386 46.5363C28.2996 46.6754 28.1893 46.8405 28.114 47.0222C28.0387 47.2039 28 47.3986 28 47.5953V52.1397H56.7385L55.7573 49.9708ZM35.3331 50.2806H32.9318V47.8793H35.3331V50.2806ZM42.1756 50.2806H39.7743V47.8793H42.1756V50.2806ZM48.9923 50.2806H46.5909V47.8793H48.9923V50.2806Z" fill="#B9DFEB"/>
<path d="M66.2667 57.6625H59.734C59.6726 57.6667 59.611 57.6579 59.5533 57.6367H58.7012V62.0004H67.2995V57.6367H66.4474C66.3957 57.6367 66.3441 57.6625 66.2667 57.6625Z" fill="#B9DFEB"/>
<path d="M67.5832 55.9595H68.1512C68.3766 55.9615 68.5922 56.052 68.7515 56.2113C68.9109 56.3707 69.0013 56.5862 69.0033 56.8116V62.8537C69.0013 63.079 68.9109 63.2946 68.7515 63.4539C68.5922 63.6133 68.3766 63.7037 68.1512 63.7057H57.8746C57.6492 63.7037 57.4337 63.6133 57.2743 63.4539C57.1149 63.2946 57.0245 63.079 57.0225 62.8537V56.8116C57.0245 56.5862 57.1149 56.3707 57.2743 56.2113C57.4337 56.052 57.6492 55.9615 57.8746 55.9595H58.4426L57.4873 53.8164H28V88.9842C28 89.3814 28.1578 89.7623 28.4386 90.0432C28.7195 90.3241 29.1004 90.4818 29.4976 90.4818H96.4766C96.8738 90.4818 97.2547 90.3241 97.5355 90.0432C97.8164 89.7623 97.9742 89.3814 97.9742 88.9842V53.8164H68.5385L67.5832 55.9595ZM32.183 56.8116C32.185 56.5862 32.2754 56.3707 32.4348 56.2113C32.5941 56.052 32.8097 55.9615 33.035 55.9595H52.0649C52.2903 55.9615 52.5058 56.052 52.6652 56.2113C52.8246 56.3707 52.915 56.5862 52.917 56.8116V62.8278C52.915 63.0532 52.8246 63.2688 52.6652 63.4281C52.5058 63.5875 52.2903 63.6779 52.0649 63.6799H33.035C32.8097 63.6779 32.5941 63.5875 32.4348 63.4281C32.2754 63.2688 32.185 63.0532 32.183 62.8278V56.8116ZM46.0229 86.9186C46.0208 87.1439 45.9304 87.3595 45.7711 87.5189C45.6117 87.6782 45.3961 87.7686 45.1708 87.7707H33.035C32.8097 87.7686 32.5941 87.6782 32.4348 87.5189C32.2754 87.3595 32.185 87.1439 32.183 86.9186V75.9189C32.185 75.6936 32.2754 75.478 32.4348 75.3187C32.5941 75.1593 32.8097 75.0689 33.035 75.0669H45.1708C45.3961 75.0689 45.6117 75.1593 45.7711 75.3187C45.9304 75.478 46.0208 75.6936 46.0229 75.9189V86.9186ZM92.8875 86.5054H51.3678C51.1418 86.5054 50.925 86.4157 50.7652 86.2559C50.6054 86.0961 50.5157 85.8793 50.5157 85.6534C50.5157 85.4274 50.6054 85.2106 50.7652 85.0508C50.925 84.891 51.1418 84.8013 51.3678 84.8013H92.8617C93.087 84.8033 93.3026 84.8937 93.462 85.0531C93.6213 85.2124 93.7117 85.428 93.7138 85.6534C93.7179 85.7642 93.6996 85.8747 93.6599 85.9783C93.6202 86.0819 93.5599 86.1763 93.4827 86.256C93.4055 86.3356 93.3129 86.3988 93.2106 86.4416C93.1083 86.4845 92.9984 86.5062 92.8875 86.5054ZM92.8875 82.245H51.3678C51.1418 82.245 50.925 82.1552 50.7652 81.9955C50.6054 81.8357 50.5157 81.6189 50.5157 81.3929C50.5157 81.167 50.6054 80.9502 50.7652 80.7904C50.925 80.6306 51.1418 80.5409 51.3678 80.5409H92.8617C93.087 80.5429 93.3026 80.6333 93.462 80.7927C93.6213 80.952 93.7117 81.1676 93.7138 81.3929C93.7158 81.5032 93.696 81.6128 93.6555 81.7155C93.6151 81.8181 93.5547 81.9117 93.4779 81.9909C93.4011 82.0701 93.3094 82.1333 93.2081 82.1769C93.1068 82.2205 92.9978 82.2437 92.8875 82.245ZM92.8875 77.9588H51.3678C51.1418 77.9588 50.925 77.869 50.7652 77.7092C50.6054 77.5494 50.5157 77.3327 50.5157 77.1067C50.5157 76.8807 50.6054 76.664 50.7652 76.5042C50.925 76.3444 51.1418 76.2546 51.3678 76.2546H92.8617C93.087 76.2566 93.3026 76.3471 93.462 76.5064C93.6213 76.6658 93.7117 76.8813 93.7138 77.1067C93.7179 77.2175 93.6996 77.3281 93.6599 77.4317C93.6202 77.5352 93.5599 77.6297 93.4827 77.7093C93.4055 77.7889 93.3129 77.8521 93.2106 77.895C93.1083 77.9379 92.9984 77.9596 92.8875 77.9588ZM93.7912 72.02C93.7892 72.2454 93.6988 72.4609 93.5394 72.6203C93.3801 72.7797 93.1645 72.8701 92.9391 72.8721H33.035C32.8097 72.8701 32.5941 72.7797 32.4348 72.6203C32.2754 72.4609 32.185 72.2454 32.183 72.02V66.1845C32.185 65.9592 32.2754 65.7436 32.4348 65.5843C32.5941 65.4249 32.8097 65.3345 33.035 65.3324H92.9391C93.1645 65.3345 93.3801 65.4249 93.5394 65.5843C93.6988 65.7436 93.7892 65.9592 93.7912 66.1845V72.02ZM73.2121 57.0956H92.9391C93.1651 57.0956 93.3819 57.1854 93.5416 57.3452C93.7014 57.505 93.7912 57.7217 93.7912 57.9477C93.7912 58.1737 93.7014 58.3904 93.5416 58.5502C93.3819 58.71 93.1651 58.7998 92.9391 58.7998H73.2121C72.9867 58.7978 72.7712 58.7074 72.6118 58.548C72.4525 58.3886 72.362 58.1731 72.36 57.9477C72.359 57.8355 72.3803 57.7243 72.4228 57.6204C72.4652 57.5166 72.528 57.4222 72.6073 57.3429C72.6866 57.2636 72.781 57.2008 72.8848 57.1584C72.9886 57.1159 73.0999 57.0946 73.2121 57.0956ZM73.2121 60.8655H92.9391C93.1651 60.8655 93.3819 60.9552 93.5416 61.115C93.7014 61.2748 93.7912 61.4916 93.7912 61.7175C93.7912 61.9435 93.7014 62.1603 93.5416 62.3201C93.3819 62.4799 93.1651 62.5696 92.9391 62.5696H73.2121C72.9861 62.5696 72.7694 62.4799 72.6096 62.3201C72.4498 62.1603 72.36 61.9435 72.36 61.7175C72.36 61.4916 72.4498 61.2748 72.6096 61.115C72.7694 60.9552 72.9861 60.8655 73.2121 60.8655Z" fill="#B9DFEB"/>
<path d="M44.3192 76.7461H33.8618V86.0674H44.3192V76.7461Z" fill="#B9DFEB"/>
<path d="M92.0876 67.0352H33.8618V71.1923H92.0876V67.0352Z" fill="#B9DFEB"/>
<path d="M51.2133 57.6641H33.8618V62.0019H51.2133V57.6641Z" fill="#B9DFEB"/>
</g>
<defs>
<linearGradient id="paint0_linear_216_9091" x1="175.37" y1="64.3751" x2="-172.629" y2="64.498" gradientUnits="userSpaceOnUse">
<stop stop-color="#0B4383"/>
<stop offset="1" stop-color="#A2C3FF" stop-opacity="0"/>
</linearGradient>
<clipPath id="clip0_216_9091">
<rect width="70" height="64.1129" fill="white" transform="translate(28 39)"/>
</clipPath>
</defs>
</svg>