<svg width="131" height="129" viewBox="0 0 131 129" fill="none" xmlns="http://www.w3.org/2000/svg">
<path d="M130.288 64.3751L100.534 115.91L41.0257 115.91L11.2717 64.3751L41.0257 12.8397L100.534 12.8397L130.288 64.3751Z" fill="#0693EB" fill-opacity="0.47"/>
<path d="M119.016 59.5079L89.2617 111.043L29.7537 111.043L-0.000223854 59.5079L29.7537 7.97255L89.2617 7.97255L119.016 59.5079Z" fill="#0693EB" fill-opacity="0.47"/>
<path d="M119.016 69.5001L89.2617 121.035L29.7537 121.035L-0.000223854 69.5001L29.7537 17.9647L89.2617 17.9647L119.016 69.5001Z" fill="#0693EB" fill-opacity="0.47"/>
<path d="M122.67 64.3751L92.9164 115.91L33.4085 115.91L3.65456 64.3751L33.4085 12.8397L92.9164 12.8397L122.67 64.3751Z" fill="url(#paint0_linear_216_9118)"/>
<g clip-path="url(#clip0_216_9118)">
<path opacity="0.3" d="M101.185 46.2794V60.9318C101.185 61.2782 101.117 61.6211 100.985 61.9411C100.852 62.2612 100.658 62.5519 100.413 62.7968C100.168 63.0417 99.8774 63.236 99.5574 63.3685C99.2374 63.5009 98.8944 63.5691 98.5481 63.569H57.7079C57.3616 63.5691 57.0186 63.501 56.6986 63.3686C56.3786 63.2361 56.0878 63.042 55.8429 62.7972C55.5979 62.5524 55.4036 62.2618 55.2709 61.9419C55.1383 61.6219 55.0699 61.279 55.0698 60.9327V46.2794C55.0703 46.0383 55.1664 45.8073 55.337 45.637C55.5077 45.4667 55.7389 45.3711 55.9799 45.3711H100.276C100.395 45.371 100.514 45.3944 100.624 45.44C100.734 45.4856 100.834 45.5524 100.919 45.6368C101.003 45.7212 101.07 45.8213 101.116 45.9316C101.162 46.0418 101.185 46.16 101.185 46.2794ZM96.2931 54.4723C96.2929 53.4061 95.9766 52.3638 95.3841 51.4773C94.7916 50.5908 93.9495 49.8999 92.9644 49.492C91.9792 49.084 90.8953 48.9773 89.8495 49.1854C88.8037 49.3934 87.8431 49.9069 87.0892 50.6609C86.3352 51.4148 85.8218 52.3754 85.6137 53.4212C85.4056 54.467 85.5123 55.5509 85.9203 56.5361C86.3282 57.5212 87.0191 58.3633 87.9056 58.9557C88.7921 59.5482 89.8344 59.8646 90.9006 59.8648C92.3298 59.8623 93.6997 59.2933 94.71 58.2825C95.7203 57.2717 96.2886 55.9015 96.2903 54.4723H96.2931ZM79.9044 50.2088C79.9045 50.1554 79.8941 50.1025 79.8737 50.0531C79.8534 50.0037 79.8235 49.9588 79.7858 49.921C79.748 49.8832 79.7032 49.8532 79.6539 49.8327C79.6045 49.8123 79.5517 49.8017 79.4982 49.8017C78.89 49.8017 78.6038 49.5322 78.2401 49.1916C77.8451 48.8224 77.3549 48.3608 76.4254 48.3608C76.0368 48.354 75.6532 48.4495 75.3132 48.6378C75.0571 48.7927 74.8211 48.9787 74.6107 49.1916C74.247 49.5322 73.9646 49.8017 73.3535 49.8017C72.7425 49.8017 72.4591 49.5322 72.0963 49.1916C71.7013 48.8224 71.2102 48.3608 70.2807 48.3608C69.8936 48.3548 69.5117 48.4503 69.173 48.6378C68.9168 48.7924 68.6808 48.9785 68.4706 49.1916C68.1069 49.5322 67.8245 49.8017 67.2134 49.8017C66.6024 49.8017 66.319 49.5322 65.9553 49.1916C65.5612 48.8224 65.0701 48.3608 64.1406 48.3608C63.7535 48.3545 63.3715 48.45 63.0329 48.6378C62.7769 48.7927 62.5409 48.9787 62.3305 49.1916C61.9668 49.5322 61.6844 49.8017 61.0724 49.8017C60.4604 49.8017 60.1789 49.5322 59.8152 49.1916C59.4211 48.8224 58.93 48.3608 58.0014 48.3608C57.8935 48.3608 57.7899 48.4037 57.7136 48.4801C57.6372 48.5564 57.5944 48.6599 57.5944 48.7679C57.5944 48.8759 57.6372 48.9794 57.7136 49.0557C57.7899 49.1321 57.8935 49.175 58.0014 49.175C58.6079 49.175 58.894 49.4445 59.2586 49.7851C59.6527 50.1543 60.1438 50.6158 61.0724 50.6158C61.4595 50.6219 61.8414 50.5264 62.18 50.3389C62.4364 50.1839 62.6726 49.9979 62.8834 49.7851C63.2462 49.4445 63.5295 49.175 64.1397 49.175C64.7498 49.175 65.0341 49.4445 65.3969 49.7851C65.7919 50.1543 66.283 50.6158 67.2125 50.6158C67.5996 50.6222 67.9816 50.5267 68.3202 50.3389C68.5762 50.1839 68.8121 49.9979 69.0226 49.7851C69.3863 49.4445 69.6687 49.175 70.2798 49.175C70.8908 49.175 71.1742 49.4445 71.5379 49.7851C71.933 50.1543 72.4231 50.6158 73.3526 50.6158C73.7397 50.6219 74.1216 50.5264 74.4603 50.3389C74.7161 50.1837 74.952 49.9977 75.1627 49.7851C75.5255 49.4445 75.8088 49.175 76.4199 49.175C77.0309 49.175 77.3143 49.4445 77.6771 49.7851C78.0721 50.1543 78.5632 50.6158 79.4927 50.6158C79.5464 50.6162 79.5995 50.6059 79.6492 50.5856C79.6989 50.5653 79.744 50.5354 79.782 50.4975C79.82 50.4597 79.8502 50.4147 79.8707 50.3651C79.8912 50.3156 79.9017 50.2624 79.9016 50.2088H79.9044ZM79.9044 53.6656C79.9045 53.6122 79.8941 53.5593 79.8737 53.5099C79.8534 53.4605 79.8235 53.4156 79.7858 53.3778C79.748 53.34 79.7032 53.31 79.6539 53.2895C79.6045 53.2691 79.5517 53.2585 79.4982 53.2585H57.9913C57.8833 53.2585 57.7798 53.3014 57.7034 53.3778C57.6271 53.4541 57.5842 53.5576 57.5842 53.6656C57.5842 53.7736 57.6271 53.8771 57.7034 53.9534C57.7798 54.0298 57.8833 54.0727 57.9913 54.0727H79.4982C79.6056 54.0719 79.7084 54.0287 79.784 53.9524C79.8596 53.8761 79.9019 53.773 79.9016 53.6656H79.9044ZM79.9044 56.1107C79.9045 56.0573 79.8941 56.0043 79.8738 55.9549C79.8534 55.9055 79.8235 55.8605 79.7858 55.8226C79.7481 55.7847 79.7033 55.7547 79.654 55.7341C79.6046 55.7135 79.5517 55.7029 79.4982 55.7028H57.9913C57.9361 55.7001 57.881 55.7087 57.8293 55.728C57.7775 55.7473 57.7303 55.7769 57.6903 55.815C57.6504 55.8531 57.6185 55.8989 57.5968 55.9497C57.5751 56.0004 57.5639 56.0551 57.5639 56.1103C57.5639 56.1655 57.5751 56.2201 57.5968 56.2709C57.6185 56.3216 57.6504 56.3674 57.6903 56.4055C57.7303 56.4436 57.7775 56.4732 57.8293 56.4925C57.881 56.5118 57.9361 56.5204 57.9913 56.5178H79.4982C79.606 56.5168 79.7091 56.4731 79.7847 56.3963C79.8603 56.3195 79.9024 56.2158 79.9016 56.108L79.9044 56.1107ZM70.5908 58.555C70.591 58.5016 70.5806 58.4486 70.5602 58.3993C70.5398 58.3499 70.5099 58.305 70.4722 58.2672C70.4345 58.2294 70.3897 58.1994 70.3403 58.1789C70.291 58.1584 70.2381 58.1479 70.1847 58.1479H57.9913C57.9378 58.1479 57.8849 58.1584 57.8355 58.1789C57.7861 58.1993 57.7412 58.2293 57.7034 58.2671C57.6656 58.3049 57.6356 58.3498 57.6152 58.3992C57.5947 58.4486 57.5842 58.5015 57.5842 58.555C57.5842 58.6084 57.5947 58.6614 57.6152 58.7107C57.6356 58.7601 57.6656 58.805 57.7034 58.8428C57.7412 58.8806 57.7861 58.9106 57.8355 58.931C57.8849 58.9515 57.9378 58.962 57.9913 58.962H70.1819C70.2354 58.962 70.2882 58.9515 70.3376 58.931C70.3869 58.9106 70.4317 58.8806 70.4694 58.8427C70.5072 58.8049 70.5371 58.7601 70.5574 58.7107C70.5778 58.6613 70.5882 58.6084 70.5881 58.555H70.5908Z" fill="url(#paint1_linear_216_9118)"/>
<path d="M102 40.4543V60.9348C102 61.3881 101.911 61.837 101.738 62.2558C101.564 62.6746 101.31 63.0551 100.989 63.3756C100.669 63.696 100.288 63.9502 99.8692 64.1236C99.4503 64.297 99.0014 64.3862 98.5481 64.3861H88.8663C88.3052 64.3861 87.7671 64.609 87.3703 65.0057C86.9736 65.4025 86.7507 65.9406 86.7507 66.5017V84.0793C86.7509 84.8784 86.5937 85.6697 86.2881 86.408C85.9825 87.1463 85.5344 87.8172 84.9694 88.3824C84.4045 88.9475 83.7337 89.3958 82.9955 89.7016C82.2572 90.0075 81.466 90.1649 80.6669 90.1649C80.6135 90.165 80.5612 90.1806 80.5165 90.2097C80.4717 90.2388 80.4363 90.2803 80.4145 90.329C80.3928 90.3778 80.3856 90.4318 80.3938 90.4846C80.4021 90.5374 80.4254 90.5866 80.461 90.6264L80.7379 90.9264C80.8107 91.0061 80.8489 91.1113 80.8442 91.2191C80.8395 91.3269 80.7924 91.4284 80.713 91.5015L75.3132 96.4481C75.2335 96.5208 75.1283 96.559 75.0205 96.5543C74.9128 96.5497 74.8112 96.5025 74.7381 96.4232L69.6669 90.8904C69.4557 90.6602 69.1989 90.4763 68.9129 90.3505C68.6269 90.2247 68.3179 90.1596 68.0054 90.1594H62.1949C61.7819 90.1594 61.3858 90.3234 61.0938 90.6155C60.8017 90.9075 60.6377 91.3036 60.6377 91.7166V94.9814H67.1258C68.5196 94.9814 69.6992 96.065 69.7537 97.4579C69.7537 97.5179 69.7537 97.5788 69.7537 97.6379C69.746 97.8561 69.7823 98.0736 69.8604 98.2775C69.9385 98.4814 70.0568 98.6675 70.2083 98.8248C70.3598 98.982 70.5413 99.1072 70.7422 99.1929C70.943 99.2785 71.159 99.3229 71.3773 99.3234H82.524C82.581 99.3234 82.6374 99.3353 82.6895 99.3584C82.7415 99.3815 82.7882 99.4153 82.8264 99.4576C82.8646 99.4999 82.8935 99.5497 82.9112 99.6039C82.9289 99.658 82.9351 99.7153 82.9293 99.772C82.9171 99.8752 82.867 99.9701 82.7887 100.038C82.7104 100.107 82.6095 100.143 82.5056 100.141H29.3243C29.2204 100.143 29.1196 100.106 29.0414 100.038C28.9631 99.9699 28.9129 99.8751 28.9006 99.772C28.8948 99.7153 28.9009 99.658 28.9186 99.6039C28.9364 99.5497 28.9652 99.4999 29.0034 99.4576C29.0416 99.4153 29.0883 99.3815 29.1404 99.3584C29.1925 99.3353 29.2488 99.3234 29.3058 99.3234H42.0706C42.289 99.3229 42.5051 99.2785 42.706 99.1928C42.9069 99.1071 43.0885 98.9818 43.24 98.8245C43.3915 98.6671 43.5098 98.4809 43.5878 98.2769C43.6658 98.0729 43.702 97.8553 43.6942 97.637C43.6942 97.5788 43.6942 97.5188 43.6942 97.4588C43.7469 96.066 44.9274 94.9814 46.3203 94.9814H52.8112V91.7203C52.8112 91.3073 52.6471 90.9112 52.3551 90.6192C52.0631 90.3271 51.667 90.1631 51.254 90.1631H49.7679C49.5886 90.1631 49.4167 90.2342 49.2898 90.3609C49.1629 90.4876 49.0915 90.6595 49.0913 90.8387V91.556C49.0913 92.073 48.8859 92.5688 48.5203 92.9344C48.1547 93.3 47.6589 93.5054 47.1418 93.5054H35.409C34.892 93.5052 34.3963 93.2997 34.0308 92.9342C33.6652 92.5686 33.4598 92.0729 33.4595 91.556V90.8434C33.4595 90.7546 33.442 90.6666 33.408 90.5846C33.374 90.5025 33.3241 90.428 33.2613 90.3653C33.1984 90.3025 33.1238 90.2528 33.0418 90.2189C32.9597 90.185 32.8717 90.1676 32.7829 90.1677C31.9835 90.1676 31.192 90.01 30.4535 89.7039C29.7151 89.3979 29.0441 88.9494 28.479 88.384C27.9139 87.8186 27.4657 87.1475 27.16 86.4089C26.8542 85.6702 26.697 84.8787 26.6973 84.0793V53.4664C26.6973 51.8524 27.3384 50.3045 28.4797 49.1632C29.621 48.022 31.1689 47.3808 32.7829 47.3808H53.0789C53.3917 47.3808 53.6918 47.2565 53.913 47.0353C54.1342 46.8141 54.2585 46.514 54.2585 46.2011V40.4543C54.2588 39.5391 54.6225 38.6615 55.2697 38.0144C55.9169 37.3674 56.7946 37.0039 57.7098 37.0039H98.55C99.465 37.0042 100.342 37.3677 100.989 38.0148C101.636 38.6618 102 39.5392 102 40.4543ZM101.185 60.9348V46.2824C101.185 46.163 101.162 46.0448 101.116 45.9346C101.07 45.8243 101.003 45.7241 100.919 45.6398C100.834 45.5554 100.734 45.4886 100.624 45.443C100.514 45.3974 100.395 45.374 100.276 45.3741H55.9818C55.7408 45.3741 55.5096 45.4697 55.3389 45.64C55.1683 45.8103 55.0722 46.0413 55.0717 46.2824V60.9357C55.0718 61.282 55.1402 61.6249 55.2728 61.9449C55.4055 62.2648 55.5998 62.5554 55.8448 62.8002C56.0897 63.045 56.3805 63.2391 56.7005 63.3716C57.0205 63.504 57.3635 63.5721 57.7098 63.572H98.55C98.8963 63.5721 99.2393 63.5039 99.5593 63.3715C99.8793 63.239 100.17 63.0447 100.415 62.7998C100.66 62.5549 100.854 62.2642 100.987 61.9441C101.119 61.6241 101.187 61.2812 101.187 60.9348H101.185ZM100.943 41.0385C101.02 40.9619 101.081 40.8709 101.123 40.7706C101.164 40.6703 101.186 40.5628 101.185 40.4543C101.185 39.7548 100.907 39.0841 100.413 38.5895C99.9183 38.095 99.2475 37.8171 98.5481 37.8171H57.7098C57.0103 37.8171 56.3394 38.0949 55.8447 38.5895C55.35 39.084 55.072 39.7548 55.0717 40.4543C55.0717 40.6746 55.1592 40.8859 55.315 41.0417C55.4708 41.1975 55.6821 41.285 55.9025 41.285H100.365C100.473 41.2842 100.58 41.2621 100.68 41.2198C100.779 41.1775 100.87 41.1159 100.945 41.0385H100.943ZM100.825 44.1981C100.997 44.0257 101.114 43.8063 101.162 43.5674C101.209 43.3285 101.185 43.0809 101.091 42.8559C100.998 42.631 100.84 42.4387 100.638 42.3033C100.435 42.1679 100.197 42.0956 99.9539 42.0954H56.304C55.9772 42.0954 55.6637 42.2253 55.4326 42.4564C55.2015 42.6874 55.0717 43.0009 55.0717 43.3277C55.0717 43.6545 55.2015 43.9679 55.4326 44.199C55.6637 44.4301 55.9772 44.56 56.304 44.56H99.9558C100.118 44.5601 100.278 44.5282 100.428 44.4661C100.577 44.404 100.713 44.3129 100.827 44.1981H100.825ZM85.9393 84.0793V81.984C85.9393 81.6275 85.7977 81.2857 85.5457 81.0336C85.2936 80.7816 84.9518 80.64 84.5954 80.64H71.9201C71.8677 80.6402 71.8164 80.6556 71.7726 80.6843C71.7288 80.7131 71.6943 80.754 71.6732 80.802C71.6522 80.85 71.6456 80.9031 71.6542 80.9548C71.6628 81.0065 71.6862 81.0546 71.7216 81.0932L79.2906 89.3489H80.6669C82.0647 89.3489 83.4054 88.7938 84.3941 87.8057C85.3828 86.8175 85.9386 85.4771 85.9393 84.0793ZM85.9393 78.4847V66.5017C85.9393 65.9408 85.7165 65.4028 85.32 65.0061C84.9234 64.6093 84.3856 64.3863 83.8246 64.3861H57.7098C57.2566 64.3862 56.8077 64.2971 56.389 64.1237C55.9702 63.9504 55.5897 63.6963 55.2691 63.3759C54.9485 63.0555 54.6942 62.6751 54.5207 62.2564C54.3471 61.8377 54.2577 61.389 54.2576 60.9357V60.1115C54.2577 60.0108 54.238 59.911 54.1995 59.818C54.1611 59.7249 54.1047 59.6404 54.0335 59.5691C53.9624 59.4979 53.8779 59.4414 53.7849 59.4028C53.6918 59.3642 53.5921 59.3444 53.4915 59.3444H28.7695C28.6042 59.3443 28.4405 59.3767 28.2878 59.4399C28.135 59.5031 27.9962 59.5957 27.8793 59.7126C27.7624 59.8294 27.6696 59.9681 27.6063 60.1208C27.543 60.2735 27.5105 60.4372 27.5105 60.6025V78.6222C27.5105 78.9405 27.6369 79.2457 27.8619 79.4707C28.087 79.6958 28.3922 79.8222 28.7104 79.8222H32.6795C32.7826 79.8222 32.8847 79.8019 32.98 79.7624C33.0752 79.7229 33.1618 79.665 33.2346 79.5921C33.3075 79.5191 33.3653 79.4325 33.4047 79.3372C33.444 79.2419 33.4642 79.1398 33.4641 79.0367V73.7412C33.4641 73.1725 33.69 72.6271 34.0922 72.225C34.4943 71.8228 35.0397 71.5969 35.6084 71.5969H35.8982C35.9412 71.5956 35.9826 71.5802 36.016 71.553C36.0494 71.5258 36.0729 71.4884 36.0828 71.4465C36.1717 71.0735 36.3673 70.7345 36.6457 70.4708C36.9241 70.2072 37.2733 70.0303 37.6505 69.9618C38.0278 69.8932 38.4168 69.9361 38.7702 70.085C39.1235 70.2339 39.4258 70.4825 39.6402 70.8003C39.8209 70.5327 40.0645 70.3134 40.3497 70.1619C40.6349 70.0103 40.9529 69.9311 41.2759 69.9311C41.5988 69.9311 41.9168 70.0103 42.202 70.1619C42.4872 70.3134 42.7308 70.5327 42.9115 70.8003C43.126 70.4827 43.4283 70.2344 43.7815 70.0857C44.1347 69.937 44.5235 69.8943 44.9006 69.9628C45.2777 70.0313 45.6266 70.2081 45.905 70.4715C46.1833 70.735 46.3789 71.0737 46.468 71.4465C46.4783 71.4892 46.5026 71.5272 46.5371 71.5545C46.5716 71.5818 46.6142 71.5967 46.6581 71.5969H47.1418C47.3979 71.5968 47.6514 71.6471 47.888 71.7451C48.1246 71.843 48.3395 71.9866 48.5206 72.1676C48.7016 72.3487 48.8452 72.5636 48.9431 72.8002C49.0411 73.0368 49.0914 73.2904 49.0913 73.5464V78.6933C49.0913 78.8417 49.1206 78.9887 49.1774 79.1259C49.2342 79.263 49.3175 79.3876 49.4225 79.4925C49.5275 79.5974 49.6522 79.6807 49.7894 79.7374C49.9266 79.7941 50.0736 79.8232 50.222 79.8231H58.0541C58.1789 79.8224 58.3008 79.7857 58.4051 79.7172C58.5095 79.6487 58.5917 79.5515 58.642 79.4373C58.6923 79.3231 58.7084 79.1967 58.6884 79.0736C58.6685 78.9504 58.6132 78.8356 58.5294 78.7431L55.7714 75.7331C55.769 75.7312 55.7668 75.729 55.7649 75.7266L55.7474 75.7054L55.7372 75.6916C55.7326 75.6856 55.7283 75.6795 55.7243 75.6731C55.7214 75.6662 55.7177 75.6597 55.7132 75.6537L55.7049 75.638C55.7049 75.6306 55.6985 75.6214 55.6948 75.6131C55.6944 75.6103 55.6944 75.6075 55.6948 75.6048L52.1143 66.282C52.0856 66.2062 52.0803 66.1236 52.0989 66.0447C52.1175 65.9659 52.1592 65.8944 52.2187 65.8394C52.2781 65.7843 52.3527 65.7483 52.4328 65.7359C52.5128 65.7235 52.5948 65.7353 52.6681 65.7697L57.1486 67.9537L61.6457 70.1459L61.6549 70.1505L61.6789 70.1634L61.6927 70.1727L61.7112 70.1856L61.7287 70.1994L61.7416 70.2105C61.7483 70.2165 61.7544 70.223 61.7601 70.2299C61.7601 70.2299 61.7657 70.2299 61.7675 70.2364L70.1894 79.4234C70.3057 79.5499 70.4469 79.6509 70.6042 79.72C70.7615 79.7891 70.9314 79.8248 71.1032 79.825H84.5917C84.7684 79.8254 84.9435 79.7911 85.1069 79.7238C85.2703 79.6565 85.4189 79.5577 85.544 79.4329C85.6692 79.3082 85.7686 79.16 85.8364 78.9968C85.9042 78.8336 85.9392 78.6586 85.9393 78.4819V78.4847ZM79.8611 91.1775L78.9315 90.1622L78.1848 89.348L70.2014 80.6391L69.4546 79.825L61.8986 71.5831C61.778 71.4515 61.6101 71.3732 61.4318 71.3654C61.2535 71.3576 61.0794 71.421 60.9478 71.5415C60.8162 71.6621 60.7379 71.83 60.7302 72.0083C60.7224 72.1866 60.7857 72.3607 60.9063 72.4923L67.6288 79.825L68.3756 80.6391L76.3599 89.348L77.1058 90.1622L78.8688 92.0858L79.8611 91.1775ZM78.2688 92.6368L76.0009 90.1631L75.2541 89.3489L67.2707 80.64L66.5249 79.8259L60.3063 73.0424C60.1854 72.9113 60.0174 72.8335 59.8391 72.8261C59.6609 72.8186 59.487 72.8821 59.3556 73.0027L58.7344 73.5732C58.6691 73.6327 58.6163 73.7046 58.5789 73.7846C58.5415 73.8646 58.5202 73.9512 58.5164 74.0394C58.5125 74.1277 58.5261 74.2158 58.5564 74.2988C58.5867 74.3818 58.633 74.458 58.6928 74.523L63.5545 79.8268L64.3003 80.6409L72.2838 89.3499L73.0305 90.164L76.6553 94.1174L78.2688 92.6368ZM76.0535 94.6675L71.9238 90.164L71.178 89.3499L63.1936 80.6409L62.4478 79.8268L58.0901 75.074C58.0313 75.0057 57.9593 74.95 57.8785 74.91C57.7977 74.8701 57.7097 74.8467 57.6198 74.8414C57.5298 74.8362 57.4397 74.849 57.3547 74.8792C57.2698 74.9094 57.1918 74.9563 57.1254 75.0173C57.059 75.0782 57.0055 75.1518 56.9681 75.2338C56.9306 75.3158 56.9101 75.4045 56.9076 75.4946C56.9051 75.5847 56.9207 75.6744 56.9536 75.7583C56.9864 75.8423 57.0358 75.9187 57.0987 75.9832L60.6229 79.8268L61.3687 80.6409L69.3522 89.3499L70.0989 90.164L75.0612 95.5767L76.0535 94.6675ZM68.9405 97.5641C68.9393 97.0969 68.7531 96.6493 68.4227 96.3191C68.0923 95.9889 67.6446 95.8029 67.1775 95.802H46.2714C45.8036 95.802 45.3549 95.9878 45.0241 96.3186C44.6933 96.6494 44.5075 97.0981 44.5075 97.5659C44.5075 98.0337 44.6933 98.4824 45.0241 98.8132C45.3549 99.144 45.8036 99.3298 46.2714 99.3298H67.1775C67.6457 99.3294 68.0946 99.143 68.4255 98.8117C68.7565 98.4805 68.9423 98.0314 68.9423 97.5631L68.9405 97.5641ZM66.8323 89.3489C66.9533 89.3494 67.0719 89.3145 67.1735 89.2486C67.2751 89.1827 67.3553 89.0886 67.4042 88.9778C67.4532 88.8671 67.4688 88.7444 67.4492 88.6249C67.4296 88.5055 67.3756 88.3943 67.2938 88.305L60.7891 81.2095C60.6247 81.0305 60.425 80.8874 60.2026 80.7894C59.9802 80.6914 59.7399 80.6405 59.4968 80.64H50.042C49.7906 80.6402 49.5495 80.74 49.3713 80.9174C49.1932 81.0949 49.0925 81.3356 49.0913 81.5871V88.3936C49.0913 88.6458 49.1914 88.8877 49.3697 89.0662C49.548 89.2446 49.7898 89.345 50.042 89.3453L66.8323 89.3489ZM60.0303 71.2785C60.1105 71.2051 60.1716 71.1131 60.2081 71.0107C60.2446 70.9083 60.2555 70.7985 60.2398 70.6909C60.2242 70.5833 60.1824 70.4812 60.1182 70.3934C60.0541 70.3057 59.9694 70.2349 59.8716 70.1874L57.048 68.8121L54.757 70.912L55.8831 73.8418C55.9218 73.9434 55.9848 74.034 56.0666 74.1056C56.1484 74.1772 56.2465 74.2277 56.3523 74.2527C56.4581 74.2776 56.5684 74.2763 56.6736 74.2487C56.7788 74.2212 56.8756 74.1683 56.9557 74.0947L60.0303 71.2785ZM59.8226 94.4469V92.5196C59.8231 92.4077 59.7985 92.2971 59.7507 92.1959C59.7029 92.0947 59.6331 92.0055 59.5464 91.9347C59.4597 91.8639 59.3583 91.8134 59.2496 91.7869C59.1409 91.7603 59.0276 91.7584 58.9181 91.7812L54.4173 92.7264C54.1935 92.7734 53.9927 92.8959 53.8485 93.0733C53.7043 93.2508 53.6255 93.4725 53.6253 93.7011V94.4451C53.6255 94.5882 53.6825 94.7254 53.7837 94.8266C53.8849 94.9279 54.0221 94.9848 54.1653 94.9851H59.2827C59.4259 94.9851 59.5632 94.9282 59.6645 94.8269C59.7657 94.7256 59.8226 94.5883 59.8226 94.4451V94.4469ZM54.2576 57.7632V56.3057C54.2577 56.2051 54.238 56.1054 54.1995 56.0124C54.1611 55.9194 54.1046 55.8349 54.0335 55.7637C53.9623 55.6926 53.8778 55.6361 53.7848 55.5977C53.6918 55.5592 53.5921 55.5395 53.4915 55.5396H29.0067C28.6101 55.5396 28.2298 55.6971 27.9494 55.9776C27.6689 56.258 27.5114 56.6384 27.5114 57.0349C27.5114 57.4315 27.6689 57.8119 27.9494 58.0923C28.2298 58.3727 28.6101 58.5303 29.0067 58.5303H53.4915C53.5921 58.5303 53.6918 58.5104 53.7849 58.4719C53.8779 58.4333 53.9624 58.3768 54.0335 58.3056C54.1047 58.2343 54.1611 58.1497 54.1995 58.0567C54.238 57.9636 54.2577 57.8639 54.2576 57.7632ZM54.2576 53.9575V49.3727C54.2569 49.0604 54.1324 48.7611 53.9115 48.5404C53.6906 48.3196 53.3912 48.1954 53.0789 48.1949H32.7829C31.3847 48.1949 30.0438 48.7503 29.0551 49.7389C28.0663 50.7274 27.5107 52.0683 27.5105 53.4664C27.5102 53.6319 27.5426 53.7958 27.6058 53.9487C27.669 54.1016 27.7617 54.2405 27.8786 54.3576C27.9956 54.4746 28.1345 54.5674 28.2873 54.6307C28.4402 54.694 28.6041 54.7265 28.7695 54.7264H53.4915C53.5923 54.7264 53.6922 54.7065 53.7853 54.6678C53.8784 54.6291 53.963 54.5725 54.0342 54.501C54.1054 54.4296 54.1617 54.3448 54.2001 54.2515C54.2384 54.1583 54.258 54.0583 54.2576 53.9575ZM48.279 91.556V73.5565C48.2788 73.2553 48.1589 72.9666 47.9459 72.7537C47.7328 72.5408 47.4439 72.4212 47.1427 72.4212H43.7672C43.7396 72.421 43.7126 72.4287 43.6892 72.4434C43.6659 72.458 43.6472 72.4791 43.6354 72.504C43.6235 72.5289 43.6191 72.5566 43.6225 72.584C43.6259 72.6113 43.637 72.6372 43.6546 72.6584C43.7622 72.7881 43.8969 72.8928 44.0491 72.9652C44.2013 73.0375 44.3675 73.0759 44.5361 73.0775C44.6368 73.0771 44.7343 73.1131 44.8107 73.1789C44.887 73.2447 44.937 73.3359 44.9514 73.4356C44.9584 73.4928 44.9531 73.5508 44.9359 73.6058C44.9188 73.6608 44.8901 73.7115 44.8519 73.7546C44.8137 73.7977 44.7668 73.8322 44.7142 73.8558C44.6617 73.8794 44.6047 73.8916 44.5471 73.8916C44.1299 73.8911 43.7234 73.7587 43.3859 73.5134C43.0484 73.268 42.797 72.9223 42.6678 72.5255C42.6588 72.4955 42.6403 72.4692 42.6153 72.4505C42.5902 72.4317 42.5598 72.4214 42.5284 72.4212H40.4977C40.4703 72.4214 40.4435 72.4293 40.4205 72.4441C40.3974 72.4589 40.379 72.48 40.3674 72.5048C40.3558 72.5296 40.3515 72.5573 40.3549 72.5845C40.3584 72.6116 40.3695 72.6373 40.387 72.6584C40.4946 72.7881 40.6293 72.8928 40.7815 72.9652C40.9338 73.0375 41.0999 73.0759 41.2685 73.0775C41.3693 73.0769 41.4669 73.1129 41.5433 73.1787C41.6196 73.2446 41.6696 73.3358 41.6838 73.4356C41.6908 73.4928 41.6855 73.5508 41.6683 73.6058C41.6512 73.6608 41.6225 73.7115 41.5843 73.7546C41.5461 73.7977 41.4992 73.8322 41.4466 73.8558C41.3941 73.8794 41.3372 73.8916 41.2796 73.8916C40.8622 73.8912 40.4556 73.7588 40.1179 73.5135C39.7802 73.2681 39.5287 72.9223 39.3993 72.5255C39.3906 72.4955 39.3723 72.4692 39.3474 72.4504C39.3224 72.4316 39.2921 72.4213 39.2609 72.4212H37.2301C37.2027 72.4212 37.1757 72.429 37.1525 72.4438C37.1293 72.4585 37.1108 72.4795 37.0991 72.5044C37.0874 72.5293 37.083 72.5569 37.0864 72.5842C37.0898 72.6115 37.101 72.6372 37.1185 72.6584C37.226 72.788 37.3605 72.8926 37.5126 72.965C37.6647 73.0373 37.8307 73.0757 37.999 73.0775C38.0999 73.0771 38.1976 73.1131 38.274 73.1789C38.3505 73.2447 38.4007 73.3358 38.4153 73.4356C38.4223 73.4928 38.417 73.5508 38.3998 73.6058C38.3827 73.6608 38.354 73.7115 38.3158 73.7546C38.2776 73.7977 38.2307 73.8322 38.1781 73.8558C38.1256 73.8794 38.0686 73.8916 38.011 73.8916C37.5936 73.8913 37.187 73.759 36.8493 73.5136C36.5116 73.2683 36.2601 72.9224 36.1308 72.5255C36.1219 72.4956 36.1037 72.4693 36.0788 72.4505C36.0538 72.4318 36.0235 72.4215 35.9923 72.4212H35.4154C35.1143 72.4212 34.8255 72.5408 34.6126 72.7537C34.3997 72.9667 34.2801 73.2554 34.2801 73.5565V91.556C34.2801 91.8571 34.3997 92.1458 34.6126 92.3588C34.8255 92.5717 35.1143 92.6913 35.4154 92.6913H47.1418C47.2911 92.6915 47.4389 92.6624 47.5769 92.6054C47.7148 92.5485 47.8402 92.4649 47.9458 92.3594C48.0514 92.254 48.1352 92.1287 48.1924 91.9909C48.2496 91.853 48.279 91.7052 48.279 91.556ZM45.3686 71.5997C45.4036 71.5995 45.4378 71.59 45.4678 71.5722C45.4979 71.5544 45.5226 71.5289 45.5396 71.4983C45.5565 71.4678 45.565 71.4333 45.5641 71.3984C45.5633 71.3635 45.5532 71.3294 45.5348 71.2997C45.4309 71.131 45.2856 70.9916 45.1126 70.895C44.9397 70.7983 44.7448 70.7476 44.5467 70.7476C44.3485 70.7476 44.1537 70.7983 43.9807 70.895C43.8077 70.9916 43.6624 71.131 43.5586 71.2997C43.5402 71.3294 43.5301 71.3635 43.5292 71.3984C43.5284 71.4333 43.5369 71.4678 43.5538 71.4983C43.5707 71.5289 43.5955 71.5544 43.6255 71.5722C43.6555 71.59 43.6898 71.5995 43.7247 71.5997H45.3686ZM42.0983 71.5997C42.1331 71.5993 42.1673 71.5897 42.1972 71.5718C42.2271 71.554 42.2517 71.5285 42.2685 71.4979C42.2853 71.4674 42.2937 71.433 42.2928 71.3981C42.292 71.3633 42.2818 71.3293 42.2635 71.2997C42.1597 71.131 42.0143 70.9916 41.8414 70.895C41.6684 70.7983 41.4735 70.7476 41.2754 70.7476C41.0773 70.7476 40.8824 70.7983 40.7094 70.895C40.5365 70.9916 40.3911 71.131 40.2873 71.2997C40.2689 71.3294 40.2588 71.3635 40.258 71.3984C40.2571 71.4333 40.2656 71.4678 40.2825 71.4983C40.2994 71.5289 40.3242 71.5544 40.3542 71.5722C40.3843 71.59 40.4185 71.5995 40.4534 71.5997H42.0983ZM38.827 71.5997C38.8619 71.5993 38.896 71.5897 38.9259 71.5718C38.9558 71.554 38.9804 71.5285 38.9972 71.4979C39.014 71.4674 39.0224 71.433 39.0216 71.3981C39.0207 71.3633 39.0106 71.3293 38.9922 71.2997C38.8884 71.131 38.7431 70.9916 38.5701 70.895C38.3971 70.7983 38.2023 70.7476 38.0041 70.7476C37.806 70.7476 37.6111 70.7983 37.4382 70.895C37.2652 70.9916 37.1199 71.131 37.016 71.2997C36.9976 71.3294 36.9875 71.3635 36.9867 71.3984C36.9858 71.4333 36.9943 71.4678 37.0112 71.4983C37.0282 71.5289 37.0529 71.5544 37.083 71.5722C37.113 71.59 37.1472 71.5995 37.1822 71.5997H38.827ZM33.4595 88.676V81.3166C33.4595 81.1372 33.3882 80.9651 33.2613 80.8382C33.1344 80.7113 32.9624 80.64 32.7829 80.64H28.716C28.3977 80.64 28.0925 80.7664 27.8675 80.9915C27.6424 81.2165 27.516 81.5217 27.516 81.84V84.0793C27.516 85.4775 28.0714 86.8184 29.0599 87.8071C30.0485 88.7959 31.3893 89.3515 32.7875 89.3517C32.9667 89.3503 33.1381 89.2778 33.264 89.1503C33.3899 89.0228 33.4602 88.8506 33.4595 88.6714V88.676Z" fill="white"/>
<path opacity="0.3" d="M101.185 43.3251C101.185 43.4869 101.154 43.6472 101.092 43.7967C101.03 43.9463 100.939 44.0822 100.825 44.1967C100.711 44.3112 100.575 44.4021 100.425 44.4641C100.276 44.5262 100.116 44.5582 99.9539 44.5583H56.3021C55.9753 44.5583 55.6618 44.4285 55.4307 44.1974C55.1996 43.9663 55.0698 43.6528 55.0698 43.326C55.0698 42.9992 55.1996 42.6858 55.4307 42.4547C55.6618 42.2236 55.9753 42.0938 56.3021 42.0938H99.9539C100.28 42.0938 100.594 42.2235 100.825 42.4544C101.055 42.6853 101.185 42.9985 101.185 43.3251Z" fill="url(#paint2_linear_216_9118)"/>
<path d="M90.8994 49.082C91.966 49.0817 93.0088 49.3976 93.8959 49.99C94.7829 50.5823 95.4744 51.4244 95.8828 52.4098C96.2911 53.3952 96.3981 54.4795 96.1902 55.5257C95.9823 56.5719 95.4688 57.5329 94.7146 58.2872C93.9604 59.0415 92.9995 59.5552 91.9534 59.7633C90.9072 59.9714 89.8229 59.8646 88.8374 59.4563C87.852 59.0481 87.0098 58.3568 86.4173 57.4699C85.8248 56.5829 85.5086 55.5402 85.5088 54.4735C85.5107 53.0444 86.0793 51.6743 87.0898 50.6637C88.1002 49.653 89.4702 49.0842 90.8994 49.082ZM95.4777 54.4735C95.4777 53.5683 95.2093 52.6833 94.7063 51.9306C94.2034 51.1779 93.4886 50.5912 92.6522 50.2447C91.8159 49.8982 90.8955 49.8075 90.0076 49.984C89.1197 50.1606 88.3041 50.5965 87.6639 51.2365C87.0237 51.8766 86.5877 52.6921 86.411 53.58C86.2343 54.4678 86.3248 55.3882 86.6711 56.2246C87.0174 57.061 87.604 57.776 88.3566 58.2791C89.1092 58.7821 89.9941 59.0508 90.8994 59.0509C92.1132 59.05 93.277 58.5674 94.1353 57.7092C94.9937 56.851 95.4765 55.6873 95.4777 54.4735Z" fill="white"/>
<path d="M93.1779 53.1304C93.2999 53.2306 93.3818 53.3713 93.4086 53.5269C93.4354 53.6825 93.4052 53.8425 93.3237 53.9777L92.253 55.7398C92.1502 55.9133 91.9866 56.0423 91.794 56.1019C91.6014 56.1614 91.3936 56.1472 91.2109 56.062C91.127 56.0209 91.051 55.9653 90.9865 55.8977L90.4798 55.3623C90.4357 55.3148 90.3823 55.2769 90.3229 55.2509C90.2635 55.225 90.1994 55.2116 90.1346 55.2116C90.0698 55.2116 90.0056 55.225 89.9462 55.2509C89.8868 55.2769 89.8334 55.3148 89.7894 55.3623L89.4137 55.7703C89.3011 55.8979 89.144 55.9778 88.9745 55.9936C88.8051 56.0093 88.636 55.9599 88.5017 55.8552C88.4121 55.7818 88.3434 55.6861 88.3026 55.5777C88.2617 55.4693 88.2502 55.352 88.2691 55.2377C88.2825 55.1562 88.3116 55.0782 88.3549 55.0079L89.4257 53.2467C89.5285 53.073 89.6921 52.9438 89.8849 52.8841C90.0777 52.8244 90.2858 52.8385 90.4687 52.9236C90.5523 52.9647 90.628 53.0204 90.6921 53.0879L91.1989 53.6242C91.2435 53.6713 91.2973 53.7087 91.357 53.7341C91.4166 53.7595 91.4809 53.7723 91.5457 53.7718C91.6106 53.7713 91.6746 53.7574 91.7339 53.7311C91.7932 53.7047 91.8464 53.6665 91.8902 53.6187L92.2659 53.2107C92.3794 53.0841 92.5367 53.0054 92.706 52.9905C92.8753 52.9756 93.044 53.0256 93.1779 53.1304Z" fill="white"/>
<path d="M90.2759 69.3857C90.8947 69.3857 91.3964 68.884 91.3964 68.2651C91.3964 67.6462 90.8947 67.1445 90.2759 67.1445C89.657 67.1445 89.1553 67.6462 89.1553 68.2651C89.1553 68.884 89.657 69.3857 90.2759 69.3857Z" fill="white"/>
<path d="M87.1849 92.6075C87.211 92.6163 87.2338 92.6331 87.2499 92.6556C87.266 92.678 87.2747 92.7049 87.2747 92.7326C87.2747 92.7602 87.266 92.7871 87.2499 92.8096C87.2338 92.832 87.211 92.8488 87.1849 92.8576L86.7686 92.9989C86.5972 93.0572 86.4414 93.1541 86.3134 93.2821C86.1854 93.4102 86.0885 93.5659 86.0301 93.7373L85.8889 94.1527C85.8801 94.1789 85.8633 94.2016 85.8408 94.2177C85.8184 94.2338 85.7915 94.2425 85.7638 94.2425C85.7362 94.2425 85.7093 94.2338 85.6868 94.2177C85.6644 94.2016 85.6476 94.1789 85.6388 94.1527L85.4975 93.7373C85.4393 93.5659 85.3424 93.4101 85.2143 93.2821C85.0863 93.154 84.9305 93.0571 84.7591 92.9989L84.3437 92.8576C84.3175 92.8488 84.2948 92.832 84.2787 92.8096C84.2626 92.7871 84.2539 92.7602 84.2539 92.7326C84.2539 92.7049 84.2626 92.678 84.2787 92.6556C84.2948 92.6331 84.3175 92.6163 84.3437 92.6075L84.7591 92.4663C84.9306 92.4081 85.0864 92.3113 85.2145 92.1832C85.3425 92.0552 85.4394 91.8993 85.4975 91.7278L85.6388 91.3125C85.6476 91.2863 85.6644 91.2635 85.6868 91.2474C85.7093 91.2313 85.7362 91.2227 85.7638 91.2227C85.7915 91.2227 85.8184 91.2313 85.8408 91.2474C85.8633 91.2635 85.8801 91.2863 85.8889 91.3125L86.0301 91.7278C86.0883 91.8993 86.1852 92.0551 86.3133 92.1831C86.4413 92.3112 86.5971 92.4081 86.7686 92.4663L87.1849 92.6075Z" fill="white"/>
<path opacity="0.3" d="M85.9394 66.4999V78.4801C85.9394 78.8366 85.7978 79.1784 85.5458 79.4305C85.2938 79.6825 84.9519 79.8241 84.5955 79.8241H71.1042C70.9324 79.824 70.7625 79.7882 70.6052 79.7191C70.4479 79.65 70.3067 79.549 70.1904 79.4226L61.7685 70.2318C61.7685 70.2318 61.7685 70.2318 61.7611 70.2253C61.7555 70.2184 61.7493 70.212 61.7427 70.2059L61.7298 70.1949L61.7122 70.181L61.6938 70.1681L61.6799 70.1589L61.6559 70.1459L61.6467 70.1413L57.1496 67.9528L52.6691 65.7689C52.5958 65.7344 52.5139 65.7227 52.4338 65.7351C52.3537 65.7475 52.2792 65.7835 52.2197 65.8385C52.1602 65.8935 52.1185 65.965 52.0999 66.0439C52.0813 66.1227 52.0867 66.2054 52.1153 66.2812L55.6958 75.6039C55.6955 75.6067 55.6955 75.6095 55.6958 75.6122C55.6958 75.6205 55.7023 75.6298 55.706 75.6372L55.7143 75.6528C55.7187 75.6589 55.7224 75.6654 55.7253 75.6722C55.7293 75.6786 55.7337 75.6848 55.7383 75.6907L55.7484 75.7045L55.766 75.7258C55.7679 75.7281 55.77 75.7303 55.7724 75.7322L58.5305 78.7423C58.6143 78.8348 58.6695 78.9495 58.6895 79.0727C58.7094 79.1959 58.6933 79.3222 58.643 79.4364C58.5928 79.5506 58.5105 79.6479 58.4062 79.7163C58.3018 79.7848 58.1799 79.8216 58.0551 79.8222H50.2221C50.0737 79.8224 49.9267 79.7932 49.7895 79.7365C49.6523 79.6798 49.5277 79.5966 49.4226 79.4917C49.3176 79.3867 49.2343 79.2621 49.1775 79.125C49.1207 78.9879 49.0914 78.8409 49.0914 78.6924V73.5474C49.0915 73.2913 49.0412 73.0378 48.9433 72.8012C48.8453 72.5646 48.7017 72.3497 48.5207 72.1686C48.3396 71.9876 48.1247 71.844 47.8881 71.746C47.6515 71.6481 47.398 71.5978 47.1419 71.5979H46.6583C46.6143 71.5977 46.5717 71.5827 46.5372 71.5555C46.5028 71.5282 46.4784 71.4902 46.4681 71.4474C46.379 71.0747 46.1834 70.7359 45.9051 70.4725C45.6268 70.209 45.2778 70.0323 44.9007 69.9638C44.5237 69.8953 44.1348 69.938 43.7816 70.0867C43.4284 70.2354 43.1261 70.4837 42.9116 70.8013C42.7309 70.5336 42.4873 70.3144 42.2021 70.1629C41.9169 70.0113 41.5989 69.932 41.276 69.932C40.953 69.932 40.635 70.0113 40.3498 70.1629C40.0647 70.3144 39.821 70.5336 39.6403 70.8013C39.4259 70.4834 39.1236 70.2349 38.7703 70.0859C38.4169 69.937 38.0279 69.8942 37.6506 69.9627C37.2734 70.0313 36.9242 70.2082 36.6458 70.4718C36.3674 70.7355 36.1718 71.0745 36.0829 71.4474C36.073 71.4893 36.0495 71.5268 36.0161 71.554C35.9828 71.5812 35.9413 71.5966 35.8983 71.5979H35.6085C35.3267 71.5973 35.0476 71.6522 34.7871 71.7595C34.5266 71.8668 34.2898 72.0244 34.0903 72.2233C33.8907 72.4222 33.7323 72.6585 33.6241 72.9186C33.5159 73.1787 33.46 73.4576 33.4596 73.7394V79.0358C33.4597 79.1389 33.4395 79.241 33.4002 79.3363C33.3608 79.4316 33.303 79.5182 33.2301 79.5912C33.1573 79.6641 33.0707 79.722 32.9755 79.7615C32.8802 79.801 32.7781 79.8213 32.675 79.8213H28.7161C28.3978 79.8213 28.0926 79.6949 27.8676 79.4699C27.6425 79.2448 27.5161 78.9396 27.5161 78.6214V60.6007C27.5154 60.2674 27.647 59.9474 27.882 59.7109C28.117 59.4745 28.4363 59.3411 28.7696 59.3398H53.4916C53.5923 59.3398 53.692 59.3597 53.785 59.3982C53.878 59.4368 53.9625 59.4933 54.0336 59.5646C54.1048 59.6358 54.1612 59.7204 54.1996 59.8134C54.2381 59.9065 54.2578 60.0062 54.2577 60.1069V60.9312C54.2578 61.3844 54.3472 61.8332 54.5208 62.2518C54.6943 62.6705 54.9486 63.0509 55.2692 63.3713C55.5898 63.6917 55.9703 63.9458 56.3891 64.1192C56.8079 64.2925 57.2567 64.3816 57.7099 64.3815H83.822C84.1002 64.3813 84.3757 64.4359 84.6328 64.5423C84.8899 64.6487 85.1234 64.8047 85.3201 65.0015C85.5168 65.1983 85.6727 65.4319 85.779 65.689C85.8853 65.9461 85.9398 66.2217 85.9394 66.4999ZM82.5897 70.4542C82.8279 70.0938 82.9378 69.6636 82.9017 69.2331C82.8763 68.939 82.7842 68.6546 82.6322 68.4015C82.4802 68.1485 82.2724 67.9335 82.0247 67.7729C81.7771 67.6124 81.496 67.5105 81.2029 67.4751C80.9099 67.4397 80.6126 67.4717 80.3338 67.5687C80.055 67.6656 79.802 67.8249 79.5942 68.0345C79.3863 68.2441 79.2291 68.4984 79.1344 68.778C79.0398 69.0576 79.0102 69.3551 79.048 69.6478C79.0858 69.9406 79.19 70.2208 79.3526 70.4672C79.4433 70.6026 79.4918 70.762 79.4918 70.925C79.4918 71.088 79.4433 71.2474 79.3526 71.3828C79.1398 71.7015 79.0263 72.076 79.0263 72.4591C79.0263 72.8422 79.1398 73.2167 79.3526 73.5354C79.4433 73.6708 79.4918 73.8302 79.4918 73.9932C79.4918 74.1562 79.4433 74.3156 79.3526 74.451C79.1588 74.7425 79.0476 75.081 79.0307 75.4305C79.0138 75.7801 79.0919 76.1277 79.2566 76.4365C79.4214 76.7453 79.6666 77.0037 79.9664 77.1843C80.2661 77.3649 80.6092 77.4611 80.9591 77.4625C81.3091 77.4639 81.6529 77.3705 81.9541 77.1922C82.2553 77.014 82.5026 76.7575 82.6698 76.4501C82.837 76.1426 82.9178 75.7957 82.9037 75.446C82.8896 75.0963 82.7811 74.757 82.5897 74.464C82.4968 74.3273 82.4465 74.1662 82.445 74.0009C82.4435 73.8357 82.491 73.6737 82.5814 73.5354C82.7941 73.2167 82.9076 72.8422 82.9076 72.4591C82.9076 72.076 82.7941 71.7015 82.5814 71.3828C82.4906 71.2448 82.4426 71.0829 82.4436 70.9177C82.4446 70.7525 82.4945 70.5912 82.5869 70.4542H82.5897ZM50.8932 64.1037C50.8925 63.4898 50.6484 62.9014 50.2144 62.4672C49.7804 62.0331 49.192 61.7887 48.5782 61.7878H33.1938C32.5877 61.7999 32.0105 62.0491 31.5861 62.482C31.1618 62.915 30.9241 63.497 30.9241 64.1032C30.9241 64.7094 31.1618 65.2915 31.5861 65.7244C32.0105 66.1573 32.5877 66.4066 33.1938 66.4187H48.5754C49.1892 66.418 49.7776 66.1738 50.2116 65.7398C50.6456 65.3058 50.8897 64.7174 50.8904 64.1037H50.8932Z" fill="url(#paint3_linear_216_9118)"/>
<path d="M82.8954 69.2329C82.9315 69.6634 82.8216 70.0936 82.5834 70.4541C82.4905 70.5907 82.4402 70.7518 82.4387 70.9171C82.4372 71.0823 82.4847 71.2443 82.5751 71.3826C82.7878 71.7013 82.9013 72.0758 82.9013 72.4589C82.9013 72.842 82.7878 73.2165 82.5751 73.5352C82.4847 73.6735 82.4372 73.8355 82.4387 74.0007C82.4402 74.166 82.4905 74.3271 82.5834 74.4638C82.8214 74.8243 82.9313 75.2544 82.8954 75.685C82.87 75.979 82.7778 76.2635 82.6259 76.5165C82.4739 76.7695 82.2661 76.9845 82.0184 77.1451C81.7707 77.3056 81.4897 77.4075 81.1966 77.4429C80.9036 77.4783 80.6063 77.4463 80.3275 77.3494C80.0487 77.2524 79.7957 77.0931 79.5879 76.8835C79.38 76.6739 79.2227 76.4196 79.1281 76.14C79.0334 75.8605 79.0039 75.5629 79.0417 75.2702C79.0795 74.9775 79.1837 74.6972 79.3463 74.4508C79.437 74.3154 79.4855 74.1561 79.4855 73.993C79.4855 73.83 79.437 73.6706 79.3463 73.5352C79.1335 73.2165 79.02 72.842 79.02 72.4589C79.02 72.0758 79.1335 71.7013 79.3463 71.3826C79.437 71.2472 79.4855 71.0878 79.4855 70.9248C79.4855 70.7618 79.437 70.6024 79.3463 70.467C79.1837 70.2206 79.0795 69.9404 79.0417 69.6476C79.0039 69.3549 79.0334 69.0574 79.1281 68.7778C79.2227 68.4982 79.38 68.2439 79.5879 68.0343C79.7957 67.8248 80.0487 67.6654 80.3275 67.5685C80.6063 67.4715 80.9036 67.4395 81.1966 67.4749C81.4897 67.5103 81.7707 67.6122 82.0184 67.7727C82.2661 67.9333 82.4739 68.1483 82.6259 68.4013C82.7778 68.6544 82.87 68.9388 82.8954 69.2329ZM82.0877 69.3907C82.0877 69.1678 82.0216 68.9499 81.8978 68.7646C81.7739 68.5792 81.5979 68.4348 81.392 68.3495C81.186 68.2642 80.9594 68.2418 80.7408 68.2853C80.5222 68.3288 80.3214 68.4361 80.1637 68.5938C80.0061 68.7514 79.8988 68.9522 79.8553 69.1708C79.8118 69.3895 79.8341 69.6161 79.9194 69.822C80.0047 70.0279 80.1492 70.204 80.3345 70.3278C80.5199 70.4516 80.7378 70.5177 80.9607 70.5177C81.2595 70.5175 81.546 70.3987 81.7573 70.1874C81.9686 69.9761 82.0875 69.6895 82.0877 69.3907ZM82.0877 72.4589C82.0877 72.236 82.0216 72.0181 81.8978 71.8328C81.7739 71.6474 81.5979 71.503 81.392 71.4177C81.186 71.3324 80.9594 71.31 80.7408 71.3535C80.5222 71.397 80.3214 71.5044 80.1637 71.662C80.0061 71.8196 79.8988 72.0204 79.8553 72.239C79.8118 72.4577 79.8341 72.6843 79.9194 72.8902C80.0047 73.0961 80.1492 73.2722 80.3345 73.396C80.5199 73.5198 80.7378 73.586 80.9607 73.586C81.2594 73.5855 81.5458 73.4666 81.7571 73.2553C81.9683 73.0441 82.0872 72.7577 82.0877 72.4589ZM82.0877 75.5271C82.0877 75.3042 82.0216 75.0863 81.8978 74.901C81.7739 74.7156 81.5979 74.5712 81.392 74.4859C81.186 74.4006 80.9594 74.3782 80.7408 74.4217C80.5222 74.4652 80.3214 74.5726 80.1637 74.7302C80.0061 74.8878 79.8988 75.0886 79.8553 75.3072C79.8118 75.5259 79.8341 75.7525 79.9194 75.9584C80.0047 76.1644 80.1492 76.3404 80.3345 76.4642C80.5199 76.5881 80.7378 76.6542 80.9607 76.6542C81.2594 76.6537 81.5458 76.5348 81.7571 76.3235C81.9683 76.1123 82.0872 75.8259 82.0877 75.5271Z" fill="white"/>
<path d="M79.496 49.8006C79.604 49.8006 79.7075 49.8435 79.7839 49.9198C79.8602 49.9962 79.9031 50.0997 79.9031 50.2077C79.9031 50.3156 79.8602 50.4192 79.7839 50.4955C79.7075 50.5718 79.604 50.6147 79.496 50.6147C78.5665 50.6147 78.0754 50.1532 77.6804 49.784C77.3176 49.4434 77.0343 49.1738 76.4232 49.1738C75.8121 49.1738 75.5288 49.4434 75.166 49.784C74.9553 49.9966 74.7194 50.1826 74.4636 50.3378C74.1249 50.5253 73.743 50.6208 73.3559 50.6147C72.4264 50.6147 71.9363 50.1532 71.5412 49.784C71.1775 49.4434 70.8951 49.1738 70.2831 49.1738C69.6711 49.1738 69.3896 49.4434 69.0259 49.784C68.8154 49.9968 68.5795 50.1828 68.3235 50.3378C67.9849 50.5256 67.6029 50.621 67.2158 50.6147C66.2863 50.6147 65.7952 50.1532 65.4002 49.784C65.0374 49.4434 64.754 49.1738 64.143 49.1738C63.5319 49.1738 63.2495 49.4434 62.8867 49.784C62.6759 49.9968 62.4397 50.1828 62.1834 50.3378C61.8447 50.5253 61.4628 50.6208 61.0757 50.6147C60.1471 50.6147 59.6561 50.1532 59.2619 49.784C58.8927 49.4434 58.6112 49.1738 58.0047 49.1738C57.8968 49.1738 57.7932 49.131 57.7169 49.0546C57.6405 48.9783 57.5977 48.8747 57.5977 48.7668C57.5977 48.6588 57.6405 48.5553 57.7169 48.4789C57.7932 48.4026 57.8968 48.3597 58.0047 48.3597C58.9333 48.3597 59.4244 48.8212 59.8185 49.1905C60.1822 49.5311 60.4693 49.8006 61.0757 49.8006C61.6821 49.8006 61.9701 49.5311 62.3338 49.1905C62.5442 48.9776 62.7802 48.7916 63.0363 48.6366C63.3748 48.4489 63.7568 48.3534 64.1439 48.3597C65.0734 48.3597 65.5645 48.8212 65.9586 49.1905C66.3223 49.5311 66.6048 49.8006 67.2167 49.8006C67.8287 49.8006 68.1102 49.5311 68.4739 49.1905C68.6841 48.9774 68.9201 48.7913 69.1764 48.6366C69.515 48.4491 69.8969 48.3537 70.284 48.3597C71.2135 48.3597 71.7046 48.8212 72.0996 49.1905C72.4624 49.5311 72.7458 49.8006 73.3568 49.8006C73.9679 49.8006 74.2503 49.5311 74.614 49.1905C74.8244 48.9776 75.0604 48.7916 75.3165 48.6366C75.6565 48.4484 76.0401 48.3528 76.4287 48.3597C77.3582 48.3597 77.8484 48.8212 78.2434 49.1905C78.6016 49.5311 78.8877 49.8006 79.496 49.8006Z" fill="white"/>
<path d="M79.4951 53.2578C79.6031 53.2578 79.7066 53.3007 79.7829 53.377C79.8593 53.4534 79.9022 53.5569 79.9022 53.6649C79.9022 53.7728 79.8593 53.8764 79.7829 53.9527C79.7066 54.0291 79.6031 54.0719 79.4951 54.0719H57.9881C57.8802 54.0719 57.7766 54.0291 57.7003 53.9527C57.6239 53.8764 57.5811 53.7728 57.5811 53.6649C57.5811 53.5569 57.6239 53.4534 57.7003 53.377C57.7766 53.3007 57.8802 53.2578 57.9881 53.2578H79.4951Z" fill="white"/>
<path d="M79.4959 55.7036C79.6006 55.7086 79.6994 55.7537 79.7718 55.8296C79.8441 55.9054 79.8845 56.0063 79.8845 56.1111C79.8845 56.216 79.8441 56.3168 79.7718 56.3927C79.6994 56.4685 79.6006 56.5137 79.4959 56.5186H57.9889C57.9338 56.5213 57.8787 56.5127 57.8269 56.4934C57.7752 56.4741 57.7279 56.4445 57.688 56.4064C57.648 56.3683 57.6162 56.3225 57.5945 56.2717C57.5727 56.221 57.5615 56.1663 57.5615 56.1111C57.5615 56.0559 57.5727 56.0013 57.5945 55.9505C57.6162 55.8998 57.648 55.8539 57.688 55.8158C57.7279 55.7777 57.7752 55.7481 57.8269 55.7289C57.8787 55.7096 57.9338 55.701 57.9889 55.7036H79.4959Z" fill="white"/>
<path d="M70.1827 58.1484C70.2907 58.1484 70.3942 58.1913 70.4705 58.2677C70.5469 58.344 70.5898 58.4475 70.5898 58.5555C70.5898 58.6635 70.5469 58.767 70.4705 58.8433C70.3942 58.9197 70.2907 58.9626 70.1827 58.9626H57.992C57.8841 58.9626 57.7805 58.9197 57.7042 58.8433C57.6278 58.767 57.585 58.6635 57.585 58.5555C57.585 58.4475 57.6278 58.344 57.7042 58.2677C57.7805 58.1913 57.8841 58.1484 57.992 58.1484H70.1827Z" fill="white"/>
<path opacity="0.3" d="M67.1754 95.8008C67.6432 95.8008 68.0919 95.9866 68.4227 96.3174C68.7535 96.6482 68.9393 97.0969 68.9393 97.5647C68.9393 98.0325 68.7535 98.4812 68.4227 98.812C68.0919 99.1428 67.6432 99.3287 67.1754 99.3287H46.2693C45.8015 99.3287 45.3528 99.1428 45.022 98.812C44.6912 98.4812 44.5054 98.0325 44.5054 97.5647C44.5054 97.0969 44.6912 96.6482 45.022 96.3174C45.3528 95.9866 45.8015 95.8008 46.2693 95.8008H67.1754Z" fill="url(#paint4_linear_216_9118)"/>
<path d="M63.9687 38.9297C64.1372 38.9297 64.3019 38.9797 64.442 39.0733C64.5821 39.1669 64.6913 39.2999 64.7558 39.4556C64.8203 39.6113 64.8371 39.7826 64.8043 39.9479C64.7714 40.1131 64.6903 40.2649 64.5711 40.3841C64.452 40.5032 64.3001 40.5844 64.1349 40.6173C63.9696 40.6501 63.7983 40.6333 63.6426 40.5688C63.487 40.5043 63.3539 40.3951 63.2603 40.255C63.1667 40.1149 63.1167 39.9502 63.1167 39.7817C63.1167 39.6698 63.1387 39.559 63.1816 39.4556C63.2244 39.3523 63.2871 39.2583 63.3662 39.1792C63.4453 39.1001 63.5393 39.0374 63.6426 38.9945C63.746 38.9517 63.8568 38.9297 63.9687 38.9297Z" fill="white"/>
<path d="M61.1099 38.9297C61.2785 38.9293 61.4434 38.979 61.5837 39.0724C61.7241 39.1658 61.8336 39.2987 61.8983 39.4543C61.9631 39.61 61.9802 39.7814 61.9476 39.9467C61.9149 40.1121 61.8339 40.2641 61.7148 40.3834C61.5957 40.5028 61.4439 40.5841 61.2786 40.6171C61.1133 40.6501 60.9419 40.6334 60.7861 40.569C60.6303 40.5045 60.4972 40.3953 60.4035 40.2552C60.3098 40.115 60.2598 39.9502 60.2598 39.7817C60.2598 39.556 60.3493 39.3396 60.5087 39.1799C60.668 39.0202 60.8843 38.9302 61.1099 38.9297Z" fill="white"/>
<path d="M58.2524 38.9297C58.421 38.9295 58.5858 38.9793 58.726 39.0728C58.8662 39.1663 58.9756 39.2993 59.0402 39.455C59.1048 39.6106 59.1218 39.782 59.0891 39.9473C59.0563 40.1126 58.9752 40.2645 58.8561 40.3838C58.737 40.503 58.5852 40.5842 58.4199 40.6172C58.2546 40.6501 58.0832 40.6333 57.9275 40.5689C57.7718 40.5044 57.6387 40.3952 57.545 40.2551C57.4514 40.115 57.4014 39.9502 57.4014 39.7817C57.4014 39.5559 57.491 39.3393 57.6506 39.1796C57.8102 39.0198 58.0266 38.9299 58.2524 38.9297Z" fill="white"/>
<path opacity="0.3" d="M54.2559 49.3731V53.9551C54.256 54.0558 54.2363 54.1555 54.1979 54.2486C54.1594 54.3416 54.103 54.4262 54.0318 54.4975C53.9607 54.5687 53.8762 54.6252 53.7832 54.6638C53.6902 54.7023 53.5905 54.7222 53.4898 54.7222H28.7678C28.4345 54.7224 28.1146 54.5904 27.8786 54.355C27.6425 54.1196 27.5095 53.8002 27.5088 53.4668C27.509 52.0688 28.0645 50.7281 29.053 49.7396C30.0416 48.751 31.3823 48.1956 32.7803 48.1953H53.0772C53.3895 48.1958 53.6889 48.32 53.9098 48.5408C54.1307 48.7615 54.2552 49.0608 54.2559 49.3731ZM39.7982 51.5091C39.7984 51.2607 39.7249 51.0179 39.5871 50.8113C39.4492 50.6047 39.2531 50.4436 39.0237 50.3485C38.7943 50.2534 38.5418 50.2285 38.2982 50.2769C38.0546 50.3253 37.8308 50.4448 37.6552 50.6205C37.4796 50.7961 37.36 51.0198 37.3116 51.2634C37.2632 51.507 37.2882 51.7595 37.3833 51.989C37.4784 52.2184 37.6394 52.4144 37.846 52.5523C38.0526 52.6902 38.2954 52.7637 38.5438 52.7635C38.8765 52.7635 39.1956 52.6313 39.4308 52.3961C39.6661 52.1608 39.7982 51.8417 39.7982 51.5091ZM36.2251 51.5091C36.2253 51.2607 36.1518 51.0179 36.014 50.8114C35.8762 50.6048 35.6802 50.4438 35.4508 50.3486C35.2214 50.2535 34.969 50.2285 34.7254 50.2768C34.4819 50.3251 34.2581 50.4446 34.0824 50.6201C33.9068 50.7957 33.7871 51.0193 33.7386 51.2629C33.6901 51.5064 33.7149 51.7589 33.8099 51.9883C33.9049 52.2178 34.0658 52.4139 34.2722 52.5518C34.4787 52.6898 34.7215 52.7635 34.9698 52.7635C35.3026 52.7635 35.6217 52.6313 35.8571 52.3961C36.0925 52.1609 36.2249 51.8418 36.2251 51.5091ZM32.6529 51.5091C32.6531 51.2608 32.5797 51.018 32.4419 50.8115C32.3041 50.6049 32.1082 50.4439 31.8788 50.3487C31.6495 50.2535 31.3971 50.2285 31.1536 50.2767C30.91 50.325 30.6863 50.4444 30.5106 50.6198C30.3349 50.7952 30.2152 51.0188 30.1665 51.2623C30.1179 51.5058 30.1426 51.7582 30.2374 51.9877C30.3323 52.2171 30.493 52.4133 30.6994 52.5514C30.9057 52.6895 31.1484 52.7633 31.3967 52.7635C31.7295 52.7635 32.0488 52.6314 32.2843 52.3962C32.5199 52.161 32.6524 51.8419 32.6529 51.5091Z" fill="url(#paint5_linear_216_9118)"/>
<path d="M51.1117 41.9154C51.1508 41.926 51.1853 41.9492 51.2099 41.9814C51.2346 42.0136 51.2479 42.053 51.2479 42.0935C51.2479 42.134 51.2346 42.1734 51.2099 42.2056C51.1853 42.2378 51.1508 42.261 51.1117 42.2716L50.5191 42.4729C50.2755 42.5557 50.0541 42.6935 49.8722 42.8754C49.6902 43.0574 49.5525 43.2787 49.4696 43.5224L49.2675 44.115C49.2565 44.1537 49.2333 44.1878 49.2012 44.2121C49.1691 44.2364 49.13 44.2495 49.0898 44.2495C49.0495 44.2495 49.0104 44.2364 48.9783 44.2121C48.9463 44.1878 48.923 44.1537 48.9121 44.115L48.7099 43.5224C48.6271 43.2787 48.4893 43.0574 48.3074 42.8754C48.1254 42.6935 47.9041 42.5557 47.6604 42.4729L47.0678 42.2716C47.0287 42.261 46.9942 42.2378 46.9696 42.2056C46.945 42.1734 46.9316 42.134 46.9316 42.0935C46.9316 42.053 46.945 42.0136 46.9696 41.9814C46.9942 41.9492 47.0287 41.926 47.0678 41.9154L47.6604 41.7141C47.9042 41.6312 48.1256 41.4934 48.3076 41.3112C48.4896 41.1291 48.6273 40.9075 48.7099 40.6637L48.9121 40.072C48.923 40.0333 48.9463 39.9992 48.9783 39.9749C49.0104 39.9506 49.0495 39.9375 49.0898 39.9375C49.13 39.9375 49.1691 39.9506 49.2012 39.9749C49.2333 39.9992 49.2565 40.0333 49.2675 40.072L49.4696 40.6637C49.5523 40.9075 49.6899 41.1291 49.8719 41.3112C50.0539 41.4934 50.2753 41.6312 50.5191 41.7141L51.1117 41.9154Z" fill="white"/>
<path d="M48.5727 61.7891C49.1788 61.8012 49.756 62.0504 50.1804 62.4833C50.6047 62.9163 50.8424 63.4983 50.8424 64.1045C50.8424 64.7107 50.6047 65.2928 50.1804 65.7257C49.756 66.1586 49.1788 66.4079 48.5727 66.42H33.1911C32.585 66.4079 32.0078 66.1586 31.5834 65.7257C31.1591 65.2928 30.9214 64.7107 30.9214 64.1045C30.9214 63.4983 31.1591 62.9163 31.5834 62.4833C32.0078 62.0504 32.585 61.8012 33.1911 61.7891H48.5727ZM50.0736 64.105C50.0731 63.7071 49.9148 63.3256 49.6335 63.0442C49.3521 62.7629 48.9706 62.6046 48.5727 62.6041H33.1911C32.793 62.6041 32.4113 62.7622 32.1298 63.0437C31.8483 63.3252 31.6902 63.7069 31.6902 64.105C31.6902 64.503 31.8483 64.8848 32.1298 65.1663C32.4113 65.4477 32.793 65.6059 33.1911 65.6059H48.5727C48.9707 65.6056 49.3523 65.4474 49.6337 65.166C49.9151 64.8846 50.0733 64.503 50.0736 64.105Z" fill="white"/>
<path d="M46.6166 77.4609C46.7213 77.4659 46.8201 77.511 46.8924 77.5869C46.9648 77.6628 47.0052 77.7636 47.0052 77.8685C47.0052 77.9733 46.9648 78.0741 46.8924 78.15C46.8201 78.2259 46.7213 78.271 46.6166 78.276H35.7431C35.6384 78.271 35.5396 78.2259 35.4672 78.15C35.3949 78.0741 35.3545 77.9733 35.3545 77.8685C35.3545 77.7636 35.3949 77.6628 35.4672 77.5869C35.5396 77.511 35.6384 77.4659 35.7431 77.4609H46.6166Z" fill="white"/>
<path d="M46.617 80.1953C46.7249 80.1953 46.8285 80.2382 46.9048 80.3145C46.9812 80.3909 47.024 80.4944 47.024 80.6024C47.024 80.7103 46.9812 80.8139 46.9048 80.8902C46.8285 80.9666 46.7249 81.0094 46.617 81.0094H35.7435C35.6355 81.0094 35.532 80.9666 35.4557 80.8902C35.3793 80.8139 35.3364 80.7103 35.3364 80.6024C35.3364 80.4944 35.3793 80.3909 35.4557 80.3145C35.532 80.2382 35.6355 80.1953 35.7435 80.1953H46.617Z" fill="white"/>
<path d="M46.617 82.9219C46.7249 82.9219 46.8285 82.9648 46.9048 83.0411C46.9812 83.1174 47.024 83.221 47.024 83.3289C47.024 83.4369 46.9812 83.5404 46.9048 83.6168C46.8285 83.6931 46.7249 83.736 46.617 83.736H35.7435C35.6355 83.736 35.532 83.6931 35.4557 83.6168C35.3793 83.5404 35.3364 83.4369 35.3364 83.3289C35.3364 83.221 35.3793 83.1174 35.4557 83.0411C35.532 82.9648 35.6355 82.9219 35.7435 82.9219H46.617Z" fill="white"/>
<path d="M42.9463 85.6523C43.051 85.6573 43.1498 85.7024 43.2221 85.7783C43.2945 85.8542 43.3348 85.955 43.3348 86.0599C43.3348 86.1647 43.2945 86.2655 43.2221 86.3414C43.1498 86.4173 43.051 86.4624 42.9463 86.4674H35.7465C35.6418 86.4624 35.543 86.4173 35.4706 86.3414C35.3983 86.2655 35.3579 86.1647 35.3579 86.0599C35.3579 85.955 35.3983 85.8542 35.4706 85.7783C35.543 85.7024 35.6418 85.6573 35.7465 85.6523H42.9463Z" fill="white"/>
<path d="M38.5447 50.25C38.7931 50.2491 39.0362 50.3219 39.2433 50.4593C39.4503 50.5966 39.6119 50.7923 39.7077 51.0215C39.8034 51.2508 39.829 51.5033 39.7811 51.7471C39.7333 51.9909 39.6142 52.215 39.4389 52.391C39.2636 52.5671 39.04 52.6872 38.7965 52.7361C38.5529 52.785 38.3003 52.7606 38.0706 52.6658C37.8409 52.5711 37.6445 52.4104 37.5063 52.2039C37.368 51.9975 37.2941 51.7547 37.2939 51.5063C37.2935 51.1739 37.4249 50.8549 37.6594 50.6194C37.8939 50.3838 38.2123 50.251 38.5447 50.25Z" fill="white"/>
<path d="M34.9688 50.25C35.2171 50.2498 35.4598 50.3233 35.6664 50.4611C35.8729 50.5988 36.034 50.7948 36.1291 51.0241C36.2243 51.2534 36.2494 51.5058 36.2011 51.7493C36.1528 51.9929 36.0335 52.2167 35.858 52.3924C35.6826 52.568 35.459 52.6878 35.2155 52.7364C34.972 52.785 34.7196 52.7603 34.4902 52.6655C34.2607 52.5706 34.0645 52.4099 33.9264 52.2035C33.7883 51.9972 33.7145 51.7546 33.7144 51.5063C33.7142 51.3414 33.7466 51.1781 33.8096 51.0258C33.8725 50.8734 33.9649 50.735 34.0814 50.6183C34.1979 50.5017 34.3362 50.4091 34.4884 50.3459C34.6407 50.2827 34.8039 50.2501 34.9688 50.25Z" fill="white"/>
<path d="M31.3975 50.25C31.6459 50.2496 31.8887 50.3229 32.0954 50.4606C32.302 50.5983 32.4632 50.7942 32.5586 51.0235C32.6539 51.2528 32.6791 51.5052 32.6309 51.7488C32.5827 51.9924 32.4634 52.2162 32.288 52.392C32.1126 52.5678 31.889 52.6876 31.6455 52.7363C31.402 52.785 31.1496 52.7604 30.9201 52.6656C30.6906 52.5708 30.4943 52.41 30.3562 52.2036C30.2181 51.9973 30.1442 51.7546 30.144 51.5063C30.144 51.1736 30.276 50.8544 30.511 50.6189C30.746 50.3834 31.0648 50.2507 31.3975 50.25Z" fill="white"/>
<path d="M29.3085 92.6075C29.3347 92.6163 29.3574 92.6331 29.3735 92.6556C29.3896 92.678 29.3983 92.7049 29.3983 92.7326C29.3983 92.7602 29.3896 92.7871 29.3735 92.8096C29.3574 92.832 29.3347 92.8488 29.3085 92.8576L28.895 92.9989C28.7236 93.0573 28.5679 93.1542 28.4399 93.2822C28.3119 93.4102 28.2149 93.5659 28.1565 93.7373L28.0153 94.1527C28.0065 94.1789 27.9897 94.2016 27.9672 94.2177C27.9448 94.2338 27.9179 94.2425 27.8902 94.2425C27.8626 94.2425 27.8357 94.2338 27.8132 94.2177C27.7908 94.2016 27.774 94.1789 27.7652 94.1527L27.623 93.7373C27.5649 93.5658 27.468 93.41 27.34 93.2819C27.2119 93.1539 27.0561 93.057 26.8846 92.9989L26.4692 92.8576C26.443 92.8488 26.4203 92.832 26.4042 92.8096C26.3881 92.7871 26.3794 92.7602 26.3794 92.7326C26.3794 92.7049 26.3881 92.678 26.4042 92.6556C26.4203 92.6331 26.443 92.6163 26.4692 92.6075L26.8846 92.4663C27.0561 92.4082 27.212 92.3114 27.34 92.1833C27.4681 92.0552 27.5649 91.8994 27.623 91.7278L27.7652 91.3125C27.774 91.2863 27.7908 91.2635 27.8132 91.2474C27.8357 91.2313 27.8626 91.2227 27.8902 91.2227C27.9179 91.2227 27.9448 91.2313 27.9672 91.2474C27.9897 91.2635 28.0065 91.2863 28.0153 91.3125L28.1565 91.7278C28.2148 91.8993 28.3117 92.055 28.4397 92.1831C28.5678 92.3111 28.7235 92.408 28.895 92.4663L29.3085 92.6075Z" fill="white"/>
<path d="M22.4531 72.4102C22.6747 72.4102 22.8914 72.4759 23.0757 72.599C23.2599 72.7221 23.4036 72.8971 23.4884 73.1019C23.5732 73.3067 23.5954 73.532 23.5521 73.7494C23.5089 73.9667 23.4022 74.1664 23.2455 74.3231C23.0888 74.4798 22.8891 74.5865 22.6717 74.6298C22.4543 74.673 22.229 74.6508 22.0243 74.566C21.8195 74.4812 21.6445 74.3376 21.5214 74.1533C21.3982 73.969 21.3325 73.7524 21.3325 73.5307C21.3325 73.2335 21.4506 72.9485 21.6607 72.7384C21.8709 72.5282 22.1559 72.4102 22.4531 72.4102Z" fill="white"/>
<path d="M22.1476 53.8835C22.3225 53.9637 22.4604 54.1075 22.5331 54.2856C22.6058 54.4638 22.6079 54.6629 22.539 54.8426C22.489 54.9636 22.408 55.0693 22.3041 55.149C22.2002 55.2288 22.0772 55.2797 21.9473 55.2967C21.8547 55.3079 21.7609 55.3019 21.6704 55.2792L19.4136 54.6977C19.2768 54.667 19.1491 54.6047 19.0406 54.5159C18.9321 54.4271 18.8459 54.3142 18.7888 54.1862C18.7317 54.0581 18.7052 53.9185 18.7116 53.7785C18.718 53.6385 18.757 53.5018 18.8256 53.3795L19.241 52.6559C19.2772 52.5922 19.3 52.5217 19.308 52.4488C19.3159 52.376 19.3088 52.3023 19.2871 52.2322C19.2654 52.1622 19.2295 52.0974 19.1817 52.0419C19.1339 51.9863 19.0752 51.9411 19.0093 51.9091L18.4434 51.6322C18.2686 51.5522 18.1308 51.4086 18.0581 51.2306C17.9854 51.0526 17.9832 50.8536 18.0521 50.6741C18.1204 50.5091 18.2459 50.3741 18.4056 50.294C18.5652 50.2138 18.7484 50.1937 18.9216 50.2375L21.1794 50.819C21.4002 50.8742 21.5928 51.0091 21.7202 51.1977C21.8477 51.3863 21.9009 51.6153 21.8698 51.8408C21.8532 51.9454 21.8179 52.0461 21.7655 52.138L21.351 52.8617C21.3146 52.9254 21.2918 52.996 21.2838 53.0689C21.2759 53.1418 21.2831 53.2156 21.3049 53.2857C21.3267 53.3558 21.3627 53.4206 21.4107 53.4761C21.4586 53.5316 21.5175 53.5767 21.5836 53.6085L22.1476 53.8835Z" fill="white"/>
</g>
<defs>
<linearGradient id="paint0_linear_216_9118" x1="175.37" y1="64.3751" x2="-172.629" y2="64.498" gradientUnits="userSpaceOnUse">
<stop stop-color="#0B4383"/>
<stop offset="1" stop-color="#A2C3FF" stop-opacity="0"/>
</linearGradient>
<linearGradient id="paint1_linear_216_9118" x1="78.1275" y1="35.176" x2="78.1275" y2="61.7847" gradientUnits="userSpaceOnUse">
<stop stop-color="#81ECF2"/>
<stop offset="1" stop-color="#81ECF2" stop-opacity="0"/>
</linearGradient>
<linearGradient id="paint2_linear_216_9118" x1="55.0698" y1="43.326" x2="101.185" y2="43.326" gradientUnits="userSpaceOnUse">
<stop stop-color="#81ECF2"/>
<stop offset="1" stop-color="#81ECF2" stop-opacity="0"/>
</linearGradient>
<linearGradient id="paint3_linear_216_9118" x1="56.7241" y1="46.0858" x2="56.7241" y2="79.2629" gradientUnits="userSpaceOnUse">
<stop stop-color="#81ECF2"/>
<stop offset="1" stop-color="#81ECF2" stop-opacity="0"/>
</linearGradient>
<linearGradient id="paint4_linear_216_9118" x1="44.5044" y1="97.562" x2="68.9403" y2="97.562" gradientUnits="userSpaceOnUse">
<stop stop-color="#81ECF2"/>
<stop offset="1" stop-color="#81ECF2" stop-opacity="0"/>
</linearGradient>
<linearGradient id="paint5_linear_216_9118" x1="40.8828" y1="41.698" x2="40.8828" y2="61.393" gradientUnits="userSpaceOnUse">
<stop stop-color="#81ECF2"/>
<stop offset="1" stop-color="#81ECF2" stop-opacity="0"/>
</linearGradient>
<clipPath id="clip0_216_9118">
<rect width="84" height="63.1392" fill="white" transform="translate(18 37)"/>
</clipPath>
</defs>
</svg>
