<svg width="56" height="56" viewBox="0 0 56 56" fill="none" xmlns="http://www.w3.org/2000/svg">
<path fill-rule="evenodd" clip-rule="evenodd" d="M33.1159 48.706L31.9377 42.5078H24.3843L22.9424 48.706H33.1159Z" fill="white"/>
<path d="M19.3477 49.9062H36.7127V52.4026H19.3477V49.9062Z" fill="white"/>
<path fill-rule="evenodd" clip-rule="evenodd" d="M31.7019 10.4016L14.6463 9.28643L14.3949 9.26999L12.3648 9.13714L12.3109 9.13356L9.66762 8.96053C7.79829 8.69512 7.79829 5.9958 9.66762 5.73039L12.3109 5.55735L12.3648 5.55378L14.3949 5.42093L14.6463 5.40448L31.7019 4.28906V10.4016Z" fill="white"/>
<path fill-rule="evenodd" clip-rule="evenodd" d="M38.3931 31.2184V19.4197C38.3931 19.3103 38.348 19.2103 38.2752 19.1375C38.2024 19.0647 38.1024 19.0195 37.993 19.0195H18.0642C17.9548 19.0195 17.8547 19.0647 17.782 19.1375C17.7093 19.2103 17.6641 19.3103 17.6641 19.4197V31.2179L22.7691 23.8426C22.7715 23.839 22.774 23.8353 22.7765 23.8319C22.7967 23.8024 22.8197 23.7745 22.8456 23.7488C22.8465 23.7479 22.8473 23.7471 22.8482 23.7462C22.8732 23.7215 22.9002 23.6991 22.9287 23.6797C22.9566 23.6603 22.986 23.6435 23.0164 23.6294C23.0174 23.6289 23.0184 23.6285 23.0194 23.6279C23.0984 23.5916 23.1828 23.5739 23.2665 23.5737H23.2679C23.3531 23.5737 23.4391 23.5919 23.5196 23.6292C23.5498 23.6432 23.5791 23.66 23.6074 23.6796C23.6369 23.6997 23.6646 23.7227 23.6905 23.7486L23.6931 23.7512C23.7178 23.7762 23.7401 23.8033 23.7595 23.8317C23.7621 23.8351 23.7646 23.8389 23.767 23.8424L29.447 32.0485L33.4696 25.6298C33.5129 25.5495 33.5754 25.4777 33.6558 25.4223C33.9272 25.2349 34.2991 25.3031 34.4866 25.5745L38.3931 31.2184ZM31.1771 21.6462C31.6358 22.105 31.9203 22.7385 31.9203 23.4366C31.9203 24.1347 31.6358 24.7682 31.1771 25.227C30.7183 25.6857 30.0848 25.9702 29.3867 25.9702C28.6887 25.9702 28.0552 25.6857 27.5964 25.227C27.1377 24.7682 26.8531 24.1346 26.8531 23.4366C26.8531 22.7385 27.1376 22.105 27.5963 21.6462C28.0551 21.1875 28.6886 20.903 29.3867 20.903C30.0848 20.903 30.7183 21.1875 31.1771 21.6462Z" fill="white"/>
<path fill-rule="evenodd" clip-rule="evenodd" d="M30.7223 23.4369C30.7223 23.0695 30.5722 22.7358 30.3302 22.4937C30.0881 22.2516 29.7543 22.1016 29.387 22.1016C29.0196 22.1016 28.6858 22.2517 28.4439 22.4937C28.2018 22.7356 28.0518 23.0695 28.0518 23.4369C28.0518 23.8042 28.2019 24.1379 28.444 24.38C28.6861 24.6221 29.0199 24.7723 29.3871 24.7723C29.7545 24.7723 30.0883 24.6221 30.3304 24.3802C30.5722 24.1379 30.7223 23.8042 30.7223 23.4369Z" fill="white"/>
<path fill-rule="evenodd" clip-rule="evenodd" d="M28.3299 32.5318L23.2679 25.2188L18.2061 32.5318H28.3299Z" fill="white"/>
<path fill-rule="evenodd" clip-rule="evenodd" d="M37.8513 32.5355L34.0199 27L30.5508 32.5355H37.8513Z" fill="white"/>
<path fill-rule="evenodd" clip-rule="evenodd" d="M49.4372 36.1505V16.3681C49.4372 16.1024 49.3295 15.8619 49.1555 15.688C48.9815 15.5139 48.7409 15.4062 48.4752 15.4062H7.58293C7.31723 15.4062 7.0767 15.5139 6.90281 15.688C6.72877 15.862 6.62109 16.1025 6.62109 16.3681V36.1505H49.4372ZM39.5921 19.4215V32.1353C39.5921 32.5754 39.4124 32.9753 39.123 33.2647C38.8336 33.5541 38.4339 33.7337 37.9936 33.7337H18.0649C17.6247 33.7337 17.2249 33.554 16.9354 33.2647C16.646 32.9754 16.4664 32.5756 16.4664 32.1354V19.4216C16.4664 18.9815 16.6461 18.5816 16.9354 18.2922C17.2249 18.0029 17.6246 17.8231 18.0649 17.8231H37.9936C38.4337 17.8231 38.8336 18.0027 39.123 18.2922C39.4124 18.5815 39.5921 18.9813 39.5921 19.4215Z" fill="white"/>
<path fill-rule="evenodd" clip-rule="evenodd" d="M49.4372 37.3477H6.62109V40.3519C6.62109 40.6176 6.72877 40.8581 6.90281 41.032C7.07684 41.206 7.31737 41.3137 7.58307 41.3137H48.4755C48.7412 41.3137 48.9817 41.206 49.1556 41.0321C49.3297 40.8581 49.4374 40.6177 49.4374 40.3521V37.3477H49.4372ZM36.3675 39.9297C36.0366 39.9297 35.7683 39.6614 35.7683 39.3305C35.7683 38.9996 36.0366 38.7313 36.3675 38.7313H37.6226C37.9535 38.7313 38.2218 38.9996 38.2218 39.3305C38.2218 39.6614 37.9535 39.9297 37.6226 39.9297H36.3675ZM40.201 39.3305C40.201 38.9996 40.4692 38.7313 40.8001 38.7313H42.0556C42.3865 38.7313 42.6547 38.9996 42.6547 39.3305C42.6547 39.6614 42.3865 39.9297 42.0556 39.9297H40.8001C40.4692 39.9297 40.201 39.6614 40.201 39.3305ZM44.6339 39.3305C44.6339 38.9996 44.9022 38.7313 45.2331 38.7313H46.4884C46.8193 38.7313 47.0875 38.9996 47.0875 39.3305C47.0875 39.6614 46.8193 39.9297 46.4884 39.9297H45.2331C44.9022 39.9297 44.6339 39.6614 44.6339 39.3305Z" fill="white"/>
<path fill-rule="evenodd" clip-rule="evenodd" d="M32.9004 4.85156H35.0251V9.84321H32.9004V4.85156Z" fill="white"/>
<path fill-rule="evenodd" clip-rule="evenodd" d="M38.6609 10.924C40.4816 10.924 44.8253 8.44118 46.6484 7.34879C44.8256 6.25653 40.4817 3.77344 38.6609 3.77344C38.1552 3.77344 37.6737 3.85938 37.2325 4.01611C36.8662 4.14625 36.5264 4.32557 36.2227 4.54508V10.1522C36.5265 10.3717 36.8665 10.551 37.233 10.6813C37.674 10.8381 38.1553 10.924 38.6609 10.924Z" fill="white"/>
</svg>
