<svg width="56" height="56" viewBox="0 0 56 56" fill="none" xmlns="http://www.w3.org/2000/svg">
<g clip-path="url(#clip0_2087_777)">
<path d="M50.7535 2.03906H5.24637C2.52311 2.03906 0.307617 4.25683 0.307617 6.98268V11.7508H55.6922V6.98268C55.6922 4.25683 53.4767 2.03906 50.7535 2.03906ZM7.71077 8.70069H5.28877C4.39267 8.70069 3.66617 7.9742 3.66617 7.07809C3.66617 6.18198 4.39267 5.45549 5.28877 5.45549H7.71077C8.60687 5.45549 9.33336 6.18198 9.33336 7.07809C9.33336 7.9742 8.60687 8.70069 7.71077 8.70069ZM14.9487 8.70069H12.5267C11.6306 8.70069 10.9041 7.9742 10.9041 7.07809C10.9041 6.18198 11.6306 5.45549 12.5267 5.45549H14.9487C15.8448 5.45549 16.5713 6.18198 16.5713 7.07809C16.5713 7.9742 15.8448 8.70069 14.9487 8.70069ZM22.1866 8.70069H19.7646C18.8685 8.70069 18.142 7.9742 18.142 7.07809C18.142 6.18198 18.8685 5.45549 19.7646 5.45549H22.1866C23.0827 5.45549 23.8092 6.18198 23.8092 7.07809C23.8092 7.9742 23.0827 8.70069 22.1866 8.70069Z" fill="white"/>
<path d="M0.307617 39.8607C0.307617 42.5865 2.52311 44.8043 5.24637 44.8043H50.7535C53.4767 44.8043 55.6922 42.5866 55.6922 39.8607V14.9961H0.307617V39.8607ZM34.8491 25.18C34.2379 24.5247 34.2737 23.498 34.9291 22.8868C35.5843 22.2755 36.611 22.3114 37.2223 22.9667L42.7574 28.9016C43.3388 29.5249 43.3388 30.4917 42.7574 31.115L37.2223 37.0499C36.9028 37.3925 36.4697 37.5659 36.0353 37.5659C35.639 37.5659 35.2418 37.4216 34.9291 37.1299C34.2736 36.5187 34.2378 35.492 34.8491 34.8367L39.352 30.0084L34.8491 25.18ZM24.4583 35.4383L28.3447 23.5685C28.6235 22.7168 29.54 22.2527 30.3916 22.5313C31.2433 22.8102 31.7077 23.7266 31.4288 24.5783L27.5425 36.4481C27.3185 37.1321 26.6834 37.5662 26.0008 37.5662C25.8334 37.5662 25.6633 37.5401 25.4956 37.4852C24.6439 37.2064 24.1796 36.29 24.4583 35.4383ZM13.2424 28.9016L18.7775 22.9667C19.3887 22.3116 20.4156 22.2755 21.0708 22.8868C21.7262 23.498 21.762 24.5247 21.1507 25.18L16.6478 30.0082L21.1507 34.8366C21.7619 35.4919 21.7261 36.5186 21.0708 37.1298C20.7582 37.4215 20.3607 37.5658 19.9645 37.5658C19.5302 37.5658 19.0971 37.3925 18.7775 37.0498L13.2424 31.1149C12.6611 30.4917 12.6611 29.5249 13.2424 28.9016Z" fill="white"/>
<path d="M40.0471 50.7183H37.7742L36.8515 48.0508H19.1464L18.2237 50.7183H15.9507C15.0546 50.7183 14.3281 51.4448 14.3281 52.3409C14.3281 53.2371 15.0546 53.9635 15.9507 53.9635H40.0472C40.9434 53.9635 41.6698 53.2371 41.6698 52.3409C41.6697 51.4448 40.9434 50.7183 40.0471 50.7183Z" fill="white"/>
</g>
<defs>
<clipPath id="clip0_2087_777">
<rect width="55.3846" height="55.3846" fill="white" transform="translate(0.307617 0.308594)"/>
</clipPath>
</defs>
</svg>
