<svg width="56" height="56" viewBox="0 0 56 56" fill="none" xmlns="http://www.w3.org/2000/svg">
<path fill-rule="evenodd" clip-rule="evenodd" d="M46.2393 50.7947C46.2393 51.4157 46.0551 52.0228 45.7101 52.5392C45.3651 53.0556 44.8747 53.4581 44.301 53.6957C43.7272 53.9334 43.0959 53.9956 42.4868 53.8744C41.8777 53.7533 41.3182 53.4542 40.879 53.0151C40.4399 52.576 40.1409 52.0165 40.0197 51.4074C39.8985 50.7983 39.9607 50.1669 40.1984 49.5932C40.4361 49.0194 40.8385 48.529 41.3549 48.184C41.8713 47.839 42.4784 47.6549 43.0994 47.6549C43.9322 47.6549 44.7308 47.9857 45.3196 48.5745C45.9084 49.1633 46.2393 49.962 46.2393 50.7947ZM27.2947 23.5065H37.1768C37.5685 23.5077 37.9438 23.6638 38.2207 23.9408C38.4977 24.2177 38.6538 24.593 38.655 24.9846V28.1757C38.6539 28.5674 38.4977 28.9428 38.2207 29.2197C37.9438 29.4967 37.5684 29.6528 37.1767 29.654H35.6572V31.136C35.6561 31.5054 35.5089 31.8594 35.2477 32.1206C34.9865 32.3819 34.6326 32.5292 34.2632 32.5304H30.2089C29.8393 32.5294 29.4852 32.3821 29.2239 32.1208C28.9626 31.8595 28.8153 31.5054 28.8142 31.1359V29.6539H27.2947C26.903 29.6528 26.5277 29.4967 26.2507 29.2197C25.9737 28.9427 25.8176 28.5674 25.8164 28.1757V24.9846C25.8175 24.5929 25.9736 24.2176 26.2506 23.9406C26.5276 23.6636 26.903 23.5075 27.2947 23.5063V23.5065ZM51.6021 42.2284H19.0403C18.2966 42.2337 17.5774 41.9628 17.022 41.4682C16.4666 40.9736 16.1146 40.2904 16.034 39.5511L12.5926 9.00853C12.3769 7.11898 11.4748 5.37443 10.0576 4.10615C8.64042 2.83787 6.80684 2.13419 4.90502 2.12873H4.3978C4.08663 2.12662 3.77811 2.18609 3.49002 2.30371C3.20192 2.42133 2.93994 2.59478 2.71916 2.81407C2.49838 3.03337 2.32316 3.29417 2.20359 3.58146C2.08402 3.86875 2.02246 4.17685 2.02246 4.48803C2.02246 4.79922 2.08402 5.10732 2.20359 5.39461C2.32316 5.6819 2.49838 5.9427 2.71916 6.162C2.93994 6.38129 3.20192 6.55474 3.49002 6.67236C3.77811 6.78998 4.08663 6.84945 4.3978 6.84734H4.90502C5.6487 6.8421 6.36787 7.11301 6.92326 7.60761C7.47865 8.10221 7.83075 8.78531 7.91137 9.52463L11.3521 40.0672C11.5678 41.9568 12.47 43.7015 13.8873 44.9698C15.3046 46.2381 17.1383 46.9417 19.0402 46.947H51.6021C52.2279 46.947 52.828 46.6984 53.2705 46.256C53.7129 45.8135 53.9615 45.2134 53.9615 44.5876C53.9615 43.9619 53.7129 43.3618 53.2705 42.9193C52.828 42.4768 52.2279 42.2283 51.6021 42.2283V42.2284ZM47.7823 33.1903L51.6225 15.6889C51.9014 14.0002 50.762 12.511 48.6249 12.511H42.5986C42.3103 14.6732 41.4708 15.7473 40.3776 17.5302C39.4226 19.0871 38.9432 20.7166 38.7117 22.4177C39.1557 22.6832 39.5233 23.0592 39.7788 23.5091C40.0342 23.9589 40.1688 24.4673 40.1694 24.9846V28.1757C40.1681 28.969 39.8524 29.7294 39.2914 30.2904C38.7304 30.8513 37.97 31.167 37.1767 31.1683H37.1713C37.1617 31.9339 36.8512 32.665 36.3069 33.2034C35.7626 33.7419 35.0282 34.0445 34.2625 34.0457H30.2089C29.4432 34.0445 28.7088 33.7419 28.1645 33.2034C27.6201 32.665 27.3096 31.9339 27.3 31.1683H27.2947C26.5014 31.167 25.7409 30.8513 25.18 30.2904C24.619 29.7295 24.3033 28.969 24.302 28.1757V24.9846C24.3025 24.4671 24.4371 23.9586 24.6927 23.5086C24.9482 23.0586 25.316 22.6825 25.7601 22.4169C25.5282 20.7159 25.0488 19.0865 24.0943 17.5294C23.0011 15.7471 22.1617 14.673 21.8733 12.5107H14.5108L17.1827 36.2257H44.4518C46.1285 36.2257 47.3953 35.143 47.7823 33.1901V33.1903ZM32.2357 2.07031C31.0614 2.0703 29.8986 2.30158 28.8137 2.75096C27.7287 3.20034 26.743 3.85901 25.9126 4.68936C25.0822 5.51972 24.4236 6.50549 23.9742 7.59041C23.5248 8.67533 23.2935 9.83813 23.2935 11.0124C23.2935 15.9509 26.3104 15.7147 27.2195 21.9931C27.2444 21.9931 27.2695 21.9921 27.2946 21.9921H37.1768C37.2019 21.9921 37.227 21.9921 37.2519 21.9931C38.1606 15.7146 41.1779 15.9509 41.1779 11.0124C41.1779 9.83813 40.9466 8.67533 40.4972 7.59041C40.0479 6.50549 39.3892 5.51972 38.5588 4.68936C37.7285 3.85901 36.7427 3.20034 35.6577 2.75096C34.5728 2.30158 33.41 2.0703 32.2357 2.07031ZM38.2126 11.6102C38.2126 11.7143 38.1712 11.8142 38.0975 11.8878C38.0239 11.9614 37.924 12.0028 37.8199 12.0028C37.5584 12.0031 37.3029 12.0808 37.0856 12.2262C36.8683 12.3716 36.6989 12.5782 36.5988 12.8197C36.4988 13.0613 36.4725 13.3271 36.5234 13.5836C36.5743 13.8401 36.7 14.0758 36.8847 14.2609C36.9583 14.3345 36.9996 14.4344 36.9996 14.5385C36.9996 14.6426 36.9583 14.7425 36.8847 14.8161L36.0394 15.6614C35.9658 15.735 35.8659 15.7764 35.7618 15.7764C35.6576 15.7764 35.5578 15.735 35.4841 15.6614C35.299 15.4767 35.0634 15.351 34.8069 15.3001C34.5504 15.2492 34.2845 15.2755 34.043 15.3756C33.8014 15.4756 33.5949 15.645 33.4495 15.8624C33.3041 16.0797 33.2263 16.3353 33.226 16.5968C33.226 16.7009 33.1846 16.8007 33.111 16.8744C33.0373 16.948 32.9375 16.9893 32.8334 16.9893H31.638C31.5865 16.9894 31.5354 16.9792 31.4877 16.9595C31.4401 16.9398 31.3967 16.9109 31.3603 16.8745C31.3238 16.838 31.2948 16.7947 31.2751 16.7471C31.2553 16.6994 31.2452 16.6483 31.2452 16.5968C31.2452 16.3351 31.1676 16.0794 31.0223 15.8618C30.8769 15.6443 30.6703 15.4747 30.4286 15.3746C30.1869 15.2745 29.9209 15.2483 29.6643 15.2993C29.4077 15.3504 29.172 15.4764 28.9871 15.6614C28.9134 15.735 28.8136 15.7764 28.7094 15.7764C28.6053 15.7764 28.5054 15.735 28.4318 15.6614L27.5865 14.8161C27.5129 14.7425 27.4716 14.6426 27.4716 14.5385C27.4716 14.4344 27.5129 14.3345 27.5865 14.2609C27.7712 14.0758 27.8969 13.8401 27.9478 13.5836C27.9987 13.3271 27.9724 13.0613 27.8724 12.8197C27.7723 12.5781 27.6029 12.3716 27.3855 12.2262C27.1682 12.0808 26.9127 12.0031 26.6512 12.0028C26.5471 12.0028 26.4472 11.9614 26.3736 11.8878C26.3 11.8142 26.2586 11.7143 26.2586 11.6102V10.4148C26.2586 10.3107 26.3 10.2108 26.3736 10.1372C26.4472 10.0636 26.5471 10.0222 26.6512 10.0222C26.9127 10.0219 27.1682 9.94419 27.3855 9.79879C27.6029 9.6534 27.7723 9.44687 27.8724 9.20529C27.9724 8.9637 27.9987 8.69789 27.9478 8.44139C27.8969 8.1849 27.7712 7.94922 27.5865 7.76411C27.5129 7.69047 27.4716 7.59061 27.4716 7.48648C27.4716 7.38236 27.5129 7.2825 27.5865 7.20886L28.4327 6.36359C28.5063 6.28997 28.6062 6.24862 28.7103 6.24862C28.8144 6.24862 28.9143 6.28997 28.9879 6.36359C29.1731 6.54799 29.4087 6.67344 29.665 6.72414C29.9213 6.77484 30.1869 6.74852 30.4283 6.6485C30.6698 6.54848 30.8761 6.37923 31.0215 6.16209C31.1669 5.94495 31.2447 5.68963 31.2452 5.42833C31.2452 5.37677 31.2553 5.32571 31.275 5.27807C31.2947 5.23043 31.3237 5.18714 31.3601 5.15068C31.3966 5.11421 31.4398 5.08529 31.4875 5.06555C31.5351 5.04582 31.5862 5.03566 31.6377 5.03566H32.833C32.9372 5.03566 33.0371 5.07703 33.1107 5.15067C33.1843 5.22431 33.2257 5.32419 33.2257 5.42833C33.226 5.68981 33.3038 5.94534 33.4492 6.16267C33.5946 6.37999 33.8011 6.54937 34.0427 6.64943C34.2843 6.74949 34.5501 6.77574 34.8066 6.72487C35.063 6.67399 35.2987 6.54828 35.4838 6.36359C35.5575 6.28997 35.6573 6.24862 35.7614 6.24862C35.8656 6.24862 35.9654 6.28997 36.0391 6.36359L36.8843 7.20886C36.958 7.2825 36.9993 7.38236 36.9993 7.48648C36.9993 7.59061 36.958 7.69047 36.8843 7.76411C36.6996 7.94921 36.5739 8.18488 36.5231 8.44137C36.4722 8.69785 36.4984 8.96366 36.5985 9.20524C36.6986 9.44682 36.8679 9.65335 37.0853 9.79875C37.3026 9.94415 37.5581 10.0219 37.8196 10.0222C37.9237 10.0222 38.0236 10.0636 38.0972 10.1372C38.1709 10.2108 38.2122 10.3107 38.2123 10.4148L38.2126 11.6102ZM32.2357 8.09177C32.8134 8.09177 33.378 8.26306 33.8583 8.58399C34.3386 8.90492 34.713 9.36106 34.9341 9.89475C35.1551 10.4284 35.213 11.0157 35.1003 11.5822C34.9876 12.1488 34.7094 12.6692 34.3009 13.0777C33.8925 13.4861 33.3721 13.7643 32.8055 13.877C32.2389 13.9897 31.6517 13.9318 31.118 13.7108C30.5843 13.4897 30.1282 13.1154 29.8073 12.6351C29.4863 12.1548 29.315 11.5901 29.315 11.0124C29.315 10.2378 29.6227 9.49494 30.1705 8.94721C30.7182 8.39948 31.4611 8.09177 32.2357 8.09177ZM25.6453 50.7947C25.6453 51.4157 25.4611 52.0228 25.1161 52.5392C24.7711 53.0556 24.2807 53.458 23.707 53.6957C23.1333 53.9334 22.5019 53.9956 21.8928 53.8744C21.2837 53.7533 20.7242 53.4543 20.2851 53.0151C19.8459 52.576 19.5469 52.0165 19.4257 51.4074C19.3046 50.7983 19.3667 50.167 19.6044 49.5932C19.842 49.0195 20.2445 48.5291 20.7609 48.1841C21.2772 47.839 21.8843 47.6549 22.5053 47.6549C22.9177 47.6549 23.326 47.7361 23.7069 47.8939C24.0879 48.0516 24.434 48.2829 24.7256 48.5745C25.0172 48.866 25.2484 49.2122 25.4062 49.5931C25.564 49.9741 25.6453 50.3824 25.6453 50.7947Z" fill="white"/>
</svg>
